<svg width="16" height="14" viewBox="0 0 16 14" fill="none" xmlns="http://www.w3.org/2000/svg">
<path d="M10.0196 0.888596C9.62909 0.498072 8.99592 0.498072 8.6054 0.888596C8.21487 1.27912 8.21487 1.91229 8.6054 2.30281L10.0196 0.888596ZM14.5625 6.8457L15.2696 7.55281C15.4571 7.36527 15.5625 7.11092 15.5625 6.8457C15.5625 6.58049 15.4571 6.32613 15.2696 6.1386L14.5625 6.8457ZM8.60539 11.3886C8.21487 11.7791 8.21487 12.4123 8.60539 12.8028C8.99592 13.1933 9.62908 13.1933 10.0196 12.8028L8.60539 11.3886ZM2.14461 0.888596C1.75408 0.498072 1.12092 0.498072 0.730395 0.888596C0.339871 1.27912 0.339871 1.91229 0.730395 2.30281L2.14461 0.888596ZM6.6875 6.8457L7.39461 7.55281C7.58214 7.36527 7.6875 7.11092 7.6875 6.8457C7.6875 6.58049 7.58214 6.32613 7.39461 6.1386L6.6875 6.8457ZM0.730393 11.3886C0.339869 11.7791 0.339869 12.4123 0.730393 12.8028C1.12092 13.1933 1.75408 13.1933 2.14461 12.8028L0.730393 11.3886ZM8.6054 2.30281L13.8554 7.55281L15.2696 6.1386L10.0196 0.888596L8.6054 2.30281ZM13.8554 6.1386L8.60539 11.3886L10.0196 12.8028L15.2696 7.55281L13.8554 6.1386ZM0.730395 2.30281L5.98039 7.55281L7.39461 6.1386L2.14461 0.888596L0.730395 2.30281ZM5.98039 6.1386L0.730393 11.3886L2.14461 12.8028L7.39461 7.55281L5.98039 6.1386Z" fill="white"/>
</svg>
