<svg width="135" height="135" viewBox="0 0 135 135" fill="none" xmlns="http://www.w3.org/2000/svg">
<path d="M101.25 0H33.75C15.1104 0 0 15.1104 0 33.75V101.25C0 119.89 15.1104 135 33.75 135H101.25C119.89 135 135 119.89 135 101.25V33.75C135 15.1104 119.89 0 101.25 0Z" fill="url(#paint0_linear_23_92)"/>
<path d="M135 84.3426V101.25C135 105.682 134.127 110.071 132.431 114.166C130.735 118.261 128.249 121.981 125.115 125.115C121.981 128.249 118.261 130.735 114.166 132.431C110.071 134.127 105.682 135 101.25 135H86.1596L44.1206 92.961C46.0935 94.8774 48.3071 96.5293 50.7059 97.875C55.9304 100.829 61.8533 102.306 68.4746 102.306C76.5854 102.306 83.5298 100.18 89.3078 95.9283C95.0858 91.6767 98.9477 85.851 100.894 78.4512H82.5902C81.2267 81.3105 79.2962 83.4849 76.7987 84.9744C74.2985 86.4702 71.4581 87.2172 68.2775 87.2154C63.1502 87.2154 58.9967 85.4307 55.817 81.8613C52.6373 78.2919 51.047 73.521 51.0461 67.5486C51.0461 61.5789 52.6364 56.8089 55.817 53.2386C58.9976 49.6683 63.1511 47.8827 68.2775 47.8818C71.2698 47.8322 74.2179 48.6076 76.7987 50.1228C79.2962 51.6168 81.2267 53.7912 82.5902 56.646H100.894C99.4328 51.0948 96.8948 46.4211 93.2795 42.6249L135 84.3426Z" fill="url(#paint1_linear_23_92)"/>
<path d="M38.488 49.4892C41.3124 44.2975 45.5482 40.011 50.706 37.1251C55.9296 34.1731 61.8521 32.6965 68.4736 32.6954C76.5857 32.6954 83.5304 34.8374 89.3076 39.1214C95.0849 43.4054 98.9467 49.2464 100.893 56.6444H82.5903C81.2272 53.7893 79.2962 51.615 76.7975 50.1215C74.2173 48.6074 71.2701 47.8327 68.2789 47.8824C63.1509 47.8824 58.9971 49.6673 55.8174 53.237C52.6377 56.8068 51.0475 61.5768 51.0467 67.547C51.0467 73.5194 52.6369 78.2899 55.8174 81.8584C58.9978 85.4269 63.1516 87.2118 68.2789 87.213C71.4583 87.213 74.2978 86.4667 76.7975 84.9739C79.2971 83.4812 81.2281 81.3069 82.5903 78.451H100.893C98.9458 85.8501 95.084 91.6752 89.3076 95.9265C83.5313 100.178 76.5866 102.303 68.4736 102.303C61.8532 102.303 55.9307 100.827 50.706 97.8734C45.5573 94.9975 41.3229 90.7293 38.488 85.5579C35.5673 80.3007 34.1069 74.297 34.1069 67.547C34.1069 60.797 35.5673 54.7777 38.488 49.4892Z" fill="white"/>
<defs>
<linearGradient id="paint0_linear_23_92" x1="9.88524" y1="9.88524" x2="125.115" y2="125.115" gradientUnits="userSpaceOnUse">
<stop stop-color="#57CDFF"/>
<stop offset="1" stop-color="#0096D6"/>
</linearGradient>
<linearGradient id="paint1_linear_23_92" x1="54.9614" y1="54.0529" x2="125.569" y2="124.661" gradientUnits="userSpaceOnUse">
<stop stop-opacity="0.25"/>
<stop offset="1" stop-opacity="0"/>
</linearGradient>
</defs>
</svg>
