<svg width="25" height="24" viewBox="0 0 25 24" fill="none" xmlns="http://www.w3.org/2000/svg">
<rect x="0.341797" width="24" height="24" rx="6.43786" fill="white"/>
<g clip-path="url(#clip0_2484_9035)">
<path d="M21.3418 12C21.3418 7.02944 17.3124 3 12.3418 3C7.37123 3 3.3418 7.02944 3.3418 12C3.3418 16.9706 7.37123 21 12.3418 21C17.3124 21 21.3418 16.9706 21.3418 12Z" fill="#7524F9"/>
<path fill-rule="evenodd" clip-rule="evenodd" d="M17.6855 9.41288V10.006C17.6857 10.0634 17.6705 10.1197 17.6415 10.1694C17.6126 10.2191 17.5709 10.2604 17.5207 10.2891L15.5889 11.3925L17.3148 12.3756C17.4275 12.4401 17.5212 12.5329 17.5863 12.6446C17.6514 12.7563 17.6857 12.883 17.6855 13.012V14.5935C17.6857 14.7225 17.6515 14.8493 17.5864 14.9611C17.5213 15.0729 17.4276 15.1657 17.3148 15.2302L12.7759 17.8078C12.6632 17.8724 12.5353 17.9062 12.4051 17.9062C12.2749 17.9062 12.147 17.8724 12.0343 17.8078L10.5491 16.9586C10.524 16.9443 10.5032 16.9237 10.4887 16.8989C10.4743 16.874 10.4666 16.8459 10.4666 16.8172C10.4666 16.7886 10.4743 16.7604 10.4887 16.7356C10.5032 16.7108 10.524 16.6902 10.5491 16.6759L15.4517 13.8821C15.4642 13.8749 15.4746 13.8646 15.4818 13.8522C15.489 13.8398 15.4928 13.8258 15.4928 13.8115C15.4928 13.7972 15.489 13.7832 15.4818 13.7708C15.4746 13.7584 15.4642 13.7481 15.4517 13.7409L13.6316 12.6999C13.5815 12.6713 13.5247 12.6562 13.4668 12.6562C13.4089 12.6562 13.3521 12.6713 13.302 12.6999L8.32231 15.5398C8.28474 15.5613 8.24212 15.5726 8.19872 15.5726C8.15532 15.5726 8.1127 15.5613 8.07512 15.5398L7.5111 15.2204C7.39776 15.156 7.30361 15.0631 7.23821 14.9511C7.1728 14.839 7.13846 14.7119 7.13867 14.5825V13.9359C7.13864 13.8929 7.15005 13.8507 7.17175 13.8134C7.19345 13.7762 7.22467 13.7453 7.26227 13.7238L14.402 9.66131C14.4145 9.65414 14.4249 9.64384 14.4321 9.63145C14.4393 9.61906 14.4431 9.60503 14.4431 9.59073C14.4431 9.57644 14.4393 9.56239 14.4321 9.55002C14.4249 9.53763 14.4145 9.52733 14.402 9.52016L12.579 8.47547C12.5289 8.44684 12.472 8.43175 12.4142 8.43175C12.3563 8.43175 12.2995 8.44684 12.2494 8.47547L7.38586 11.2448C7.36083 11.2592 7.33243 11.2667 7.30351 11.2667C7.2746 11.2667 7.24619 11.2592 7.22115 11.2449C7.1961 11.2306 7.17529 11.21 7.16082 11.1852C7.14634 11.1605 7.1387 11.1323 7.13867 11.1037V9.40513C7.13852 9.27609 7.1727 9.14929 7.2378 9.03751C7.30289 8.92571 7.39659 8.83289 7.50946 8.76837L12.0475 6.19154C12.16 6.12747 12.2875 6.09375 12.4173 6.09375C12.547 6.09375 12.6745 6.12747 12.787 6.19154L17.3148 8.77734C17.4275 8.84176 17.521 8.93439 17.5861 9.04595C17.6512 9.1575 17.6855 9.28405 17.6855 9.41288Z" fill="white"/>
</g>
<defs>
<clipPath id="clip0_2484_9035">
<rect width="18" height="18" fill="white" transform="translate(3.3418 3)"/>
</clipPath>
</defs>
</svg>
