<svg width="40" height="40" viewBox="0 0 40 40" fill="none" xmlns="http://www.w3.org/2000/svg">
<rect width="40" height="40" rx="12" fill="#C6C6C6"/>
<rect width="40" height="40" rx="12" fill="url(#paint0_linear_1272_32466)" style="mix-blend-mode:overlay"/>
<rect width="40" height="40" rx="12" fill="url(#paint1_linear_1272_32466)" fill-opacity="0.5" style="mix-blend-mode:overlay"/>
<rect width="40" height="40" rx="12" fill="url(#paint2_linear_1272_32466)" fill-opacity="0.75" style="mix-blend-mode:overlay"/>
<path d="M10.7822 10.0313C11.6346 11.021 12.4769 11.9956 13.3318 12.9903C11.3429 14.9546 10.3271 17.3218 10.3372 20.1046C10.3447 21.8422 10.8375 23.5446 11.5767 24.7131C11.627 24.6728 11.6798 24.6375 11.7251 24.5947C13.3921 22.988 15.0566 21.3813 16.7186 19.7696C16.8066 19.684 16.877 19.5732 16.9298 19.4624C17.7419 17.7122 18.5516 15.9594 19.3612 14.2092C19.3838 14.1588 19.4165 14.111 19.4894 14.0682C19.4894 14.1513 19.4894 14.2369 19.4894 14.32C19.4894 17.0096 19.4894 19.6966 19.4794 22.3862C19.4794 22.4995 19.409 22.643 19.3235 22.7236C17.6766 24.3253 16.0221 25.9219 14.3677 27.5185C14.3149 27.5688 14.252 27.6117 14.159 27.6822C15.5419 28.7499 17.0631 29.3594 18.7376 29.5734C21.5437 29.9335 24.1435 29.037 25.891 27.6343C25.7778 27.5512 25.6622 27.4857 25.5691 27.3951C23.9474 25.8388 22.3281 24.2774 20.7164 22.711C20.636 22.6329 20.5731 22.4995 20.5731 22.3912C20.5656 19.6815 20.5681 16.9693 20.5706 14.2596C20.5706 14.2041 20.5706 14.1462 20.5706 14.0908C20.5882 14.0858 20.6058 14.0833 20.6234 14.0782C20.6611 14.1538 20.6988 14.2268 20.734 14.3024C21.5437 16.0476 22.3508 17.7902 23.1629 19.5354C23.2006 19.6135 23.2534 19.689 23.3163 19.7495C24.9959 21.3763 26.678 22.9981 28.3576 24.6224C28.3777 24.6426 28.4028 24.6552 28.4456 24.6879C29.5041 22.7538 29.8762 20.7115 29.5443 18.5482C29.2124 16.385 28.2293 14.5466 26.6528 12.9928C27.5052 12.0006 28.35 11.021 29.215 10.0137C30.54 11.2577 31.586 12.673 32.3328 14.3024C33.6201 17.1128 33.9344 20.0391 33.2404 23.0459C31.8626 29.0219 26.7182 33.3005 20.6108 33.5876C14.5789 33.8722 9.01964 30.072 7.10622 24.3454C5.18525 18.5885 7.41548 12.9903 10.7822 10.0313Z" fill="#4B4D4F"/>
<path d="M14.0398 12.381C13.19 11.3939 12.3451 10.4142 11.4727 9.40188C12.7047 8.41973 14.0398 7.67683 15.5082 7.16813C18.1483 6.25398 20.816 6.15073 23.5164 6.87097C25.3519 7.36204 27.0089 8.20316 28.5125 9.39936C27.645 10.4042 26.7977 11.3863 25.9428 12.3785C24.1727 11.0489 22.1964 10.3261 19.9863 10.3362C17.7862 10.3462 15.8099 11.0388 14.0398 12.381Z" fill="#F99C1F"/>
<defs>
<linearGradient id="paint0_linear_1272_32466" x1="1.30718e-06" y1="-16.8926" x2="31.5053" y2="40" gradientUnits="userSpaceOnUse">
<stop stop-color="white"/>
<stop offset="1" stop-color="white" stop-opacity="0"/>
</linearGradient>
<linearGradient id="paint1_linear_1272_32466" x1="20" y1="32.5557" x2="20" y2="38.5308" gradientUnits="userSpaceOnUse">
<stop stop-opacity="0"/>
<stop offset="1"/>
</linearGradient>
<linearGradient id="paint2_linear_1272_32466" x1="7.25259" y1="-6.50903" x2="12.9332" y2="21.6002" gradientUnits="userSpaceOnUse">
<stop stop-color="white"/>
<stop offset="1" stop-color="white" stop-opacity="0"/>
</linearGradient>
</defs>
</svg>
