<svg width="19" height="18" viewBox="0 0 19 18" fill="none" xmlns="http://www.w3.org/2000/svg">
<g clip-path="url(#clip0_5166_24194)">
<path d="M18.1035 14.25C18.1035 14.4489 18.0221 14.6397 17.8772 14.7803C17.7323 14.921 17.5357 15 17.3308 15H8.05806C7.85312 15 7.65658 14.921 7.51166 14.7803C7.36675 14.6397 7.28533 14.4489 7.28533 14.25C7.28533 13.0565 7.77381 11.9119 8.64329 11.068C9.51278 10.2241 10.6921 9.75 11.9217 9.75H13.4672C14.6968 9.75 15.8761 10.2241 16.7456 11.068C17.615 11.9119 18.1035 13.0565 18.1035 14.25ZM12.6944 3C12.0831 3 11.4855 3.17595 10.9772 3.50559C10.4689 3.83524 10.0727 4.30377 9.8388 4.85195C9.60485 5.40013 9.54364 6.00333 9.66291 6.58527C9.78217 7.16721 10.0766 7.70176 10.5088 8.12132C10.9411 8.54088 11.4918 8.8266 12.0914 8.94236C12.691 9.05811 13.3125 8.9987 13.8773 8.77164C14.4421 8.54458 14.9248 8.16006 15.2644 7.66671C15.6041 7.17336 15.7853 6.59334 15.7853 6C15.7853 5.20435 15.4597 4.44129 14.88 3.87868C14.3004 3.31607 13.5142 3 12.6944 3ZM5.73988 3C5.12856 3 4.53096 3.17595 4.02266 3.50559C3.51436 3.83524 3.1182 4.30377 2.88425 4.85195C2.65031 5.40013 2.5891 6.00333 2.70836 6.58527C2.82762 7.16721 3.12201 7.70176 3.55428 8.12132C3.98655 8.54088 4.5373 8.8266 5.13687 8.94236C5.73645 9.05811 6.35793 8.9987 6.92272 8.77164C7.48751 8.54458 7.97024 8.16006 8.30988 7.66671C8.64951 7.17336 8.83079 6.59334 8.83079 6C8.83079 5.20435 8.50514 4.44129 7.92548 3.87868C7.34582 3.31607 6.55964 3 5.73988 3ZM5.73988 14.25C5.73873 13.4622 5.89864 12.682 6.21035 11.9546C6.52206 11.2273 6.97937 10.5671 7.55579 10.0125C7.08407 9.83964 6.5841 9.75072 6.07988 9.75H5.39988C4.26104 9.75198 3.16943 10.192 2.36415 10.9736C1.55887 11.7552 1.10556 12.8147 1.10352 13.92V14.25C1.10352 14.4489 1.18493 14.6397 1.32984 14.7803C1.47476 14.921 1.6713 15 1.87624 15H5.87897C5.78901 14.7595 5.74197 14.5059 5.73988 14.25Z" fill="white"/>
</g>
<defs>
<clipPath id="clip0_5166_24194">
<rect width="18" height="18" fill="white" transform="translate(0.603516)"/>
</clipPath>
</defs>
</svg>
