<svg width="10" height="10" viewBox="0 0 10 10" fill="none" xmlns="http://www.w3.org/2000/svg">
<path fill-rule="evenodd" clip-rule="evenodd" d="M6.46082 1.31324H1.59126C1.43758 1.31324 1.31299 1.43782 1.31299 1.5915V6.46106C1.31299 6.61474 1.43758 6.73933 1.59126 6.73933H6.46082C6.6145 6.73933 6.73908 6.61474 6.73908 6.46106V1.5915C6.73908 1.43782 6.6145 1.31324 6.46082 1.31324ZM1.59126 0.200195C0.822859 0.200195 0.199951 0.823104 0.199951 1.5915V6.46106C0.199951 7.22946 0.822859 7.85237 1.59126 7.85237H6.46082C7.22922 7.85237 7.85213 7.22946 7.85213 6.46106V1.5915C7.85213 0.823104 7.22922 0.200195 6.46082 0.200195H1.59126Z" fill="white"/>
<path fill-rule="evenodd" clip-rule="evenodd" d="M9.24343 2.07846C9.55079 2.07846 9.79995 2.32762 9.79995 2.63498V7.15672C9.79995 8.61667 8.61643 9.8002 7.15647 9.8002H1.93908C1.63172 9.8002 1.38256 9.55103 1.38256 9.24367C1.38256 8.93632 1.63172 8.68715 1.93908 8.68715H7.15647C8.00171 8.68715 8.68691 8.00195 8.68691 7.15672V2.63498C8.68691 2.32762 8.93607 2.07846 9.24343 2.07846Z" fill="white"/>
</svg>
