<svg width="19" height="18" viewBox="0 0 19 18" fill="none" xmlns="http://www.w3.org/2000/svg">
<path fill-rule="evenodd" clip-rule="evenodd" d="M18.4448 11.1773C17.2426 15.9987 12.3584 18.9327 7.53581 17.7306C2.71549 16.5286 -0.219123 11.645 0.983356 6.82382C2.18499 2.00181 7.06888 -0.932734 11.8901 0.269322C16.7123 1.47138 19.6467 6.35554 18.4445 11.1773H18.4448Z" fill="#F3BA2F"/>
<path d="M7.48952 8.08602L9.714 5.8616L11.9396 8.08717L13.234 6.7928L9.714 3.27271L6.19522 6.79166L7.48952 8.08602ZM3.98682 8.9998L5.28122 7.7054L6.57554 8.99972L5.28115 10.2941L3.98682 8.9998ZM7.48952 9.91394L9.714 12.1384L11.9396 9.91285L13.2346 11.2065L13.234 11.2072L9.714 14.7273L6.1951 11.2084L6.19327 11.2066L7.48952 9.91394ZM12.8527 9.00051L14.1471 7.70611L15.4414 9.00043L14.147 10.2948L12.8527 9.00051Z" fill="white"/>
<path d="M11.0268 8.99923H11.0274L9.71397 7.68579L8.74331 8.65645H8.74325L8.63174 8.76802L8.40174 8.99808L8.3999 8.99986L8.40174 9.00175L9.71397 10.314L11.0274 9.0006L11.028 8.99986L11.0268 8.99923Z" fill="white"/>
</svg>
