<svg width="390" height="509" viewBox="0 0 390 509" fill="none" xmlns="http://www.w3.org/2000/svg">
<g filter="url(#filter0_b_749_26607)">
<mask id="path-1-inside-1_749_26607" fill="white">
<path fill-rule="evenodd" clip-rule="evenodd" d="M156.092 27C161.232 27 165.371 22.9881 167.385 18.2586C171.954 7.52524 182.598 0 195 0C207.402 0 218.046 7.52524 222.615 18.2586C224.629 22.9881 228.768 27 233.908 27H370C381.046 27 390 35.9543 390 47V517C390 522.523 385.523 527 380 527H10C4.47715 527 0 522.523 0 517V47C0 35.9543 8.95431 27 20 27H156.092Z"/>
</mask>
<path fill-rule="evenodd" clip-rule="evenodd" d="M156.092 27C161.232 27 165.371 22.9881 167.385 18.2586C171.954 7.52524 182.598 0 195 0C207.402 0 218.046 7.52524 222.615 18.2586C224.629 22.9881 228.768 27 233.908 27H370C381.046 27 390 35.9543 390 47V517C390 522.523 385.523 527 380 527H10C4.47715 527 0 522.523 0 517V47C0 35.9543 8.95431 27 20 27H156.092Z" fill="white" fill-opacity="0.1"/>
<path d="M222.615 18.2586L221.695 18.6503L222.615 18.2586ZM167.385 18.2586L166.465 17.8669L167.385 18.2586ZM168.305 18.6503C172.723 8.27271 183.013 1 195 1V-1C182.183 -1 171.185 6.77777 166.465 17.8669L168.305 18.6503ZM195 1C206.987 1 217.277 8.27271 221.695 18.6503L223.535 17.8669C218.815 6.77777 207.817 -1 195 -1V1ZM233.908 28H370V26H233.908V28ZM370 28C380.493 28 389 36.5066 389 47H391C391 35.402 381.598 26 370 26V28ZM389 47V517H391V47H389ZM380 526H10V528H380V526ZM1 517V47H-1V517H1ZM1 47C1 36.5066 9.50659 28 20 28V26C8.40202 26 -1 35.402 -1 47H1ZM20 28H156.092V26H20V28ZM10 526C5.02944 526 1 521.971 1 517H-1C-1 523.075 3.92487 528 10 528V526ZM221.695 18.6503C223.794 23.5797 228.211 28 233.908 28V26C229.325 26 225.464 22.3964 223.535 17.8669L221.695 18.6503ZM389 517C389 521.971 384.971 526 380 526V528C386.075 528 391 523.075 391 517H389ZM166.465 17.8669C164.536 22.3964 160.675 26 156.092 26V28C161.789 28 166.206 23.5797 168.305 18.6503L166.465 17.8669Z" fill="url(#paint0_linear_749_26607)" fill-opacity="0.3" mask="url(#path-1-inside-1_749_26607)"/>
</g>
<defs>
<filter id="filter0_b_749_26607" x="-60" y="-60" width="510" height="647" filterUnits="userSpaceOnUse" color-interpolation-filters="sRGB">
<feFlood flood-opacity="0" result="BackgroundImageFix"/>
<feGaussianBlur in="BackgroundImage" stdDeviation="30"/>
<feComposite in2="SourceAlpha" operator="in" result="effect1_backgroundBlur_749_26607"/>
<feBlend mode="normal" in="SourceGraphic" in2="effect1_backgroundBlur_749_26607" result="shape"/>
</filter>
<linearGradient id="paint0_linear_749_26607" x1="232.05" y1="17.3355" x2="62.3204" y2="473.837" gradientUnits="userSpaceOnUse">
<stop stop-color="white"/>
<stop offset="1" stop-color="white" stop-opacity="0.3"/>
</linearGradient>
</defs>
</svg>
