<svg width="16" height="14" viewBox="0 0 16 14" fill="none" xmlns="http://www.w3.org/2000/svg">
<path d="M15.9982 12.5002V2.84473C16.0006 2.82144 16.0006 2.79796 15.9982 2.77467C15.9997 2.75602 15.9997 2.73726 15.9982 2.71861L15.9631 2.66254L15.9211 2.60648H15.8721L15.809 2.56443C15.4227 2.42813 15.0298 2.3112 14.6318 2.21408V0.574475C14.6318 0.380987 14.475 0.224121 14.2815 0.224121C11.7998 0.249411 9.47546 1.44404 8.01035 3.44727C6.55931 1.44233 4.24209 0.245996 1.76724 0.224121C1.57375 0.224121 1.41689 0.380987 1.41689 0.574475V2.16504C1.01618 2.26335 0.620928 2.38264 0.232737 2.52239L0.16268 2.56443H0.11361L0.0715685 2.6205L0.0365233 2.67657C0.0350453 2.69522 0.0350453 2.71398 0.0365233 2.73263C0.0217103 2.75677 0.00995193 2.78265 0.00147801 2.80972V12.5072C-0.00049267 12.5282 -0.00049267 12.5492 0.00147801 12.5702C0.00716014 12.5871 0.0141889 12.6035 0.0224986 12.6193C0.0336001 12.6442 0.0477233 12.6678 0.0645398 12.6893V12.7314L0.120606 12.7734L0.176671 12.8085H0.225709H0.309791H0.365857H0.428918C2.90169 11.977 5.61877 12.3202 7.80714 13.7404L7.87021 13.7754H7.97531H8.08041H8.14347C10.3323 12.3822 13.0325 12.0501 15.4937 12.8715H15.5567H15.6128H15.6969H15.7459L15.809 12.8295L15.858 12.7944V12.7454C15.9156 12.7172 15.9642 12.6736 15.9982 12.6193C15.9998 12.6006 15.9998 12.5819 15.9982 12.5632C16.0001 12.5423 16.0001 12.5212 15.9982 12.5002ZM0.69519 12.0307V3.10397C0.914724 3.02922 1.14832 2.95916 1.39587 2.89377V9.9847C1.3955 10.1782 1.55207 10.3353 1.74556 10.3357C1.75279 10.3357 1.76001 10.3355 1.76721 10.3351L1.7742 10.3421C3.58657 10.3415 5.32524 11.0596 6.60894 12.339C4.72227 11.6025 2.64827 11.4944 0.69519 12.0307ZM7.66 12.4161C6.28897 10.7477 4.28088 9.73088 2.12459 9.61336V0.931858C4.36804 1.0837 6.41351 2.26956 7.66 4.14101V12.4161ZM8.3677 12.4441V4.14098C9.62605 2.27875 11.6686 1.09608 13.9101 0.931825H13.9171V9.64134C11.7575 9.761 9.74583 10.777 8.3677 12.4441ZM15.3185 12.0307C13.3673 11.4989 11.297 11.607 9.41174 12.339C10.7008 11.0582 12.4433 10.338 14.2605 10.3351C14.454 10.3351 14.6109 10.1782 14.6109 9.98473V2.89377C14.8444 2.9545 15.0803 3.02456 15.3186 3.10397V12.0307H15.3185Z" fill="white"/>
</svg>
