<svg width="40" height="40" viewBox="0 0 40 40" fill="none" xmlns="http://www.w3.org/2000/svg">
<rect width="40" height="40" rx="9.6" fill="url(#paint0_linear_1270_32025)"/>
<rect width="40" height="40" rx="9.6" fill="url(#paint1_linear_1270_32025)" fill-opacity="0.5" style="mix-blend-mode:overlay"/>
<rect width="40" height="40" rx="9.6" fill="url(#paint2_linear_1270_32025)" fill-opacity="0.75" style="mix-blend-mode:overlay"/>
<path fill-rule="evenodd" clip-rule="evenodd" d="M11.7299 22.9073C11.9876 23.0682 12.1536 23.2268 12.4027 23.4278L14.4222 25.3006C14.8436 25.7019 15.922 26.7909 16.3367 27.2737C16.6195 27.603 16.7427 27.638 16.9508 27.9626C16.8745 27.9913 15.931 28.2077 15.3822 28.3953C14.2412 28.7888 13.199 29.4183 12.2044 29.0807C12.0553 29.0303 11.3782 28.3835 11.0674 28.1648C10.8836 28.0353 10.7085 27.913 10.4973 27.7654C9.89177 27.3421 9.71827 27.6336 10.5225 25.7589C10.7329 25.2687 10.9108 24.8273 11.1126 24.3469C11.2877 23.9275 11.5285 23.2488 11.7315 22.9057L11.7299 22.9073ZM26.2398 11.5921C26.6553 11.7365 27.6625 12.3117 27.9092 12.6213C28.1173 12.8821 28.0571 12.9061 27.98 13.2815L27.5704 16.4868C27.0031 16.5073 27.1672 16.44 26.8154 16.2039C26.2253 15.8081 24.2018 14.3131 23.5519 13.789L22.3023 12.785C22.3944 12.6988 22.2705 12.7456 22.4786 12.6894L24.3277 12.2727C25.2913 12.0311 25.4408 11.9678 26.239 11.5921H26.2398ZM9.65571 12.2373C10.0794 11.9993 10.3053 12.1799 11.0201 11.6621C11.2118 11.5232 11.6524 11.537 11.9203 11.574C12.1977 11.6133 12.8363 12.1445 13.1294 12.3243C13.2985 12.4285 14.061 13.0104 14.1853 13.2118L14.5619 13.8197C15.0804 13.8453 14.9895 13.815 15.6438 14.2942L21.9089 18.4296C23.256 19.366 24.8278 20.3224 26.1828 21.2655L30.044 23.7917C29.9326 24.0313 29.802 24.8583 29.7292 25.1888C29.3948 26.7071 28.9742 27.35 28.2932 28.8084C27.3147 28.8478 26.5424 28.8395 25.5863 28.8242C25.2767 28.8191 25.353 28.884 25.1839 28.7199C24.624 28.1774 23.6058 26.9868 23.0396 26.438C22.8429 26.2484 22.6682 26.0705 22.4747 25.864C20.9096 24.1962 21.6504 24.6986 21.3443 24.2835L18.1949 21.3064C17.4717 20.6033 16.8206 19.8464 16.0731 19.0548C15.8811 18.8514 15.7847 18.6594 15.5844 18.4748L15.5289 18.4249C15.4993 18.3977 15.4717 18.3683 15.4463 18.3371L14.5316 17.2973C14.436 17.212 14.3477 17.119 14.2676 17.0191L13.4449 16.1701C13.2639 15.9805 13.1227 15.7841 12.9503 15.5799L12.1635 14.7459C12.0454 14.6278 11.9616 14.5916 11.8464 14.4704C11.4738 14.0829 11.159 13.7084 10.7813 13.3212C10.4788 13.01 9.74266 12.41 9.65571 12.2373ZM13.4327 7.5861L6.96894 7.71869C6.62035 9.00523 6.96894 8.35409 6.96894 9.69728V12.1291C6.91622 12.8314 6.73287 13.1914 6.73287 14.1286C6.73287 14.4433 6.66284 15.17 6.8151 15.4178C7.08421 15.8561 7.07752 16.2275 7.19083 16.8614C7.29155 17.424 7.40132 17.365 7.14756 17.7895L7.02953 18.8647L7.58034 19.4049L7.58427 20.3492C7.25575 20.6505 7.62361 20.4361 6.92841 20.9374L6.98861 23.791L7.67319 24.2879L7.52998 26.7197C6.80763 27.2375 6.96264 27.865 6.98585 28.5094L7.07398 30.935L6.91661 32.1778C8.53481 32.585 8.17993 32.4587 10.0291 32.4587C11.6634 32.4587 11.4525 32.4753 13.0676 32.2789L13.1093 32.5544C13.3599 32.5382 13.6184 32.5245 13.8651 32.5005C14.5524 32.4336 14.2778 32.3545 14.5146 32.2687C14.6858 32.2066 16.5275 32.6342 16.8269 32.6987C16.9921 32.5138 16.9079 32.5886 17.1385 32.4395C17.2628 32.7027 17.7955 33.305 18.0127 33.569L18.6815 32.9431L19.8485 33.3959L20.1904 33.1083C20.3233 33.2657 20.4048 33.4624 20.6428 33.4951C20.989 33.5403 21.0457 32.9667 21.8101 32.9521L26.2426 32.8042C26.2996 32.7491 26.3335 32.7168 26.3945 32.657L26.6211 32.4725C26.9122 32.648 27.0362 32.8168 27.4359 32.7904C28.6583 32.7094 28.0186 33.0863 29.5962 33.0017C29.8681 32.9871 29.8008 32.9202 30.0404 32.8357L30.5519 32.757C30.4406 32.4584 30.3693 32.5005 30.1478 32.2774L32.9554 32.8451C32.9161 29.5402 32.9251 25.5075 32.9668 22.107L32.2122 22.1637C32.2393 21.943 32.5663 22.026 32.5942 21.5822C32.6269 21.0227 32.621 19.1079 32.5395 18.6987C32.4978 18.4894 31.9651 17.8796 31.8231 17.6899C31.9923 17.2292 32.0092 17.2599 32.3228 16.8846C32.2964 16.6375 32.2386 16.5698 32.1323 16.2901L32.9554 16.0206C32.9644 15.5485 33.0176 13.6482 32.9869 13.0478L32.6517 9.80547L32.9066 8.9946L32.9161 8.16091C32.2079 7.75213 32.2995 7.70689 31.8062 7.71003C31.3632 7.71318 30.7667 7.68957 30.3418 7.592C29.7969 7.46728 29.9433 7.37876 29.3456 7.99213L29.0745 7.40197C28.2212 7.33863 25.4856 7.09863 24.8349 7.09863C24.0032 7.09863 24.1235 7.1608 23.8426 8.10544L22.6474 8.22937L22.49 7.71279L21.4084 7.70059L21.5229 7.5743C21.7346 7.37404 21.6602 7.45273 21.8259 7.09863H17.4753C17.3313 7.3646 17.0684 7.56682 16.7584 7.6699C16.3256 7.81351 16.5397 7.58177 16.2658 7.82728C16.0609 8.01101 16.0254 7.9996 15.7024 7.99331C15.2736 7.98465 14.8337 7.97088 14.4041 7.95396C14.2074 7.9457 13.989 7.96537 13.799 7.92052C13.5063 7.85167 13.5913 7.77574 13.4315 7.58649L13.4327 7.5861Z" fill="white"/>
<defs>
<linearGradient id="paint0_linear_1270_32025" x1="19.7848" y1="3.13345e-07" x2="19.7848" y2="40" gradientUnits="userSpaceOnUse">
<stop stop-color="#FE733B"/>
<stop offset="1" stop-color="#E51C1B"/>
</linearGradient>
<linearGradient id="paint1_linear_1270_32025" x1="20" y1="32.5557" x2="20" y2="38.5308" gradientUnits="userSpaceOnUse">
<stop stop-opacity="0"/>
<stop offset="1"/>
</linearGradient>
<linearGradient id="paint2_linear_1270_32025" x1="7.25259" y1="-6.50903" x2="12.9332" y2="21.6002" gradientUnits="userSpaceOnUse">
<stop stop-color="white"/>
<stop offset="1" stop-color="white" stop-opacity="0"/>
</linearGradient>
</defs>
</svg>
