<svg width="271" height="91" viewBox="0 0 271 91" fill="none" xmlns="http://www.w3.org/2000/svg">
<path d="M268.907 40.6021C269.101 46.1553 265.919 51.8021 259.446 57.2803C252.989 62.7447 243.456 67.8611 231.476 72.3245C207.533 81.2455 174.147 87.4377 137.006 88.7347C99.8661 90.0316 66.1289 86.1834 41.6219 78.9544C29.3604 75.3375 19.4932 70.8985 12.6711 65.8979C5.83152 60.8845 2.26349 55.4735 2.06956 49.9202C1.87564 44.367 5.05753 38.7202 11.5307 33.242C17.9874 27.7776 27.5209 22.6612 39.5002 18.1978C63.4433 9.27685 96.8299 3.08462 133.97 1.78765C171.11 0.490689 204.848 4.3389 229.355 11.568C241.616 15.1848 251.483 19.6238 258.305 24.6244C265.145 29.6378 268.713 35.0489 268.907 40.6021Z" stroke="url(#paint0_linear_4017_29420)" stroke-width="3"/>
<defs>
<linearGradient id="paint0_linear_4017_29420" x1="0.570475" y1="49.9726" x2="270.406" y2="40.5497" gradientUnits="userSpaceOnUse">
<stop stop-color="#FCCF31"/>
<stop offset="0.0001" stop-color="#D15B36"/>
<stop offset="1" stop-color="#DDB00F"/>
</linearGradient>
</defs>
</svg>
