<svg width="60" height="46" viewBox="0 0 60 46" fill="none" xmlns="http://www.w3.org/2000/svg">
<path d="M0 0.500488C1.52336 2.18531 3.0588 3.85843 4.58216 5.55495C16.3015 18.6279 28.0128 31.7047 39.7161 44.7855L40.3327 45.4992H19.4168C19.222 45.508 19.0279 45.4711 18.8511 45.3917C18.6743 45.3122 18.5199 45.1926 18.4012 45.0429L0 24.7315V0.500488Z" fill="white"/>
<path d="M34.8704 33.4239L59.8245 2.37177C59.8572 2.5575 59.8774 2.7451 59.8849 2.93338C59.8849 9.95346 59.8849 17.0008 59.8849 24.0755C59.8679 24.3873 59.7679 24.6896 59.5947 24.953C57.7691 27.6441 55.9677 30.3351 54.0454 33.0027C53.9593 33.1232 53.8481 33.225 53.719 33.3016C53.59 33.3781 53.4458 33.4278 53.2958 33.4473C47.3152 33.4473 41.3306 33.4473 35.3419 33.4473C35.221 33.4707 35.0639 33.4473 34.8704 33.4239Z" fill="white"/>
</svg>
