<svg width="31" height="60" viewBox="0 0 31 60" fill="none" xmlns="http://www.w3.org/2000/svg">
<path d="M16.8777 37.0459H16.2752V37.5804C16.6141 37.7261 16.9907 37.8111 17.0785 38.2484L16.7773 38.4913C16.7035 38.4509 16.6323 38.4063 16.5639 38.3577C16.3928 38.2166 16.1824 38.1274 15.9591 38.1015C15.7358 38.0756 15.5096 38.114 15.3088 38.212C15.0357 38.3454 14.7716 38.4955 14.5181 38.6614C14.4192 38.7198 14.3403 38.8051 14.2912 38.9066C14.2421 39.0081 14.225 39.1214 14.2419 39.2323C14.2419 39.9489 14.2419 40.6534 14.2419 41.37C14.2359 41.4874 14.2359 41.6049 14.2419 41.7223H17.2793V41.1878C17.2793 40.2283 17.2793 39.2687 17.2793 38.3091C17.3031 37.8555 17.1609 37.4082 16.8777 37.0459Z" fill="white"/>
<path d="M28.1503 21.1568C27.3037 20.6024 26.3657 20.1917 25.3765 19.9422C22.6329 19.2248 19.7552 19.1292 16.9672 19.6628C15.4513 19.758 14.0273 20.3994 12.9759 21.4605C12.9696 21.3553 12.9696 21.2499 12.9759 21.1447C12.9759 18.266 12.9759 15.3752 12.9759 12.4965C12.9552 12.2819 12.9783 12.0655 13.0441 11.8596C13.1098 11.6537 13.2169 11.4624 13.3591 11.2966C13.5013 11.1308 13.6759 10.9937 13.8729 10.8932C14.0699 10.7927 14.2854 10.7308 14.5072 10.711C15.1522 10.583 15.8197 10.608 16.4526 10.7839C16.8325 10.8382 17.1758 11.0333 17.41 11.3279C17.6441 11.6225 17.7509 11.9936 17.7077 12.3629V17.5858H30.2715C30.5351 17.5858 30.5727 17.5008 30.5727 17.27C30.5727 14.5735 30.5727 11.8649 30.5727 9.16841C30.59 8.22904 30.4085 7.29618 30.0394 6.42721C29.6703 5.55824 29.1214 4.77155 28.4265 4.11553C27.3833 3.12266 26.1572 2.32755 24.8117 1.77129C22.6969 0.88005 20.4455 0.330228 18.147 0.143681C14.9661 -0.195214 11.7474 0.0688256 8.67084 0.921046C6.75894 1.41764 4.97876 2.30386 3.44954 3.52036C2.56936 4.22013 1.86469 5.10402 1.38857 6.10548C0.912456 7.10694 0.677306 8.19988 0.700824 9.30202C0.700824 23.1245 0.700824 36.943 0.700824 50.7574C0.684966 51.7429 0.879687 52.7209 1.27278 53.6301C1.66587 54.5394 2.24884 55.3602 2.98514 56.0411C4.12042 57.0945 5.45983 57.9201 6.92623 58.4704C9.13599 59.327 11.4771 59.8236 13.8545 59.9401C16.9452 60.1538 20.0498 59.7994 23.0043 58.8955C24.8636 58.3434 26.5767 57.4068 28.0248 56.1504C28.8065 55.4924 29.4346 54.6809 29.8674 53.77C30.3001 52.859 30.5278 51.8694 30.5351 50.8668V25.6267C30.5645 24.7467 30.3608 23.874 29.9434 23.0916C29.526 22.3093 28.9087 21.6432 28.1503 21.1568ZM24.385 35.2952V35.8418C22.1172 35.8001 19.8625 36.1836 17.7454 36.9714V42.2429C17.3437 42.2429 17.0048 42.2429 16.6785 42.2429C15.8628 42.2705 15.0715 42.5188 14.3942 42.9595C14.2194 43.0626 14.0769 43.2098 13.9818 43.3852C13.8868 43.5606 13.8428 43.7577 13.8545 43.9555C13.8545 46.9314 13.8545 49.9072 13.8545 52.883V53.4539C13.729 53.4539 13.5909 53.4539 13.5156 53.5875C13.4483 53.6917 13.4015 53.807 13.3775 53.9276H10.2397L10.1142 53.5875H9.13524V52.4944L9.48667 52.4093C9.59963 51.8628 9.57453 33.2789 9.48667 32.878L9.13524 32.8052V32.0642L9.48667 31.9063V31.2747H10.2021L10.3527 30.9589H13.8419C13.8419 30.9589 13.9298 31.0439 13.9424 31.0925C14.0746 31.4209 14.3111 31.7002 14.6179 31.8901C14.9247 32.08 15.2858 32.1707 15.6493 32.1493C16.4519 32.1273 17.2399 31.9367 17.9587 31.5905C18.4378 31.3932 18.9032 31.166 19.3519 30.9103C20.0229 30.5001 20.7616 30.2043 21.5358 30.0358C22.3155 29.8571 23.1365 29.9837 23.8202 30.388C24.0127 30.4792 24.1727 30.6238 24.28 30.8033C24.3873 30.9829 24.437 31.1893 24.4226 31.3962C24.385 32.7201 24.4101 34.0198 24.4101 35.2952H24.385Z" fill="white"/>
</svg>
