<svg width="28" height="20" viewBox="0 0 28 20" fill="none" xmlns="http://www.w3.org/2000/svg">
<path d="M2.59879 1.30008C3.30349 0.910811 4.08271 0.665126 4.88873 0.57807C5.69474 0.491013 6.5106 0.564416 7.28635 0.793785C7.95439 0.967962 8.56673 1.30178 9.06738 1.76472C9.56803 2.22766 9.94101 2.80493 10.1522 3.44375C10.5965 5.14038 10.4966 6.9555 10.5021 8.71676C9.09139 8.71676 7.68624 8.71676 6.27553 8.71676C6.24776 7.25712 6.34218 5.78671 6.21999 4.33246C6.23399 4.23641 6.22677 4.13857 6.1988 4.04544C6.17083 3.9523 6.12275 3.866 6.05776 3.79226C5.99277 3.71853 5.91235 3.65904 5.82183 3.61774C5.73132 3.57645 5.63279 3.5543 5.53277 3.55276C5.43276 3.55122 5.33355 3.57033 5.24173 3.60881C5.14991 3.6473 5.06758 3.70428 5.00021 3.77599C4.93284 3.84769 4.88196 3.93246 4.85096 4.02469C4.81996 4.11692 4.80953 4.21449 4.82039 4.31092C4.67043 6.6054 4.78151 8.90528 4.74818 11.2051C4.78151 12.6702 4.66487 14.1567 4.84816 15.611C4.86871 15.7255 4.91926 15.833 4.99497 15.9232C5.07068 16.0133 5.169 16.0831 5.28051 16.1258C5.39201 16.1686 5.51296 16.1828 5.63176 16.1671C5.75057 16.1515 5.86323 16.1065 5.95895 16.0365C6.20333 15.7176 6.31801 15.3226 6.28108 14.927C6.33107 13.8497 6.28108 12.7456 6.28108 11.6522C7.69179 11.6522 9.1025 11.6522 10.5132 11.6522C10.4688 13.3057 10.591 15.067 10.0245 16.6182C9.60856 17.4412 8.9486 18.125 8.12923 18.5818C7.30986 19.0386 6.36846 19.2476 5.42577 19.182C3.90953 19.182 2.17669 18.7296 1.23252 17.1191C0.554931 15.8372 0.577147 14.216 0.510499 12.724C0.510499 10.0795 0.454959 7.43487 0.599363 4.79567C0.616667 4.09972 0.807594 3.41819 1.1558 2.80942C1.50401 2.20065 1.99913 1.68276 2.59879 1.30008Z" fill="white"/>
<path d="M17.3236 0.538574C19.2564 0.538574 21.2114 0.538574 23.1164 0.646297C24.1687 0.641473 25.2015 0.921253 26.0989 1.45421C26.5258 1.81762 26.8653 2.26733 27.0937 2.77168C27.3221 3.27604 27.4337 3.82279 27.4208 4.37349C27.5541 7.60516 27.4763 10.8745 27.4874 14.1224C27.4319 15.4635 27.5485 17.0201 26.7598 18.0919C25.8879 19.0776 24.6271 19.1314 23.5052 19.1692C21.4447 19.1692 19.3842 19.1692 17.3236 19.1692V0.538574ZM21.7057 3.77024V16.0398C22.1223 15.9267 22.7554 16.0398 22.9443 15.4204C23.1997 14.0739 23.0609 12.6681 23.0998 11.2946C23.0609 9.04864 23.1775 6.79724 23.0331 4.55123C22.972 3.77024 22.1723 3.77024 21.7057 3.77024Z" fill="white"/>
<path d="M11.3532 12.4201C11.0144 11.4667 11.3532 10.0448 12.2751 9.88859C13.3974 9.77011 14.5297 9.77011 15.6519 9.88859C16.9405 10.1741 16.996 12.8348 15.7464 13.2549C14.7397 13.3869 13.7218 13.4194 12.7083 13.3519C12.4062 13.3647 12.1084 13.2788 11.8627 13.1079C11.6169 12.9369 11.4375 12.6909 11.3532 12.4093V12.4201ZM12.0696 11.763C13.3101 11.8474 14.5547 11.8564 15.7963 11.7899L15.7019 11.429C14.5513 11.298 13.3896 11.2853 12.2363 11.3913C12.1974 11.4829 12.1141 11.6714 12.0696 11.763Z" fill="white"/>
<path d="M11.3404 9.32325V6.87256H12.379V7.86361H13.3731C13.3731 7.56737 13.3731 7.26575 13.3731 6.96951H14.3229C14.3229 7.27114 14.3229 7.56737 14.3229 7.86361H16.5445V9.31786L11.3404 9.32325Z" fill="white"/>
</svg>
