<svg width="28" height="28" viewBox="0 0 28 28" fill="none" xmlns="http://www.w3.org/2000/svg">
<path fill-rule="evenodd" clip-rule="evenodd" d="M13.2505 0.378272C12.8604 0.401286 12.4241 0.440391 12.3579 0.458281C12.3319 0.465312 12.2736 0.4711 12.2283 0.47114C12.183 0.471181 12.1415 0.475778 12.1359 0.481363C12.1304 0.486934 12.067 0.499049 11.995 0.508285C11.8582 0.525836 11.795 0.536032 11.5938 0.572974C11.5268 0.585265 11.4477 0.598206 11.4179 0.601735C11.3882 0.605264 11.3547 0.61189 11.3436 0.616447C11.3205 0.625844 11.1713 0.657878 11.1001 0.668709C11.0741 0.672657 11.0436 0.679635 11.0325 0.684205C11.0107 0.693129 10.876 0.72469 10.8093 0.736481C10.787 0.740443 10.7596 0.747312 10.7485 0.75176C10.7373 0.756209 10.6947 0.768081 10.6538 0.778142C10.5119 0.813015 10.4844 0.820316 10.4104 0.842695C10.3694 0.855054 10.3177 0.868225 10.2954 0.871943C10.2731 0.875675 10.2427 0.883869 10.2278 0.890171C10.2129 0.896472 10.1703 0.91094 10.1331 0.922326C9.94056 0.981254 9.6979 1.05876 9.68002 1.06704C9.66887 1.07222 9.62626 1.08682 9.58535 1.0995C9.54444 1.11219 9.49879 1.12766 9.48392 1.13386C9.46904 1.14007 9.41122 1.16143 9.35543 1.18135C9.29964 1.20126 9.23574 1.22518 9.21342 1.23449C9.19111 1.24381 9.15155 1.25914 9.12551 1.26857C9.09948 1.27799 9.059 1.29412 9.03556 1.3044C9.01212 1.31469 8.98617 1.3231 8.97789 1.3231C8.96961 1.3231 8.95228 1.32851 8.93936 1.33512C8.91212 1.34908 8.83619 1.38202 8.7874 1.40106C8.7688 1.40832 8.72011 1.42952 8.6792 1.44817C8.63829 1.46683 8.58047 1.49236 8.55072 1.50492C8.38258 1.57589 8.33508 1.59858 8.32982 1.61044C8.32733 1.61601 8.31782 1.62058 8.30868 1.62058C8.29955 1.62058 8.26506 1.63325 8.23205 1.64875C8.10306 1.70929 7.72535 1.89819 7.71895 1.90537C7.71523 1.90955 7.66958 1.93385 7.61751 1.95939C7.56544 1.98492 7.5198 2.00895 7.51608 2.01277C7.51236 2.0166 7.48497 2.03183 7.45522 2.04659C7.42546 2.06137 7.3859 2.08326 7.36731 2.09526C7.34871 2.10725 7.29698 2.13715 7.25235 2.16169C7.20772 2.18623 7.15926 2.21297 7.14468 2.22108C7.13009 2.22919 7.10987 2.24344 7.09975 2.25273C7.08963 2.26204 7.07266 2.26964 7.06204 2.26964C7.05141 2.26964 7.04272 2.27502 7.04272 2.28158C7.04272 2.28815 7.03207 2.29737 7.01905 2.30207C6.9928 2.31157 6.99696 2.30908 6.80195 2.43198C6.72532 2.48028 6.65076 2.52579 6.63627 2.53314C6.62179 2.54048 6.60993 2.55113 6.60993 2.5568C6.60993 2.56248 6.60131 2.56712 6.59076 2.56712C6.58023 2.56712 6.56958 2.5718 6.56709 2.5775C6.56462 2.58322 6.52912 2.60898 6.4882 2.63475C6.44729 2.66054 6.40209 2.6923 6.38777 2.70535C6.37344 2.7184 6.35062 2.7326 6.33705 2.7369C6.32349 2.7412 6.31238 2.75039 6.31238 2.75733C6.31238 2.76427 6.30604 2.76995 6.29828 2.76995C6.2844 2.76995 6.14683 2.86678 6.11194 2.90111C6.1021 2.91078 6.08993 2.9187 6.08489 2.91871C6.07983 2.91874 6.0544 2.93698 6.02837 2.95925C6.00233 2.98152 5.97691 2.99976 5.97185 2.99979C5.9668 2.99981 5.95463 3.00743 5.9448 3.01672C5.93498 3.02602 5.89044 3.06101 5.84584 3.09447C5.80123 3.12794 5.75292 3.16596 5.73847 3.17898C5.72402 3.19201 5.70772 3.20265 5.70226 3.20265C5.6968 3.20265 5.67407 3.2209 5.65176 3.24321C5.62944 3.26552 5.60687 3.28378 5.60158 3.28378C5.59631 3.28378 5.58054 3.29698 5.56654 3.31312C5.54151 3.34196 5.5416 3.34305 5.57171 3.37674C5.58856 3.39559 5.60843 3.41797 5.61586 3.42645C5.72494 3.55096 5.79488 3.62971 5.80859 3.64349C5.81788 3.65282 5.8255 3.66475 5.8255 3.66996C5.8255 3.6752 5.84531 3.69846 5.86953 3.72165C5.89376 3.74484 5.93474 3.79119 5.9606 3.82466C5.98647 3.85812 6.02751 3.90518 6.0518 3.92921C6.07611 3.95325 6.09599 3.97633 6.09599 3.98051C6.09599 3.98701 6.15837 4.05858 6.21433 4.1163C6.22364 4.12588 6.23124 4.13696 6.23124 4.14091C6.23124 4.14485 6.25407 4.17148 6.28195 4.20008C6.30985 4.22866 6.34789 4.27227 6.36648 4.29699C6.38508 4.32169 6.42196 4.36433 6.44846 4.39172C6.47494 4.41913 6.50537 4.45384 6.51608 4.46888C6.5423 4.50573 6.65753 4.63862 6.72827 4.71363C6.75989 4.74715 6.78575 4.77895 6.78575 4.78429C6.78575 4.78963 6.81465 4.8243 6.84999 4.86134C6.88533 4.89836 6.93553 4.95506 6.96157 4.98734C6.9876 5.0196 7.02565 5.0628 7.0461 5.08334C7.06656 5.10387 7.08329 5.12469 7.08329 5.1296C7.08329 5.13452 7.10306 5.15801 7.12724 5.18182C7.15141 5.20562 7.1943 5.25365 7.22255 5.28854C7.25079 5.32342 7.28122 5.35978 7.29018 5.36934C7.31207 5.39272 7.45089 5.55426 7.48335 5.59412C7.49763 5.61166 7.52453 5.64208 7.54313 5.66173C7.56172 5.68136 7.60016 5.72634 7.62855 5.76164C7.65692 5.79696 7.69953 5.84663 7.72322 5.87203C7.7469 5.89743 7.78546 5.94155 7.8089 5.97008C7.86685 6.04064 7.89764 6.07645 7.97758 6.16631C8.01513 6.20851 8.05379 6.25392 8.0635 6.26721C8.08018 6.29001 8.08415 6.28929 8.13449 6.25442C8.16382 6.2341 8.20075 6.20543 8.21655 6.19071C8.23234 6.17599 8.25016 6.16395 8.25612 6.16395C8.2621 6.16395 8.28339 6.14873 8.30344 6.13014C8.32349 6.11155 8.34346 6.09634 8.34783 6.09634C8.35219 6.09634 8.3631 6.09018 8.37208 6.08265C8.38106 6.07512 8.41276 6.05086 8.44252 6.02873C8.47227 6.00659 8.5027 5.98354 8.51014 5.97751C8.51758 5.97146 8.54344 5.95487 8.56762 5.94062C8.5918 5.92638 8.61158 5.90995 8.61158 5.90411C8.61158 5.89828 8.6168 5.89351 8.62317 5.89351C8.62955 5.89351 8.68888 5.85808 8.75503 5.8148C8.82118 5.7715 8.8965 5.72433 8.9224 5.71C8.9483 5.69565 8.97763 5.67632 8.9876 5.66702C8.99757 5.65773 9.01442 5.65011 9.02504 5.65011C9.03567 5.65011 9.04436 5.64473 9.04436 5.63817C9.04436 5.6316 9.05502 5.62265 9.06803 5.61828C9.09127 5.61048 9.13924 5.58242 9.15256 5.56885C9.15628 5.56506 9.18367 5.54985 9.21342 5.53504C9.24318 5.52025 9.27057 5.50509 9.27428 5.50137C9.28287 5.49279 9.34703 5.45716 9.43908 5.40986C9.47861 5.38953 9.51401 5.36971 9.51773 5.36577C9.52145 5.36185 9.55188 5.34682 9.58535 5.33235C9.61882 5.31788 9.64926 5.3024 9.65298 5.29792C9.65669 5.29345 9.68863 5.27807 9.72392 5.26374C9.75924 5.24942 9.78814 5.23314 9.78817 5.22755C9.78819 5.22197 9.79489 5.21741 9.80305 5.21741C9.8112 5.21741 9.8614 5.19686 9.91462 5.17174C10.0533 5.10628 10.1259 5.07453 10.1838 5.05409C10.2117 5.04425 10.2345 5.03134 10.2345 5.02539C10.2345 5.01945 10.2443 5.01458 10.2562 5.01458C10.268 5.01458 10.3 5.00483 10.3272 4.99292C10.3543 4.98101 10.3918 4.96523 10.4104 4.95787C10.429 4.9505 10.4614 4.93591 10.4825 4.92543C10.5035 4.91497 10.5324 4.90641 10.5467 4.90641C10.561 4.90641 10.5727 4.90032 10.5727 4.89289C10.5727 4.88545 10.5846 4.87936 10.5992 4.87936C10.6229 4.87936 10.6864 4.8563 10.7502 4.82455C10.7623 4.81853 10.7943 4.80946 10.8213 4.80439C10.8484 4.79931 10.8738 4.78977 10.8779 4.78318C10.882 4.77658 10.8998 4.77119 10.9175 4.77119C10.9352 4.77119 10.9532 4.76563 10.9574 4.75884C10.9616 4.75206 10.9893 4.7424 11.019 4.73738C11.0486 4.73237 11.0764 4.72271 11.0806 4.71592C11.0847 4.70914 11.1031 4.70358 11.1214 4.70358C11.1396 4.70358 11.1652 4.69793 11.1781 4.69103C11.2 4.67933 11.2867 4.65251 11.3977 4.62308C11.4237 4.61619 11.4766 4.60106 11.5152 4.58945C11.5537 4.57785 11.598 4.56836 11.6134 4.56836C11.6288 4.56836 11.652 4.56252 11.665 4.55538C11.6866 4.54341 11.7368 4.53065 11.8778 4.5012C11.9075 4.49498 11.9806 4.47943 12.0401 4.46663C12.0996 4.45383 12.1757 4.43864 12.2091 4.43287C12.2426 4.42711 12.3248 4.41226 12.3917 4.39989C12.4587 4.3875 12.556 4.3719 12.6081 4.36521C12.6602 4.3585 12.7789 4.34302 12.8718 4.33079C13.2904 4.27576 13.9317 4.2495 14.3532 4.27012C14.8878 4.29629 14.9813 4.3047 15.4077 4.36502C15.5457 4.38454 15.795 4.42975 15.969 4.46684C16.1232 4.49971 16.1708 4.51058 16.2665 4.5348C16.3149 4.54702 16.3757 4.5603 16.4018 4.5643C16.4278 4.56829 16.4558 4.57692 16.464 4.58346C16.4722 4.59001 16.5074 4.59927 16.5421 4.60403C16.5769 4.6088 16.6086 4.61793 16.6126 4.62434C16.6165 4.63074 16.6373 4.63597 16.6587 4.63597C16.6802 4.63597 16.7013 4.6417 16.7056 4.64871C16.7099 4.65571 16.7407 4.66554 16.774 4.67053C16.8073 4.67552 16.8346 4.685 16.8346 4.6916C16.8346 4.69818 16.8444 4.70358 16.8564 4.70358C16.8764 4.70358 16.9785 4.73354 17.0442 4.75872C17.0591 4.76443 17.1017 4.77923 17.1389 4.79162C17.1761 4.80401 17.2171 4.81969 17.23 4.82648C17.2429 4.83325 17.262 4.8388 17.2724 4.8388C17.2828 4.8388 17.3087 4.84789 17.3301 4.859C17.3514 4.8701 17.3794 4.87923 17.3925 4.87928C17.4055 4.87932 17.4161 4.88545 17.4161 4.89289C17.4161 4.90032 17.4284 4.90641 17.4434 4.90641C17.4583 4.90641 17.4812 4.9122 17.4941 4.91928C17.507 4.92635 17.5404 4.94157 17.5683 4.95309C17.5962 4.96459 17.6397 4.98315 17.665 4.9943C17.6903 5.00546 17.7207 5.01458 17.7326 5.01458C17.7445 5.01458 17.7542 5.02067 17.7542 5.02811C17.7542 5.03554 17.7635 5.04163 17.7747 5.04163C17.786 5.04163 17.8058 5.0475 17.8187 5.05468C17.8316 5.06186 17.8726 5.08068 17.9098 5.09653C17.9999 5.13491 18.44 5.35259 18.559 5.41766C18.7328 5.51269 18.8155 5.55946 18.8664 5.5914C18.8941 5.60882 18.923 5.62307 18.9306 5.62307C18.9382 5.62307 18.9444 5.62818 18.9444 5.63441C18.9444 5.64066 18.9581 5.65279 18.9748 5.66138C19.06 5.70504 19.2617 5.82991 19.2667 5.84208C19.2692 5.84806 19.2794 5.85294 19.2893 5.85294C19.2992 5.85294 19.3094 5.8575 19.3118 5.86308C19.3181 5.87719 19.4429 5.96112 19.4576 5.96112C19.4642 5.96112 19.4716 5.96592 19.4741 5.97179C19.4779 5.98082 19.8372 6.24577 19.8879 6.27691C19.9049 6.28736 19.9378 6.25676 20.0399 6.13563C20.0659 6.10475 20.1116 6.052 20.1413 6.0184C20.1711 5.98479 20.2044 5.94461 20.2153 5.92908C20.2262 5.91357 20.2536 5.88249 20.2761 5.86001C20.2987 5.83753 20.3393 5.79176 20.3663 5.75829C20.3933 5.72482 20.4317 5.67919 20.4516 5.65687C20.4715 5.63456 20.5011 5.6008 20.5174 5.58183C20.5337 5.56287 20.581 5.50811 20.6225 5.46013C20.664 5.41217 20.7108 5.3577 20.7265 5.33911C20.79 5.26401 20.815 5.23548 20.8592 5.18758C20.8847 5.16001 20.9055 5.13335 20.9055 5.12833C20.9055 5.1233 20.9253 5.10022 20.9495 5.07703C20.9737 5.05384 21.0147 5.00748 21.0406 4.97402C21.0665 4.94055 21.1062 4.89478 21.1289 4.87229C21.1516 4.84982 21.1797 4.81774 21.1914 4.80102C21.2032 4.78429 21.2349 4.74667 21.262 4.7174C21.2891 4.68814 21.3112 4.66113 21.3112 4.65739C21.3112 4.65364 21.3343 4.62703 21.3625 4.59826C21.3908 4.56947 21.4379 4.51633 21.4674 4.48016C21.4968 4.444 21.5361 4.39813 21.5547 4.37826C21.5733 4.35837 21.6006 4.3276 21.6153 4.30988C21.7175 4.18706 21.7942 4.09795 21.8178 4.07462C21.833 4.05964 21.8629 4.02417 21.8842 3.99579C21.9055 3.96741 21.9389 3.92739 21.9585 3.90686C21.9782 3.88633 22.0155 3.84357 22.0416 3.81184C22.0676 3.78011 22.1072 3.73402 22.1295 3.70939C22.1708 3.66384 22.2455 3.5772 22.3274 3.47985C22.3524 3.4501 22.3759 3.42266 22.3797 3.41888C22.3834 3.4151 22.4005 3.39601 22.4178 3.37647L22.4491 3.34094L22.4164 3.30897C22.3674 3.2611 22.3186 3.22104 22.2759 3.19349C22.2393 3.16991 22.2244 3.15815 22.1511 3.0953C22.1332 3.07996 22.1146 3.06743 22.1097 3.06743C22.1048 3.06743 22.089 3.05666 22.0745 3.04352C22.0601 3.03038 21.9905 2.97759 21.9198 2.92622C21.8492 2.87485 21.7883 2.82862 21.7846 2.82348C21.7809 2.81835 21.7641 2.80989 21.7474 2.80466C21.7307 2.79944 21.717 2.7895 21.717 2.78256C21.717 2.77563 21.7078 2.76995 21.6967 2.76995C21.6855 2.76995 21.6764 2.76517 21.6764 2.75935C21.6764 2.7535 21.6566 2.73724 21.6324 2.72317C21.6083 2.70911 21.5854 2.69398 21.5817 2.68953C21.578 2.6851 21.5324 2.65435 21.4803 2.62121C21.4282 2.58806 21.3826 2.55777 21.3789 2.55389C21.3693 2.54387 21.3217 2.51452 21.2977 2.50379C21.2865 2.4988 21.2744 2.49092 21.2707 2.48627C21.2577 2.47003 20.9735 2.29668 20.9598 2.29668C20.9523 2.29668 20.9461 2.29059 20.9461 2.28316C20.9461 2.27572 20.9406 2.26964 20.934 2.26964C20.9273 2.26964 20.855 2.23008 20.7733 2.18174C20.6915 2.1334 20.6179 2.09385 20.6096 2.09385C20.6012 2.09385 20.5944 2.08836 20.5944 2.08165C20.5944 2.07495 20.5777 2.06287 20.5572 2.05483C20.5368 2.04679 20.4653 2.00984 20.3983 1.97272C20.1867 1.85536 19.6234 1.58002 19.5949 1.58002C19.5868 1.58002 19.5801 1.57393 19.5801 1.5665C19.5801 1.55906 19.5721 1.55297 19.5623 1.55297C19.5526 1.55297 19.5206 1.5416 19.4913 1.52772C19.462 1.51381 19.4137 1.49207 19.384 1.47939C19.3542 1.46669 19.3116 1.4483 19.2893 1.4385C19.267 1.42869 19.2244 1.4106 19.1946 1.39828C19.1649 1.38597 19.13 1.37009 19.117 1.36302C19.1041 1.35593 19.0813 1.35015 19.0663 1.35015C19.0513 1.35015 19.0391 1.34455 19.0391 1.33769C19.0391 1.33085 19.0195 1.32095 18.9956 1.31569C18.9716 1.31045 18.9412 1.30083 18.928 1.29434C18.9147 1.28785 18.893 1.27722 18.8797 1.27073C18.8665 1.26424 18.836 1.25463 18.8121 1.24938C18.7882 1.24412 18.7686 1.23422 18.7686 1.22738C18.7686 1.22052 18.7579 1.21493 18.7449 1.21491C18.7184 1.2149 18.5993 1.1719 18.5844 1.15696C18.5791 1.15166 18.5609 1.14732 18.544 1.14732C18.5271 1.14732 18.5097 1.14171 18.5055 1.13484C18.5013 1.12797 18.4783 1.11807 18.4544 1.11284C18.4306 1.1076 18.4018 1.09873 18.3904 1.09315C18.379 1.08755 18.3361 1.07259 18.2952 1.05991C18.2543 1.04723 18.2087 1.03203 18.1938 1.02613C18.1659 1.0151 17.9937 0.961621 17.8624 0.923245C17.8215 0.911292 17.7759 0.896418 17.761 0.890211C17.7461 0.883991 17.7187 0.875608 17.7001 0.871578C17.5682 0.842939 17.5167 0.829349 17.5108 0.821642C17.5071 0.81676 17.4827 0.809431 17.4567 0.805361C17.4307 0.801278 17.3729 0.78781 17.3282 0.775424C17.2836 0.763051 17.2227 0.747555 17.193 0.74101C17.0388 0.707111 16.9747 0.691737 16.9563 0.684286C16.9451 0.679756 16.9177 0.672779 16.8954 0.66879C16.8501 0.660663 16.6709 0.625236 16.5776 0.605967C16.5441 0.599044 16.4681 0.585306 16.4085 0.575408C16.349 0.565523 16.2912 0.55361 16.2801 0.548932C16.2689 0.544253 16.2324 0.537722 16.1989 0.534423C16.0439 0.519116 15.8789 0.494452 15.8576 0.483405C15.8447 0.476698 15.8032 0.471221 15.7655 0.471221C15.7278 0.471221 15.6714 0.465204 15.6402 0.457835C15.5612 0.439174 15.1812 0.406019 14.7247 0.377934C14.4678 0.36214 13.5205 0.362356 13.2505 0.378272ZM4.77516 3.99112C4.75909 4.0074 4.63737 4.12776 4.50466 4.2586C4.37197 4.38944 4.2208 4.54199 4.16873 4.59764C4.04476 4.73007 3.88698 4.90277 3.84338 4.95373C3.82429 4.97605 3.78318 5.02385 3.75202 5.05995C3.66551 5.16019 3.65395 5.17389 3.6053 5.23381C3.58044 5.26443 3.55395 5.29608 3.5464 5.30416C3.53886 5.31223 3.51147 5.3462 3.48554 5.37963C3.42921 5.45227 3.40255 5.48555 3.38411 5.50627C3.37656 5.51473 3.34921 5.54904 3.32334 5.5825C3.29747 5.61597 3.27169 5.64538 3.26605 5.64786C3.26042 5.65034 3.25581 5.6582 3.25581 5.66534C3.25581 5.67247 3.2496 5.68565 3.24202 5.69463C3.17374 5.77549 3.15631 5.79815 3.13061 5.83942C3.1144 5.86545 3.0903 5.89854 3.07704 5.91297C3.06379 5.92738 3.05294 5.94367 3.05294 5.94918C3.05294 5.95468 3.04533 5.96723 3.03604 5.97706C3.00172 6.01333 2.94474 6.09494 2.94474 6.10783C2.94474 6.11515 2.93935 6.12315 2.93275 6.12564C2.92615 6.12811 2.85249 6.23358 2.76906 6.36001C2.68563 6.48644 2.59973 6.61593 2.57819 6.64775C2.55664 6.67958 2.53901 6.71152 2.53901 6.71874C2.53901 6.72596 2.53358 6.73187 2.52694 6.73187C2.52031 6.73187 2.51106 6.74708 2.5064 6.76567C2.50173 6.78426 2.49194 6.79948 2.48465 6.79948C2.47735 6.79948 2.47138 6.8086 2.47138 6.81976C2.47138 6.83091 2.4653 6.84004 2.45786 6.84004C2.45042 6.84004 2.44433 6.84874 2.44433 6.85936C2.44433 6.86998 2.43673 6.88683 2.42743 6.89679C2.41236 6.91294 2.39004 6.95016 2.3439 7.03611C2.33591 7.05098 2.32633 7.06621 2.32261 7.06995C2.31552 7.07708 2.26899 7.16113 2.22189 7.25186C2.20662 7.28129 2.18653 7.31366 2.17722 7.32381C2.16792 7.33397 2.16031 7.35098 2.16031 7.36159C2.16031 7.37222 2.15423 7.38092 2.14679 7.38092C2.13935 7.38092 2.13327 7.39026 2.13327 7.40167C2.13327 7.4131 2.12366 7.43707 2.11194 7.45498C2.04521 7.5568 1.75457 8.14422 1.75457 8.17726C1.75457 8.1855 1.74849 8.19223 1.74105 8.19223C1.73361 8.19223 1.72753 8.19816 1.72753 8.20539C1.72753 8.21914 1.6712 8.34887 1.63838 8.41067C1.6279 8.43041 1.61933 8.45627 1.61933 8.46813C1.61933 8.48001 1.61324 8.48971 1.6058 8.48971C1.59836 8.48971 1.59228 8.49791 1.59228 8.50792C1.59228 8.52489 1.56668 8.58717 1.53731 8.64165C1.53035 8.65456 1.52466 8.67114 1.52466 8.67847C1.52466 8.68581 1.51014 8.72391 1.49241 8.76317C1.47467 8.80241 1.45246 8.85582 1.44305 8.88185C1.43362 8.90788 1.41842 8.94743 1.40925 8.96974C1.40008 8.99205 1.38486 9.03161 1.37544 9.05764C1.36601 9.08366 1.35066 9.12322 1.34132 9.14553C1.33198 9.16784 1.314 9.21652 1.30135 9.2537C1.28869 9.29089 1.27338 9.33348 1.26731 9.34836C1.26124 9.36323 1.24602 9.40582 1.2335 9.44301C1.22097 9.4802 1.20612 9.52279 1.20048 9.53766C1.19484 9.55254 1.17976 9.59817 1.16696 9.63908C1.15415 9.67998 1.13881 9.72562 1.13286 9.74049C1.12692 9.75537 1.11146 9.80404 1.09852 9.84867C1.08556 9.89329 1.06965 9.94036 1.06314 9.95327C1.05662 9.96619 1.0512 9.98748 1.05109 10.0006C1.05085 10.0303 1.00601 10.1756 0.99315 10.1885C0.987929 10.1937 0.983669 10.2111 0.983669 10.2271C0.983669 10.2432 0.975257 10.2832 0.964965 10.3161C0.940891 10.3932 0.923566 10.4572 0.888347 10.5991C0.835047 10.814 0.817979 10.8898 0.811487 10.9406C0.807916 10.9686 0.799545 10.9948 0.79289 10.9989C0.786236 11.003 0.780799 11.0264 0.780799 11.0508C0.780799 11.0752 0.771738 11.125 0.760661 11.1615C0.749584 11.198 0.740455 11.2427 0.740374 11.2607C0.740293 11.2788 0.734599 11.3123 0.727715 11.3351C0.720845 11.358 0.705751 11.4344 0.694201 11.5051C0.682637 11.5758 0.669546 11.6518 0.665109 11.6741C0.654087 11.7295 0.63879 11.8376 0.619153 11.9987C0.610091 12.073 0.597608 12.1552 0.591414 12.1812C0.571032 12.2668 0.533055 12.6982 0.511659 13.0872C0.496443 13.3638 0.496024 14.2834 0.510969 14.6016C0.524467 14.889 0.543036 15.1373 0.562538 15.2912C0.570545 15.3545 0.580148 15.4336 0.58388 15.467C0.614838 15.7453 0.645837 15.9686 0.660051 16.0156C0.666949 16.0385 0.672602 16.0718 0.672602 16.0897C0.672602 16.1076 0.68211 16.171 0.693741 16.2307C0.705372 16.2904 0.721372 16.3727 0.729297 16.4136C0.737223 16.4545 0.752059 16.5223 0.762257 16.5642C0.772455 16.6062 0.780799 16.6591 0.780799 16.6818C0.780799 16.7044 0.786236 16.7263 0.79289 16.7304C0.799545 16.7346 0.807916 16.7608 0.811487 16.7887C0.82255 16.8753 0.916993 17.2596 0.964965 17.4132C0.975257 17.4461 0.983669 17.4842 0.983669 17.4979C0.983669 17.5115 0.989431 17.5333 0.996477 17.5462C1.00858 17.5684 1.02669 17.6268 1.06456 17.7657C1.07368 17.7992 1.08963 17.8511 1.10002 17.8811C1.11042 17.9111 1.11892 17.9461 1.11892 17.9589C1.11892 17.9717 1.12362 17.9821 1.12937 17.9821C1.13905 17.9821 1.16378 18.06 1.18191 18.1477C1.18615 18.1682 1.19501 18.1849 1.20159 18.1849C1.20819 18.1849 1.21359 18.1958 1.21359 18.2091C1.21359 18.2363 1.25842 18.3695 1.27223 18.3833C1.27717 18.3882 1.28125 18.4019 1.28129 18.4137C1.28135 18.4254 1.29048 18.4525 1.30158 18.4738C1.3127 18.4951 1.32179 18.524 1.32179 18.538C1.32179 18.5521 1.32787 18.5635 1.33531 18.5635C1.34275 18.5635 1.34883 18.5727 1.34883 18.584C1.34883 18.6062 1.52081 19.0485 1.53803 19.0706C1.54383 19.078 1.55281 19.1039 1.55798 19.1281C1.56315 19.1522 1.57298 19.172 1.57982 19.172C1.58668 19.172 1.59228 19.1872 1.59228 19.2058C1.59228 19.2244 1.59836 19.2396 1.6058 19.2396C1.61324 19.2396 1.61933 19.2453 1.61933 19.2522C1.61933 19.2647 1.68962 19.4273 1.7146 19.4727C1.72171 19.4856 1.72753 19.5054 1.72753 19.5166C1.72753 19.5279 1.73361 19.5371 1.74105 19.5371C1.74849 19.5371 1.75457 19.544 1.75457 19.5524C1.75457 19.5691 2.05352 20.1737 2.12143 20.2943C2.16271 20.3677 2.21368 20.4592 2.27957 20.5783C2.29809 20.6118 2.32752 20.6603 2.34498 20.6862C2.36243 20.7121 2.37671 20.741 2.37671 20.7505C2.37671 20.7599 2.38209 20.7676 2.38865 20.7676C2.39522 20.7676 2.40396 20.7783 2.40807 20.7913C2.41598 20.8163 2.47303 20.9184 2.48551 20.9299C2.48957 20.9336 2.52893 20.9944 2.57298 21.0651C2.61703 21.1357 2.65783 21.1956 2.66366 21.1981C2.66949 21.2005 2.67425 21.2112 2.67425 21.2217C2.67425 21.2323 2.67993 21.2409 2.68687 21.2409C2.69381 21.2409 2.70375 21.2546 2.70897 21.2713C2.7142 21.288 2.72221 21.3048 2.72679 21.3085C2.73137 21.3122 2.77772 21.3791 2.82979 21.4572C2.88186 21.5353 2.92903 21.6012 2.9346 21.6037C2.94019 21.6062 2.94474 21.6168 2.94474 21.6274C2.94474 21.6379 2.95042 21.6465 2.95736 21.6465C2.9643 21.6465 2.9735 21.6576 2.9778 21.6712C2.9821 21.6848 2.99629 21.7076 3.00932 21.7219C3.02235 21.7362 3.06185 21.7875 3.09713 21.8358C3.13239 21.8842 3.16729 21.9311 3.1747 21.9401C3.18213 21.949 3.18819 21.9622 3.18819 21.9694C3.18819 21.9765 3.1928 21.9844 3.19843 21.9868C3.20407 21.9893 3.22978 22.0187 3.25557 22.0522C3.28135 22.0857 3.30585 22.1161 3.31001 22.1198C3.31417 22.1235 3.34108 22.159 3.36984 22.1987C3.39859 22.2384 3.44252 22.2925 3.46745 22.3189C3.49239 22.3454 3.51278 22.3718 3.51278 22.3777C3.51278 22.3835 3.53255 22.4095 3.55674 22.4354C3.5809 22.4613 3.62167 22.5082 3.64732 22.5395C3.67297 22.5709 3.70187 22.6044 3.71157 22.6141C3.72125 22.6238 3.72918 22.6352 3.72918 22.6394C3.72918 22.6437 3.752 22.6703 3.77989 22.6985C3.80779 22.7267 3.85187 22.7762 3.87785 22.8085C3.90383 22.8408 3.95861 22.9026 3.99957 22.9459C4.04054 22.9891 4.12883 23.0831 4.19578 23.1548C4.34493 23.3144 4.77855 23.7424 4.79112 23.7424C4.79319 23.7424 4.82462 23.7713 4.86097 23.8067C4.89731 23.842 4.9661 23.9044 5.01381 23.9453C5.06152 23.9862 5.11709 24.0348 5.13728 24.0534C5.19423 24.1058 5.23107 24.1375 5.31105 24.2028C5.35167 24.2359 5.39823 24.2752 5.4145 24.2901C5.43077 24.3049 5.46402 24.3323 5.48839 24.3509C5.51277 24.3695 5.5394 24.3908 5.54758 24.3982C5.55575 24.4057 5.58967 24.4328 5.62296 24.4586C5.65625 24.4844 5.68552 24.5102 5.68799 24.5161C5.69048 24.5219 5.69836 24.5267 5.70552 24.5267C5.71267 24.5267 5.73375 24.5419 5.75234 24.5605C5.77094 24.5791 5.79113 24.5943 5.79722 24.5943C5.8033 24.5943 5.82281 24.6083 5.84056 24.6254C5.85831 24.6425 5.90631 24.6804 5.94722 24.7097C5.98813 24.739 6.02769 24.7678 6.03513 24.7737C6.07731 24.8073 6.44938 25.0676 6.45526 25.0676C6.45913 25.0676 6.46965 25.074 6.47863 25.0818C6.50887 25.108 6.76385 25.2704 6.77486 25.2704C6.78085 25.2704 6.78575 25.2765 6.78575 25.2839C6.78575 25.2914 6.79187 25.2975 6.79938 25.2975C6.80687 25.2975 6.88446 25.342 6.97182 25.3965C7.05916 25.451 7.1641 25.5133 7.20501 25.5351C7.24592 25.5568 7.28745 25.5822 7.29726 25.5915C7.3071 25.6008 7.32333 25.6085 7.33333 25.6085C7.34334 25.6085 7.35355 25.613 7.35604 25.6186C7.35852 25.6242 7.38793 25.6425 7.42141 25.6593C7.45488 25.6761 7.51574 25.7088 7.55665 25.7321C7.6838 25.8043 8.10351 26.0139 8.12131 26.014C8.13061 26.0141 8.13821 26.0202 8.13821 26.0276C8.13821 26.0351 8.14442 26.0412 8.15201 26.0412C8.1596 26.0412 8.2159 26.0646 8.27711 26.0933C8.39098 26.1467 8.487 26.1902 8.571 26.2265C8.59704 26.2377 8.6366 26.2549 8.65891 26.2647C8.68123 26.2745 8.72383 26.2925 8.75358 26.3048C8.78334 26.3169 8.81986 26.332 8.83473 26.3382C8.84961 26.3443 8.88308 26.3582 8.90912 26.369C8.93515 26.3798 8.97776 26.3964 9.00379 26.4058C9.02983 26.4152 9.08325 26.4374 9.1225 26.4551C9.16176 26.4729 9.20588 26.4874 9.22055 26.4874C9.23522 26.4874 9.24724 26.4935 9.24724 26.5009C9.24724 26.5083 9.25789 26.5145 9.2709 26.5145C9.28391 26.5146 9.312 26.5237 9.33331 26.5348C9.35462 26.5459 9.38251 26.555 9.3953 26.555C9.40808 26.555 9.42249 26.5589 9.4273 26.5637C9.44027 26.5767 9.57487 26.6217 9.60226 26.6222C9.61527 26.6224 9.62593 26.6287 9.62593 26.6361C9.62593 26.6436 9.63963 26.6497 9.65636 26.6497C9.67309 26.6498 9.70422 26.6589 9.72552 26.67C9.74684 26.6811 9.77278 26.6902 9.78319 26.6902C9.79359 26.6902 9.81269 26.6955 9.8256 26.7021C9.83852 26.7086 9.8856 26.7244 9.93023 26.7372C9.97486 26.75 10.0207 26.7652 10.0321 26.771C10.0435 26.7767 10.0739 26.7857 10.0997 26.791C10.1506 26.8014 10.2253 26.823 10.2683 26.8397C10.2939 26.8496 10.3571 26.8668 10.4645 26.893C10.4905 26.8993 10.5483 26.9145 10.5929 26.9268C10.6376 26.939 10.6923 26.9524 10.7147 26.9565C10.737 26.9607 10.7613 26.9686 10.7688 26.9741C10.7762 26.9796 10.8156 26.9883 10.8563 26.9935C10.8971 26.9987 10.9366 27.0079 10.9442 27.014C10.9519 27.0201 10.9794 27.0284 11.0054 27.0326C11.0315 27.0367 11.0984 27.0496 11.1542 27.0612C11.21 27.0728 11.2769 27.0859 11.303 27.0902C11.329 27.0946 11.3594 27.1018 11.3706 27.1063C11.3818 27.1108 11.4396 27.1226 11.4991 27.1325C11.6176 27.1522 11.6935 27.1652 11.8778 27.1973C11.9447 27.209 12.0451 27.2242 12.1009 27.2312C12.1567 27.2381 12.2724 27.2534 12.3579 27.2651C12.5246 27.2879 12.669 27.3018 12.98 27.3248C13.0879 27.3328 13.2492 27.3455 13.3384 27.353C13.5488 27.3707 14.4138 27.3706 14.6233 27.3529C14.7126 27.3454 14.8799 27.3323 14.9952 27.3238C15.4078 27.2936 15.4642 27.2885 15.6444 27.2653C15.9585 27.2249 15.9859 27.221 16.1245 27.1975C16.1989 27.1849 16.2932 27.1697 16.3342 27.1637C16.4852 27.1415 16.5986 27.1202 16.6249 27.1089C16.6398 27.1026 16.6763 27.0944 16.7061 27.0908C16.792 27.0804 16.92 27.0546 16.9495 27.0418C16.9644 27.0354 16.9948 27.0269 17.0172 27.023C17.1241 27.0043 17.2256 26.9799 17.2347 26.9708C17.2403 26.9652 17.2594 26.9606 17.2772 26.9606C17.295 26.9606 17.3412 26.9512 17.3798 26.9396C17.4184 26.9279 17.4743 26.9122 17.504 26.9046C17.6161 26.876 17.7077 26.8487 17.7304 26.8373C17.7433 26.8308 17.7638 26.8254 17.7759 26.8254C17.7953 26.8254 17.8838 26.7998 17.9639 26.7709C17.9788 26.7655 18.0457 26.7445 18.1126 26.7242C18.1796 26.7039 18.2465 26.6825 18.2614 26.6767C18.2763 26.6708 18.3189 26.6557 18.3561 26.643C18.3933 26.6304 18.4429 26.6115 18.4663 26.601C18.4898 26.5906 18.5217 26.582 18.5373 26.582C18.553 26.582 18.5657 26.5759 18.5657 26.5685C18.5657 26.5611 18.578 26.555 18.593 26.555C18.6079 26.555 18.6308 26.5495 18.6437 26.5428C18.6566 26.5362 18.7128 26.5141 18.7686 26.4937C18.8593 26.4607 18.8987 26.4451 18.9918 26.4055C19.0066 26.3991 19.088 26.3659 19.1725 26.3316C19.2571 26.2973 19.3666 26.2509 19.416 26.2284C19.4653 26.2059 19.527 26.1783 19.553 26.167C19.5791 26.1557 19.6502 26.1228 19.7111 26.0938C19.7721 26.0648 19.8284 26.0412 19.8362 26.0412C19.8441 26.0412 19.8506 26.0351 19.8506 26.0276C19.8506 26.0202 19.8592 26.0141 19.8698 26.0141C19.8879 26.0141 19.9712 25.975 19.9858 25.9596C19.9895 25.9557 20.02 25.9407 20.0534 25.9262C20.0869 25.9118 20.1173 25.8965 20.1211 25.8924C20.1248 25.8883 20.1552 25.8731 20.1887 25.8586C20.2222 25.8441 20.2526 25.8291 20.2563 25.8251C20.2619 25.8191 20.3541 25.7702 20.4733 25.71C20.4879 25.7027 20.4998 25.692 20.4998 25.6864C20.4998 25.6807 20.5088 25.6761 20.5198 25.6761C20.5308 25.6761 20.5796 25.6517 20.6282 25.622C20.6768 25.5922 20.7226 25.5679 20.7299 25.5679C20.7372 25.5679 20.7433 25.5633 20.7433 25.5577C20.7434 25.5522 20.7693 25.5355 20.8008 25.5208C20.8324 25.506 20.8612 25.4908 20.8649 25.487C20.878 25.4734 20.9261 25.4453 20.9494 25.4375C20.9625 25.4331 20.9731 25.4249 20.9731 25.4191C20.9731 25.4134 20.9838 25.4052 20.9968 25.4008C21.0225 25.3922 21.0512 25.3749 21.1176 25.3279C21.1413 25.3112 21.1639 25.2975 21.1679 25.2975C21.1802 25.2975 21.3989 25.1567 21.4036 25.1456C21.4061 25.1399 21.4163 25.1352 21.4262 25.1352C21.4361 25.1352 21.4462 25.1305 21.4487 25.1248C21.4512 25.1191 21.4867 25.0934 21.5276 25.0678C21.5685 25.0421 21.6051 25.0175 21.6088 25.0132C21.6125 25.0088 21.6587 24.9765 21.7114 24.9414C21.7641 24.9063 21.8201 24.8656 21.8359 24.8509C21.8517 24.8362 21.8683 24.8242 21.8728 24.8242C21.8821 24.8242 21.9671 24.762 22.0069 24.7262C22.0213 24.7131 22.0376 24.7025 22.0431 24.7025C22.0486 24.7025 22.0612 24.6946 22.071 24.6849C22.0809 24.6753 22.1254 24.6403 22.17 24.6073C22.2147 24.5742 22.2542 24.5441 22.258 24.5403C22.2617 24.5365 22.2921 24.5124 22.3256 24.4866C22.3591 24.4609 22.3885 24.435 22.3909 24.4292C22.3934 24.4233 22.4015 24.4185 22.4088 24.4185C22.4162 24.4185 22.4299 24.4109 22.4393 24.4016C22.4487 24.3923 22.4827 24.3634 22.5149 24.3374C22.5471 24.3114 22.5801 24.2839 22.5882 24.2764C22.5962 24.2688 22.6302 24.2415 22.6637 24.2156C22.6972 24.1897 22.7428 24.1522 22.7651 24.1323C22.7874 24.1124 22.8185 24.0849 22.8341 24.0714C22.9063 24.0085 23.05 23.8805 23.0893 23.8438C23.1133 23.8215 23.1883 23.7528 23.256 23.6911C23.3852 23.5733 23.7781 23.1791 23.8584 23.0866C23.8842 23.0569 23.9379 22.9988 23.9777 22.9576C24.0174 22.9164 24.066 22.8616 24.0856 22.8359C24.1052 22.8102 24.1524 22.7574 24.1904 22.7186C24.2285 22.6797 24.2596 22.6445 24.2596 22.6402C24.2596 22.6359 24.2818 22.6085 24.3088 22.5793C24.3359 22.55 24.3677 22.5122 24.3794 22.4953C24.3911 22.4784 24.4207 22.4439 24.4451 22.4186C24.4695 22.3933 24.4895 22.3681 24.4895 22.3625C24.4895 22.357 24.5063 22.3344 24.5267 22.3122C24.591 22.2424 24.6221 22.2041 24.6371 22.1761C24.6451 22.1612 24.6596 22.1409 24.6693 22.131C24.679 22.1211 24.714 22.0765 24.7471 22.0319C24.7803 21.9873 24.815 21.9427 24.8243 21.9329C24.8336 21.9231 24.8412 21.9105 24.8412 21.905C24.8412 21.8995 24.8529 21.8825 24.8671 21.8672C24.8814 21.8518 24.927 21.7914 24.9683 21.7328C25.0097 21.6742 25.0482 21.6202 25.0539 21.6127C25.1135 21.5351 25.1387 21.4975 25.1387 21.4863C25.1387 21.479 25.1433 21.471 25.1489 21.4685C25.1632 21.4621 25.274 21.2956 25.274 21.2805C25.274 21.2736 25.2785 21.2678 25.2841 21.2677C25.2897 21.2676 25.3155 21.2312 25.3416 21.1868C25.3676 21.1424 25.3935 21.106 25.3991 21.1059C25.4046 21.1058 25.4092 21.0965 25.4092 21.0854C25.4092 21.0742 25.4152 21.0651 25.4225 21.0651C25.4298 21.0651 25.4396 21.0499 25.4442 21.0313C25.4489 21.0127 25.4574 20.9975 25.4632 20.9975C25.469 20.9975 25.4772 20.9868 25.4816 20.9738C25.4893 20.9508 25.5173 20.903 25.5309 20.8893C25.5369 20.8833 25.5508 20.8592 25.6043 20.7614C25.6123 20.7468 25.6264 20.7266 25.6357 20.7165C25.645 20.7063 25.6526 20.6894 25.6526 20.6788C25.6526 20.6681 25.6573 20.6594 25.663 20.6594C25.6733 20.6594 25.677 20.6534 25.7263 20.556C25.7408 20.5273 25.756 20.5009 25.7601 20.4972C25.7685 20.4896 25.8021 20.4293 25.8544 20.3281C25.8736 20.291 25.8924 20.2575 25.8961 20.2538C25.8998 20.2501 25.9242 20.2044 25.9502 20.1524C25.9762 20.1003 26.001 20.0547 26.0053 20.051C26.0095 20.0472 26.0248 20.0153 26.0391 19.98C26.0534 19.9447 26.0697 19.9158 26.0753 19.9158C26.0809 19.9158 26.0854 19.9071 26.0854 19.8965C26.0854 19.874 26.1282 19.7893 26.1429 19.7828C26.1485 19.7803 26.1531 19.7712 26.1531 19.7627C26.1531 19.7541 26.1678 19.7166 26.1858 19.6793C26.2301 19.5875 26.3068 19.4207 26.3351 19.3546C26.3478 19.3248 26.3639 19.2897 26.3709 19.2765C26.3779 19.2633 26.417 19.169 26.4579 19.0669C26.4988 18.9648 26.5375 18.8691 26.5439 18.8543C26.5554 18.8276 26.5931 18.7311 26.6126 18.6785C26.6182 18.6636 26.6326 18.6284 26.6448 18.6003C26.657 18.5721 26.667 18.5371 26.667 18.5225C26.667 18.5079 26.6724 18.4959 26.679 18.4959C26.6856 18.4959 26.694 18.4792 26.6977 18.4587C26.7038 18.4251 26.7199 18.3755 26.7491 18.2999C26.7549 18.285 26.7698 18.2424 26.7823 18.2052C26.7949 18.168 26.8098 18.1254 26.8156 18.1106C26.8214 18.0957 26.8368 18.047 26.8499 18.0024C26.863 17.9578 26.8779 17.9091 26.8832 17.8942C26.9141 17.8063 26.9375 17.7254 26.9375 17.7063C26.9375 17.6942 26.9429 17.6737 26.9495 17.6608C26.9562 17.6478 26.9716 17.6008 26.9837 17.5562C26.9959 17.5115 27.0125 17.4507 27.0206 17.4209C27.0287 17.3912 27.0438 17.3399 27.054 17.307C27.0643 17.274 27.0727 17.2359 27.0727 17.2223C27.0727 17.2086 27.0781 17.1869 27.0847 17.174C27.0913 17.1611 27.107 17.1018 27.1196 17.0423C27.1446 16.9243 27.1544 16.8824 27.1866 16.7552C27.1984 16.7088 27.208 16.6559 27.208 16.6375C27.208 16.6192 27.2134 16.5902 27.22 16.5731C27.2326 16.5402 27.2593 16.4116 27.2769 16.2986C27.2827 16.2614 27.297 16.1793 27.3088 16.1161C27.3302 16.001 27.3412 15.9276 27.3785 15.6496C27.4101 15.4134 27.419 15.3285 27.4646 14.8247C27.5347 14.0505 27.4983 12.8899 27.377 12.0325C27.3649 11.9469 27.3494 11.8374 27.3427 11.7891C27.3359 11.7407 27.3206 11.6525 27.3088 11.593C27.2969 11.5335 27.2818 11.4514 27.2753 11.4104C27.2688 11.3695 27.2536 11.2874 27.2415 11.2279C27.2294 11.1684 27.2146 11.0923 27.2085 11.0589C27.1981 11.002 27.1881 10.9582 27.132 10.7242C27.12 10.674 27.1071 10.6131 27.1035 10.5889C27.0998 10.5646 27.0914 10.5414 27.0848 10.5374C27.0781 10.5333 27.0727 10.5141 27.0727 10.4947C27.0727 10.4575 27.0375 10.3246 27.0172 10.2849C27.0105 10.272 27.0051 10.2493 27.0051 10.2345C27.0051 10.2197 26.9967 10.1846 26.9864 10.1566C26.9762 10.1285 26.9602 10.0782 26.951 10.0447C26.9192 9.92972 26.895 9.84863 26.8843 9.82162C26.8585 9.75662 26.8292 9.65744 26.8292 9.6357C26.8293 9.62269 26.8239 9.61203 26.8173 9.61203C26.8107 9.61203 26.8018 9.59531 26.7976 9.57485C26.7795 9.48715 26.7548 9.4092 26.7451 9.4092C26.7393 9.4092 26.7344 9.39551 26.7341 9.37878C26.7339 9.36205 26.725 9.33314 26.7143 9.31455C26.7037 9.29596 26.6948 9.26705 26.6945 9.25032C26.6943 9.2336 26.6892 9.2199 26.6834 9.2199C26.6775 9.2199 26.6608 9.18035 26.6462 9.132C26.6316 9.08366 26.6151 9.04411 26.6095 9.04411C26.6039 9.04411 26.5994 9.03006 26.5994 9.01289C26.5994 8.99572 26.5904 8.96986 26.5795 8.95542C26.5686 8.94099 26.5595 8.91548 26.5592 8.89875C26.559 8.88203 26.5527 8.86833 26.5453 8.86833C26.5378 8.86833 26.5317 8.8594 26.5317 8.84851C26.5317 8.82922 26.525 8.81171 26.4644 8.67395C26.4484 8.6377 26.4242 8.57989 26.4106 8.54549C26.3489 8.38949 25.9598 7.57626 25.9375 7.5567C25.9332 7.55298 25.9096 7.51039 25.885 7.46205C25.8604 7.41371 25.8295 7.3559 25.8163 7.33359C25.8031 7.31128 25.7721 7.25652 25.7474 7.21189C25.7227 7.16727 25.6958 7.11882 25.6877 7.10425C25.6796 7.08966 25.6653 7.06944 25.656 7.05933C25.6467 7.04921 25.6391 7.03224 25.6391 7.02163C25.6391 7.011 25.6337 7.0023 25.6272 7.0023C25.6206 7.0023 25.6119 6.99165 25.6078 6.97864C25.5996 6.95272 25.5424 6.85086 25.5299 6.84004C25.5256 6.83632 25.5104 6.81198 25.4961 6.78595C25.4818 6.75992 25.4667 6.73558 25.4627 6.73187C25.4586 6.72815 25.4193 6.6673 25.3752 6.59665C25.3312 6.52599 25.2904 6.46616 25.2845 6.46369C25.2787 6.4612 25.274 6.45429 25.274 6.44833C25.274 6.43382 25.1627 6.26659 25.1493 6.26086C25.1435 6.25837 25.1387 6.25084 25.1387 6.24412C25.1387 6.22788 24.8286 5.79338 24.8128 5.78759C24.8061 5.7851 24.8006 5.77707 24.8006 5.76971C24.8006 5.76237 24.793 5.74788 24.7837 5.73751C24.7629 5.71436 24.7552 5.70439 24.6789 5.60273C24.6455 5.55814 24.615 5.51861 24.6113 5.51489C24.6075 5.51118 24.5772 5.47467 24.5439 5.43376C24.5106 5.39286 24.4786 5.35736 24.4729 5.35489C24.4672 5.3524 24.4625 5.34453 24.4625 5.33739C24.4625 5.33025 24.4403 5.30046 24.4132 5.2712C24.3862 5.24193 24.3543 5.20416 24.3426 5.18727C24.3308 5.17038 24.3084 5.14439 24.2929 5.12952C24.2774 5.11465 24.2558 5.08939 24.2449 5.07338C24.2272 5.04739 24.1382 4.94518 24.0229 4.8186C24.0006 4.7941 23.9337 4.72033 23.8742 4.6547C23.6846 4.44566 23.1884 3.95987 23.1643 3.95987C23.1516 3.95987 23.1113 3.99407 23.0749 4.03585C23.0384 4.07765 22.9842 4.13936 22.9545 4.17299C22.9247 4.20662 22.8915 4.24696 22.8806 4.26264C22.8696 4.27833 22.8421 4.30942 22.8194 4.33173C22.7967 4.35404 22.761 4.39543 22.74 4.4237C22.719 4.45198 22.678 4.49939 22.649 4.52904C22.6199 4.55871 22.5961 4.58603 22.5961 4.58978C22.5961 4.59563 22.5312 4.6696 22.4777 4.72478C22.4684 4.73437 22.4608 4.74579 22.4608 4.75018C22.4608 4.75456 22.441 4.77781 22.4169 4.80186C22.3927 4.82589 22.35 4.87413 22.3219 4.90904C22.2939 4.94396 22.2528 4.99065 22.2306 5.0128C22.2085 5.03495 22.1903 5.05701 22.1903 5.06184C22.1903 5.06666 22.1827 5.07824 22.1734 5.08757C22.1641 5.09691 22.12 5.14608 22.0754 5.19686C22.0307 5.24763 21.9881 5.29591 21.9807 5.30414C21.9535 5.33424 21.8155 5.49552 21.7903 5.5267C21.776 5.54434 21.7549 5.56868 21.7435 5.58079C21.732 5.59289 21.6895 5.64234 21.6491 5.69068C21.6086 5.73902 21.5631 5.79074 21.5479 5.80562C21.5327 5.82049 21.5112 5.84533 21.5002 5.86083C21.4797 5.88978 21.3733 6.01416 21.3085 6.0849C21.2885 6.10683 21.2519 6.14949 21.2274 6.17971C21.2028 6.20993 21.1675 6.25069 21.1489 6.27028C21.1303 6.28989 21.0919 6.33482 21.0635 6.37013C21.0351 6.40545 20.9925 6.45536 20.9688 6.48105C20.9036 6.55178 20.8065 6.66523 20.7841 6.69691C20.7731 6.71242 20.7516 6.73728 20.7363 6.75215C20.721 6.76702 20.6859 6.80616 20.6582 6.83911L20.6079 6.89902L20.7939 7.0848C20.9676 7.25831 21.0948 7.39412 21.2044 7.5229C21.2297 7.55265 21.2732 7.60004 21.3011 7.62822C21.329 7.65639 21.3518 7.68436 21.3518 7.69037C21.3518 7.69638 21.3731 7.72323 21.3991 7.75003C21.4252 7.77683 21.4465 7.80464 21.4465 7.81182C21.4465 7.81901 21.4511 7.82691 21.4567 7.8294C21.4722 7.83619 21.6617 8.07868 21.772 8.2328C21.8013 8.2737 21.8313 8.31452 21.8387 8.3235C21.8461 8.33248 21.8522 8.34357 21.8522 8.34813C21.8522 8.3527 21.8598 8.36491 21.8691 8.37528C21.9093 8.42002 21.9198 8.43532 21.9198 8.44858C21.9198 8.45633 21.9244 8.46277 21.93 8.46287C21.9356 8.46298 21.9614 8.4994 21.9875 8.5438C22.0135 8.58821 22.0394 8.62462 22.0449 8.62473C22.0505 8.62484 22.0551 8.63406 22.0551 8.64522C22.0551 8.65637 22.0605 8.6655 22.0672 8.6655C22.0738 8.6655 22.083 8.68071 22.0877 8.6993C22.0924 8.7179 22.1022 8.73311 22.1094 8.73311C22.1167 8.73311 22.1227 8.74224 22.1227 8.75339C22.1227 8.76455 22.1287 8.77367 22.136 8.77367C22.1433 8.77367 22.1531 8.78889 22.1577 8.80748C22.1624 8.82607 22.1701 8.84135 22.1749 8.84143C22.1797 8.84153 22.1952 8.86587 22.2094 8.89552C22.2236 8.92519 22.2404 8.94946 22.2466 8.94946C22.2528 8.94946 22.258 8.96163 22.258 8.9765C22.258 8.99138 22.2636 9.00355 22.2706 9.00355C22.2775 9.00355 22.2875 9.01725 22.2927 9.03397C22.2979 9.0507 22.3059 9.06744 22.3105 9.07116C22.3201 9.07897 22.3511 9.1338 22.4036 9.23592C22.4239 9.27545 22.4438 9.31083 22.4478 9.31455C22.4625 9.32833 22.7043 9.82223 22.7043 9.83852C22.7043 9.84783 22.7104 9.85543 22.7178 9.85543C22.7252 9.85543 22.7313 9.86464 22.7313 9.8759C22.7313 9.88715 22.7372 9.90693 22.7443 9.91985C22.7563 9.94137 22.7978 10.0341 22.8486 10.1529C22.8597 10.1789 22.8774 10.2202 22.888 10.2446C22.8985 10.2691 22.9071 10.298 22.9071 10.3089C22.9071 10.3198 22.9132 10.3287 22.9207 10.3287C22.9281 10.3287 22.9342 10.3407 22.9342 10.3553C22.9342 10.3699 22.9442 10.4049 22.9564 10.433C22.9685 10.4612 22.9829 10.4964 22.9883 10.5112C22.9937 10.5261 23.008 10.5613 23.0202 10.5895C23.0324 10.6176 23.0424 10.6496 23.0424 10.6606C23.0424 10.6716 23.0479 10.6912 23.0547 10.7041C23.0615 10.717 23.0772 10.758 23.0896 10.7952C23.102 10.8324 23.1169 10.875 23.1227 10.8899C23.1285 10.9047 23.144 10.9534 23.157 10.998C23.1701 11.0427 23.1858 11.0913 23.1919 11.1062C23.198 11.1211 23.2139 11.1789 23.2274 11.2347C23.2408 11.2904 23.2556 11.3391 23.2603 11.3428C23.265 11.3466 23.2717 11.3709 23.2753 11.3969C23.2828 11.4513 23.3114 11.5667 23.3273 11.6065C23.3332 11.6214 23.3409 11.6518 23.3443 11.6741C23.3579 11.7623 23.3841 11.8782 23.3955 11.9004C23.4021 11.9133 23.4076 11.9407 23.4077 11.9613C23.4078 11.9818 23.4169 12.0321 23.4278 12.073C23.4388 12.1139 23.4479 12.1699 23.448 12.1973C23.4481 12.2248 23.4542 12.251 23.4617 12.2556C23.4691 12.2602 23.4752 12.2876 23.4752 12.3166C23.4752 12.3455 23.4814 12.3984 23.4889 12.4341C23.5066 12.5175 23.5215 12.6391 23.565 13.0534C23.5954 13.3425 23.5954 14.3177 23.565 14.6287C23.5375 14.9115 23.5322 14.9611 23.5231 15.0276C23.519 15.0573 23.5062 15.1547 23.4946 15.2439C23.4831 15.3332 23.4679 15.4249 23.4609 15.4477C23.4539 15.4705 23.4479 15.507 23.4476 15.5288C23.4474 15.5506 23.4383 15.6049 23.4276 15.6496C23.4168 15.6942 23.4079 15.7505 23.4078 15.7746C23.4076 15.7988 23.4028 15.8186 23.397 15.8186C23.3879 15.8186 23.3738 15.8828 23.3449 16.0552C23.3411 16.0775 23.3332 16.108 23.3273 16.1228C23.3153 16.1529 23.2858 16.2665 23.2763 16.3189C23.273 16.3375 23.2651 16.3649 23.2588 16.3798C23.2525 16.3946 23.2441 16.422 23.2403 16.4406C23.2299 16.491 23.2025 16.5924 23.1909 16.6231C23.1853 16.638 23.1701 16.6867 23.157 16.7313C23.144 16.7759 23.1287 16.8246 23.1231 16.8395C23.0877 16.9334 23.0694 16.9921 23.0694 17.0123C23.0694 17.0251 23.0634 17.0356 23.0559 17.0356C23.0485 17.0356 23.0424 17.0475 23.0424 17.0621C23.0424 17.0768 23.0337 17.1087 23.0232 17.1331C23.0126 17.1576 22.9904 17.2141 22.9737 17.2587C22.9571 17.3033 22.9333 17.3641 22.9207 17.3939C22.9082 17.4236 22.8901 17.4693 22.8806 17.4953C22.8711 17.5213 22.8513 17.57 22.8366 17.6035C22.8219 17.637 22.8008 17.6856 22.7898 17.7117C22.7256 17.8633 22.4845 18.3525 22.471 18.3585C22.4654 18.3609 22.4608 18.3746 22.4608 18.3889C22.4608 18.4031 22.4547 18.4148 22.4473 18.4148C22.4399 18.4148 22.4337 18.4224 22.4337 18.4317C22.4336 18.441 22.4226 18.4653 22.4091 18.4858L22.3846 18.5229L22.1436 18.2863C22.011 18.1562 21.9008 18.0497 21.8986 18.0497C21.8964 18.0497 21.8251 17.9813 21.7401 17.8976C21.6551 17.8139 21.4836 17.6481 21.359 17.5291C21.2345 17.4101 21.0343 17.2162 20.9142 17.0983C20.7941 16.9803 20.6268 16.819 20.5424 16.7399C20.4579 16.6608 20.2863 16.4957 20.1609 16.373C19.8571 16.0757 19.4062 15.6399 19.2916 15.5329C19.2408 15.4855 19.0978 15.3471 18.9738 15.2252C18.8498 15.1034 18.6576 14.9178 18.5468 14.8128C18.436 14.7078 18.2522 14.5306 18.1384 14.4191C18.0246 14.3075 17.8475 14.1359 17.7448 14.0377C17.3178 13.6293 17.1727 13.4832 17.1727 13.4616C17.1727 13.449 17.1666 13.4387 17.1592 13.4387C17.1517 13.4387 17.1456 13.4312 17.1456 13.422C17.1456 13.4067 17.1019 13.3082 17.0561 13.2203C17.0459 13.2006 17.0374 13.1747 17.0374 13.1628C17.0374 13.151 17.0327 13.1413 17.0269 13.1413C17.0211 13.1413 17.0045 13.1108 16.9901 13.0736C16.9757 13.0365 16.9591 13.006 16.9533 13.006C16.9475 13.006 16.9428 12.9971 16.9428 12.9862C16.9428 12.9618 16.8992 12.8657 16.8853 12.8596C16.8797 12.8571 16.8751 12.8445 16.8751 12.8317C16.8751 12.8189 16.8662 12.7966 16.8553 12.7821C16.8444 12.7677 16.8352 12.7457 16.835 12.7333C16.8348 12.721 16.83 12.7088 16.8244 12.7063C16.8105 12.7001 16.7669 12.6041 16.7669 12.5796C16.7669 12.5687 16.7622 12.5598 16.7564 12.5598C16.7506 12.5598 16.734 12.5294 16.7196 12.4922C16.7052 12.455 16.6886 12.4246 16.6828 12.4246C16.677 12.4246 16.6723 12.4149 16.6723 12.403C16.6723 12.3912 16.6639 12.3653 16.6536 12.3455C16.6078 12.2577 16.5641 12.1591 16.5641 12.1438C16.5641 12.1346 16.558 12.1271 16.5506 12.1271C16.5431 12.1271 16.537 12.1212 16.537 12.114C16.537 12.1006 16.5073 12.0329 16.4153 11.8364C16.3874 11.7769 16.3539 11.7039 16.3409 11.6741C16.3196 11.6256 16.2561 11.4883 16.1842 11.3352C16.17 11.3049 16.1583 11.273 16.1583 11.2642C16.1583 11.2554 16.1522 11.2482 16.1448 11.2482C16.1374 11.2482 16.1313 11.2415 16.1313 11.2332C16.1313 11.225 16.1123 11.1778 16.089 11.1284C16.0657 11.079 16.0256 10.993 15.9999 10.9372C15.9741 10.8814 15.9384 10.8063 15.9204 10.7703C15.9025 10.7343 15.8878 10.6962 15.8878 10.6858C15.8878 10.6753 15.8818 10.6667 15.8743 10.6667C15.8669 10.6667 15.8608 10.6611 15.8608 10.6542C15.8608 10.6391 15.7289 10.3483 15.6498 10.1889C15.632 10.1528 15.6174 10.1148 15.6174 10.1043C15.6174 10.0939 15.6113 10.0853 15.6038 10.0853C15.5964 10.0853 15.5902 10.0777 15.59 10.0684C15.5898 10.0591 15.5717 10.015 15.5497 9.97036C15.5277 9.92574 15.5096 9.88163 15.5094 9.87233C15.5093 9.86304 15.5031 9.85543 15.4956 9.85543C15.4882 9.85543 15.4821 9.84687 15.4821 9.83639C15.4821 9.82592 15.4676 9.7879 15.4499 9.75188C15.4322 9.71587 15.4024 9.65294 15.3837 9.61203C15.365 9.57113 15.3247 9.48455 15.2942 9.41963C15.2636 9.3547 15.2387 9.29538 15.2387 9.28779C15.2387 9.28019 15.2326 9.27399 15.2251 9.27399C15.2177 9.27399 15.2116 9.26579 15.2116 9.25578C15.2116 9.24576 15.2031 9.21991 15.1927 9.19832C15.1824 9.17672 15.1515 9.11037 15.1241 9.05087C15.0308 8.84834 14.9482 8.6708 14.8686 8.50188C14.849 8.46025 14.8329 8.41917 14.8329 8.41061C14.8329 8.40207 14.8268 8.39506 14.8194 8.39506C14.812 8.39506 14.8059 8.38684 14.8059 8.37679C14.8059 8.36675 14.7907 8.32991 14.7721 8.29494C14.7535 8.25998 14.7382 8.22256 14.7382 8.2118C14.7382 8.20104 14.7322 8.19223 14.7247 8.19223C14.7173 8.19223 14.7112 8.18576 14.7112 8.17785C14.7112 8.16993 14.6968 8.1319 14.6792 8.09333C14.6616 8.05477 14.6342 7.99468 14.6184 7.9598C14.6025 7.92492 14.5834 7.89261 14.576 7.88802C14.5669 7.88242 14.5624 9.29643 14.5624 12.1421V16.4046L14.8318 16.6693C14.98 16.815 15.1818 17.0102 15.2803 17.1032C15.3788 17.1961 15.5615 17.3726 15.6863 17.4953C15.8111 17.618 15.9699 17.7723 16.0392 17.8382C16.1084 17.9041 16.2625 18.0525 16.3815 18.1679C17.1291 18.893 17.3062 19.0644 17.3485 19.1035C17.3745 19.1276 17.545 19.2924 17.7272 19.4698C18.1143 19.8464 18.3151 20.0408 18.5624 20.278C18.6609 20.3725 18.8709 20.5767 19.029 20.7318C19.187 20.8868 19.3498 21.0443 19.3907 21.0816C19.4316 21.1189 19.5427 21.225 19.6376 21.3174L19.8101 21.4854L19.7789 21.5153C19.7225 21.5692 19.6748 21.606 19.6611 21.606C19.6537 21.606 19.6477 21.6116 19.6477 21.6186C19.6477 21.6255 19.6366 21.6347 19.623 21.639C19.6095 21.6433 19.5865 21.6574 19.572 21.6703C19.5575 21.6833 19.5153 21.7149 19.4783 21.7406C19.4413 21.7664 19.409 21.7922 19.4065 21.7981C19.404 21.804 19.3971 21.8088 19.3911 21.8088C19.3766 21.8088 19.2094 21.92 19.2036 21.9334C19.2012 21.9393 19.1931 21.944 19.1858 21.944C19.1785 21.944 19.1526 21.9592 19.1282 21.9778C19.1038 21.9964 19.0806 22.0116 19.0766 22.0116C19.0727 22.0116 18.9789 22.0663 18.8683 22.1332C18.7577 22.2001 18.6601 22.2548 18.6514 22.2549C18.6427 22.255 18.6336 22.2596 18.6311 22.2652C18.6286 22.2707 18.6022 22.2873 18.5725 22.302C18.5427 22.3166 18.4957 22.3425 18.4679 22.3594C18.4402 22.3764 18.4087 22.3902 18.3981 22.3902C18.3874 22.3902 18.3766 22.3948 18.3741 22.4004C18.3701 22.4095 18.3152 22.4374 18.0651 22.5573C18.0241 22.577 17.983 22.5931 17.9738 22.5931C17.9646 22.5931 17.9571 22.5992 17.9571 22.6066C17.9571 22.614 17.9479 22.6201 17.9366 22.6201C17.9254 22.6201 17.9056 22.6259 17.8927 22.633C17.847 22.6582 17.6846 22.7283 17.672 22.7283C17.665 22.7283 17.6486 22.7341 17.6357 22.7413C17.6228 22.7484 17.5453 22.7795 17.4635 22.8103C17.3816 22.8412 17.3025 22.8716 17.2876 22.8778C17.2471 22.8949 16.9825 22.9862 16.936 22.9991C16.9137 23.0053 16.862 23.0203 16.821 23.0325C16.5644 23.109 16.351 23.1664 16.1921 23.2018C15.6275 23.3276 15.2522 23.384 14.6571 23.4328C14.4131 23.4528 13.5229 23.4526 13.2776 23.4324C12.8682 23.3988 12.6493 23.371 12.27 23.3045C12.203 23.2927 12.1209 23.2769 12.0874 23.2694C12.0539 23.2618 11.9839 23.2463 11.9319 23.2348C11.7307 23.1904 11.5906 23.1562 11.56 23.1441C11.5488 23.1397 11.5244 23.133 11.5059 23.1292C11.4301 23.1137 11.3488 23.0922 11.3233 23.081C11.3084 23.0744 11.2597 23.0587 11.2151 23.0461C11.0714 23.0054 10.9418 22.9649 10.8905 22.9446C10.8756 22.9388 10.833 22.9237 10.7958 22.9112C10.7586 22.8987 10.716 22.8837 10.7011 22.8779C10.6863 22.8721 10.6071 22.8416 10.5253 22.8102C10.4435 22.7788 10.3444 22.7384 10.3052 22.7204C10.2659 22.7024 10.2248 22.6877 10.2139 22.6877C10.2029 22.6877 10.194 22.6816 10.194 22.6742C10.194 22.6668 10.1852 22.6607 10.1745 22.6607C10.1638 22.6607 10.1025 22.6363 10.0384 22.6066C9.97432 22.5768 9.91614 22.5525 9.90915 22.5525C9.90214 22.5525 9.89642 22.5464 9.89642 22.539C9.89642 22.5315 9.88882 22.5255 9.87951 22.5255C9.86339 22.5256 9.50479 22.3511 9.49068 22.3363C9.48696 22.3324 9.44436 22.3092 9.39601 22.2847C9.30507 22.2386 9.25891 22.2126 9.24724 22.2009C9.24352 22.1972 9.21613 22.1821 9.18637 22.1673C9.12532 22.1369 8.91948 22.0105 8.90912 21.9971C8.9054 21.9922 8.88866 21.984 8.87193 21.9787C8.8552 21.9735 8.8415 21.9636 8.8415 21.9566C8.8415 21.9497 8.83237 21.944 8.82121 21.944C8.81005 21.944 8.80083 21.9394 8.80072 21.9339C8.80061 21.9283 8.76419 21.9024 8.71977 21.8764C8.67536 21.8504 8.63894 21.8245 8.63883 21.8189C8.63872 21.8134 8.6295 21.8088 8.61834 21.8088C8.60718 21.8088 8.59805 21.8041 8.59805 21.7983C8.59805 21.7926 8.57675 21.7764 8.55072 21.7624C8.52468 21.7484 8.50338 21.7318 8.50338 21.7255C8.50338 21.7193 8.49468 21.7141 8.48405 21.7141C8.47343 21.7141 8.45669 21.7065 8.44686 21.6972C8.43704 21.688 8.39264 21.6533 8.34821 21.6202C8.24526 21.5435 8.21936 21.5212 8.21936 21.5092C8.21936 21.5039 8.25638 21.4642 8.30163 21.4209C8.51116 21.2207 8.81523 20.9269 8.91135 20.8318C8.96963 20.7742 9.01952 20.727 9.02221 20.727C9.0249 20.727 9.13691 20.619 9.27113 20.487C9.40535 20.355 9.59943 20.1672 9.70241 20.0697C9.8054 19.9721 9.97907 19.8048 10.0884 19.6978C10.1976 19.5908 10.3863 19.408 10.5076 19.2915C10.9142 18.901 10.9703 18.8468 11.2847 18.5405C11.4569 18.3728 11.6043 18.2315 11.6122 18.2267C11.6201 18.2218 11.7732 18.075 11.9525 17.9005C12.4905 17.3767 12.59 17.2803 12.7898 17.0897C12.8951 16.9893 13.0958 16.7945 13.2359 16.6569L13.4907 16.4068L13.5007 12.8501C13.5092 9.78657 13.5024 7.78703 13.4837 7.87109C13.4808 7.8841 13.4728 7.89475 13.4659 7.89475C13.459 7.89475 13.4534 7.90446 13.4534 7.91633C13.4534 7.92819 13.445 7.95406 13.4347 7.9738C13.3889 8.06168 13.3452 8.1602 13.3452 8.17552C13.3452 8.18471 13.3391 8.19223 13.3317 8.19223C13.3242 8.19223 13.3182 8.19787 13.3182 8.20477C13.3182 8.2163 13.2817 8.29899 13.1837 8.51C13.0976 8.69551 13.0747 8.74805 13.0747 8.76052C13.0747 8.76775 13.0686 8.77367 13.0612 8.77367C13.0538 8.77367 13.0477 8.78088 13.0477 8.78968C13.0477 8.7985 13.036 8.83044 13.0217 8.86067C12.9684 8.97342 12.8877 9.14771 12.8585 9.21314C12.8103 9.321 12.7369 9.47806 12.7016 9.54905C12.6836 9.58507 12.669 9.62309 12.669 9.63356C12.669 9.64404 12.6629 9.6526 12.6554 9.6526C12.648 9.6526 12.6419 9.65827 12.6419 9.66517C12.6419 9.6721 12.6237 9.71719 12.6013 9.7654C12.579 9.8136 12.5608 9.85966 12.5608 9.86776C12.5608 9.87585 12.5547 9.88247 12.5473 9.88247C12.5398 9.88247 12.5337 9.89127 12.5337 9.90204C12.5337 9.9128 12.5185 9.95022 12.4999 9.98518C12.4813 10.0202 12.4661 10.057 12.4661 10.067C12.4661 10.0771 12.4605 10.0853 12.4536 10.0853C12.4468 10.0853 12.4372 10.1035 12.4323 10.1257C12.4275 10.1479 12.4178 10.1696 12.411 10.1738C12.4041 10.1781 12.3985 10.1934 12.3985 10.2078C12.3985 10.2222 12.3924 10.234 12.385 10.234C12.3775 10.234 12.3713 10.2417 12.3711 10.2509C12.371 10.2602 12.3528 10.3044 12.3309 10.349C12.3089 10.3936 12.2908 10.4377 12.2906 10.447C12.2904 10.4563 12.2842 10.4639 12.2768 10.4639C12.2693 10.4639 12.2632 10.4719 12.2632 10.4817C12.2632 10.4914 12.248 10.531 12.2294 10.5695C12.2108 10.608 12.1956 10.6457 12.1956 10.6532C12.1956 10.6606 12.1895 10.6667 12.1821 10.6667C12.1746 10.6667 12.1686 10.6732 12.1686 10.681C12.1686 10.6988 12.1188 10.8113 11.9895 11.0859C11.9597 11.1491 11.9172 11.2404 11.8951 11.2888C11.873 11.3371 11.8402 11.4061 11.8224 11.4421C11.8045 11.4781 11.7899 11.5162 11.7899 11.5266C11.7899 11.5371 11.7853 11.5457 11.7797 11.5457C11.7741 11.5457 11.7579 11.5746 11.7437 11.61C11.7294 11.6452 11.6944 11.7237 11.6659 11.7843C11.6374 11.8449 11.614 11.9012 11.614 11.9094C11.614 11.9176 11.608 11.9243 11.6005 11.9243C11.5931 11.9243 11.587 11.9318 11.587 11.941C11.587 11.9502 11.5722 11.9882 11.5542 12.0255C11.4717 12.1961 11.4112 12.3306 11.4112 12.3432C11.4112 12.3508 11.4051 12.357 11.3977 12.357C11.3902 12.357 11.3841 12.3652 11.3841 12.3752C11.3841 12.3852 11.3755 12.4111 11.365 12.4327C11.3292 12.5063 11.225 12.7287 11.1947 12.7964C11.1462 12.9047 11.0596 13.0896 11.0314 13.1451C11.0171 13.1732 11.0054 13.2051 11.0054 13.216C11.0054 13.227 10.9994 13.2359 10.9919 13.2359C10.9845 13.2359 10.9784 13.2424 10.9784 13.2503C10.9784 13.2651 10.9251 13.3876 10.8876 13.459C10.8669 13.4986 10.5856 13.7812 10.2778 14.0719C10.1938 14.1513 10.0129 14.3258 9.87583 14.4596C9.73878 14.5935 9.54279 14.7832 9.44031 14.8811C9.252 15.061 9.19778 15.1135 8.6251 15.6696C8.45029 15.8393 8.28293 15.9995 8.25317 16.0256C8.22342 16.0517 8.08582 16.1846 7.94741 16.321C7.80898 16.4574 7.61118 16.649 7.50786 16.7468C7.40451 16.8446 7.23279 17.0104 7.12623 17.1153C7.01968 17.2202 6.93072 17.306 6.92854 17.306C6.92635 17.306 6.83703 17.392 6.73005 17.497C6.62307 17.6021 6.4512 17.7679 6.34812 17.8655C6.24503 17.9631 6.0448 18.157 5.90316 18.2965C5.76151 18.4359 5.6412 18.55 5.63577 18.55C5.62148 18.55 5.60464 18.5262 5.55457 18.4351C5.53005 18.3905 5.49479 18.3266 5.47624 18.2931C5.45767 18.2596 5.43823 18.2231 5.43305 18.212C5.42786 18.2008 5.41255 18.1704 5.39901 18.1444C5.35933 18.068 5.35696 18.0631 5.28536 17.9105C5.2477 17.8303 5.21689 17.762 5.21689 17.7588C5.21689 17.7556 5.20094 17.7178 5.18145 17.6748C5.16196 17.6319 5.13732 17.5754 5.12669 17.5494C5.11607 17.5234 5.10282 17.4929 5.09726 17.4818C5.09169 17.4706 5.0755 17.4265 5.0613 17.3838C5.04708 17.341 5.03064 17.306 5.02474 17.306C5.01885 17.306 5.01402 17.292 5.01402 17.2749C5.01402 17.2578 5.00918 17.238 5.00326 17.231C4.99735 17.2239 4.98103 17.1816 4.96699 17.137C4.95294 17.0924 4.93702 17.0498 4.93161 17.0423C4.92619 17.0349 4.91751 17.006 4.91228 16.9781C4.90708 16.9502 4.89739 16.9274 4.89079 16.9274C4.88418 16.9274 4.87877 16.9121 4.87877 16.8934C4.87877 16.8747 4.87304 16.8488 4.86604 16.8359C4.85904 16.823 4.84321 16.7759 4.83088 16.7313C4.81853 16.6867 4.80307 16.638 4.79651 16.6231C4.78995 16.6083 4.77873 16.5718 4.77159 16.542C4.76443 16.5123 4.75163 16.4636 4.74312 16.4338C4.73461 16.4041 4.71864 16.3432 4.7076 16.2986C4.69658 16.254 4.68211 16.1962 4.67544 16.1702C4.65757 16.1003 4.62167 15.9423 4.60784 15.8727C4.51139 15.3866 4.47973 15.1762 4.44714 14.8044C4.439 14.7115 4.42628 14.583 4.41888 14.519C4.40123 14.3663 4.40123 13.374 4.41888 13.2089C4.42643 13.1382 4.43921 13.0043 4.44728 12.9114C4.47329 12.612 4.51684 12.3022 4.57466 12.0054C4.58698 11.9422 4.60003 11.8722 4.60367 11.8499C4.6073 11.8276 4.61394 11.8002 4.61842 11.7891C4.62291 11.7779 4.63415 11.7323 4.64343 11.6876C4.65271 11.643 4.66645 11.5822 4.67397 11.5524C4.68149 11.5227 4.69409 11.471 4.70198 11.4375C4.72124 11.3557 4.74424 11.2744 4.75744 11.2414C4.77053 11.2087 4.79716 11.1079 4.80741 11.0521C4.81153 11.0298 4.81871 11.0085 4.82339 11.0048C4.83143 10.9984 4.85729 10.9168 4.87482 10.8425C4.87922 10.8239 4.88656 10.8057 4.89116 10.802C4.90015 10.7947 4.93016 10.6972 4.94215 10.6363C4.94616 10.6159 4.95486 10.5991 4.96145 10.5991C4.96805 10.5991 4.97348 10.5885 4.97352 10.5755C4.97358 10.5625 4.98271 10.5344 4.99381 10.5131C5.00493 10.4918 5.01402 10.4629 5.01402 10.4489C5.01402 10.4348 5.0201 10.4233 5.02754 10.4233C5.03498 10.4233 5.04107 10.4136 5.04107 10.4017C5.04107 10.3898 5.05082 10.3579 5.06273 10.3307C5.07465 10.3036 5.0905 10.2662 5.09796 10.2476C5.10543 10.229 5.11937 10.1955 5.12894 10.1732C5.15243 10.1184 5.18923 10.0305 5.20252 9.99741C5.2085 9.98253 5.22938 9.93682 5.24895 9.8958C5.26851 9.85479 5.28451 9.81423 5.28451 9.80565C5.28451 9.79708 5.28907 9.78805 5.29465 9.78556C5.30704 9.78006 5.35213 9.6959 5.35213 9.67828C5.35213 9.6713 5.36735 9.64148 5.38595 9.61203C5.40454 9.58258 5.41976 9.54974 5.41976 9.53906C5.41976 9.52837 5.42431 9.51761 5.4299 9.51512C5.43547 9.51265 5.46097 9.46803 5.48656 9.41597C5.51213 9.36391 5.53647 9.31827 5.54065 9.31455C5.54482 9.31083 5.56634 9.27128 5.58846 9.22666C5.61059 9.18204 5.63646 9.13748 5.64594 9.12766C5.65544 9.11783 5.6632 9.10109 5.6632 9.09048C5.6632 9.07985 5.66858 9.07116 5.67514 9.07116C5.68172 9.07116 5.69045 9.0605 5.69456 9.04749C5.70311 9.02045 5.76046 8.91906 5.77295 8.90889C5.77754 8.90518 5.78554 8.88844 5.79078 8.87171C5.796 8.85498 5.80594 8.84128 5.81288 8.84128C5.81982 8.84128 5.8255 8.83216 5.8255 8.821C5.8255 8.80985 5.83146 8.80072 5.83876 8.80072C5.84605 8.80072 5.85585 8.78551 5.86051 8.76691C5.86518 8.74832 5.87443 8.73311 5.88106 8.73311C5.8877 8.73311 5.89312 8.72729 5.89312 8.72018C5.89312 8.70893 5.97952 8.5759 6.01248 8.53642C6.01895 8.52864 6.02672 8.51647 6.02971 8.50938C6.03933 8.48647 6.14258 8.33504 6.16699 8.30799C6.18001 8.29358 6.19066 8.27729 6.19066 8.27178C6.19066 8.26628 6.19828 8.25373 6.20757 8.2439C6.21687 8.23408 6.25186 8.18956 6.28534 8.14496C6.31881 8.10037 6.35685 8.05206 6.36986 8.03761C6.38289 8.02317 6.39353 8.00735 6.39353 8.00244C6.39353 7.99754 6.40515 7.98014 6.41935 7.96378C6.43355 7.9474 6.46551 7.90875 6.49036 7.87786C6.53845 7.81809 6.61212 7.73019 6.62351 7.71897C6.62728 7.71525 6.64762 7.68907 6.6687 7.66079C6.68979 7.63252 6.73084 7.58511 6.75991 7.55546C6.78901 7.52579 6.8128 7.49877 6.8128 7.49541C6.8128 7.49204 6.85468 7.44513 6.90587 7.39115C6.95706 7.33719 7.01483 7.27477 7.03426 7.25246C7.05368 7.23015 7.14028 7.14122 7.22669 7.05484L7.38382 6.89777L7.35189 6.86028C7.33433 6.83966 7.2941 6.79549 7.26249 6.76211C7.23088 6.72874 7.20496 6.69763 7.2049 6.69299C7.20484 6.68834 7.17593 6.65363 7.14066 6.61585C7.10539 6.57807 7.05523 6.5208 7.02919 6.48858C7.00316 6.45637 6.96511 6.41321 6.94466 6.39267C6.92421 6.37214 6.90747 6.35141 6.90747 6.34663C6.90747 6.34184 6.88762 6.31854 6.86334 6.29488C6.83908 6.2712 6.79607 6.22294 6.76779 6.18764C6.73949 6.15232 6.69697 6.10275 6.67328 6.07749C6.64959 6.05221 6.61804 6.01657 6.60316 5.99826C6.52852 5.90639 6.47741 5.84628 6.43838 5.80443C6.41468 5.77902 6.37208 5.72935 6.34371 5.69403C6.31532 5.65873 6.27688 5.61379 6.25829 5.59419C6.23969 5.57459 6.2053 5.53504 6.18186 5.50629C6.15842 5.47756 6.12799 5.44123 6.11423 5.42554C5.99261 5.28694 5.94331 5.22961 5.91725 5.19649C5.90052 5.17522 5.87151 5.14193 5.85278 5.12253C5.83406 5.10312 5.79601 5.06025 5.76825 5.02725C5.649 4.88554 5.62754 4.86064 5.59371 4.82474C5.57409 4.80391 5.54061 4.76366 5.51933 4.73527C5.49804 4.70689 5.46819 4.67142 5.453 4.65644C5.42936 4.63313 5.37333 4.56812 5.25046 4.42142C5.23571 4.4038 5.20459 4.36874 5.1813 4.34348C5.15801 4.31822 5.11845 4.27219 5.09339 4.2412C5.06833 4.21019 5.02501 4.16208 4.99711 4.13427C4.96922 4.10645 4.94639 4.07991 4.94639 4.07528C4.94639 4.0558 4.84558 3.95994 4.82588 3.9607C4.81405 3.96116 4.79124 3.97484 4.77516 3.99112Z" fill="white"/>
</svg>
