<svg width="12" height="11" viewBox="0 0 12 11" fill="none" xmlns="http://www.w3.org/2000/svg">
<path d="M10.8094 2.64286H1.875C1.66781 2.64286 1.5 2.48304 1.5 2.28571C1.5 2.08839 1.66781 1.92857 1.875 1.92857H10.875C11.0822 1.92857 11.25 1.76875 11.25 1.57143C11.25 0.979688 10.7463 0.5 10.125 0.5H1.5C0.671484 0.5 0 1.13951 0 1.92857V9.07143C0 9.86049 0.671484 10.5 1.5 10.5H10.8094C11.4661 10.5 12 10.0194 12 9.42857V3.71429C12 3.12344 11.4661 2.64286 10.8094 2.64286ZM9.75 7.28571C9.33586 7.28571 9 6.96585 9 6.57143C9 6.17701 9.33586 5.85714 9.75 5.85714C10.1641 5.85714 10.5 6.17701 10.5 6.57143C10.5 6.96585 10.1641 7.28571 9.75 7.28571Z" fill="white"/>
</svg>
