<svg width="24" height="25" viewBox="0 0 24 25" fill="none" xmlns="http://www.w3.org/2000/svg">
<path fill-rule="evenodd" clip-rule="evenodd" d="M23.6412 15.1215C22.0383 21.5501 15.526 25.4621 9.09593 23.8594C2.66883 22.2566 -1.24399 15.7452 0.359318 9.31693C1.9615 2.88759 8.47336 -1.02514 14.9016 0.577602C21.3313 2.18034 25.2437 8.69256 23.6408 15.1215H23.6412Z" fill="#38CFD9"/>
<path fill-rule="evenodd" clip-rule="evenodd" d="M7.38908 7.28999C7.16195 6.10892 8.07047 5.0187 9.25154 5.0187C10.2963 5.0187 11.1594 5.88179 11.1594 6.92659V9.28873C11.432 9.28873 11.7045 9.2433 11.9771 9.2433C12.2496 9.2433 12.4768 9.2433 12.7493 9.28873V6.92659C12.7493 5.88179 13.6124 5.0187 14.6572 5.0187C15.8383 5.0187 16.7468 6.10892 16.5651 7.28999L16.0654 10.061C17.837 10.8332 19.1998 12.196 19.1998 13.8767V14.9215C19.1998 16.3297 18.2913 17.5108 16.9739 18.2831C15.6566 19.1007 13.9304 19.555 11.9771 19.555C10.0238 19.555 8.2976 19.1007 6.98025 18.2831C5.70832 17.5108 4.7998 16.3297 4.7998 14.9215V13.8767C4.7998 12.196 6.11715 10.8332 7.88876 10.061L7.38908 7.28999ZM15.384 10.4244L15.9746 7.15372C16.1108 6.33605 15.5203 5.56381 14.6572 5.56381C13.9304 5.56381 13.3399 6.15435 13.3399 6.88116V9.87927C13.1582 9.83384 12.931 9.83384 12.7493 9.83384C12.4768 9.83384 12.2496 9.78842 11.9771 9.78842C11.7045 9.78842 11.432 9.78842 11.1594 9.83384C10.9777 9.83384 10.7506 9.87927 10.5689 9.87927V6.92659C10.5689 6.19977 9.97835 5.60924 9.25154 5.60924C8.43387 5.60924 7.79791 6.38148 7.97962 7.19914L8.57015 10.4698C6.66227 11.1966 5.39034 12.4685 5.39034 13.9222V14.967C5.39034 17.1928 8.34302 19.0099 11.9771 19.0099C15.6112 19.0099 18.5638 17.1928 18.5638 14.967V13.9222C18.6093 12.4231 17.3373 11.1512 15.384 10.4244Z" fill="#633400"/>
<path d="M18.609 14.9215C18.609 17.1473 15.6564 18.9644 12.0223 18.9644C8.38823 18.9644 5.43555 17.1473 5.43555 14.9215V13.8767H18.6545V14.9215H18.609Z" fill="#FEDD90"/>
<path fill-rule="evenodd" clip-rule="evenodd" d="M7.9794 7.19924C7.79769 6.38158 8.43365 5.60934 9.25132 5.60934C9.97813 5.60934 10.5687 6.19987 10.5687 6.92669V9.92479C11.0229 9.87937 11.4772 9.83394 11.9769 9.83394C12.4311 9.83394 12.8854 9.87937 13.3396 9.92479V6.92669C13.3396 6.19987 13.9302 5.60934 14.657 5.60934C15.4747 5.60934 16.1106 6.38158 15.9743 7.19924L15.3838 10.4699C17.2917 11.1967 18.609 12.4686 18.609 13.9223C18.609 16.1481 15.6564 17.9652 12.0223 17.9652C8.38823 17.9652 5.43555 16.1481 5.43555 13.9223C5.43555 12.4686 6.70747 11.1967 8.61536 10.4699L7.9794 7.19924Z" fill="#D1884F"/>
<path d="M10.1597 13.6042C10.1597 14.1948 9.8417 14.6945 9.43287 14.6945C9.02404 14.6945 8.70605 14.1948 8.70605 13.6042C8.70605 13.0137 9.02404 12.514 9.43287 12.514C9.8417 12.514 10.1597 13.0137 10.1597 13.6042Z" fill="#633400"/>
<path d="M15.2007 13.6042C15.2007 14.1948 14.8827 14.6945 14.4739 14.6945C14.0651 14.6945 13.7471 14.1948 13.7471 13.6042C13.7471 13.0137 14.0651 12.514 14.4739 12.514C14.8827 12.514 15.2007 13.0137 15.2007 13.6042Z" fill="#633400"/>
</svg>
