<svg width="25" height="24" viewBox="0 0 25 24" fill="none" xmlns="http://www.w3.org/2000/svg">
<rect x="0.341797" width="24" height="24" rx="6.43786" fill="white"/>
<path d="M18.1268 6.37646L13.1313 10.0848L14.0632 7.9003L18.1268 6.37646Z" fill="#E17726"/>
<path d="M13.131 10.1458C13.1211 10.1496 13.1102 10.1496 13.1004 10.1458C13.0948 10.138 13.0918 10.1286 13.0918 10.119C13.0918 10.1094 13.0948 10.1001 13.1004 10.0923L14.0361 7.90394C14.0301 7.8973 14.0262 7.88907 14.0249 7.88025C14.0235 7.87143 14.0248 7.86241 14.0285 7.85429L18.0958 6.32664C18.1065 6.32264 18.1183 6.32277 18.1289 6.32701C18.1395 6.33125 18.1481 6.33928 18.1531 6.34955C18.1606 6.35795 18.1648 6.36883 18.1648 6.3801C18.1648 6.39138 18.1606 6.40225 18.1531 6.41066L13.131 10.1229C13.1336 10.1303 13.1336 10.1384 13.131 10.1458ZM14.101 7.94595L13.2226 9.94335L17.8285 6.53669L14.101 7.94595Z" fill="#E17726"/>
<path d="M6.55811 6.37646L11.523 10.1192L10.6408 7.9003L6.55811 6.37646Z" fill="#E27625"/>
<path d="M11.5313 10.1689C11.5215 10.1727 11.5106 10.1727 11.5008 10.1689L6.52827 6.41468C6.52076 6.40628 6.5166 6.3954 6.5166 6.38413C6.5166 6.37286 6.52076 6.36198 6.52827 6.35358C6.53219 6.34492 6.53871 6.33769 6.54692 6.3329C6.55514 6.32811 6.56463 6.326 6.5741 6.32684L10.6568 7.8545C10.6701 7.85904 10.681 7.86865 10.6873 7.88123L11.5733 10.104C11.5796 10.1115 11.5829 10.1209 11.5829 10.1307C11.5829 10.1405 11.5796 10.1499 11.5733 10.1574C11.5681 10.163 11.5613 10.167 11.5539 10.169C11.5465 10.171 11.5387 10.171 11.5313 10.1689ZM6.84908 6.53308L11.432 9.9703L10.6033 7.9347L6.84908 6.53308Z" fill="#E27625"/>
<path d="M16.3202 14.981L14.9873 17.0204L17.844 17.8071L18.6651 15.0268L16.3202 14.981Z" fill="#E27625"/>
<path d="M17.8441 17.853L14.9874 17.0663C14.9798 17.0641 14.9727 17.0602 14.9668 17.0549C14.9608 17.0496 14.9561 17.0431 14.953 17.0357C14.9502 17.0291 14.9487 17.0219 14.9487 17.0147C14.9487 17.0075 14.9502 17.0004 14.953 16.9937L16.2897 14.9543C16.2936 14.9467 16.2996 14.9404 16.3071 14.9363C16.3147 14.9322 16.3232 14.9305 16.3317 14.9314L18.6729 14.9772C18.6804 14.9768 18.688 14.9782 18.6948 14.9814C18.7017 14.9846 18.7076 14.9894 18.7122 14.9955C18.7167 15.0015 18.7197 15.0086 18.7208 15.0161C18.722 15.0236 18.7212 15.0312 18.7187 15.0383L17.8976 17.8187C17.8967 17.8246 17.8946 17.8303 17.8913 17.8354C17.8881 17.8405 17.8838 17.8448 17.8787 17.8481C17.8736 17.8513 17.8679 17.8535 17.8619 17.8543C17.856 17.8552 17.8499 17.8547 17.8441 17.853ZM15.0638 16.9899L17.8136 17.7537L18.6003 15.0803L16.347 15.0383L15.0638 16.9899Z" fill="#E27625"/>
<path d="M6.02832 15.0268L6.8418 17.8071L9.69469 17.0204L8.36563 14.981L6.02832 15.0268Z" fill="#E27625"/>
<path d="M6.8415 17.8533C6.83093 17.8544 6.82032 17.8515 6.81181 17.8451C6.80331 17.8387 6.79754 17.8294 6.79567 17.8189L5.98219 15.0386C5.9785 15.0322 5.97656 15.0249 5.97656 15.0176C5.97656 15.0102 5.9785 15.003 5.98219 14.9966C5.98653 14.9905 5.99227 14.9856 5.99893 14.9823C6.00558 14.979 6.01294 14.9773 6.02038 14.9775L8.35387 14.9316C8.36158 14.9322 8.36905 14.9346 8.37568 14.9386C8.38231 14.9426 8.38792 14.948 8.39206 14.9546L9.72112 16.994C9.72481 17.0004 9.72675 17.0076 9.72675 17.015C9.72675 17.0224 9.72481 17.0296 9.72112 17.036C9.71927 17.0434 9.71546 17.0501 9.71007 17.0555C9.70469 17.0609 9.69795 17.0647 9.69057 17.0665L6.85295 17.8533H6.8415ZM6.07767 15.0729L6.86059 17.7463L9.60655 16.9825L8.3386 15.0309L6.07767 15.0729Z" fill="#E27625"/>
<path d="M9.54145 11.5357L8.74707 12.7349L11.5732 12.861L11.4816 9.80566L9.54145 11.5357Z" fill="#E27625"/>
<path d="M11.574 12.9111L8.74399 12.7812C8.73582 12.7806 8.72796 12.7778 8.72124 12.7731C8.71452 12.7684 8.70919 12.7619 8.7058 12.7545C8.70212 12.7474 8.7002 12.7395 8.7002 12.7316C8.7002 12.7236 8.70212 12.7157 8.7058 12.7086L9.50018 11.5094L11.4403 9.79083C11.4478 9.78647 11.4564 9.78418 11.4651 9.78418C11.4738 9.78418 11.4824 9.78647 11.4899 9.79083C11.4987 9.79392 11.5063 9.79959 11.5117 9.80709C11.5172 9.81459 11.5203 9.82357 11.5205 9.83284L11.616 12.8881C11.6195 12.8993 11.6195 12.9113 11.616 12.9225C11.6086 12.9246 11.6008 12.9247 11.5934 12.9227C11.586 12.9206 11.5793 12.9166 11.574 12.9111ZM8.83183 12.6896L11.5052 12.8118L11.4174 9.92068L9.57656 11.5667L8.83183 12.6896Z" fill="#E27625"/>
<path d="M15.1479 11.5362L13.1772 9.7832L13.1313 12.8614L15.9575 12.7354L15.1479 11.5362Z" fill="#E27625"/>
<path d="M13.1322 12.9109C13.1211 12.9154 13.1088 12.9154 13.0978 12.9109C13.0937 12.8998 13.0937 12.8876 13.0978 12.8765L13.1322 9.78304C13.1324 9.77377 13.1355 9.76479 13.1409 9.75728C13.1464 9.74978 13.154 9.74411 13.1627 9.74103C13.1703 9.73667 13.1788 9.73438 13.1875 9.73438C13.1963 9.73438 13.2048 9.73667 13.2124 9.74103L15.183 11.494L15.9774 12.6932C15.9811 12.7003 15.983 12.7082 15.983 12.7161C15.983 12.7241 15.9811 12.732 15.9774 12.739C15.9729 12.7464 15.9667 12.7526 15.9595 12.7572C15.9522 12.7618 15.944 12.7648 15.9354 12.7658L13.1093 12.8956L13.1322 12.9109ZM13.2429 9.88997L13.1627 12.8192L15.8552 12.697L15.1105 11.5742L13.2429 9.88997Z" fill="#E27625"/>
<path d="M9.69336 17.0199L11.4043 16.1912L9.93015 15.0454L9.69336 17.0199Z" fill="#E27625"/>
<path d="M9.69421 17.0658C9.69005 17.0678 9.68548 17.0689 9.68085 17.0689C9.67622 17.0689 9.67165 17.0678 9.66748 17.0658C9.66013 17.0607 9.65418 17.0538 9.65018 17.0458C9.64617 17.0378 9.64424 17.0289 9.64457 17.02L9.88517 15.0455C9.8858 15.0373 9.88862 15.0295 9.89332 15.0227C9.89802 15.016 9.90444 15.0107 9.91191 15.0073C9.91931 15.0025 9.92792 15 9.93673 15C9.94553 15 9.95415 15.0025 9.96155 15.0073L11.4357 16.153C11.4398 16.1593 11.442 16.1666 11.442 16.1741C11.442 16.1815 11.4398 16.1888 11.4357 16.1951C11.4351 16.2032 11.4323 16.2111 11.4276 16.2178C11.4229 16.2245 11.4165 16.2299 11.409 16.2332L9.69803 17.0582L9.69421 17.0658ZM9.96919 15.1333L9.7515 16.9398L11.3135 16.176L9.96919 15.1333Z" fill="#E27625"/>
<path d="M13.2803 16.1912L14.9874 17.0199L14.7545 15.0454L13.2803 16.1912Z" fill="#E27625"/>
<path d="M14.9883 17.0662H14.9692L13.262 16.2565C13.2546 16.2531 13.2481 16.2478 13.2434 16.2411C13.2387 16.2344 13.2359 16.2265 13.2353 16.2183C13.2312 16.2121 13.229 16.2048 13.229 16.1973C13.229 16.1899 13.2312 16.1826 13.2353 16.1763L14.7095 15.0306C14.717 15.0262 14.7256 15.0239 14.7343 15.0239C14.743 15.0239 14.7516 15.0262 14.7591 15.0306C14.7666 15.034 14.773 15.0393 14.7777 15.046C14.7824 15.0527 14.7852 15.0606 14.7859 15.0688L15.0417 17.0203C15.0438 17.029 15.0431 17.0381 15.0397 17.0464C15.0363 17.0546 15.0303 17.0616 15.0227 17.0662C15.0176 17.0696 15.0116 17.0715 15.0055 17.0715C14.9993 17.0715 14.9934 17.0696 14.9883 17.0662ZM13.3728 16.184L14.931 16.9478L14.7171 15.1413L13.3728 16.184Z" fill="#E27625"/>
<path d="M14.9874 17.0206L13.2803 16.1919L13.4178 17.3033V17.773L14.9874 17.0206Z" fill="#D5BFB2"/>
<path d="M13.4061 17.8186C13.4019 17.8206 13.3974 17.8217 13.3927 17.8217C13.3881 17.8217 13.3835 17.8206 13.3794 17.8186C13.3717 17.8148 13.3654 17.8087 13.3613 17.8012C13.3572 17.7937 13.3555 17.7851 13.3564 17.7766V17.3069L13.219 16.2069C13.2169 16.1983 13.2176 16.1891 13.221 16.1809C13.2244 16.1727 13.2304 16.1657 13.238 16.1611C13.2454 16.1563 13.2541 16.1538 13.2629 16.1538C13.2717 16.1538 13.2803 16.1563 13.2877 16.1611L14.991 16.9899C14.9992 16.9934 15.0062 16.9993 15.0111 17.0068C15.0159 17.0142 15.0185 17.023 15.0185 17.0319C15.0185 17.0408 15.0159 17.0495 15.0111 17.057C15.0062 17.0644 14.9992 17.0703 14.991 17.0739L13.4099 17.8377L13.4061 17.8186ZM13.3373 16.291L13.4672 17.3107V17.7117L14.8765 17.0204L13.3373 16.291Z" fill="#D5BFB2"/>
<path d="M9.69336 17.0204L11.2821 17.7842V17.3145L11.4158 16.2031L9.69336 17.0204Z" fill="#D5BFB2"/>
<path d="M11.2827 17.8185H11.2598L9.67107 17.0547C9.66289 17.0511 9.65593 17.0452 9.65105 17.0378C9.64616 17.0303 9.64355 17.0216 9.64355 17.0127C9.64355 17.0038 9.64616 16.995 9.65105 16.9876C9.65593 16.9801 9.66289 16.9742 9.67107 16.9707L11.3859 16.1419C11.3925 16.137 11.4005 16.1343 11.4088 16.1343C11.417 16.1343 11.4251 16.137 11.4317 16.1419C11.4361 16.1487 11.4385 16.1567 11.4385 16.1648C11.4385 16.173 11.4361 16.1809 11.4317 16.1877L11.298 17.2953V17.7574C11.2989 17.7659 11.2972 17.7745 11.2931 17.782C11.289 17.7895 11.2827 17.7956 11.2751 17.7994C11.2776 17.8019 11.2795 17.8049 11.2808 17.8082C11.2821 17.8115 11.2828 17.815 11.2827 17.8185ZM9.80474 17.0203L11.2216 17.6963V17.3144L11.3477 16.287L9.80474 17.0203Z" fill="#D5BFB2"/>
<path d="M11.3105 14.3126L9.89355 13.8963L10.8942 13.438L11.3105 14.3126Z" fill="#161616"/>
<path d="M11.3099 14.3469L9.88918 13.9307C9.87972 13.9278 9.87143 13.922 9.86553 13.9141C9.85963 13.9062 9.85645 13.8966 9.85645 13.8867C9.85645 13.8769 9.85963 13.8673 9.86553 13.8594C9.87143 13.8514 9.87972 13.8456 9.88918 13.8428L10.8898 13.3807C10.8953 13.3782 10.9013 13.3767 10.9073 13.3765C10.9134 13.3763 10.9195 13.3773 10.9251 13.3794C10.9308 13.3815 10.936 13.3848 10.9405 13.3889C10.9449 13.3931 10.9484 13.3981 10.9509 13.4036L11.371 14.282C11.3754 14.2896 11.3777 14.2981 11.3777 14.3068C11.3777 14.3156 11.3754 14.3241 11.371 14.3317C11.3637 14.3404 11.3539 14.3465 11.3429 14.3493C11.332 14.352 11.3204 14.3512 11.3099 14.3469ZM10.0267 13.8696L11.2221 14.2209L10.8707 13.4838L10.0267 13.8696Z" fill="#161616"/>
<path d="M13.376 14.3126L13.7923 13.438L14.8005 13.8963L13.376 14.3126Z" fill="#161616"/>
<path d="M13.3764 14.3472C13.369 14.3468 13.3619 14.345 13.3553 14.3417C13.3487 14.3384 13.3429 14.3338 13.3382 14.3281C13.3338 14.3206 13.3315 14.312 13.3315 14.3033C13.3315 14.2946 13.3338 14.286 13.3382 14.2785L13.7583 13.4001C13.764 13.3895 13.7733 13.3814 13.7846 13.3772C13.7958 13.373 13.8082 13.373 13.8194 13.3772L14.8277 13.8393C14.8363 13.8432 14.8435 13.8497 14.8483 13.8579C14.8531 13.8662 14.8552 13.8757 14.8544 13.8851C14.8539 13.8949 14.8503 13.9042 14.8441 13.9118C14.8379 13.9193 14.8295 13.9247 14.82 13.9271L13.3878 14.3472H13.3764ZM13.8156 13.4841L13.4642 14.2212L14.6596 13.8889L13.8156 13.4841Z" fill="#161616"/>
<path d="M9.69478 17.0204L9.94302 14.981L8.36572 15.0268L9.69478 17.0204Z" fill="#CC6228"/>
<path d="M9.69332 17.0665C9.67735 17.0659 9.66227 17.0591 9.65131 17.0474L8.32225 15.0539C8.31748 15.0465 8.31494 15.0378 8.31494 15.029C8.31494 15.0202 8.31748 15.0116 8.32225 15.0042C8.32564 14.9967 8.33097 14.9903 8.33769 14.9856C8.34441 14.9809 8.35226 14.9781 8.36044 14.9775L9.93774 14.9316C9.93774 14.9316 9.96829 14.9316 9.97593 14.9316C9.97862 14.937 9.98002 14.9429 9.98002 14.9488C9.98002 14.9548 9.97862 14.9607 9.97593 14.966L9.73915 17.0207C9.73931 17.0306 9.73595 17.0403 9.72966 17.048C9.72336 17.0557 9.71455 17.0609 9.70477 17.0627L9.69332 17.0665ZM8.4521 15.0691L9.65894 16.887L9.88809 15.0309L8.4521 15.0691Z" fill="#CC6228"/>
<path d="M14.7432 14.981L14.9876 17.0204L16.3205 15.0268L14.7432 14.981Z" fill="#CC6228"/>
<path d="M14.9875 17.0663C14.978 17.0638 14.9696 17.0584 14.9634 17.0509C14.9572 17.0433 14.9536 17.034 14.9531 17.0242L14.7087 14.9848C14.706 14.9795 14.7046 14.9736 14.7046 14.9676C14.7046 14.9617 14.706 14.9558 14.7087 14.9505C14.7147 14.9477 14.7212 14.9463 14.7278 14.9463C14.7344 14.9463 14.7409 14.9477 14.7469 14.9505L16.3242 14.9963C16.3327 14.9973 16.341 15.0002 16.3482 15.0049C16.3555 15.0095 16.3616 15.0157 16.3662 15.023C16.3699 15.0308 16.3718 15.0392 16.3718 15.0478C16.3718 15.0564 16.3699 15.0649 16.3662 15.0727L15.0409 17.0472C15.0355 17.0559 15.0272 17.0625 15.0175 17.066C15.0078 17.0695 14.9972 17.0695 14.9875 17.0663ZM14.7965 15.0307L15.018 16.8868L16.2363 15.0688L14.7965 15.0307Z" fill="#CC6228"/>
<path d="M15.9385 12.7354L13.1123 12.8614L13.3758 14.3127L13.7921 13.4381L14.8004 13.8964L15.9385 12.7354Z" fill="#CC6228"/>
<path d="M13.3756 14.3471C13.3654 14.3464 13.3556 14.3422 13.348 14.3353C13.3404 14.3284 13.3353 14.3191 13.3336 14.3089L13.0739 12.8615C13.0709 12.8555 13.0693 12.849 13.0693 12.8424C13.0693 12.8357 13.0709 12.8292 13.0739 12.8233C13.0779 12.8177 13.083 12.8131 13.089 12.8098C13.0949 12.8065 13.1015 12.8046 13.1083 12.8042L15.9383 12.6743C15.9479 12.6751 15.9571 12.6784 15.9651 12.6837C15.9731 12.6891 15.9796 12.6963 15.9841 12.7049C15.9894 12.7121 15.9922 12.7208 15.9922 12.7297C15.9922 12.7386 15.9894 12.7473 15.9841 12.7545L14.8384 13.9194C14.8302 13.9259 14.8201 13.9294 14.8097 13.9294C14.7993 13.9294 14.7892 13.9259 14.7811 13.9194L13.8187 13.4802L13.4367 14.3127C13.4355 14.3193 13.4328 14.3255 13.4289 14.3309C13.425 14.3363 13.42 14.3408 13.4142 14.3441C13.4084 14.3474 13.4019 14.3494 13.3952 14.3499C13.3886 14.3504 13.3819 14.3494 13.3756 14.3471ZM13.1694 12.892L13.3947 14.1447L13.7499 13.3809C13.7556 13.3703 13.7649 13.3622 13.7762 13.3579C13.7874 13.3537 13.7998 13.3537 13.811 13.3579L14.7887 13.8048L15.8046 12.7889L13.1694 12.892Z" fill="#CC6228"/>
<path d="M9.89281 13.8964L10.8934 13.4381L11.3097 14.3127L11.5732 12.8614L8.74707 12.7354L9.89281 13.8964Z" fill="#CC6228"/>
<path d="M11.3096 14.3467C11.3004 14.346 11.2917 14.3427 11.2843 14.3374C11.2768 14.332 11.2711 14.3246 11.2676 14.3161L10.8857 13.4836L9.92705 13.9228C9.91953 13.929 9.91008 13.9324 9.90032 13.9324C9.89056 13.9324 9.88111 13.929 9.87359 13.9228L8.72785 12.7579C8.72257 12.7507 8.71973 12.742 8.71973 12.7331C8.71973 12.7242 8.72257 12.7155 8.72785 12.7083C8.73256 12.7 8.73916 12.6929 8.74712 12.6876C8.75508 12.6822 8.76418 12.6789 8.77368 12.6777L11.6037 12.8076C11.6041 12.8114 11.6041 12.8152 11.6037 12.819C11.6067 12.825 11.6082 12.8315 11.6082 12.8381C11.6082 12.8448 11.6067 12.8513 11.6037 12.8572L11.344 14.3047C11.3423 14.3148 11.3372 14.3241 11.3296 14.3311C11.322 14.338 11.3122 14.3422 11.3019 14.3429L11.3096 14.3467ZM10.8933 13.3728C10.9021 13.3728 10.9108 13.3752 10.9182 13.38C10.9257 13.3847 10.9316 13.3915 10.9353 13.3996L11.2905 14.1634L11.5158 12.9107L8.86533 12.7923L9.90032 13.8426L10.8742 13.3957L10.8933 13.3728Z" fill="#CC6228"/>
<path d="M8.74707 12.7354L9.931 15.0268L9.89281 13.8811L8.74707 12.7354Z" fill="#E27525"/>
<path d="M9.93156 15.1107C9.92272 15.1108 9.91406 15.1083 9.9066 15.1035C9.89915 15.0988 9.89323 15.092 9.88955 15.084L8.70561 12.7734C8.69837 12.7656 8.69434 12.7554 8.69434 12.7448C8.69434 12.7341 8.69837 12.7239 8.70561 12.7161C8.70987 12.7118 8.71493 12.7085 8.7205 12.7061C8.72607 12.7038 8.73205 12.7026 8.73808 12.7026C8.74411 12.7026 8.75008 12.7038 8.75565 12.7061C8.76122 12.7085 8.76628 12.7118 8.77054 12.7161L9.91628 13.8619C9.91957 13.8731 9.91957 13.885 9.91628 13.8962L9.95829 15.042C9.95795 15.0532 9.95408 15.0641 9.94723 15.073C9.94037 15.0819 9.93088 15.0884 9.9201 15.0916L9.93156 15.1107ZM8.93094 12.9911L9.87809 14.8319L9.84754 13.9153L8.93094 12.9911Z" fill="#E27525"/>
<path d="M14.7997 13.8962L14.7539 15.042L15.9378 12.7505L14.7997 13.8962Z" fill="#E27525"/>
<path d="M14.7545 15.1107C14.7437 15.1075 14.7342 15.1009 14.7274 15.092C14.7205 15.0831 14.7166 15.0723 14.7163 15.061L14.7621 13.9153C14.7592 13.904 14.7592 13.8922 14.7621 13.8809L15.9079 12.7352C15.9174 12.7286 15.9288 12.7251 15.9403 12.7251C15.9519 12.7251 15.9633 12.7286 15.9728 12.7352C15.979 12.7441 15.9824 12.7548 15.9824 12.7657C15.9824 12.7767 15.979 12.7873 15.9728 12.7963L14.7851 15.1069C14.7757 15.112 14.7648 15.1133 14.7545 15.1107ZM14.8462 13.9344L14.8118 14.851L15.7551 13.0102L14.8462 13.9344Z" fill="#E27525"/>
<path d="M11.5731 12.8613L11.3096 14.3126L11.6418 16.0236L11.7182 13.7665L11.5731 12.8613Z" fill="#E27525"/>
<path d="M11.6427 16.073C11.6318 16.0732 11.6212 16.0694 11.6128 16.0624C11.6044 16.0554 11.5987 16.0456 11.5969 16.0348L11.2646 14.32L11.5282 12.8688C11.53 12.858 11.5356 12.8482 11.544 12.8412C11.5524 12.8342 11.5631 12.8304 11.574 12.8306C11.5852 12.8309 11.5961 12.8348 11.605 12.8416C11.6139 12.8485 11.6204 12.858 11.6236 12.8688L11.765 13.7739L11.6924 16.0425C11.6915 16.0543 11.6864 16.0655 11.678 16.0739C11.6696 16.0823 11.6584 16.0874 11.6466 16.0883L11.6427 16.073ZM11.3601 14.3124L11.6046 15.5994L11.6618 13.7663L11.5625 13.1476L11.3601 14.3124Z" fill="#E27525"/>
<path d="M13.1321 12.8613L12.9946 13.7626L13.0634 16.0236L13.3956 14.3126L13.1321 12.8613Z" fill="#E27525"/>
<path d="M13.0433 16.0732C13.0314 16.0723 13.0203 16.0672 13.0119 16.0588C13.0034 16.0504 12.9983 16.0393 12.9975 16.0274L12.9287 13.7665L13.07 12.8537C13.0713 12.8471 13.0739 12.8409 13.0778 12.8355C13.0817 12.8301 13.0868 12.8256 13.0926 12.8223C13.0984 12.819 13.1049 12.8171 13.1115 12.8165C13.1182 12.816 13.1249 12.817 13.1311 12.8193C13.1421 12.8192 13.1527 12.8229 13.1611 12.8299C13.1695 12.8369 13.1751 12.8467 13.177 12.8575L13.4405 14.3088L13.1082 16.0236C13.1098 16.0319 13.109 16.0405 13.1059 16.0484C13.1029 16.0563 13.0977 16.0632 13.091 16.0683C13.0843 16.0735 13.0762 16.0766 13.0678 16.0775C13.0594 16.0784 13.0509 16.0769 13.0433 16.0732ZM13.1311 13.1516L13.0356 13.7703L13.0929 15.5958L13.3412 14.3126L13.1311 13.1516Z" fill="#E27525"/>
<path d="M13.3762 14.3124L13.0439 16.0233L13.2807 16.1914L14.7549 15.0456L14.8007 13.8999L13.3762 14.3124Z" fill="#F5841F"/>
<path d="M13.2811 16.2566H13.2543L13.0137 16.0885C13.0062 16.0829 13.0003 16.0753 12.997 16.0665C12.9936 16.0577 12.9928 16.0481 12.9946 16.0389L13.3307 14.3279C13.3312 14.3192 13.3344 14.3108 13.3399 14.3039C13.3453 14.2971 13.3528 14.2921 13.3613 14.2897L14.7858 13.8734C14.7924 13.8706 14.7996 13.8691 14.8068 13.8691C14.814 13.8691 14.8212 13.8706 14.8278 13.8734C14.8328 13.887 14.8328 13.9019 14.8278 13.9155L14.782 15.0612C14.7845 15.0672 14.7858 15.0737 14.7858 15.0803C14.7858 15.0868 14.7845 15.0933 14.782 15.0994L13.3078 16.2451C13.3005 16.252 13.2911 16.2561 13.2811 16.2566ZM13.0977 16.0198L13.2811 16.1496L14.7094 15.0383L14.7476 13.9766L13.4185 14.3585L13.0977 16.0198Z" fill="#F5841F"/>
<path d="M9.89355 13.896L9.93175 15.0417L11.4059 16.1875L11.6427 16.0194L11.3105 14.3085L9.89355 13.896Z" fill="#F5841F"/>
<path d="M11.405 16.2564C11.395 16.2596 11.3843 16.2596 11.3744 16.2564L9.90023 15.1106C9.89662 15.0981 9.89662 15.0849 9.90023 15.0724L9.85822 13.9267C9.85325 13.9131 9.85325 13.8982 9.85822 13.8847C9.86486 13.8818 9.872 13.8804 9.87922 13.8804C9.88644 13.8804 9.89359 13.8818 9.90023 13.8847L11.3209 14.301C11.3296 14.3036 11.3374 14.3085 11.3435 14.3153C11.3495 14.322 11.3536 14.3303 11.3553 14.3391L11.6876 16.0501C11.6894 16.0594 11.6886 16.0689 11.6852 16.0777C11.6819 16.0865 11.676 16.0942 11.6685 16.0998L11.4279 16.2678L11.405 16.2564ZM9.97661 15.038L11.405 16.1494L11.5921 16.0196L11.2713 14.3468L9.94224 13.9649L9.97661 15.038Z" fill="#F5841F"/>
<path d="M13.4056 17.7838V17.3141L13.2795 17.2033H11.37L11.2477 17.3141V17.7838L9.69336 17.02L10.2471 17.4745L11.3929 18.2383H13.3254L14.4711 17.4745L14.9867 17.02L13.4056 17.7838Z" fill="#C0AC9D"/>
<path d="M13.308 18.2995H11.3755H11.3487L10.2221 17.5357L9.6645 17.0774C9.65699 17.069 9.65283 17.0581 9.65283 17.0468C9.65283 17.0356 9.65699 17.0247 9.6645 17.0163C9.67126 17.0069 9.68087 17 9.69188 16.9966C9.7029 16.9931 9.71473 16.9933 9.72561 16.9972L11.2533 17.719V17.3371C11.2537 17.3297 11.2555 17.3226 11.2588 17.316C11.2621 17.3094 11.2667 17.3036 11.2724 17.2989L11.3946 17.192C11.4044 17.1881 11.4153 17.1881 11.4251 17.192H13.3347C13.3445 17.1881 13.3554 17.1881 13.3652 17.192L13.4951 17.2989C13.4995 17.3112 13.4995 17.3247 13.4951 17.3371V17.719L15.0227 16.9972C15.0337 16.9939 15.0453 16.994 15.0562 16.9974C15.0671 17.0008 15.0767 17.0074 15.0839 17.0163C15.0914 17.0247 15.0955 17.0356 15.0955 17.0468C15.0955 17.0581 15.0914 17.069 15.0839 17.0774L14.5339 17.5357L13.3882 18.2995H13.308ZM11.3984 18.204H13.308L14.427 17.4402L14.679 17.2301L13.4416 17.8183C13.435 17.8233 13.427 17.8259 13.4187 17.8259C13.4104 17.8259 13.4024 17.8233 13.3958 17.8183C13.3882 17.8145 13.3819 17.8084 13.3778 17.8009C13.3737 17.7934 13.372 17.7848 13.3729 17.7763V17.3294L13.2736 17.2492H11.4137L11.322 17.3294V17.7763C11.3229 17.7848 11.3212 17.7934 11.3171 17.8009C11.313 17.8084 11.3067 17.8145 11.2991 17.8183C11.2925 17.8233 11.2844 17.8259 11.2762 17.8259C11.2679 17.8259 11.2599 17.8233 11.2533 17.8183L10.0197 17.234L10.2717 17.4402L11.3984 18.204Z" fill="#C0AC9D"/>
<path d="M13.2808 16.1915L13.0441 16.0234H11.6424L11.4056 16.1915L11.272 17.3028L11.3942 17.1921H13.3038L13.4298 17.3028L13.2808 16.1915Z" fill="#161616"/>
<path d="M11.2717 17.3484H11.2488C11.2409 17.3429 11.2345 17.3354 11.2305 17.3267C11.2265 17.318 11.2249 17.3083 11.2259 17.2987L11.3595 16.1912C11.3597 16.1843 11.3615 16.1776 11.3648 16.1716C11.3682 16.1656 11.3729 16.1605 11.3786 16.1568L11.6154 15.9888H11.6422H13.0438H13.0705L13.3073 16.1568C13.313 16.1605 13.3178 16.1656 13.3211 16.1716C13.3245 16.1776 13.3263 16.1843 13.3264 16.1912L13.4677 17.2987C13.4679 17.3086 13.4656 17.3184 13.4609 17.3271C13.4562 17.3358 13.4493 17.3431 13.441 17.3484C13.4332 17.354 13.4238 17.357 13.4142 17.357C13.4046 17.357 13.3953 17.354 13.3875 17.3484L13.2729 17.2529H11.413L11.3023 17.3484C11.2924 17.3522 11.2815 17.3522 11.2717 17.3484ZM11.3939 17.146H13.3035C13.3133 17.1421 13.3242 17.1421 13.334 17.146L13.3684 17.1727L13.2462 16.2065L13.04 16.0613H11.6574L11.4512 16.2065L11.3328 17.1727L11.3634 17.146C11.3732 17.1421 11.3841 17.1421 11.3939 17.146Z" fill="#161616"/>
<path d="M18.3406 10.3291L18.7645 8.27822L18.1268 6.36865L13.2803 9.96246L15.1478 11.5359L17.7792 12.2998L18.3597 11.62L18.0962 11.4405L18.4781 11.0585L18.1726 10.8179L18.5545 10.5124L18.3406 10.3291Z" fill="#763E1A"/>
<path d="M17.7791 12.3493L15.1439 11.5854L13.2496 10.0005C13.2449 9.98821 13.2449 9.97461 13.2496 9.96232C13.2495 9.95488 13.2511 9.94751 13.2544 9.94086C13.2578 9.93421 13.2627 9.92846 13.2687 9.92412L18.0961 6.3265C18.1021 6.32186 18.1095 6.31934 18.1171 6.31934C18.1247 6.31934 18.1321 6.32186 18.1381 6.3265C18.1455 6.32835 18.1522 6.33217 18.1576 6.33755C18.163 6.34293 18.1668 6.34967 18.1687 6.35705L18.8026 8.26662C18.8044 8.27415 18.8044 8.282 18.8026 8.28954L18.3864 10.3099L18.627 10.4932C18.6333 10.4974 18.6384 10.503 18.642 10.5097C18.6456 10.5164 18.6475 10.5238 18.6475 10.5314C18.6475 10.5389 18.6456 10.5464 18.642 10.553C18.6384 10.5597 18.6333 10.5654 18.627 10.5696L18.2718 10.8369L18.5315 11.0393C18.5372 11.043 18.542 11.0481 18.5453 11.0541C18.5486 11.0601 18.5504 11.0668 18.5506 11.0737C18.5542 11.0862 18.5542 11.0994 18.5506 11.1119L18.1916 11.4365L18.3978 11.5854C18.4019 11.5965 18.4019 11.6087 18.3978 11.6198C18.4016 11.631 18.4016 11.643 18.3978 11.6542L17.8173 12.334C17.8124 12.3391 17.8065 12.3431 17.7999 12.3458C17.7933 12.3484 17.7862 12.3496 17.7791 12.3493ZM15.1706 11.4938L17.7638 12.2576L18.2909 11.6427L18.0961 11.4823C18.0905 11.4776 18.0859 11.4718 18.0826 11.4652C18.0793 11.4587 18.0774 11.4515 18.077 11.4441C18.0737 11.4383 18.0719 11.4317 18.0719 11.425C18.0719 11.4183 18.0737 11.4118 18.077 11.4059L18.436 11.0775L18.1725 10.8751C18.1664 10.8708 18.1615 10.865 18.1582 10.8584C18.1549 10.8517 18.1532 10.8443 18.1534 10.8369C18.1538 10.8296 18.1557 10.8224 18.159 10.8158C18.1622 10.8092 18.1668 10.8034 18.1725 10.7987L18.5277 10.5314L18.3138 10.3671C18.3094 10.3596 18.3071 10.351 18.3071 10.3423C18.3071 10.3336 18.3094 10.325 18.3138 10.3175L18.7339 8.2819L18.0961 6.45253L13.3566 9.96613L15.1706 11.4938Z" fill="#763E1A"/>
<path d="M5.92432 8.27839L6.34824 10.3293L6.07708 10.5279L6.48191 10.8334L6.17638 11.074L6.57739 11.4559L6.32533 11.6392L6.90583 12.3038L9.54103 11.5399L11.4048 9.96645L6.55829 6.37646L5.92432 8.27839Z" fill="#763E1A"/>
<path d="M6.90653 12.3498C6.90048 12.3523 6.89399 12.3536 6.88743 12.3536C6.88088 12.3536 6.87439 12.3523 6.86834 12.3498L6.28783 11.6738C6.28405 11.6626 6.28405 11.6505 6.28783 11.6394C6.29091 11.6264 6.29752 11.6145 6.30693 11.605L6.51316 11.4561L6.1427 11.1124C6.1391 11.0999 6.1391 11.0866 6.1427 11.0742C6.14028 11.0688 6.13903 11.0629 6.13903 11.057C6.13903 11.0511 6.14028 11.0452 6.1427 11.0398L6.4024 10.8374L6.04341 10.57C6.0371 10.5659 6.03193 10.5602 6.02836 10.5535C6.02478 10.5469 6.02291 10.5394 6.02291 10.5319C6.02291 10.5243 6.02478 10.5168 6.02836 10.5102C6.03193 10.5035 6.0371 10.4978 6.04341 10.4937L6.29165 10.3103L5.87536 8.29002C5.87358 8.28249 5.87358 8.27464 5.87536 8.26711L6.50934 6.35754C6.51148 6.34966 6.51587 6.34257 6.52197 6.33714C6.52808 6.33172 6.53563 6.32819 6.54371 6.32699C6.54973 6.32234 6.55712 6.31982 6.56472 6.31982C6.57232 6.31982 6.57971 6.32234 6.58572 6.32699L11.4322 9.92461C11.4387 9.92875 11.4442 9.93436 11.4482 9.94099C11.4522 9.94762 11.4545 9.95509 11.4551 9.9628C11.4592 9.97521 11.4592 9.98859 11.4551 10.001L9.57228 11.5745L6.93708 12.3383L6.90653 12.3498ZM6.39477 11.6356L6.92181 12.2505L9.51882 11.4866L11.3291 9.95898L6.5819 6.45302L5.97084 8.28239L6.39477 10.318C6.39953 10.3254 6.40207 10.334 6.40207 10.3428C6.40207 10.3516 6.39953 10.3602 6.39477 10.3676L6.15798 10.528L6.51316 10.7954C6.51879 10.8001 6.5234 10.8059 6.52668 10.8125C6.52997 10.8191 6.53187 10.8262 6.53225 10.8336C6.53241 10.841 6.53075 10.8484 6.52743 10.855C6.5241 10.8617 6.5192 10.8674 6.51316 10.8718L6.25728 11.078L6.61628 11.4064C6.61963 11.4122 6.62139 11.4188 6.62139 11.4255C6.62139 11.4322 6.61963 11.4388 6.61628 11.4446C6.61589 11.452 6.61399 11.4591 6.61071 11.4657C6.60742 11.4723 6.60282 11.4781 6.59718 11.4828L6.39477 11.6356Z" fill="#763E1A"/>
<path d="M17.7787 12.3039L15.1473 11.54L15.9378 12.7392L14.7539 15.0307H16.3198H18.6647L17.7787 12.3039Z" fill="#F5841F"/>
<path d="M14.7546 15.1109C14.7463 15.1106 14.7382 15.1084 14.7309 15.1044C14.7236 15.1004 14.7174 15.0948 14.7126 15.088C14.709 15.0809 14.707 15.0731 14.707 15.0651C14.707 15.0571 14.709 15.0492 14.7126 15.0422L15.8851 12.7507L15.1213 11.5782C15.1157 11.5704 15.1127 11.5611 15.1127 11.5515C15.1127 11.5419 15.1157 11.5325 15.1213 11.5247C15.1272 11.5165 15.1355 11.5102 15.145 11.5068C15.1546 11.5034 15.165 11.503 15.1748 11.5056L17.81 12.2695C17.8173 12.2713 17.8241 12.2751 17.8295 12.2805C17.8348 12.2859 17.8387 12.2926 17.8405 12.3L18.7265 15.0231C18.7291 15.0302 18.7298 15.0378 18.7287 15.0453C18.7275 15.0528 18.7246 15.0599 18.72 15.0659C18.7155 15.072 18.7095 15.0768 18.7027 15.08C18.6958 15.0832 18.6883 15.0846 18.6807 15.0842H16.3205L14.7546 15.1033V15.1109ZM15.2588 11.6393L15.9806 12.7278C15.9843 12.7348 15.9862 12.7427 15.9862 12.7507C15.9862 12.7587 15.9843 12.7665 15.9806 12.7736L14.8348 15.0154L16.3205 14.9963H18.612L17.7603 12.3611L15.2588 11.6393Z" fill="#F5841F"/>
<path d="M9.54192 11.5361L6.90672 12.3L6.02832 15.0268H8.36563H9.93147L8.74754 12.7353L9.54192 11.5361Z" fill="#F5841F"/>
<path d="M9.93086 15.1107L8.36502 15.0916H6.02771C6.02171 15.0944 6.0152 15.0958 6.00861 15.0958C6.00202 15.0958 5.99551 15.0944 5.98952 15.0916C5.98583 15.0852 5.98389 15.078 5.98389 15.0706C5.98389 15.0632 5.98583 15.056 5.98952 15.0496L6.86792 12.3266C6.86976 12.3192 6.87358 12.3124 6.87896 12.3071C6.88434 12.3017 6.89109 12.2979 6.89847 12.296L9.53367 11.5322C9.54343 11.5289 9.55402 11.529 9.56372 11.5325C9.57342 11.5359 9.58167 11.5426 9.58714 11.5513C9.59273 11.5591 9.59574 11.5684 9.59574 11.578C9.59574 11.5876 9.59273 11.597 9.58714 11.6047L8.82331 12.7772L9.99579 15.0687C9.99947 15.0758 10.0014 15.0836 10.0014 15.0916C10.0014 15.0996 9.99947 15.1075 9.99579 15.1145C9.99157 15.1191 9.98639 15.1227 9.98062 15.125C9.97485 15.1274 9.96863 15.1284 9.96242 15.128C9.95621 15.1276 9.95015 15.1259 9.94469 15.1229C9.93924 15.1199 9.93451 15.1158 9.93086 15.1107ZM6.11173 14.9961H8.36502L9.85448 15.0152L8.70874 12.7734C8.70506 12.7663 8.70313 12.7585 8.70313 12.7505C8.70313 12.7425 8.70506 12.7346 8.70874 12.7276L9.42673 11.62L6.9443 12.3418L6.11173 14.9961Z" fill="#F5841F"/>
<path d="M13.1317 12.8614L13.2997 9.96272L14.0635 7.90039H10.6416L11.4054 9.96272L11.5735 12.8614L11.6384 13.7742V16.0237H13.04V13.7742L13.1317 12.8614Z" fill="#F5841F"/>
<path d="M13.0436 16.0733H11.642C11.6356 16.0733 11.6293 16.072 11.6235 16.0695C11.6177 16.0669 11.6124 16.0632 11.6081 16.0585C11.6038 16.0539 11.6005 16.0483 11.5985 16.0423C11.5964 16.0363 11.5956 16.0299 11.5961 16.0236V13.7741L11.5312 12.8652L11.3632 9.97411L10.5994 7.9156C10.5971 7.90196 10.6002 7.88797 10.608 7.87658C10.6159 7.86519 10.6278 7.85727 10.6414 7.85449H14.0442C14.0516 7.85538 14.0588 7.85782 14.0653 7.86165C14.0717 7.86549 14.0773 7.87063 14.0816 7.87675C14.0859 7.88287 14.0889 7.88984 14.0903 7.89719C14.0918 7.90454 14.0917 7.91211 14.09 7.91942L13.3262 9.97793L13.1582 12.869L13.0932 13.7818V16.0274C13.0933 16.0338 13.092 16.0401 13.0894 16.0459C13.0869 16.0517 13.0832 16.057 13.0785 16.0613C13.0738 16.0656 13.0683 16.0689 13.0623 16.0709C13.0563 16.073 13.0499 16.0738 13.0436 16.0733ZM11.6916 15.9778H12.9939V13.7741L13.0551 12.8614L13.2269 9.95883L13.9678 7.95761H10.7101L11.451 9.94738L11.6191 12.8499L11.684 13.7589L11.6916 15.9778Z" fill="#F5841F"/>
</svg>
