<svg width="41" height="50" viewBox="0 0 41 50" fill="none" xmlns="http://www.w3.org/2000/svg">
<path fill-rule="evenodd" clip-rule="evenodd" d="M28.933 8.54389C28.8391 8.58625 28.7398 8.61686 28.6378 8.63497C28.0683 9.41421 28.4163 9.32313 27.404 9.9708C27.3618 10.8447 27.4832 11.7187 27.7625 12.5514C27.7699 12.5637 27.7738 12.5777 27.7738 12.5919C27.7738 12.6061 27.7699 12.62 27.7625 12.6324C27.7422 12.6402 27.7195 12.6402 27.6993 12.6324C27.4567 12.683 27.1087 12.774 26.8978 12.8044C26.9609 13.2442 26.9609 13.6903 26.8978 14.1301C26.2698 15.3163 25.295 16.301 24.0928 16.9637C23.3863 17.0953 22.6059 16.4982 21.3722 15.9517C21.0347 15.81 19.8958 15.0915 19.2631 14.9397C18.6304 14.7879 18.2719 15.9517 18.8835 16.2452C19.1682 16.3869 19.6217 16.5893 19.7693 16.9435C20.1911 18.0061 19.706 22.0945 18.8202 22.9142C18.409 22.9142 18.061 22.5398 17.7657 22.641C17.2174 22.9243 17.5653 24.5537 17.7657 24.837C21.1718 28.1867 20.7605 30.6762 22.2052 32.5282C22.8696 32.5282 22.4372 33.1961 22.9328 33.9855C23.005 34.4393 22.9689 34.903 22.8274 35.3415V36.3535C22.8274 36.4547 22.7536 36.5661 22.7114 36.6673V37.5578C22.6165 37.9828 22.5005 38.5698 22.4056 38.9645C22.2052 39.8146 22.9856 40.4825 22.5216 41.282C22.5216 41.788 22.5216 41.6868 22.2052 42.0915C22.1101 43.0812 22.1101 44.0772 22.2052 45.0668C22.7532 45.9337 23.4482 46.7067 24.2615 47.3539C25.179 47.7385 26.5287 47.6575 26.0858 49.0338C23.4074 49.8232 21.6991 48.5987 20.2755 48.5784L20.2122 48.8112C19.581 48.8315 18.9505 48.7529 18.3457 48.5784C18.4329 47.7925 18.5667 47.012 18.7464 46.2407L19.0522 45.7752C19.0703 44.6842 19.028 43.5931 18.9257 42.5065C18.3562 42.1118 18.2402 40.8873 18.2402 40.2092C18.1018 39.6353 18.0346 39.0476 18.0399 38.4585C17.9299 38.0629 17.8942 37.6517 17.9344 37.2441C18.0188 36.9709 18.3351 36.8595 18.4195 36.6369V35.8779C18.5671 35.0784 18.525 34.704 18.0188 34.2283C16.7745 34.2283 16.5952 34.2992 15.9098 33.2771C15.6989 32.9633 13.9484 30.3119 13.8007 30.2411C12.3455 29.6339 12.6302 29.8666 11.9975 28.7838C11.6818 28.9058 11.4155 29.1223 11.2383 29.4011C10.5293 30.6784 9.94678 32.0168 9.4983 33.3985C9.35067 33.8741 9.4983 34.4105 9.27685 34.7849C9.0554 35.1594 8.59142 35.1695 8.48596 35.3618C7.96925 36.2422 8.34888 36.1714 7.43145 36.7887C7.30432 37.0492 7.20197 37.3201 7.12564 37.5983L6.90419 37.8918C6.74601 38.2257 7.08346 38.843 7.02019 39.0556C6.84596 39.6065 6.63822 40.1472 6.39802 40.6748C5.95513 41.6868 6.0184 43.0327 5.56495 43.7107C5.34351 44.0245 4.79516 43.7107 4.3839 43.9739C4.3839 44.1965 3.69846 45.6437 3.57192 45.9979V48.3052C3.68792 48.6898 4.03591 49.0541 3.93045 49.55C3.825 50.0458 1.92687 50.0661 0.903993 49.9244C0.631285 49.8867 0.384802 49.748 0.217285 49.538C0.0497682 49.3281 -0.0254755 49.0636 0.00765434 48.8011C0.00765434 48.1332 1.42071 43.8221 1.33634 43.5185C0.281829 42.3749 1.62106 41.1909 2.02178 40.1283C2.21159 39.602 2.0956 38.8734 2.3065 38.3978L3.42429 36.4345C4.10972 35.8172 3.80391 35.7868 4.17299 35.2302C4.54207 34.6736 4.87952 34.4307 4.65807 33.692C4.20463 32.2145 5.18533 30.1095 5.2486 28.5612C5.07988 28.3891 4.48935 28.4498 4.41553 27.9742C4.3055 26.9831 4.55504 25.9858 5.12206 25.1507C5.25914 25.0799 5.42787 25.1507 5.55441 25.0597C5.55441 24.3411 4.8057 20.3336 5.37514 20.1312C5.72313 19.9997 6.53511 19.939 6.68274 19.8681C6.83037 19.7973 6.5562 19.3318 6.40857 19.3115C6.26094 19.2913 5.64932 19.2306 5.28024 19.1091C4.03591 18.8258 5.18533 14.0997 5.20642 14.0491C5.54386 13.614 7.14673 14.2009 7.31545 13.4622C7.84271 12.8044 6.90419 10.2946 8.71796 7.19794C9.34012 6.18594 10.5106 5.1031 11.8815 5.54838C12.3455 5.70018 12.0713 6.33774 12.8728 5.6597C12.844 5.30835 12.7475 4.96519 12.588 4.64771C11.2277 0.781882 15.8254 -1.30283 18.9889 0.893201C19.2856 0.98879 19.5662 1.12514 19.822 1.298C20.0013 2.16832 20.8765 3.71667 20.0013 4.73878C19.6053 4.82677 19.2299 4.98463 18.894 5.2043C18.8865 5.49712 18.9184 5.78965 18.9889 6.07462C19.0522 6.2669 19.1682 6.33774 18.8624 6.45918C18.8624 6.45918 18.8624 6.59074 18.8624 6.63122C19.559 6.70833 20.2642 6.59613 20.8976 6.30738H21.4987V5.59898H21.7729V5.06262H22.0576V6.07462H22.8063V6.37822H33.7522V6.9247H34.2373V4.9007H34.638V6.48954H35.5765V7.42057H38.487V7.14734H39.0248V7.26877H40.3956V8.03789H39.0248V8.15933H38.5397V7.88609H35.6187V8.16945H34.3427V7.97717H33.7522V8.54389H28.933Z" fill="white"/>
</svg>
