<svg width="44" height="44" viewBox="0 0 44 44" fill="none" xmlns="http://www.w3.org/2000/svg">
<rect y="0.25" width="43.5" height="43.5" rx="21.75" fill="white" fill-opacity="0.05"/>
<path d="M26.9182 18.4274C26.5437 18.1944 26.0568 18.1944 25.6448 18.4274L22.7234 20.2136L20.7383 21.3785L17.8169 23.1646C17.4424 23.3976 16.9555 23.3976 16.5435 23.1646L14.2214 21.7667C13.8468 21.5338 13.5847 21.1067 13.5847 20.6407V17.8837C13.5847 17.4178 13.8094 16.9907 14.2214 16.7577L16.5061 15.3986C16.8806 15.1656 17.3675 15.1656 17.7795 15.3986L20.0642 16.7577C20.4387 16.9907 20.7009 17.4178 20.7009 17.8837V19.6699L22.6859 18.4662V16.68C22.6859 16.214 22.4613 15.7869 22.0492 15.5539L17.8169 12.9911C17.4424 12.7582 16.9555 12.7582 16.5435 12.9911L12.2363 15.5539C11.8243 15.7869 11.5996 16.214 11.5996 16.68V21.8444C11.5996 22.3104 11.8243 22.7376 12.2363 22.9705L16.5435 25.5333C16.9181 25.7663 17.405 25.7663 17.8169 25.5333L20.7383 23.7859L22.7234 22.5822L25.6448 20.8348C26.0193 20.6019 26.5062 20.6019 26.9182 20.8348L29.2029 22.1939C29.5774 22.4269 29.8396 22.854 29.8396 23.32V26.0769C29.8396 26.5429 29.6149 26.97 29.2029 27.203L26.9182 28.6009C26.5437 28.8339 26.0568 28.8339 25.6448 28.6009L23.3602 27.2418C22.9856 27.0089 22.7234 26.5817 22.7234 26.1157V24.3296L20.7383 25.5333V27.3195C20.7383 27.7854 20.9631 28.2126 21.375 28.4456L25.6823 31.0083C26.0568 31.2413 26.5437 31.2413 26.9557 31.0083L31.2629 28.4456C31.6374 28.2126 31.8996 27.7854 31.8996 27.3195V22.155C31.8996 21.6891 31.6748 21.262 31.2629 21.029L26.9182 18.4274Z" fill="#8247E5"/>
</svg>
