<svg width="32" height="22" viewBox="0 0 32 22" fill="none" xmlns="http://www.w3.org/2000/svg">
<rect x="0.359375" width="30.8" height="22" rx="2.20532" fill="white"/>
<mask id="mask0_5276_48383" style="mask-type:alpha" maskUnits="userSpaceOnUse" x="0" y="0" width="32" height="22">
<rect x="0.359375" width="30.8" height="22" rx="2.20532" fill="white"/>
</mask>
<g mask="url(#mask0_5276_48383)">
<rect x="0.359375" width="30.8" height="22" fill="#E92434"/>
<path fill-rule="evenodd" clip-rule="evenodd" d="M21.2829 11.8456L19.9356 13.4791L20.0274 11.3636L18.0575 10.5871L20.0978 10.0206L20.2277 7.90719L21.3968 9.67256L23.447 9.14297L22.1293 10.8004L23.2665 12.5866L21.2829 11.8456Z" fill="white"/>
<path d="M19.5038 15.0516C18.2962 16.6025 16.4113 17.6001 14.2934 17.6001C10.6483 17.6001 7.69336 14.6452 7.69336 11.0001C7.69336 7.35502 10.6483 4.4001 14.2934 4.4001C16.4106 4.4001 18.2951 5.39709 19.5028 6.94722C18.5708 6.26991 17.3992 5.86648 16.1265 5.86648C13.0889 5.86648 10.6265 8.16475 10.6265 10.9998C10.6265 13.8349 13.0889 16.1331 16.1265 16.1331C17.3996 16.1331 18.5717 15.7294 19.5038 15.0516Z" fill="white"/>
</g>
</svg>
