<svg width="24" height="24" viewBox="0 0 24 24" fill="none" xmlns="http://www.w3.org/2000/svg">
<path fill-rule="evenodd" clip-rule="evenodd" d="M23.6412 14.903C22.0383 21.3316 15.526 25.2436 9.09593 23.6409C2.66883 22.0381 -1.24399 15.5266 0.359318 9.09843C1.9615 2.66909 8.47336 -1.24365 14.9016 0.359097C21.3313 1.96184 25.2437 8.47406 23.6408 14.903H23.6412Z" fill="white"/>
<g clip-path="url(#clip0_301_1845)">
<path d="M12.862 20.5116V20.9631C12.0467 20.969 11.2349 20.8594 10.4514 20.6378C8.85998 20.1903 7.5004 19.3707 6.37264 18.1789C5.28548 17.0296 4.55995 15.6864 4.21448 14.1536C3.61827 11.5087 4.29267 8.86541 5.89447 6.89442C7.62371 4.76566 9.8969 3.6744 12.661 3.5449C12.8849 3.1078 13.2112 2.9262 13.6112 3.02763C13.9506 3.11371 14.2104 3.40098 14.2093 3.78395C14.2111 3.96594 14.147 4.14263 14.0284 4.28239C13.9098 4.42215 13.7444 4.51586 13.5619 4.54674C13.2358 4.60494 12.8515 4.4795 12.6656 4.0267C9.05615 4.03945 5.23586 6.70118 4.57423 11.0178C4.19437 13.4957 4.84584 15.7235 6.50835 17.6247C8.17086 19.5258 10.3123 20.4543 12.862 20.5116ZM13.7351 3.77915C13.7355 3.73785 13.7276 3.69688 13.7117 3.65865C13.6958 3.62043 13.6722 3.58573 13.6424 3.5566C13.6126 3.52747 13.5772 3.50452 13.5382 3.48908C13.4993 3.47365 13.4575 3.46606 13.4155 3.46675C13.2413 3.46805 13.0928 3.61454 13.096 3.78432C13.0992 3.9541 13.2464 4.09376 13.4213 4.09653C13.5796 4.0993 13.7458 3.96075 13.7351 3.77915Z" fill="#687175"/>
<path d="M17.3254 6.68308C17.5244 6.56393 17.7355 6.51682 17.9626 6.57353C18.0887 6.60481 18.2051 6.66614 18.3015 6.75212C18.3978 6.8381 18.4711 6.94608 18.5149 7.06651C18.5587 7.18694 18.5716 7.31612 18.5525 7.44264C18.5335 7.56915 18.483 7.6891 18.4056 7.79189C18.1599 8.10595 17.7921 8.17356 17.4688 8.0485C17.2713 7.97183 17.1327 7.82902 17.0457 7.63893C16.9587 7.44883 16.9624 7.25282 17.0254 7.05958C15.2633 5.63284 12.4236 5.06162 9.8641 6.31748C8.54218 6.9661 7.54016 7.94319 6.86012 9.23009C6.27293 10.3417 6.02934 11.5301 6.13516 12.7771C6.28101 14.4952 6.99978 15.9519 8.28392 17.1227C9.56807 18.2936 11.1063 18.8672 12.8606 18.8962V19.354C11.9005 19.352 10.9746 19.1774 10.0912 18.8096C8.60439 18.1913 7.44299 17.1988 6.62874 15.8297C4.90796 12.9373 5.49233 9.3365 7.91646 7.09247C8.76228 6.30972 9.7455 5.75532 10.8641 5.43923C11.9615 5.12537 13.1196 5.07545 14.2408 5.29365C15.3815 5.51239 16.4066 5.98089 17.3254 6.68308ZM17.7663 7.64022C17.9513 7.64151 18.0846 7.5109 18.0898 7.333C18.0943 7.18244 17.9658 7.01469 17.7735 7.01284C17.6118 7.01118 17.4489 7.14216 17.4491 7.32561C17.4481 7.36696 17.4556 7.40807 17.4711 7.4465C17.4867 7.48493 17.51 7.51988 17.5396 7.54925C17.5692 7.57863 17.6046 7.60182 17.6435 7.61745C17.6825 7.63309 17.7243 7.64083 17.7663 7.64022V7.64022Z" fill="#8B939B"/>
<path d="M17.9553 12.0212C17.911 9.93516 16.2825 7.72549 13.7059 7.30613C10.8948 6.84834 8.3853 8.68724 7.86033 11.2411C7.54249 12.7859 7.88796 14.2001 8.90313 15.4245C9.91831 16.649 11.2551 17.2492 12.8603 17.2861V17.745C12.811 17.745 12.7621 17.7471 12.7135 17.745C12.4265 17.7312 12.1402 17.7081 11.8573 17.6567C11.4304 17.5791 11.0141 17.4532 10.6168 17.2813C9.65755 16.8685 8.83621 16.1982 8.24704 15.3473C7.65787 14.4965 7.32475 13.4996 7.28592 12.4711C7.24607 11.4755 7.46072 10.5359 7.94698 9.66415C8.68209 8.34566 9.78598 7.45965 11.2466 7.0074C11.5776 6.90669 11.9179 6.83861 12.2626 6.80419C12.5204 6.77571 12.78 6.76546 13.0394 6.77352C14.1713 6.81166 15.2648 7.18629 16.1756 7.84796C17.0863 8.50963 17.7715 9.42722 18.1406 10.4796C18.2774 10.8649 18.367 11.2648 18.4077 11.671C18.4166 11.7633 18.4282 11.8541 18.4324 11.9459C18.4348 12.0013 18.4598 12.0251 18.5092 12.0451C18.6193 12.0866 18.7179 12.1528 18.7972 12.2384C18.8766 12.3241 18.9344 12.4268 18.9662 12.5383C19.11 13.0068 18.7739 13.47 18.3083 13.5278C17.8814 13.5808 17.5377 13.2915 17.4456 12.9717C17.3407 12.6043 17.5254 12.2064 17.8803 12.0521C17.9063 12.0416 17.9318 12.031 17.9553 12.0212ZM18.5316 12.7602C18.5188 12.5642 18.3852 12.4434 18.2104 12.4421C18.0393 12.4406 17.897 12.5516 17.885 12.7543C17.8752 12.9206 18.0309 13.0772 18.2045 13.0741C18.3837 13.0706 18.5143 12.9514 18.5316 12.7602Z" fill="#EC7734"/>
<path d="M13.0649 16.1288C12.8769 16.6156 12.4394 16.7331 12.1213 16.6601C11.7751 16.5808 11.5167 16.2642 11.5146 15.9102C11.5127 15.5373 11.7635 15.2213 12.1429 15.1426C12.48 15.0726 12.8717 15.2032 13.0589 15.6581C14.4712 15.608 16.0446 14.5459 16.2984 12.7261C16.5666 10.8027 15.206 9.18479 13.4487 8.89715C12.3995 8.72553 11.4467 8.97382 10.6304 9.64959C9.81412 10.3254 9.4132 11.2027 9.38557 12.2513H8.93446C8.85777 10.8147 9.94287 8.85891 12.1305 8.45267C14.4097 8.02924 16.4737 9.5938 16.7671 11.7296C17.0795 14.0037 15.3674 15.9889 13.0649 16.1288ZM12.3078 15.5893C12.2657 15.5883 12.2238 15.5955 12.1845 15.6106C12.1453 15.6257 12.1095 15.6484 12.0793 15.6773C12.0491 15.7061 12.0251 15.7407 12.0087 15.7788C11.9923 15.8169 11.9838 15.8579 11.9837 15.8993C11.9838 15.9828 12.0171 16.063 12.0766 16.1226C12.136 16.1823 12.2168 16.2167 12.3018 16.2186C12.3439 16.2187 12.3856 16.2108 12.4246 16.1951C12.4636 16.1794 12.4991 16.1563 12.529 16.1271C12.5589 16.0979 12.5826 16.0633 12.5989 16.0251C12.6152 15.9869 12.6236 15.9459 12.6237 15.9045C12.6251 15.8632 12.6179 15.822 12.6025 15.7835C12.5872 15.7449 12.564 15.7099 12.5345 15.6804C12.5049 15.6509 12.4696 15.6277 12.4306 15.612C12.3917 15.5964 12.3499 15.5887 12.3078 15.5893V15.5893Z" fill="#687175"/>
<path d="M12.6673 10.475C11.8896 10.5284 11.0509 11.1973 11.0285 12.2171C11.0063 13.2056 11.7711 13.9969 12.7497 14.0566C13.7936 14.1203 14.6887 13.306 14.6958 12.2546H15.1531C15.1647 12.3822 15.1576 12.5108 15.1319 12.6365C15.0435 13.119 14.8253 13.5361 14.4665 13.8781C14.0906 14.2359 13.643 14.4471 13.1214 14.5062C12.5438 14.5711 12.0153 14.4393 11.5426 14.1125C11.0229 13.7536 10.6981 13.2627 10.5938 12.6451C10.4611 11.8582 10.6953 11.1802 11.2725 10.6243C11.6296 10.279 12.0664 10.0758 12.5677 10.0174C12.6326 10.0098 12.6681 9.98544 12.6952 9.92134C12.7594 9.76978 12.8712 9.64231 13.0142 9.55743C13.1572 9.47255 13.324 9.43468 13.4904 9.44933C13.6597 9.46579 13.8192 9.53506 13.9456 9.64701C14.072 9.75896 14.1586 9.90772 14.1928 10.0715C14.2924 10.5785 13.8921 11.003 13.4308 11.0002C13.0942 10.998 12.8547 10.8454 12.704 10.5528C12.6908 10.5284 12.6803 10.5031 12.6673 10.475ZM13.7334 10.23C13.735 10.0508 13.5964 9.90952 13.4184 9.90896C13.2434 9.90896 13.0919 10.0556 13.0929 10.2251C13.0938 10.3945 13.2355 10.5312 13.4085 10.5391C13.5814 10.5471 13.7432 10.393 13.7334 10.23Z" fill="#687175"/>
</g>
<defs>
<clipPath id="clip0_301_1845">
<rect width="15" height="17.9632" fill="white" transform="translate(4 2.99999)"/>
</clipPath>
</defs>
</svg>
