<svg width="22" height="28" viewBox="0 0 22 28" fill="none" xmlns="http://www.w3.org/2000/svg">
<path fill-rule="evenodd" clip-rule="evenodd" d="M15.2414 5.36673C15.1919 5.38905 15.1397 5.40517 15.0859 5.41471C14.7859 5.8252 14.9692 5.77722 14.436 6.1184C14.4137 6.57873 14.4777 7.03916 14.6248 7.47781C14.6287 7.4843 14.6308 7.49165 14.6308 7.49914C14.6308 7.50662 14.6287 7.51398 14.6248 7.52046C14.6141 7.52461 14.6022 7.52461 14.5915 7.52046C14.4637 7.54712 14.2804 7.5951 14.1693 7.61109C14.2026 7.84278 14.2026 8.07776 14.1693 8.30945C13.8385 8.93433 13.325 9.45306 12.6917 9.80214C12.3195 9.87144 11.9084 9.55691 11.2585 9.26904C11.0807 9.1944 10.4808 8.8159 10.1475 8.73594C9.81418 8.65597 9.62531 9.26904 9.9475 9.42364C10.0975 9.49827 10.3364 9.60489 10.4141 9.79148C10.6363 10.3512 10.3808 12.505 9.91417 12.9368C9.69753 12.9368 9.51421 12.7395 9.35867 12.7928C9.06981 12.9421 9.25313 13.8004 9.35867 13.9497C11.1529 15.7142 10.9363 17.0257 11.6973 18.0013C12.0473 18.0013 11.8195 18.3531 12.0806 18.7689C12.1186 19.008 12.0996 19.2522 12.0251 19.4833V20.0164C12.0251 20.0697 11.9862 20.1283 11.964 20.1816V20.6508C11.914 20.8747 11.8529 21.1839 11.8029 21.3918C11.6973 21.8396 12.1084 22.1914 11.864 22.6126C11.864 22.8791 11.864 22.8258 11.6973 23.0391C11.6472 23.5604 11.6472 24.0851 11.6973 24.6064C11.986 25.0631 12.3521 25.4703 12.7806 25.8112C13.2638 26.0138 13.9749 25.9711 13.7416 26.6961C12.3306 27.112 11.4307 26.4669 10.6808 26.4563L10.6474 26.5789C10.3149 26.5895 9.98282 26.5481 9.6642 26.4563C9.71012 26.0422 9.7806 25.6311 9.87529 25.2248L10.0364 24.9796C10.0459 24.4049 10.0237 23.8301 9.96972 23.2576C9.66975 23.0497 9.60865 22.4047 9.60865 22.0475C9.53574 21.7451 9.50031 21.4356 9.5031 21.1252C9.44519 20.9168 9.42638 20.7002 9.44755 20.4855C9.49199 20.3416 9.65864 20.2829 9.70308 20.1656V19.7658C9.78085 19.3447 9.75863 19.1474 9.49199 18.8969C8.8365 18.8969 8.74207 18.9342 8.38099 18.3957C8.26989 18.2305 7.34776 16.8338 7.26999 16.7964C6.5034 16.4766 6.65338 16.5992 6.32008 16.0288C6.15378 16.0931 6.01351 16.2071 5.92012 16.354C5.54666 17.0268 5.23979 17.7318 5.00354 18.4597C4.92577 18.7103 5.00354 18.9928 4.88689 19.1901C4.77023 19.3873 4.52581 19.3926 4.47026 19.4939C4.19807 19.9577 4.39805 19.9204 3.91476 20.2456C3.84779 20.3828 3.79387 20.5256 3.75366 20.6721L3.63701 20.8267C3.55368 21.0026 3.73144 21.3278 3.69811 21.4398C3.60634 21.73 3.4969 22.0148 3.37037 22.2927C3.13706 22.8258 3.17039 23.5349 2.93152 23.892C2.81487 24.0573 2.52601 23.892 2.30936 24.0306C2.30936 24.1479 1.94829 24.9103 1.88163 25.0968V26.3123C1.94273 26.5149 2.12605 26.7068 2.0705 26.968C2.01495 27.2292 1.01504 27.2399 0.476208 27.1653C0.33255 27.1454 0.202707 27.0723 0.114462 26.9618C0.026217 26.8512 -0.01342 26.7118 0.00403218 26.5735C0.00403218 26.2217 0.748404 23.9507 0.703964 23.7907C0.148462 23.1883 0.853949 22.5646 1.06504 22.0048C1.16503 21.7276 1.10392 21.3438 1.21502 21.0932L1.80386 20.059C2.16493 19.7338 2.00384 19.7178 2.19826 19.4246C2.39269 19.1314 2.57045 19.0035 2.45379 18.6143C2.21493 17.836 2.73154 16.7271 2.76487 15.9115C2.67599 15.8209 2.36491 15.8528 2.32603 15.6023C2.26806 15.0802 2.39952 14.5549 2.69821 14.1149C2.77043 14.0776 2.85931 14.1149 2.92597 14.067C2.92597 13.6885 2.53156 11.5774 2.83153 11.4707C3.01485 11.4014 3.44258 11.3695 3.52035 11.3321C3.59812 11.2948 3.45369 11.0496 3.37592 11.0389C3.29815 11.0283 2.97596 10.9963 2.78154 10.9323C2.12605 10.783 2.73154 8.29346 2.74265 8.26681C2.92041 8.03757 3.76477 8.34677 3.85366 7.95761C4.13141 7.61109 3.63701 6.289 4.59247 4.6577C4.92022 4.1246 5.53682 3.55418 6.25898 3.78875C6.5034 3.86871 6.35897 4.20457 6.78115 3.84739C6.76601 3.6623 6.71515 3.48153 6.63116 3.31429C5.91456 1.27784 8.33655 0.179645 10.0031 1.33648C10.1593 1.38683 10.3071 1.45866 10.4419 1.54972C10.5363 2.00819 10.9974 2.82383 10.5363 3.36227C10.3278 3.40862 10.13 3.49177 9.95306 3.60749C9.94908 3.76174 9.96588 3.91584 10.0031 4.06596C10.0364 4.16725 10.0975 4.20457 9.93639 4.26854C9.93639 4.26854 9.93639 4.33784 9.93639 4.35917C10.3034 4.39979 10.6748 4.34068 11.0085 4.18857H11.3251V3.8154H11.4696V3.53286H11.6196V4.06596H12.014V4.22589H17.7801V4.51377H18.0356V3.44756H18.2467V4.28453H18.7411V4.77499H20.2743V4.63105H20.5576V4.69502H21.2797V5.10018H20.5576V5.16415H20.302V5.02021H18.7633V5.16948H18.0912V5.06819H17.7801V5.36673H15.2414Z" fill="white"/>
</svg>
