<svg width="25" height="24" viewBox="0 0 25 24" fill="none" xmlns="http://www.w3.org/2000/svg">
<rect x="0.803335" y="0.461538" width="23.0769" height="23.0769" rx="5.97632" fill="white" stroke="white" stroke-width="0.923077"/>
<path d="M12.3331 5.17349L12.676 4.73117C12.5773 4.65598 12.4563 4.61523 12.3319 4.61523C12.2074 4.61523 12.0864 4.65598 11.9876 4.73117L12.3331 5.17349ZM18.2285 6.89034H18.7908C18.7919 6.81642 18.7781 6.74304 18.7503 6.6744C18.7225 6.60578 18.6813 6.5433 18.629 6.49055C18.5767 6.43782 18.5144 6.39586 18.4457 6.36711C18.3769 6.33835 18.3031 6.32339 18.2285 6.32305V6.89034ZM12.3331 18.8259L12.0204 19.2907C12.1126 19.3518 12.221 19.3845 12.3319 19.3845C12.4427 19.3845 12.5511 19.3518 12.6433 19.2907L12.3331 18.8259ZM6.44271 6.89034V6.33056C6.36813 6.3309 6.29432 6.34586 6.22558 6.37461C6.15684 6.40334 6.09455 6.4453 6.04227 6.49805C5.98998 6.5508 5.94877 6.61329 5.92098 6.6819C5.89319 6.75052 5.87941 6.82393 5.88042 6.89785L6.44271 6.89034ZM11.9902 5.61333C14.542 7.57261 17.4645 7.44764 18.231 7.44764V6.33056C17.4368 6.33056 14.8925 6.43052 12.6836 4.73117L11.9902 5.61333ZM17.6687 6.88035C17.6259 9.46937 17.5149 11.2962 17.3031 12.6482C17.0913 14.0002 16.7988 14.7899 16.413 15.3547C16.0272 15.9195 15.533 16.2868 14.8093 16.7142C14.0856 17.1415 13.1602 17.6163 12.0204 18.3635L12.6559 19.2907C13.7351 18.5785 14.6328 18.1236 15.3968 17.6713C16.1667 17.2558 16.8348 16.6773 17.3536 15.9769C17.8579 15.2272 18.2033 14.2276 18.4252 12.8181C18.6471 11.4086 18.7606 9.51188 18.8034 6.89785L17.6687 6.88035ZM12.6559 18.3635C11.5237 17.6138 10.6008 17.149 9.88214 16.7167C9.16349 16.2843 8.66926 15.9394 8.28096 15.3547C7.89263 14.7699 7.57743 13.9927 7.36058 12.6482C7.14371 11.3037 7.04789 9.46937 7.00503 6.88035L5.88042 6.89785C5.92328 9.51188 6.03927 11.4137 6.25864 12.8181C6.47802 14.2226 6.81339 15.2222 7.32778 15.9769C7.84408 16.6777 8.51063 17.2563 9.27948 17.6713C10.036 18.1236 10.9412 18.5785 12.0204 19.2907L12.6559 18.3635ZM6.44271 7.44764C7.19918 7.44764 10.1242 7.57261 12.676 5.61333L11.9876 4.73117C9.77371 6.43052 7.22945 6.33056 6.44021 6.33056L6.44271 7.44764Z" fill="#1899EF"/>
</svg>
