<svg width="44" height="44" viewBox="0 0 44 44" fill="none" xmlns="http://www.w3.org/2000/svg">
<rect x="0.5" y="0.25" width="43.5" height="43.5" rx="21.75" fill="white" fill-opacity="0.05"/>
<path fill-rule="evenodd" clip-rule="evenodd" d="M16.221 26.3136C16.2797 26.2504 16.3506 26.1996 16.4295 26.1644C16.5084 26.1291 16.5936 26.11 16.6801 26.1082H31.1069C31.168 26.1091 31.2274 26.1274 31.2782 26.1611C31.329 26.1948 31.3689 26.2423 31.3932 26.298C31.4175 26.3537 31.4251 26.4152 31.4149 26.475C31.4049 26.5349 31.3777 26.5906 31.3366 26.6354L28.2785 30.0111C28.2198 30.0743 28.1489 30.1251 28.07 30.1604C27.9911 30.1957 27.9058 30.2148 27.8193 30.2165H13.3834C13.3223 30.2157 13.2628 30.1973 13.212 30.1636C13.1612 30.13 13.1213 30.0824 13.0971 30.0267C13.0728 29.971 13.0653 29.9096 13.0753 29.8497C13.0854 29.7898 13.1126 29.7341 13.1538 29.6893L16.221 26.3136ZM31.3503 23.5154C31.3915 23.5602 31.4187 23.6159 31.4287 23.6758C31.4388 23.7356 31.4313 23.7971 31.407 23.8528C31.3827 23.9085 31.3428 23.9561 31.292 23.9897C31.2412 24.0234 31.1818 24.0418 31.1206 24.0426L16.6893 24.054C16.6028 24.0523 16.5175 24.0332 16.4387 23.9979C16.3598 23.9626 16.2888 23.9118 16.2302 23.8486L13.1492 20.4844C13.108 20.4395 13.0808 20.3838 13.0707 20.324C13.0607 20.2641 13.0682 20.2026 13.0925 20.1469C13.1167 20.0912 13.1567 20.0437 13.2074 20.01C13.2582 19.9763 13.3177 19.958 13.3788 19.9571L27.8102 19.9457C27.8967 19.9475 27.9819 19.9666 28.0608 20.0018C28.1397 20.0371 28.2106 20.0879 28.2693 20.1511L31.3503 23.5154ZM16.221 13.9886C16.2797 13.9254 16.3506 13.8747 16.4295 13.8394C16.5084 13.8041 16.5936 13.785 16.6801 13.7832L31.1162 13.7946C31.1771 13.7955 31.2367 13.8138 31.2875 13.8475C31.3383 13.8812 31.3782 13.9287 31.4023 13.9844C31.4266 14.0401 31.4342 14.1016 31.4242 14.1615C31.414 14.2213 31.3868 14.277 31.3457 14.3219L28.2785 17.6861C28.2198 17.7493 28.1489 17.8001 28.07 17.8354C27.9911 17.8707 27.9058 17.8898 27.8193 17.8915H13.3834C13.3223 17.8907 13.2628 17.8723 13.212 17.8386C13.1612 17.805 13.1213 17.7574 13.0971 17.7017C13.0728 17.646 13.0653 17.5846 13.0753 17.5247C13.0854 17.4648 13.1126 17.4091 13.1538 17.3643L16.221 13.9886Z" fill="url(#paint0_linear_4729_44042)"/>
<defs>
<linearGradient id="paint0_linear_4729_44042" x1="13.6244" y1="30.5749" x2="30.7742" y2="13.3245" gradientUnits="userSpaceOnUse">
<stop stop-color="#9945FF"/>
<stop offset="0.14" stop-color="#8A53F4"/>
<stop offset="0.42" stop-color="#6377D6"/>
<stop offset="0.79" stop-color="#24B0A7"/>
<stop offset="0.99" stop-color="#00D18C"/>
<stop offset="1" stop-color="#00D18C"/>
</linearGradient>
</defs>
</svg>
