<svg width="208" height="72" viewBox="0 0 208 72" fill="none" xmlns="http://www.w3.org/2000/svg">
<g clip-path="url(#clip0_3480_18399)">
<path d="M8.87671 18.5759L12.5406 14.8726L27.8832 30.3804L24.2193 34.0837L8.87671 18.5759Z" fill="#005EFF"/>
<path d="M27.8831 30.3806L24.2192 26.6772L30.2876 20.5435L33.9515 24.2468L27.8831 30.3806Z" fill="#005EFF"/>
<path d="M34.7529 19.7334C36.2072 21.2035 36.2072 23.5869 34.7529 25.057C33.2985 26.5271 30.9405 26.5271 29.4861 25.057C28.0317 23.5869 28.0317 21.2035 29.4861 19.7334C30.9405 18.2633 33.2985 18.2633 34.7529 19.7334Z" fill="#005EFF"/>
<path d="M13.3421 14.0625C14.7965 15.5326 14.7965 17.916 13.3421 19.3861C11.8877 20.8562 9.5296 20.8562 8.07517 19.3861C6.62078 17.916 6.62078 15.5326 8.07517 14.0625C9.5296 12.5925 11.8877 12.5925 13.3421 14.0625Z" fill="#005EFF"/>
<path d="M26.8528 27.7189C28.3072 29.189 28.3072 31.5724 26.8528 33.0425C25.3984 34.5126 23.0403 34.5126 21.5859 33.0425C20.1315 31.5724 20.1315 29.189 21.5859 27.7189C23.0403 26.2489 21.5859 33.0425 26.8528 27.7189Z" fill="#005EFF"/>
<path d="M5.55625 52.9479L1.89233 49.2447L17.235 33.7368L20.8989 37.4402L5.55625 52.9479Z" fill="#005EFF"/>
<path d="M17.235 33.7367L13.5711 37.4401L7.50269 31.3064L11.1666 27.603L17.235 33.7367Z" fill="#005EFF"/>
<path d="M6.70116 26.7929C8.15559 25.3229 10.5136 25.3229 11.968 26.7929C13.4224 28.263 13.4224 30.6465 11.968 32.1166C10.5136 33.5867 8.15559 33.5867 6.70116 32.1166C5.24675 30.6465 5.24675 28.263 6.70116 26.7929Z" fill="#005EFF"/>
<path d="M1.0908 48.4345C2.54521 46.9645 4.90326 46.9645 6.35767 48.4345C7.81211 49.9048 7.81211 52.2882 6.35767 53.7582C4.90326 55.2282 2.54521 55.2282 1.0908 53.7582C-0.363601 52.2882 -0.363601 49.9048 1.0908 48.4345Z" fill="#005EFF"/>
<path d="M14.6014 34.7783C16.0558 33.3083 18.4138 33.3083 19.8683 34.7783C21.3227 36.2484 21.3227 38.6319 19.8683 40.1019C18.4138 41.572 16.0558 41.572 14.6014 40.1019C13.147 38.6319 19.8683 40.1019 14.6014 34.7783Z" fill="#005EFF"/>
<path d="M39.5618 56.3037L35.8981 60.007L20.5554 44.4993L24.2194 40.7959L39.5618 56.3037Z" fill="#005EFF"/>
<path d="M20.5554 44.4995L24.2193 48.2029L18.151 54.3364L14.4871 50.6331L20.5554 44.4995Z" fill="#005EFF"/>
<path d="M13.6855 55.1469C12.2311 53.6769 12.2311 51.2934 13.6855 49.8231C15.1399 48.3532 17.498 48.3532 18.9524 49.8231C20.4068 51.2934 20.4068 53.6769 18.9524 55.1469C17.498 56.6168 15.1399 56.6168 13.6855 55.1469Z" fill="#005EFF"/>
<path d="M35.0964 60.8173C33.642 59.3474 33.642 56.964 35.0964 55.4936C36.551 54.0236 38.909 54.0236 40.3633 55.4936C41.8176 56.964 41.8176 59.3474 40.3633 60.8173C38.909 62.2873 36.551 62.2873 35.0964 60.8173Z" fill="#005EFF"/>
<path d="M21.5859 47.1615C20.1315 45.6915 20.1315 43.308 21.5859 41.8379C23.0403 40.3678 25.3984 40.3678 26.8528 41.8379C28.3072 43.308 28.3072 45.6915 26.8528 47.1615C25.3984 48.6316 26.8528 41.8379 21.5859 47.1615Z" fill="#005EFF"/>
<path d="M42.8821 21.9321L46.546 25.6354L31.2035 41.1433L27.5396 37.44L42.8821 21.9321Z" fill="#005EFF"/>
<path d="M31.2036 41.1433L34.8675 37.4399L40.9357 43.5736L37.2719 47.277L31.2036 41.1433Z" fill="#005EFF"/>
<path d="M41.7373 48.0872C40.283 49.5572 37.9249 49.5572 36.4703 48.0872C35.0161 46.6172 35.0161 44.2337 36.4703 42.7637C37.9249 41.2936 40.283 41.2936 41.7373 42.7637C43.1916 44.2337 43.1916 46.6172 41.7373 48.0872Z" fill="#005EFF"/>
<path d="M47.3477 26.4457C45.8935 27.9158 43.5354 27.9158 42.0807 26.4457C40.6264 24.9756 40.6264 22.5921 42.0807 21.122C43.5354 19.652 45.8935 19.652 47.3477 21.122C48.802 22.5921 48.802 24.9756 47.3477 26.4457Z" fill="#005EFF"/>
<path d="M33.8369 40.1019C32.3825 41.572 30.0245 41.572 28.57 40.1019C27.1157 38.6319 27.1157 36.2484 28.57 34.7783C30.0245 33.3083 32.3825 33.3083 33.8369 34.7783C35.2913 36.2484 28.57 34.7783 33.8369 40.1019Z" fill="#005EFF"/>
<path d="M58.9807 58.3199H67.4432L77.1308 43.2575L86.79 58.3199H95.1955L81.3478 37.3535L94.8536 16.8479H86.3911L77.1308 31.4495L67.7851 16.8479H59.3796L72.8854 37.3535L58.9807 58.3199ZM97.4621 58.3199H110.541C110.863 58.3199 111.538 58.3103 112.564 58.2911C113.609 58.2719 114.596 58.2047 115.527 58.0895C118.794 57.6671 121.548 56.5055 123.79 54.6047C126.032 52.6847 127.731 50.2463 128.89 47.2895C130.049 44.3327 130.628 41.0975 130.628 37.5839C130.628 34.0703 130.049 30.8351 128.89 27.8783C127.731 24.9215 126.032 22.4831 123.79 20.5631C121.548 18.6431 118.794 17.4815 115.527 17.0783C114.577 16.9631 113.589 16.8959 112.564 16.8767C111.557 16.8575 110.882 16.8479 110.541 16.8479H97.4621V58.3199ZM104.443 51.7823V23.3855H110.541C111.11 23.3855 111.832 23.4047 112.706 23.4431C113.58 23.4623 114.368 23.5487 115.071 23.7023C116.971 24.0671 118.528 24.9215 119.744 26.2655C120.96 27.6095 121.862 29.2703 122.451 31.2479C123.058 33.2063 123.362 35.3183 123.362 37.5839C123.362 39.7535 123.077 41.8271 122.508 43.8047C121.938 45.7823 121.035 47.4623 119.801 48.8447C118.585 50.2079 117.008 51.0815 115.071 51.4655C114.368 51.5999 113.58 51.6863 112.706 51.7247C111.832 51.7631 111.11 51.7823 110.541 51.7823H104.443ZM131.122 58.3199H138.188L140.98 49.3343H157.165L159.985 58.3199H167.052L154.116 16.8479H144.058L131.122 58.3199ZM143.003 42.8543L149.016 23.5583L155.113 42.8543H143.003ZM186.163 59.1839C190.266 59.1839 193.78 58.2815 196.705 56.4767C199.65 54.6527 201.901 52.1183 203.458 48.8735C205.035 45.6287 205.823 41.8655 205.823 37.5839C205.823 33.2831 205.035 29.5199 203.458 26.2943C201.901 23.0495 199.65 20.5247 196.705 18.7199C193.78 16.8959 190.266 15.9839 186.163 15.9839C182.079 15.9839 178.565 16.8959 175.62 18.7199C172.695 20.5247 170.445 23.0495 168.867 26.2943C167.31 29.5199 166.531 33.2831 166.531 37.5839C166.531 41.8655 167.31 45.6287 168.867 48.8735C170.445 52.1183 172.695 54.6527 175.62 56.4767C178.565 58.2815 182.079 59.1839 186.163 59.1839ZM186.163 52.6463C182.041 52.5887 178.945 51.1967 176.874 48.4703C174.804 45.7439 173.778 42.1151 173.797 37.5839C173.816 34.5503 174.281 31.9007 175.193 29.6351C176.105 27.3695 177.472 25.6127 179.296 24.3647C181.119 23.0975 183.409 22.4831 186.163 22.5215C190.304 22.5791 193.4 23.9711 195.452 26.6975C197.522 29.4239 198.557 33.0527 198.557 37.5839C198.557 40.5983 198.092 43.2479 197.161 45.5327C196.249 47.7983 194.872 49.5551 193.03 50.8031C191.206 52.0511 188.917 52.6655 186.163 52.6463Z" fill="white"/>
</g>
<defs>
<clipPath id="clip0_3480_18399">
<rect width="208" height="72" fill="white"/>
</clipPath>
</defs>
</svg>
