<svg width="17" height="17" viewBox="0 0 17 17" fill="none" xmlns="http://www.w3.org/2000/svg">
<path d="M8.37799 2.36635C10.4574 2.36635 10.7037 2.37547 11.5215 2.41195C12.2815 2.44539 12.692 2.57308 12.9656 2.67949C13.3273 2.81933 13.5888 2.98958 13.8594 3.26015C14.133 3.53377 14.3002 3.79218 14.44 4.15396C14.5464 4.42757 14.6741 4.84103 14.7076 5.59802C14.7441 6.41886 14.7532 6.66512 14.7532 8.74153C14.7532 10.821 14.7441 11.0672 14.7076 11.885C14.6741 12.6451 14.5464 13.0555 14.44 13.3291C14.3002 13.6909 14.1299 13.9523 13.8594 14.2229C13.5858 14.4965 13.3273 14.6637 12.9656 14.8036C12.692 14.91 12.2785 15.0377 11.5215 15.0711C10.7007 15.1076 10.4544 15.1167 8.37799 15.1167C6.29853 15.1167 6.05228 15.1076 5.23448 15.0711C4.47444 15.0377 4.06402 14.91 3.79041 14.8036C3.42863 14.6637 3.16718 14.4935 2.8966 14.2229C2.62299 13.9493 2.45578 13.6909 2.31594 13.3291C2.20953 13.0555 2.08185 12.642 2.0484 11.885C2.01192 11.0642 2.0028 10.818 2.0028 8.74153C2.0028 6.66208 2.01192 6.41582 2.0484 5.59802C2.08185 4.83799 2.20953 4.42757 2.31594 4.15396C2.45578 3.79218 2.62603 3.53073 2.8966 3.26015C3.17022 2.98654 3.42863 2.81933 3.79041 2.67949C4.06402 2.57308 4.47748 2.44539 5.23448 2.41195C6.05228 2.37547 6.29853 2.36635 8.37799 2.36635ZM8.37799 0.964844C6.26509 0.964844 6.00059 0.973964 5.17063 1.01045C4.34371 1.04693 3.77521 1.18069 3.2827 1.37222C2.76892 1.57287 2.33418 1.83737 1.90248 2.27211C1.46774 2.70381 1.20324 3.13855 1.00259 3.64929C0.811065 4.14484 0.677299 4.7103 0.640817 5.53722C0.604335 6.37022 0.595215 6.63471 0.595215 8.74761C0.595215 10.8605 0.604335 11.125 0.640817 11.955C0.677299 12.7819 0.811065 13.3504 1.00259 13.8429C1.20324 14.3567 1.46774 14.7914 1.90248 15.2231C2.33418 15.6548 2.76892 15.9224 3.27966 16.12C3.77521 16.3115 4.34067 16.4453 5.16759 16.4817C5.99755 16.5182 6.26204 16.5273 8.37495 16.5273C10.4878 16.5273 10.7523 16.5182 11.5823 16.4817C12.4092 16.4453 12.9777 16.3115 13.4702 16.12C13.981 15.9224 14.4157 15.6548 14.8474 15.2231C15.2791 14.7914 15.5466 14.3567 15.7443 13.8459C15.9358 13.3504 16.0696 12.7849 16.106 11.958C16.1425 11.128 16.1516 10.8636 16.1516 8.75066C16.1516 6.63775 16.1425 6.37326 16.106 5.5433C16.0696 4.71638 15.9358 4.14788 15.7443 3.65537C15.5527 3.13855 15.2882 2.70381 14.8535 2.27211C14.4218 1.84041 13.9871 1.57287 13.4763 1.37526C12.9808 1.18373 12.4153 1.04997 11.5884 1.01349C10.7554 0.973964 10.4909 0.964844 8.37799 0.964844Z" fill="white"/>
<path d="M8.37816 4.75C6.17102 4.75 4.38037 6.54065 4.38037 8.74779C4.38037 10.9549 6.17102 12.7456 8.37816 12.7456C10.5853 12.7456 12.376 10.9549 12.376 8.74779C12.376 6.54065 10.5853 4.75 8.37816 4.75ZM8.37816 11.341C6.94625 11.341 5.78492 10.1797 5.78492 8.74779C5.78492 7.31588 6.94625 6.15455 8.37816 6.15455C9.81007 6.15455 10.9714 7.31588 10.9714 8.74779C10.9714 10.1797 9.81007 11.341 8.37816 11.341Z" fill="white"/>
<path d="M13.4672 4.59202C13.4672 5.10884 13.0477 5.52534 12.5339 5.52534C12.0171 5.52534 11.6006 5.1058 11.6006 4.59202C11.6006 4.07519 12.0201 3.65869 12.5339 3.65869C13.0477 3.65869 13.4672 4.07823 13.4672 4.59202Z" fill="white"/>
</svg>
