<svg width="17" height="17" viewBox="0 0 17 17" fill="none" xmlns="http://www.w3.org/2000/svg">
<path d="M14.7226 16.3975C15.0748 16.7497 15.6459 16.7497 15.9981 16.3975C16.3503 16.0453 16.3503 15.4742 15.9981 15.122L14.7226 16.3975ZM12.6148 11.7387C12.2626 11.3865 11.6915 11.3865 11.3393 11.7387C10.9871 12.0909 10.9871 12.662 11.3393 13.0142L12.6148 11.7387ZM12.9029 7.98196C12.9029 10.9203 10.5209 13.3023 7.58255 13.3023V15.106C11.5171 15.106 14.7066 11.9165 14.7066 7.98196H12.9029ZM7.58255 13.3023C4.64422 13.3023 2.26223 10.9203 2.26223 7.98196H0.458469C0.458469 11.9165 3.64803 15.106 7.58255 15.106V13.3023ZM2.26223 7.98196C2.26223 5.04363 4.64422 2.66165 7.58255 2.66165V0.857883C3.64803 0.857883 0.458469 4.04744 0.458469 7.98196H2.26223ZM7.58255 2.66165C10.5209 2.66165 12.9029 5.04363 12.9029 7.98196H14.7066C14.7066 4.04744 11.5171 0.857883 7.58255 0.857883V2.66165ZM15.9981 15.122L12.6148 11.7387L11.3393 13.0142L14.7226 16.3975L15.9981 15.122Z" fill="white"/>
</svg>
