<svg width="18" height="18" viewBox="0 0 18 18" fill="none" xmlns="http://www.w3.org/2000/svg">
<path fill-rule="evenodd" clip-rule="evenodd" d="M18 9C18 13.9706 13.9706 18 9 18C4.02944 18 0 13.9706 0 9C0 4.02944 4.02944 0 9 0C13.9706 0 18 4.02944 18 9ZM12.8899 5.11054C12.6211 4.84174 12.1858 4.84174 11.9177 5.11054L8.98597 8.04219L6.09523 5.15149C5.82846 4.88472 5.3966 4.88472 5.13054 5.15149C4.86378 5.41826 4.86378 5.85012 5.13054 6.11618L8.02128 9.00692L5.11078 11.9174C4.84198 12.1862 4.84198 12.6215 5.11078 12.8896C5.37958 13.1578 5.81487 13.1578 6.08299 12.8896L8.99353 9.97913L11.8842 12.8698C12.151 13.1366 12.5829 13.1366 12.849 12.8698C13.1157 12.6031 13.1157 12.1712 12.849 11.9051L9.95822 9.01441L12.8899 6.08275C13.1587 5.81463 13.1587 5.37869 12.8899 5.11054Z" fill="white" fill-opacity="0.3"/>
</svg>
