<svg width="31" height="30" viewBox="0 0 31 30" fill="none" xmlns="http://www.w3.org/2000/svg">
<path d="M21.7548 9.1689C20.5757 8.62787 19.3112 8.22926 17.9892 8.00096C17.9651 7.99655 17.941 8.00756 17.9286 8.02959C17.766 8.31881 17.5859 8.69614 17.4598 8.99271C16.0378 8.77983 14.6232 8.77983 13.2304 8.99271C13.1042 8.68954 12.9175 8.31881 12.7542 8.02959C12.7418 8.0083 12.7177 7.99729 12.6937 8.00096C11.3723 8.22853 10.1079 8.62714 8.92805 9.1689C8.91784 9.17331 8.90909 9.18065 8.90327 9.19019C6.50491 12.7733 5.84789 16.2683 6.1702 19.7201C6.17166 19.7369 6.18114 19.7531 6.19427 19.7634C7.77664 20.9254 9.30944 21.6309 10.8138 22.0985C10.8379 22.1058 10.8634 22.097 10.8787 22.0772C11.2345 21.5913 11.5517 21.0789 11.8237 20.54C11.8398 20.5085 11.8245 20.471 11.7916 20.4585C11.2885 20.2677 10.8094 20.035 10.3485 19.7707C10.3121 19.7494 10.3092 19.6973 10.3427 19.6723C10.4397 19.5996 10.5367 19.524 10.6293 19.4477C10.6461 19.4337 10.6694 19.4308 10.6891 19.4396C13.7167 20.8219 16.9945 20.8219 19.9864 19.4396C20.0061 19.4301 20.0295 19.433 20.047 19.447C20.1396 19.5233 20.2366 19.5996 20.3343 19.6723C20.3678 19.6973 20.3656 19.7494 20.3292 19.7707C19.8683 20.0401 19.3892 20.2677 18.8854 20.4578C18.8525 20.4703 18.838 20.5085 18.854 20.54C19.1318 21.0781 19.449 21.5905 19.7983 22.0765C19.8129 22.097 19.8391 22.1058 19.8632 22.0985C21.3749 21.6309 22.9076 20.9254 24.49 19.7634C24.5039 19.7531 24.5126 19.7377 24.5141 19.7208C24.8998 15.7302 23.868 12.2638 21.7788 9.19092C21.7737 9.18065 21.765 9.17331 21.7548 9.1689ZM12.2759 17.6183C11.3643 17.6183 10.6132 16.7815 10.6132 15.7537C10.6132 14.726 11.3498 13.8891 12.2759 13.8891C13.2092 13.8891 13.953 14.7333 13.9384 15.7537C13.9384 16.7815 13.2019 17.6183 12.2759 17.6183ZM18.423 17.6183C17.5115 17.6183 16.7605 16.7815 16.7605 15.7537C16.7605 14.726 17.4969 13.8891 18.423 13.8891C19.3564 13.8891 20.1002 14.7333 20.0856 15.7537C20.0856 16.7815 19.3564 17.6183 18.423 17.6183Z" fill="white"/>
</svg>
