<svg width="132" height="35" viewBox="0 0 132 35" fill="none" xmlns="http://www.w3.org/2000/svg">
<path d="M6.47157 9.35121C8.62086 9.35121 10.3118 9.86482 11.5445 10.8921C12.7772 11.9193 13.3935 13.3337 13.3935 15.1353C13.3935 16.9369 12.7772 18.3514 11.5445 19.3786C10.3118 20.4058 8.62086 20.9194 6.47157 20.9194H2.37054V25.945H0V9.35121H6.47157ZM6.40045 18.8571C7.9018 18.8571 9.04756 18.541 9.83774 17.9089C10.6279 17.2609 11.023 16.3364 11.023 15.1353C11.023 13.9342 10.6279 13.0176 9.83774 12.3855C9.04756 11.7375 7.9018 11.4136 6.40045 11.4136H2.37054V18.8571H6.40045Z" fill="white"/>
<path d="M27.8529 19.7342C27.8529 19.908 27.8371 20.1372 27.8055 20.4216H17.6122C17.7544 21.5279 18.2364 22.4208 19.0582 23.1003C19.8958 23.7641 20.9309 24.096 22.1636 24.096C23.6649 24.096 24.8739 23.5902 25.7905 22.5788L27.0469 24.0485C26.478 24.7123 25.7668 25.218 24.9134 25.5657C24.0758 25.9134 23.1355 26.0872 22.0925 26.0872C20.765 26.0872 19.5876 25.8185 18.5604 25.2812C17.5332 24.7281 16.7351 23.9616 16.1661 22.9818C15.613 22.002 15.3365 20.8957 15.3365 19.663C15.3365 18.4462 15.6051 17.3478 16.1424 16.368C16.6956 15.3882 17.4462 14.6296 18.3945 14.0923C19.3585 13.5392 20.441 13.2626 21.6421 13.2626C22.8432 13.2626 23.9099 13.5392 24.8423 14.0923C25.7905 14.6296 26.5254 15.3882 27.0469 16.368C27.5842 17.3478 27.8529 18.4699 27.8529 19.7342ZM21.6421 15.1827C20.5516 15.1827 19.635 15.5146 18.8923 16.1784C18.1653 16.8421 17.7386 17.7113 17.6122 18.7859H25.672C25.5456 17.7271 25.111 16.8658 24.3682 16.2021C23.6412 15.5225 22.7325 15.1827 21.6421 15.1827Z" fill="white"/>
<path d="M34.6162 26.0872C33.5889 26.0872 32.6012 25.9529 31.653 25.6842C30.7048 25.3998 29.962 25.0442 29.4247 24.6175L30.3729 22.8159C30.926 23.211 31.5977 23.527 32.3879 23.7641C33.178 24.0011 33.9761 24.1197 34.7821 24.1197C36.7733 24.1197 37.769 23.5507 37.769 22.4129C37.769 22.0336 37.6346 21.7333 37.366 21.5121C37.0973 21.2908 36.7575 21.1328 36.3466 21.038C35.9516 20.9273 35.3826 20.8088 34.6399 20.6824C33.6284 20.5243 32.7987 20.3426 32.1508 20.1372C31.5187 19.9317 30.9734 19.584 30.5151 19.0941C30.0568 18.6042 29.8277 17.9168 29.8277 17.0318C29.8277 15.8939 30.3018 14.9852 31.25 14.3056C32.1982 13.6103 33.4704 13.2626 35.0666 13.2626C35.9041 13.2626 36.7417 13.3653 37.5793 13.5708C38.4169 13.7762 39.1044 14.0528 39.6417 14.4005L38.6698 16.2021C37.6425 15.5383 36.4336 15.2064 35.0429 15.2064C34.0788 15.2064 33.344 15.3645 32.8383 15.6805C32.3325 15.9966 32.0797 16.4154 32.0797 16.9369C32.0797 17.3478 32.2219 17.6718 32.5064 17.9089C32.7908 18.1459 33.1385 18.3197 33.5494 18.4304C33.9761 18.541 34.5687 18.6674 35.3273 18.8097C36.3387 18.9835 37.1526 19.1731 37.769 19.3786C38.4011 19.5682 38.9384 19.9001 39.3809 20.3742C39.8234 20.8483 40.0447 21.5121 40.0447 22.3655C40.0447 23.5033 39.5548 24.412 38.575 25.0916C37.6109 25.7553 36.2913 26.0872 34.6162 26.0872Z" fill="white"/>
<path d="M46.492 26.0872C45.4648 26.0872 44.477 25.9529 43.5288 25.6842C42.5806 25.3998 41.8378 25.0442 41.3005 24.6175L42.2487 22.8159C42.8019 23.211 43.4735 23.527 44.2637 23.7641C45.0539 24.0011 45.852 24.1197 46.6579 24.1197C48.6492 24.1197 49.6448 23.5507 49.6448 22.4129C49.6448 22.0336 49.5105 21.7333 49.2418 21.5121C48.9732 21.2908 48.6334 21.1328 48.2225 21.038C47.8274 20.9273 47.2585 20.8088 46.5157 20.6824C45.5043 20.5243 44.6746 20.3426 44.0266 20.1372C43.3945 19.9317 42.8493 19.584 42.391 19.0941C41.9327 18.6042 41.7035 17.9168 41.7035 17.0318C41.7035 15.8939 42.1776 14.9852 43.1258 14.3056C44.0741 13.6103 45.3462 13.2626 46.9424 13.2626C47.78 13.2626 48.6176 13.3653 49.4552 13.5708C50.2928 13.7762 50.9802 14.0528 51.5175 14.4005L50.5456 16.2021C49.5184 15.5383 48.3094 15.2064 46.9187 15.2064C45.9547 15.2064 45.2198 15.3645 44.7141 15.6805C44.2084 15.9966 43.9555 16.4154 43.9555 16.9369C43.9555 17.3478 44.0978 17.6718 44.3822 17.9089C44.6667 18.1459 45.0144 18.3197 45.4253 18.4304C45.852 18.541 46.4446 18.6674 47.2032 18.8097C48.2146 18.9835 49.0285 19.1731 49.6448 19.3786C50.277 19.5682 50.8143 19.9001 51.2568 20.3742C51.6993 20.8483 51.9205 21.5121 51.9205 22.3655C51.9205 23.5033 51.4306 24.412 50.4508 25.0916C49.4868 25.7553 48.1672 26.0872 46.492 26.0872Z" fill="white"/>
<path d="M54.7646 13.3811H57.0403V25.945H54.7646V13.3811ZM55.9025 10.9632C55.46 10.9632 55.0886 10.8209 54.7883 10.5365C54.5039 10.252 54.3616 9.90433 54.3616 9.49344C54.3616 9.08255 54.5039 8.73487 54.7883 8.4504C55.0886 8.15013 55.46 8 55.9025 8C56.345 8 56.7085 8.14223 56.9929 8.4267C57.2932 8.69536 57.4433 9.03513 57.4433 9.44603C57.4433 9.87273 57.2932 10.2362 56.9929 10.5365C56.7085 10.8209 56.345 10.9632 55.9025 10.9632Z" fill="white"/>
<path d="M77.1021 13.2626C78.6825 13.2626 79.931 13.7209 80.8476 14.6375C81.78 15.5541 82.2462 16.9132 82.2462 18.7148V25.945H79.9705V18.9756C79.9705 17.7587 79.686 16.8421 79.1171 16.2258C78.564 15.6094 77.7659 15.3013 76.7228 15.3013C75.5692 15.3013 74.6526 15.6647 73.973 16.3917C73.2935 17.1029 72.9537 18.1301 72.9537 19.4734V25.945H70.678V18.9756C70.678 17.7587 70.3935 16.8421 69.8246 16.2258C69.2715 15.6094 68.4734 15.3013 67.4303 15.3013C66.2767 15.3013 65.3601 15.6647 64.6805 16.3917C64.001 17.1029 63.6612 18.1301 63.6612 19.4734V25.945H61.3855V13.3811H63.5664V15.2538C64.0247 14.6059 64.6252 14.116 65.368 13.7841C66.1107 13.4364 66.9562 13.2626 67.9044 13.2626C68.8843 13.2626 69.7535 13.4601 70.512 13.8552C71.2706 14.2503 71.8553 14.8272 72.2662 15.5857C72.7403 14.8588 73.3962 14.2898 74.2338 13.8789C75.0872 13.468 76.0433 13.2626 77.1021 13.2626Z" fill="white"/>
<path d="M86.4335 13.3811H88.7093V25.945H86.4335V13.3811ZM87.5714 10.9632C87.1289 10.9632 86.7575 10.8209 86.4572 10.5365C86.1728 10.252 86.0305 9.90433 86.0305 9.49344C86.0305 9.08255 86.1728 8.73487 86.4572 8.4504C86.7575 8.15013 87.1289 8 87.5714 8C88.0139 8 88.3774 8.14223 88.6618 8.4267C88.9621 8.69536 89.1123 9.03513 89.1123 9.44603C89.1123 9.87273 88.9621 10.2362 88.6618 10.5365C88.3774 10.8209 88.0139 10.9632 87.5714 10.9632Z" fill="white"/>
<path d="M96.6576 26.0872C95.6304 26.0872 94.6426 25.9529 93.6944 25.6842C92.7462 25.3998 92.0034 25.0442 91.4661 24.6175L92.4143 22.8159C92.9675 23.211 93.6391 23.527 94.4293 23.7641C95.2195 24.0011 96.0175 24.1197 96.8235 24.1197C98.8148 24.1197 99.8104 23.5507 99.8104 22.4129C99.8104 22.0336 99.6761 21.7333 99.4074 21.5121C99.1388 21.2908 98.799 21.1328 98.3881 21.038C97.993 20.9273 97.4241 20.8088 96.6813 20.6824C95.6699 20.5243 94.8402 20.3426 94.1922 20.1372C93.5601 19.9317 93.0149 19.584 92.5566 19.0941C92.0983 18.6042 91.8691 17.9168 91.8691 17.0318C91.8691 15.8939 92.3432 14.9852 93.2914 14.3056C94.2396 13.6103 95.5118 13.2626 97.108 13.2626C97.9456 13.2626 98.7832 13.3653 99.6208 13.5708C100.458 13.7762 101.146 14.0528 101.683 14.4005L100.711 16.2021C99.684 15.5383 98.475 15.2064 97.0843 15.2064C96.1203 15.2064 95.3854 15.3645 94.8797 15.6805C94.374 15.9966 94.1211 16.4154 94.1211 16.9369C94.1211 17.3478 94.2634 17.6718 94.5478 17.9089C94.8323 18.1459 95.18 18.3197 95.5909 18.4304C96.0175 18.541 96.6102 18.6674 97.3688 18.8097C98.3802 18.9835 99.1941 19.1731 99.8104 19.3786C100.443 19.5682 100.98 19.9001 101.422 20.3742C101.865 20.8483 102.086 21.5121 102.086 22.3655C102.086 23.5033 101.596 24.412 100.616 25.0916C99.6524 25.7553 98.3328 26.0872 96.6576 26.0872Z" fill="white"/>
<path d="M111.994 25.2101C111.663 25.4946 111.252 25.7158 110.762 25.8739C110.272 26.0161 109.766 26.0872 109.245 26.0872C107.98 26.0872 107 25.7474 106.305 25.0679C105.61 24.3883 105.262 23.4164 105.262 22.1521V15.2538H103.129V13.3811H105.262V10.6313H107.538V13.3811H111.141V15.2538H107.538V22.0573C107.538 22.7368 107.704 23.2584 108.036 23.6218C108.383 23.9853 108.873 24.1671 109.505 24.1671C110.201 24.1671 110.793 23.9695 111.283 23.5744L111.994 25.2101Z" fill="white"/>
<path d="M114.746 13.3811H117.021V25.945H114.746V13.3811ZM115.884 10.9632C115.441 10.9632 115.07 10.8209 114.769 10.5365C114.485 10.252 114.343 9.90433 114.343 9.49344C114.343 9.08255 114.485 8.73487 114.769 8.4504C115.07 8.15013 115.441 8 115.884 8C116.326 8 116.69 8.14223 116.974 8.4267C117.274 8.69536 117.424 9.03513 117.424 9.44603C117.424 9.87273 117.274 10.2362 116.974 10.5365C116.69 10.8209 116.326 10.9632 115.884 10.9632Z" fill="white"/>
<path d="M126.843 26.0872C125.562 26.0872 124.417 25.8106 123.405 25.2575C122.41 24.7044 121.627 23.9458 121.058 22.9818C120.489 22.002 120.205 20.8957 120.205 19.663C120.205 18.4304 120.489 17.332 121.058 16.368C121.627 15.3882 122.41 14.6296 123.405 14.0923C124.417 13.5392 125.562 13.2626 126.843 13.2626C127.98 13.2626 128.992 13.4917 129.877 13.9501C130.778 14.4084 131.473 15.0721 131.963 15.9413L130.232 17.0555C129.837 16.4549 129.347 16.0045 128.763 15.7043C128.178 15.404 127.53 15.2538 126.819 15.2538C125.997 15.2538 125.254 15.4356 124.59 15.7991C123.943 16.1626 123.429 16.6841 123.05 17.3636C122.686 18.0274 122.504 18.7939 122.504 19.663C122.504 20.5481 122.686 21.3303 123.05 22.0099C123.429 22.6736 123.943 23.1873 124.59 23.5507C125.254 23.9142 125.997 24.096 126.819 24.096C127.53 24.096 128.178 23.9458 128.763 23.6456C129.347 23.3453 129.837 22.8949 130.232 22.2943L131.963 23.3848C131.473 24.254 130.778 24.9256 129.877 25.3998C128.992 25.8581 127.98 26.0872 126.843 26.0872Z" fill="white"/>
</svg>
