<svg width="140" height="35" viewBox="0 0 140 35" fill="none" xmlns="http://www.w3.org/2000/svg">
<path d="M30.8265 9.6096C30.4912 20.3337 26.0997 28.264 16.9685 33.3946C15.2989 34.3333 15.8733 34.3228 14.1839 33.3865C7.22247 29.5148 2.7532 23.7472 1.03836 15.9364C0.305081 12.5938 0.153089 9.21511 0.77034 5.82952C0.81675 5.57426 1.12886 5.21459 1.35046 5.18674C1.57207 5.1589 1.96307 5.41879 2.08606 5.66012C3.97184 9.28473 5.8352 12.9202 7.67612 16.5664C7.8664 16.9424 8.07525 17.0885 8.50802 17.0874C13.3563 17.0711 18.2054 17.0711 23.0552 17.0874C23.4752 17.0874 23.6585 16.9389 23.8291 16.5804C25.559 12.9441 27.3098 9.31722 29.0502 5.68565C29.2138 5.34569 29.4319 5.07768 29.8415 5.15077C30.251 5.22387 30.3879 5.49885 30.4216 5.90029C30.5597 7.26358 30.7186 8.62107 30.8265 9.6096ZM15.5994 31.9861L22.8371 18.46H8.66001L15.5994 31.9861ZM13.9751 31.6995L1.83661 8.05371C0.638072 16.9331 6.21769 27.7988 13.9693 31.6995H13.9751ZM29.4098 8.39366C25.4147 16.1286 21.4262 23.8481 17.4442 31.5522C20.4388 30.2863 24.813 25.6221 26.8608 21.4313C28.8796 17.2997 29.6477 12.9256 29.4098 8.39366Z" fill="white"/>
<path d="M87.0922 19.0214L90.9558 23.6137C90.3165 23.6137 89.8187 23.645 89.3314 23.5974C89.1586 23.58 88.9741 23.3967 88.8464 23.2494C87.7697 21.987 86.6954 20.7223 85.6442 19.4391C85.5375 19.2962 85.3966 19.1824 85.2343 19.1084C85.0721 19.0344 84.8938 19.0025 84.716 19.0156C83.2077 19.0388 81.7063 19.0249 80.1121 19.0249V23.5835H78.7686V11.3475C78.9693 11.3371 79.1735 11.3174 79.3788 11.3174C82.4489 11.3174 85.5189 11.3174 88.5889 11.3174C90.3014 11.3174 91.0405 12.0727 91.0416 13.8026C91.0416 14.8062 91.0498 15.8087 91.0416 16.8111C91.0289 18.1872 90.2063 19.0063 88.8372 19.0156C88.3058 19.0249 87.7721 19.0214 87.0922 19.0214ZM84.861 17.6361C86.1547 17.6361 87.4472 17.6361 88.7397 17.6361C89.4266 17.6361 89.6412 17.4272 89.647 16.7427C89.6548 15.7023 89.6548 14.6616 89.647 13.6205C89.6412 12.9243 89.4289 12.7039 88.7548 12.7016C86.1698 12.6954 83.5843 12.6954 80.9985 12.7016C80.3117 12.7016 80.0936 12.922 80.0854 13.6042C80.0738 14.6446 80.0738 15.6853 80.0854 16.7264C80.0924 17.4388 80.3059 17.6349 81.0415 17.6372C82.3143 17.6384 83.5882 17.6361 84.861 17.6361Z" fill="white"/>
<path d="M68.7656 18.1561H60.9096V22.2366H70.6173C70.6765 22.3283 70.7125 22.3527 70.716 22.3921C70.8204 23.6162 70.8204 23.6162 69.5952 23.6162H59.5439V11.2979H69.9073C70.7473 11.2979 70.7473 11.2979 70.7357 12.1402C70.7357 12.291 70.7194 12.4407 70.7078 12.653H60.9235V16.7498H68.7656V18.1561Z" fill="white"/>
<path d="M51.481 22.2541V23.5907C51.3023 23.6012 51.119 23.6221 50.9356 23.6221C47.8061 23.6221 44.6761 23.6221 41.5458 23.6221C40.0177 23.6221 39.2346 22.8296 39.2334 21.3016C39.2334 18.7351 39.2334 16.169 39.2334 13.6033C39.2334 12.1101 40.0258 11.313 41.5191 11.3107C44.6695 11.3053 47.8188 11.3053 50.967 11.3107C51.119 11.3107 51.2709 11.3269 51.4659 11.3374V12.6798H50.7999C47.7662 12.6798 44.7326 12.6798 41.6989 12.6798C40.78 12.6798 40.6129 12.8469 40.6129 13.7507C40.6129 16.2406 40.6129 18.7297 40.6129 21.218C40.6129 22.0766 40.7951 22.2623 41.6722 22.2623C44.7067 22.2623 47.7403 22.2623 50.7732 22.2623L51.481 22.2541Z" fill="white"/>
<path d="M139.868 23.6167C139.238 23.6167 138.775 23.6527 138.324 23.5993C138.129 23.5772 137.918 23.4032 137.781 23.2408C136.44 21.6698 135.113 20.0837 133.778 18.5104C133.652 18.3608 133.455 18.1775 133.285 18.174C132.055 18.145 130.823 18.1577 129.52 18.1577V20.8623C129.52 21.5955 129.498 22.33 129.528 23.0667C129.547 23.4925 129.422 23.6759 128.978 23.6236C128.714 23.6089 128.448 23.6089 128.184 23.6236V11.2995C128.424 11.314 128.665 11.314 128.905 11.2995C129.369 11.2438 129.543 11.4039 129.532 11.9005C129.499 13.2928 129.52 14.6781 129.52 16.0681V16.7643C130.831 16.7643 132.081 16.7747 133.328 16.7492C133.479 16.7492 133.653 16.5647 133.77 16.4278C135.02 14.9554 136.283 13.4947 137.49 11.9887C137.906 11.4677 138.338 11.1963 138.998 11.3018C139.22 11.3366 139.452 11.3018 139.848 11.3018L134.7 17.4604L139.868 23.6167Z" fill="white"/>
<path d="M98.4375 11.2996H99.1336C102.703 11.2996 106.274 11.2996 109.846 11.2996C110.796 11.2996 110.723 11.1244 110.726 12.2046C110.726 12.3357 110.702 12.4656 110.685 12.6501H105.274V23.575H103.914V12.6826H98.4375V11.2996Z" fill="white"/>
<path d="M15.5965 2.20665C15.405 2.2577 15.1997 2.30643 14.9978 2.36793L6.15208 5.0713C6.02213 5.11075 5.8945 5.15252 5.76456 5.18732C5.37239 5.29407 5.05449 5.18732 4.92338 4.79284C4.78647 4.38327 4.9489 4.07001 5.37471 3.93658C6.5164 3.5827 7.65924 3.24043 8.80208 2.89236C10.9021 2.2461 13.001 1.601 15.108 0.973311C15.3978 0.887592 15.7056 0.882778 15.9979 0.959388C19.2652 1.93632 22.5266 2.93181 25.7892 3.93194C25.9354 3.97719 26.1524 4.00271 26.2034 4.10365C26.3311 4.35311 26.49 4.66637 26.4355 4.9077C26.3508 5.2755 25.9842 5.34976 25.6303 5.24534C24.668 4.96378 23.7081 4.6772 22.7506 4.38559C20.5376 3.7111 18.3261 3.03507 16.1163 2.35748C15.9504 2.29715 15.7833 2.25886 15.5965 2.20665Z" fill="white"/>
<path d="M118.229 11.3232H119.535V23.5696H118.229V11.3232Z" fill="white"/>
</svg>
