<svg width="40" height="40" viewBox="0 0 40 40" fill="none" xmlns="http://www.w3.org/2000/svg">
<rect width="40" height="40" rx="9.6" fill="#CAC3C1"/>
<rect width="40" height="40" rx="9.6" fill="url(#paint0_linear_1272_32207)" style="mix-blend-mode:overlay"/>
<rect width="40" height="40" rx="9.6" fill="url(#paint1_linear_1272_32207)" fill-opacity="0.5" style="mix-blend-mode:overlay"/>
<rect width="40" height="40" rx="9.6" fill="url(#paint2_linear_1272_32207)" fill-opacity="0.75" style="mix-blend-mode:overlay"/>
<path fill-rule="evenodd" clip-rule="evenodd" d="M26.7894 10.6759C26.7336 10.7011 26.6746 10.7193 26.614 10.73C26.2757 11.193 26.4824 11.1389 25.881 11.5237C25.8559 12.0429 25.928 12.5622 26.094 13.0569C26.0984 13.0642 26.1007 13.0725 26.1007 13.0809C26.1007 13.0894 26.0984 13.0977 26.094 13.105C26.0819 13.1097 26.0684 13.1097 26.0564 13.105C25.9123 13.135 25.7055 13.1892 25.5802 13.2072C25.6177 13.4685 25.6177 13.7335 25.5802 13.9948C25.2071 14.6996 24.628 15.2846 23.9137 15.6783C23.494 15.7565 23.0303 15.4018 22.2973 15.0771C22.0968 14.9929 21.4202 14.566 21.0443 14.4758C20.6684 14.3857 20.4554 15.0771 20.8187 15.2515C20.9879 15.3356 21.2573 15.4559 21.345 15.6663C21.5956 16.2976 21.3074 18.7267 20.7812 19.2137C20.5368 19.2137 20.3301 18.9912 20.1546 19.0514C19.8289 19.2197 20.0356 20.1877 20.1546 20.3561C22.1783 22.3462 21.9339 23.8253 22.7923 24.9256C23.187 24.9256 22.9301 25.3224 23.2246 25.7914C23.2674 26.061 23.246 26.3365 23.1619 26.5971V27.1983C23.1619 27.2584 23.118 27.3246 23.093 27.3847V27.9138C23.0366 28.1663 22.9677 28.515 22.9113 28.7495C22.7923 29.2546 23.2559 29.6514 22.9802 30.1264C22.9802 30.427 22.9802 30.3669 22.7923 30.6074C22.7357 31.1954 22.7357 31.7871 22.7923 32.3751C23.1178 32.8901 23.5308 33.3494 24.014 33.7339C24.559 33.9624 25.361 33.9143 25.0978 34.732C23.5065 35.201 22.4915 34.4734 21.6457 34.4614L21.6081 34.5997C21.2331 34.6117 20.8586 34.565 20.4992 34.4614C20.551 33.9945 20.6305 33.5308 20.7373 33.0725L20.919 32.7959C20.9297 32.1478 20.9046 31.4995 20.8438 30.8539C20.5055 30.6194 20.4366 29.8919 20.4366 29.4891C20.3543 29.1481 20.3144 28.7989 20.3175 28.4489C20.2522 28.2139 20.231 27.9696 20.2549 27.7274C20.305 27.5651 20.493 27.4989 20.5431 27.3667V26.9157C20.6308 26.4407 20.6057 26.2183 20.305 25.9357C19.5657 25.9357 19.4592 25.9778 19.052 25.3705C18.9267 25.1841 17.8867 23.6088 17.7989 23.5667C16.9344 23.206 17.1035 23.3443 16.7276 22.7009C16.54 22.7734 16.3819 22.9021 16.2765 23.0677C15.8553 23.8266 15.5092 24.6217 15.2428 25.4427C15.1551 25.7252 15.2428 26.0439 15.1112 26.2664C14.9796 26.4888 14.704 26.4948 14.6413 26.6091C14.3343 27.1322 14.5599 27.0901 14.0148 27.4568C13.9393 27.6116 13.8785 27.7726 13.8331 27.9378L13.7016 28.1122C13.6076 28.3106 13.8081 28.6774 13.7705 28.8036C13.667 29.131 13.5435 29.4522 13.4008 29.7656C13.1377 30.3669 13.1753 31.1666 12.9059 31.5694C12.7743 31.7558 12.4485 31.5694 12.2042 31.7257C12.2042 31.858 11.797 32.7178 11.7218 32.9282V34.2991C11.7907 34.5276 11.9974 34.744 11.9348 35.0386C11.8721 35.3332 10.7444 35.3453 10.1367 35.2611C9.97467 35.2387 9.82823 35.1563 9.7287 35.0315C9.62918 34.9068 9.58447 34.7496 9.60416 34.5937C9.60416 34.1969 10.4437 31.6355 10.3936 31.4552C9.76705 30.7757 10.5627 30.0723 10.8008 29.441C10.9136 29.1283 10.8447 28.6954 10.97 28.4128L11.6341 27.2464C12.0413 26.8796 11.8596 26.8616 12.0789 26.5309C12.2982 26.2002 12.4986 26.0559 12.3671 25.617C12.0977 24.7392 12.6803 23.4886 12.7179 22.5687C12.6177 22.4665 12.2668 22.5025 12.223 22.2199C12.1576 21.6311 12.3059 21.0386 12.6427 20.5425C12.7242 20.5004 12.8244 20.5425 12.8996 20.4883C12.8996 20.0615 12.4548 17.6805 12.7931 17.5603C12.9999 17.4821 13.4823 17.446 13.57 17.4039C13.6577 17.3618 13.4948 17.0853 13.4071 17.0732C13.3194 17.0612 12.956 17.0251 12.7367 16.953C11.9974 16.7846 12.6803 13.9768 12.6929 13.9467C12.8934 13.6882 13.8457 14.0369 13.9459 13.598C14.2591 13.2072 13.7016 11.7161 14.7792 9.87627C15.1488 9.27502 15.8442 8.63168 16.6587 8.89623C16.9344 8.98642 16.7715 9.36521 17.2476 8.96237C17.2305 8.75363 17.1732 8.54975 17.0785 8.36112C16.2703 6.06434 19.0019 4.82577 20.8814 6.13048C21.0576 6.18727 21.2243 6.26828 21.3763 6.37098C21.4828 6.88806 22.0029 7.80797 21.4828 8.41523C21.2476 8.46751 21.0245 8.56129 20.825 8.69181C20.8205 8.86578 20.8395 9.03957 20.8814 9.20888C20.919 9.32312 20.9879 9.36521 20.8062 9.43736C20.8062 9.43736 20.8062 9.51552 20.8062 9.53957C21.2201 9.58539 21.6391 9.51872 22.0154 9.34717H22.3725V8.9263H22.5354V8.60763H22.7045V9.20888H23.1494V9.38926H29.6526V9.71393H29.9408V8.51143H30.1788V9.4554H30.7364V10.0085H32.4656V9.84621H32.7851V9.91836H33.5996V10.3753H32.7851V10.4475H32.4969V10.2851H30.7615V10.4535H30.0034V10.3392H29.6526V10.6759H26.7894Z" fill="#404040"/>
<defs>
<linearGradient id="paint0_linear_1272_32207" x1="1.30718e-06" y1="-16.8926" x2="31.5053" y2="40" gradientUnits="userSpaceOnUse">
<stop stop-color="white"/>
<stop offset="1" stop-color="white" stop-opacity="0"/>
</linearGradient>
<linearGradient id="paint1_linear_1272_32207" x1="20" y1="32.5557" x2="20" y2="38.5308" gradientUnits="userSpaceOnUse">
<stop stop-opacity="0"/>
<stop offset="1"/>
</linearGradient>
<linearGradient id="paint2_linear_1272_32207" x1="7.25259" y1="-6.50903" x2="12.9332" y2="21.6002" gradientUnits="userSpaceOnUse">
<stop stop-color="white"/>
<stop offset="1" stop-color="white" stop-opacity="0"/>
</linearGradient>
</defs>
</svg>
