<svg width="19" height="19" viewBox="0 0 19 19" fill="none" xmlns="http://www.w3.org/2000/svg">
<path d="M14.25 0H4.75C2.12665 0 0 2.12665 0 4.75V14.25C0 16.8734 2.12665 19 4.75 19H14.25C16.8734 19 19 16.8734 19 14.25V4.75C19 2.12665 16.8734 0 14.25 0Z" fill="url(#paint0_linear_40_130)"/>
<path d="M18.9999 11.8704V14.25C18.9999 14.8738 18.8771 15.4914 18.6384 16.0677C18.3997 16.6441 18.0498 17.1677 17.6087 17.6088C17.1676 18.0499 16.644 18.3998 16.0677 18.6385C15.4914 18.8772 14.8737 19 14.2499 19H12.1261L6.20947 13.0834C6.48714 13.3531 6.79869 13.5856 7.13629 13.775C7.87159 14.1907 8.70519 14.3985 9.63707 14.3985C10.7786 14.3985 11.756 14.0994 12.5692 13.501C13.3824 12.9026 13.9259 12.0827 14.1997 11.0412H11.6237C11.4318 11.4437 11.1601 11.7497 10.8086 11.9593C10.4567 12.1698 10.057 12.275 9.60933 12.2747C8.88771 12.2747 8.30315 12.0235 7.85563 11.5212C7.40812 11.0188 7.1843 10.3474 7.18417 9.5068C7.18417 8.66662 7.40799 7.99529 7.85563 7.4928C8.30327 6.99032 8.88784 6.73901 9.60933 6.73888C10.0305 6.73191 10.4454 6.84103 10.8086 7.05428C11.1601 7.26455 11.4318 7.57058 11.6237 7.97236H14.1997C13.9942 7.19108 13.637 6.5333 13.1281 5.99902L18.9999 11.8704Z" fill="url(#paint1_linear_40_130)"/>
<path d="M5.41688 6.96512C5.81439 6.23444 6.41055 5.63116 7.13646 5.22499C7.87163 4.80952 8.70517 4.60171 9.63709 4.60156C10.7788 4.60156 11.7562 4.90303 12.5693 5.50596C13.3824 6.1089 13.9259 6.93096 14.1998 7.97216H11.6239C11.432 7.57033 11.1603 7.26431 10.8086 7.05412C10.4455 6.84102 10.0307 6.73199 9.60969 6.73899C8.88797 6.73899 8.30335 6.99019 7.85584 7.4926C7.40832 7.99501 7.18451 8.66635 7.18441 9.5066C7.18441 10.3472 7.40822 11.0186 7.85584 11.5208C8.30345 12.023 8.88807 12.2742 9.60969 12.2744C10.0571 12.2744 10.4568 12.1694 10.8086 11.9593C11.1604 11.7492 11.4322 11.4432 11.6239 11.0412H14.1998C13.9258 12.0826 13.3823 12.9024 12.5693 13.5007C11.7563 14.0991 10.7789 14.3982 9.63709 14.3982C8.70533 14.3982 7.87178 14.1904 7.13646 13.7748C6.41183 13.37 5.81588 12.7693 5.41688 12.0415C5.00582 11.3016 4.80029 10.4566 4.80029 9.5066C4.80029 8.5566 5.00582 7.70944 5.41688 6.96512Z" fill="#25ADE8"/>
<defs>
<linearGradient id="paint0_linear_40_130" x1="1.39126" y1="1.39126" x2="17.6087" y2="17.6087" gradientUnits="userSpaceOnUse">
<stop stop-color="white"/>
<stop offset="1" stop-color="white"/>
</linearGradient>
<linearGradient id="paint1_linear_40_130" x1="7.73521" y1="7.60741" x2="17.6726" y2="17.5449" gradientUnits="userSpaceOnUse">
<stop stop-opacity="0.25"/>
<stop offset="1" stop-opacity="0"/>
</linearGradient>
</defs>
</svg>
