<svg width="26" height="26" viewBox="0 0 26 26" fill="none" xmlns="http://www.w3.org/2000/svg">
<path d="M0.780417 23.1796C0.216886 23.7432 0.216886 24.6568 0.780418 25.2204C1.34395 25.7839 2.25761 25.7839 2.82115 25.2204L0.780417 23.1796ZM24.2008 1.79999H25.6438C25.6438 1.00303 24.9977 0.356976 24.2008 0.356976V1.79999ZM1.80078 0.356976C1.00383 0.356976 0.357769 1.00303 0.357769 1.79999C0.357769 2.59694 1.00383 3.243 1.80078 3.243V0.356976ZM22.7578 24.2C22.7578 24.9969 23.4038 25.643 24.2008 25.643C24.9977 25.643 25.6438 24.9969 25.6438 24.2H22.7578ZM2.82115 25.2204L25.2211 2.82035L23.1804 0.779624L0.780417 23.1796L2.82115 25.2204ZM1.80078 3.243H24.2008V0.356976H1.80078V3.243ZM22.7578 1.79999V24.2H25.6438V1.79999H22.7578Z" fill="#7747E5"/>
</svg>
