<svg width="28" height="28" viewBox="0 0 28 28" fill="none" xmlns="http://www.w3.org/2000/svg">
<path d="M21 0H7C3.13401 0 0 3.13401 0 7V21C0 24.866 3.13401 28 7 28H21C24.866 28 28 24.866 28 21V7C28 3.13401 24.866 0 21 0Z" fill="url(#paint0_linear_17_84)"/>
<path d="M27.9999 17.4933V21C28 21.9192 27.8189 22.8295 27.4672 23.6788C27.1154 24.5281 26.5998 25.2998 25.9498 25.9498C25.2997 26.5998 24.5281 27.1155 23.6788 27.4672C22.8295 27.819 21.9192 28 20.9999 28H17.8701L9.15088 19.2808C9.56007 19.6783 10.0192 20.0209 10.5167 20.3C11.6003 20.9126 12.8288 21.2189 14.2021 21.2189C15.8843 21.2189 17.3246 20.778 18.523 19.8962C19.7214 19.0144 20.5224 17.8061 20.926 16.2713H17.1298C16.847 16.8644 16.4466 17.3154 15.9286 17.6243C15.41 17.9345 14.8209 18.0895 14.1612 18.0891C13.0978 18.0891 12.2363 17.7189 11.5768 16.9786C10.9173 16.2383 10.5875 15.2488 10.5873 14.0101C10.5873 12.7719 10.9171 11.7826 11.5768 11.0421C12.2365 10.3016 13.0979 9.93121 14.1612 9.93102C14.7818 9.92074 15.3933 10.0816 15.9286 10.3958C16.4466 10.7057 16.847 11.1567 17.1298 11.7488H20.926C20.623 10.5974 20.0966 9.62806 19.3468 8.8407L27.9999 17.4933Z" fill="url(#paint1_linear_17_84)"/>
<path d="M7.98263 10.2644C8.56844 9.1876 9.44699 8.29855 10.5167 7.69999C11.6002 7.08772 12.8285 6.78147 14.2019 6.78125C15.8844 6.78125 17.3248 7.22552 18.523 8.11405C19.7213 9.00258 20.5222 10.2141 20.9259 11.7485H17.1298C16.8471 11.1563 16.4466 10.7053 15.9283 10.3955C15.3932 10.0815 14.7819 9.92083 14.1615 9.93114C13.0979 9.93114 12.2364 10.3013 11.5769 11.0417C10.9174 11.7821 10.5876 12.7715 10.5874 14.0097C10.5874 15.2484 10.9172 16.2379 11.5769 16.978C12.2365 17.7181 13.0981 18.0883 14.1615 18.0886C14.8209 18.0886 15.4099 17.9338 15.9283 17.6242C16.4468 17.3146 16.8472 16.8636 17.1298 16.2713H20.9259C20.522 17.8059 19.7211 19.0141 18.523 19.8958C17.3249 20.7776 15.8846 21.2184 14.2019 21.2184C12.8288 21.2184 11.6004 20.9121 10.5167 20.2996C9.44887 19.7032 8.57062 18.8179 7.98263 17.7453C7.37686 16.6549 7.07397 15.4097 7.07397 14.0097C7.07397 12.6097 7.37686 11.3613 7.98263 10.2644Z" fill="white"/>
<defs>
<linearGradient id="paint0_linear_17_84" x1="2.05027" y1="2.05027" x2="25.9497" y2="25.9497" gradientUnits="userSpaceOnUse">
<stop stop-color="#57CDFF"/>
<stop offset="1" stop-color="#0096D6"/>
</linearGradient>
<linearGradient id="paint1_linear_17_84" x1="11.3993" y1="11.211" x2="26.044" y2="25.8556" gradientUnits="userSpaceOnUse">
<stop stop-opacity="0.25"/>
<stop offset="1" stop-opacity="0"/>
</linearGradient>
</defs>
</svg>
