<svg width="31" height="30" viewBox="0 0 31 30" fill="none" xmlns="http://www.w3.org/2000/svg">
<path d="M25.0938 8.79875C24.35 9.125 23.5575 9.34125 22.7312 9.44625C23.5812 8.93875 24.23 8.14125 24.535 7.18C23.7425 7.6525 22.8675 7.98625 21.935 8.1725C21.1825 7.37125 20.11 6.875 18.94 6.875C16.67 6.875 14.8425 8.7175 14.8425 10.9763C14.8425 11.3012 14.87 11.6137 14.9375 11.9112C11.5287 11.745 8.5125 10.1112 6.48625 7.6225C6.1325 8.23625 5.925 8.93875 5.925 9.695C5.925 11.115 6.65625 12.3737 7.74625 13.1025C7.0875 13.09 6.44125 12.8987 5.89375 12.5975C5.89375 12.61 5.89375 12.6262 5.89375 12.6425C5.89375 14.635 7.315 16.29 9.17875 16.6712C8.845 16.7625 8.48125 16.8062 8.10375 16.8062C7.84125 16.8062 7.57625 16.7913 7.3275 16.7362C7.85875 18.36 9.36625 19.5538 11.1588 19.5925C9.76375 20.6838 7.9925 21.3412 6.075 21.3412C5.73875 21.3412 5.41625 21.3263 5.09375 21.285C6.91 22.4563 9.0625 23.125 11.3837 23.125C18.9287 23.125 23.0537 16.875 23.0537 11.4575C23.0537 11.2762 23.0475 11.1013 23.0387 10.9275C23.8525 10.35 24.5362 9.62875 25.0938 8.79875Z" fill="white"/>
</svg>
