<svg width="17" height="17" viewBox="0 0 17 17" fill="none" xmlns="http://www.w3.org/2000/svg">
<g clip-path="url(#clip0_94_10911)">
<path d="M11.4158 6.72203C11.4158 7.99032 10.4431 8.47812 9.95675 8.47812C10.5404 8.47812 11.513 8.86837 11.513 10.2342C11.513 11.6001 10.2486 12.4781 8.49773 12.4781C6.84417 12.4781 5.87149 11.8928 5.48242 10.5269L7.33051 9.74642C7.52505 10.6245 7.91412 11.0147 8.595 11.0147C9.27587 11.0147 9.66495 10.722 9.66495 10.0391C9.66495 9.45373 9.27587 9.16105 8.49773 9.16105H8.10866V7.89276H8.40046C9.17861 7.89276 9.47041 7.60007 9.47041 7.01471C9.47041 6.42934 9.17861 6.13666 8.595 6.13666C8.01139 6.13666 7.62232 6.42934 7.52505 7.20983L5.77423 6.62446C6.06603 5.16105 7.23325 4.57568 8.69227 4.57568C10.4431 4.57568 11.4158 5.45373 11.4158 6.72203Z" fill="white"/>
</g>
<circle cx="8.5" cy="8.5" r="7.25" stroke="white" stroke-width="1.5"/>
<defs>
<clipPath id="clip0_94_10911">
<rect width="8" height="8" fill="white" transform="translate(4.5 4.5)"/>
</clipPath>
</defs>
</svg>
