<svg width="145" height="17" viewBox="0 0 145 17" fill="none" xmlns="http://www.w3.org/2000/svg">
<path d="M18.9585 16.75V0.25H32.6585V4.525H24.7835V6.575H31.1335V10.525H24.7835V12.475H32.9585V16.75H18.9585Z" fill="white"/>
<path d="M52.4329 16.75H45.4079L43.2329 12.475L41.2329 16.75H34.6579L40.1329 8.525L34.8579 0.25H41.7329L43.6579 4.375L45.6079 0.25H51.9579L46.7079 8.375L52.4329 16.75Z" fill="white"/>
<path d="M61.9355 0C65.0521 0 67.5854 0.783333 69.5354 2.35L67.1855 6.1C66.4021 5.55 65.5771 5.10833 64.7105 4.775C63.8605 4.44167 62.9355 4.275 61.9355 4.275C61.2854 4.275 60.8271 4.35 60.5605 4.5C60.3105 4.63333 60.1855 4.81667 60.1855 5.05C60.1855 5.25 60.3354 5.4 60.6354 5.5C60.9521 5.6 61.3438 5.70833 61.8105 5.825L64.0854 6.35C65.7688 6.73333 67.0354 7.3 67.8854 8.05C68.7521 8.8 69.1854 9.84167 69.1854 11.175C69.1854 12.5083 68.8604 13.6083 68.2104 14.475C67.5604 15.325 66.6771 15.9583 65.5604 16.375C64.4604 16.7917 63.2104 17 61.8105 17C60.7605 17 59.7104 16.9083 58.6604 16.725C57.6105 16.525 56.6355 16.2417 55.7355 15.875C54.8354 15.4917 54.0604 15.0333 53.4104 14.5L55.7104 10.675C56.1938 11.0583 56.7771 11.4083 57.4604 11.725C58.1438 12.025 58.8521 12.2667 59.5854 12.45C60.3188 12.6333 61.0021 12.725 61.6354 12.725C62.2354 12.725 62.6438 12.6583 62.8605 12.525C63.0938 12.375 63.2104 12.1917 63.2104 11.975C63.2104 11.7417 63.1105 11.5667 62.9104 11.45C62.7271 11.3333 62.3854 11.2167 61.8854 11.1L59.3854 10.55C58.5021 10.35 57.6604 10.0833 56.8604 9.75C56.0604 9.41667 55.4104 8.93333 54.9104 8.3C54.4104 7.65 54.1604 6.775 54.1604 5.675C54.1604 4.54167 54.4604 3.55 55.0604 2.7C55.6771 1.85 56.5605 1.19167 57.7104 0.725C58.8771 0.241667 60.2854 0 61.9355 0Z" fill="white"/>
<path d="M80.9214 0.25C83.1547 0.25 84.8631 0.75 86.0464 1.75C87.2464 2.75 87.8464 4.19167 87.8464 6.075C87.8464 7.94167 87.2464 9.38333 86.0464 10.4C84.8631 11.4 83.1547 11.9 80.9214 11.9H77.9964V16.75H72.1714V0.25H80.9214ZM79.9714 7.775C80.6047 7.775 81.1047 7.64167 81.4714 7.375C81.8381 7.09167 82.0214 6.65833 82.0214 6.075C82.0214 5.49167 81.8381 5.06667 81.4714 4.8C81.1047 4.51667 80.6047 4.375 79.9714 4.375H77.9964V7.775H79.9714Z" fill="white"/>
<path d="M98.9478 0C101.581 0 103.631 0.741667 105.098 2.225C106.581 3.70833 107.323 5.8 107.323 8.5C107.323 11.2 106.581 13.2917 105.098 14.775C103.631 16.2583 101.581 17 98.9478 17C97.2144 17 95.7144 16.6667 94.4478 16C93.1978 15.3333 92.2311 14.3667 91.5478 13.1C90.8811 11.8333 90.5478 10.3 90.5478 8.5C90.5478 6.7 90.8811 5.16667 91.5478 3.9C92.2311 2.63333 93.1978 1.66667 94.4478 0.999999C95.7144 0.333333 97.2144 0 98.9478 0ZM98.9478 4.375C98.0977 4.375 97.4728 4.70833 97.0728 5.375C96.6894 6.025 96.4978 7.06667 96.4978 8.5C96.4978 9.93333 96.6894 10.9833 97.0728 11.65C97.4728 12.3 98.0977 12.625 98.9478 12.625C99.7978 12.625 100.414 12.3 100.798 11.65C101.181 10.9833 101.373 9.93333 101.373 8.5C101.373 7.06667 101.181 6.025 100.798 5.375C100.414 4.70833 99.7978 4.375 98.9478 4.375Z" fill="white"/>
<path d="M119.486 0.25C121.636 0.25 123.286 0.733333 124.436 1.7C125.586 2.65 126.161 3.91667 126.161 5.5C126.161 7.98333 125.127 9.625 123.061 10.425L127.086 16.75H120.761L117.836 11.275H116.236V16.75H110.536V0.25H119.486ZM118.486 7.45C119.102 7.45 119.561 7.34167 119.861 7.125C120.177 6.89167 120.336 6.49167 120.336 5.925C120.336 5.375 120.177 4.98333 119.861 4.75C119.561 4.51667 119.102 4.4 118.486 4.4H116.236V7.45H118.486Z" fill="white"/>
<path d="M144.813 0.25V4.525H139.663V16.75H133.838V4.525H128.663V0.25H144.813Z" fill="white"/>
<path fill-rule="evenodd" clip-rule="evenodd" d="M13.95 2.39976C12.6333 0.966423 10.6833 0.249756 8.1 0.249756H0V16.7498H8.1C10.6833 16.7498 12.6333 16.0331 13.95 14.5998C15.2667 13.1498 15.925 11.1164 15.925 8.49976C15.925 5.86642 15.2667 3.83309 13.95 2.39976ZM11.4583 8.96515L5.01887 13.6252L6.53402 9.51339L3.12493 7.86865L9.56432 3.20857L8.04917 7.32041L11.4583 8.96515Z" fill="white"/>
</svg>
