<svg width="16" height="17" viewBox="0 0 16 17" fill="none" xmlns="http://www.w3.org/2000/svg">
<path fill-rule="evenodd" clip-rule="evenodd" d="M15.8124 12.4742C15.8009 12.5429 15.7895 12.6173 15.778 12.6918C15.7665 12.7662 15.7551 12.8407 15.7436 12.9094C15.3084 14.9024 13.5903 16.2997 11.5516 16.2997H4.42734C4.15245 16.2997 3.87756 16.2768 3.60267 16.231C1.60972 15.8416 0.189453 14.1006 0.189453 12.0847V4.93759C0.189453 4.6627 0.212361 4.36491 0.281083 4.09002C0.67051 2.37195 1.72426 1.2953 3.41941 0.814244C3.52249 0.791337 3.62558 0.774156 3.72866 0.756976C3.83174 0.739795 3.93483 0.722615 4.03791 0.699707H11.9639C12.1243 0.722615 12.2617 0.745522 12.3991 0.791337C14.1172 1.20367 15.2168 2.23451 15.6749 3.95257C15.7221 4.07833 15.7477 4.21489 15.7739 4.35482C15.7859 4.4188 15.798 4.48348 15.8124 4.54817V12.4742ZM12.2617 8.51116C12.2388 6.12878 10.3604 4.25037 8.00091 4.25037C5.61853 4.25037 3.74011 6.15169 3.74011 8.51116C3.74011 10.8935 5.64144 12.772 8.00091 12.772C10.3833 12.772 12.2388 10.8706 12.2617 8.51116ZM13.6132 3.97548C13.6132 3.28825 13.0406 2.71557 12.3533 2.71557C11.6661 2.71557 11.0934 3.28825 11.0934 3.95257C11.0934 4.6627 11.6203 5.21248 12.3533 5.21248C13.0864 5.23539 13.6132 4.68561 13.6132 3.97548ZM10.6049 8.4936C10.6049 9.93813 9.44962 11.1152 8.00997 11.1152C6.57032 11.1152 5.39727 9.95597 5.39727 8.51144C5.39727 7.06691 6.57032 5.90772 7.9922 5.90772C9.43185 5.88989 10.6049 7.06691 10.6049 8.4936ZM12.376 4.31902C12.5593 4.31902 12.7196 4.15867 12.7196 3.97541C12.7196 3.79215 12.5364 3.63179 12.376 3.60889C12.1928 3.63179 12.0324 3.79215 12.0324 3.97541C12.0324 4.15867 12.1928 4.31902 12.376 4.31902Z" fill="white"/>
</svg>
