<svg width="31" height="30" viewBox="0 0 31 30" fill="none" xmlns="http://www.w3.org/2000/svg">
<path d="M25.0938 14.3778C25.0938 13.005 23.9774 11.8887 22.6046 11.8887C22.0558 11.8887 21.5343 12.0679 21.1087 12.3927C19.7198 11.4282 17.9002 10.8532 15.9649 10.7076L17.0091 8.25831L20.0471 8.96771C20.1442 9.90735 20.9307 10.6441 21.8952 10.6441C22.9245 10.6441 23.7621 9.80654 23.7621 8.77729C23.7621 7.74805 22.9245 6.91046 21.8952 6.91046C21.2431 6.91046 20.6694 7.24774 20.3358 7.75676L16.7851 6.92664C16.4839 6.85819 16.189 7.01127 16.0695 7.28881L14.6258 10.674C12.5362 10.7462 10.5449 11.3349 9.04148 12.3604C8.63202 12.0567 8.12424 11.8887 7.58286 11.8887C6.21012 11.8887 5.09375 13.005 5.09375 14.3778C5.09375 15.2876 5.59033 16.1102 6.352 16.5321C6.34204 16.6416 6.33831 16.7536 6.33831 16.8669C6.33831 20.2981 10.2462 23.0897 15.0502 23.0897C19.8529 23.0897 23.7621 20.2981 23.7621 16.8669C23.7621 16.7698 23.7583 16.674 23.7521 16.5782C24.5636 16.165 25.0938 15.3224 25.0938 14.3778ZM21.8952 8.15502C22.2375 8.15502 22.5175 8.4338 22.5175 8.77729C22.5175 9.12079 22.2375 9.39957 21.8952 9.39957C21.553 9.39957 21.273 9.12079 21.273 8.77729C21.273 8.4338 21.553 8.15502 21.8952 8.15502ZM10.6942 16.2446C10.6942 15.5589 11.2531 15.0001 11.9388 15.0001C12.6246 15.0001 13.1834 15.5589 13.1834 16.2446C13.1834 16.9316 12.6246 17.4892 11.9388 17.4892C11.2531 17.4892 10.6942 16.9316 10.6942 16.2446ZM17.9239 20.3728C17.0651 20.9938 16.057 21.305 15.0502 21.305C14.0433 21.305 13.0353 20.9938 12.1765 20.3728C11.8977 20.1712 11.8355 19.7816 12.0371 19.5041C12.2387 19.2266 12.6283 19.1643 12.9058 19.3647C14.189 20.2919 15.9114 20.2944 17.1946 19.3647C17.4721 19.1643 17.8604 19.2241 18.0633 19.5041C18.2649 19.7829 18.2014 20.1712 17.9239 20.3728ZM18.1616 17.4892C17.4746 17.4892 16.917 16.9316 16.917 16.2446C16.917 15.5589 17.4746 15.0001 18.1616 15.0001C18.8486 15.0001 19.4061 15.5589 19.4061 16.2446C19.4061 16.9316 18.8486 17.4892 18.1616 17.4892Z" fill="white"/>
</svg>
