<svg width="31" height="22" viewBox="0 0 31 22" fill="none" xmlns="http://www.w3.org/2000/svg">
<rect width="30.8" height="22" rx="2.20532" fill="white"/>
<mask id="mask0_5276_48359" style="mask-type:alpha" maskUnits="userSpaceOnUse" x="0" y="0" width="31" height="22">
<rect width="30.8" height="22" rx="2.20532" fill="white"/>
</mask>
<g mask="url(#mask0_5276_48359)">
<rect width="30.8" height="22" fill="#F1361D"/>
<path fill-rule="evenodd" clip-rule="evenodd" d="M11.0801 3.41086L12.1454 3.59248L12.9443 4.32012L13.126 3.25483L13.8536 2.45586L12.7883 2.27425L11.9893 1.5466L11.8077 2.61189L11.0801 3.41086ZM13.9338 7.13704L14.8569 6.57522L15.9373 6.60021L15.3754 5.67707L15.4004 4.5967L14.4773 5.15853L13.3969 5.13354L13.9587 6.05667L13.9338 7.13704ZM12.6817 13.1682L11.7787 13.7619L11.766 12.6814L11.1723 11.7784L12.2529 11.7657L13.1558 11.172L13.1686 12.2525L13.7623 13.1555L12.6817 13.1682ZM13.4656 10.3744L14.5397 10.2553L15.5083 10.7346L15.3892 9.66048L15.8685 8.69189L14.7944 8.81095L13.8258 8.33172L13.9448 9.4058L13.4656 10.3744Z" fill="#FFDC42"/>
<path fill-rule="evenodd" clip-rule="evenodd" d="M7.33359 9.04932L4.74734 10.893L5.70158 7.86359L3.14895 5.97364L6.32495 5.94505L7.33359 2.93332L8.34223 5.94505L11.5182 5.97364L8.96561 7.86359L9.91985 10.893L7.33359 9.04932Z" fill="#FFDC42"/>
</g>
</svg>
