<svg width="44" height="44" viewBox="0 0 44 44" fill="none" xmlns="http://www.w3.org/2000/svg">
<rect x="0.5" y="0.25" width="43.5" height="43.5" rx="21.75" fill="white" fill-opacity="0.05"/>
<path d="M32.1368 18.932C31.1833 18.0534 29.8642 16.7117 28.7899 15.7601L28.7264 15.7157C28.6206 15.631 28.5013 15.5645 28.3736 15.5191C25.7832 15.037 13.7275 12.7881 13.4923 12.8167C13.4264 12.8259 13.3634 12.8497 13.308 12.8865L13.2476 12.934C13.1732 13.0094 13.1167 13.1004 13.0823 13.2005L13.0664 13.2417V13.4669V13.5018C14.4236 17.2731 19.7824 29.6274 20.8376 32.5264C20.9012 32.7231 21.0219 33.0974 21.2476 33.1164H21.2985C21.4192 33.1164 21.9341 32.4376 21.9341 32.4376C21.9341 32.4376 31.1388 21.2982 32.07 20.1119C32.1906 19.9658 32.297 19.8086 32.3879 19.6425C32.4111 19.5125 32.4001 19.3787 32.3561 19.2542C32.3121 19.1297 32.2366 19.0187 32.1368 18.932ZM24.2957 20.2292L28.2242 16.9781L30.5285 19.0969L24.2957 20.2292ZM22.7701 20.0167L16.0064 14.4851L26.9496 16.4992L22.7701 20.0167ZM23.3803 21.4663L30.3028 20.353L22.3886 29.8684L23.3803 21.4663ZM15.0879 15.037L22.2043 21.0634L21.1745 29.8748L15.0879 15.037Z" fill="#FF0013"/>
</svg>
