<svg width="31" height="30" viewBox="0 0 31 30" fill="none" xmlns="http://www.w3.org/2000/svg">
<path d="M10.2837 11.7907H6.67015C6.50978 11.7907 6.37983 11.9207 6.37983 12.0811V23.6898C6.37983 23.8501 6.50978 23.9801 6.67015 23.9801H10.2837C10.4441 23.9801 10.574 23.8501 10.574 23.6898V12.0811C10.574 11.9207 10.4441 11.7907 10.2837 11.7907Z" fill="white"/>
<path d="M8.47823 6.01978C7.16341 6.01978 6.09375 7.08828 6.09375 8.40164C6.09375 9.71558 7.16341 10.7845 8.47823 10.7845C9.79199 10.7845 10.8608 9.71552 10.8608 8.40164C10.8608 7.08828 9.79199 6.01978 8.47823 6.01978Z" fill="white"/>
<path d="M19.475 11.5022C18.0236 11.5022 16.9508 12.1262 16.3 12.8351V12.0811C16.3 11.9208 16.1701 11.7908 16.0097 11.7908H12.5491C12.3888 11.7908 12.2588 11.9208 12.2588 12.0811V23.6898C12.2588 23.8502 12.3888 23.9802 12.5491 23.9802H16.1548C16.3151 23.9802 16.4451 23.8502 16.4451 23.6898V17.9462C16.4451 16.0107 16.9708 15.2567 18.32 15.2567C19.7894 15.2567 19.9061 16.4655 19.9061 18.0458V23.6899C19.9061 23.8503 20.0361 23.9802 20.1965 23.9802H23.8034C23.9638 23.9802 24.0938 23.8503 24.0938 23.6899V17.3223C24.0938 14.4443 23.545 11.5022 19.475 11.5022Z" fill="white"/>
</svg>
