<svg width="40" height="40" viewBox="0 0 40 40" fill="none" xmlns="http://www.w3.org/2000/svg">
<rect width="40" height="40" rx="12" fill="#EF3E49"/>
<rect width="40" height="40" rx="12" fill="url(#paint0_linear_1272_32472)" style="mix-blend-mode:overlay"/>
<rect width="40" height="40" rx="12" fill="url(#paint1_linear_1272_32472)" fill-opacity="0.5" style="mix-blend-mode:overlay"/>
<rect width="40" height="40" rx="12" fill="url(#paint2_linear_1272_32472)" fill-opacity="0.75" style="mix-blend-mode:overlay"/>
<path d="M6.40039 9.59961C7.09231 10.3784 7.78971 11.1517 8.48163 11.9359C13.8046 17.9785 19.124 24.0229 24.4396 30.0691L24.7197 30.399H15.2196C15.1311 30.4031 15.043 30.386 14.9626 30.3493C14.8823 30.3126 14.8122 30.2573 14.7583 30.1881L6.40039 20.7997V9.59961Z" fill="white"/>
<path d="M22.2387 24.8176L33.5729 10.4646C33.5878 10.5504 33.597 10.6371 33.6004 10.7241C33.6004 13.969 33.6004 17.2264 33.6004 20.4965C33.5926 20.6406 33.5473 20.7803 33.4686 20.9021C32.6394 22.146 31.8212 23.3898 30.948 24.6229C30.9089 24.6786 30.8584 24.7256 30.7998 24.761C30.7412 24.7964 30.6757 24.8193 30.6076 24.8284C27.8912 24.8284 25.1729 24.8284 22.4529 24.8284C22.3979 24.8392 22.3266 24.8284 22.2387 24.8176Z" fill="white"/>
<defs>
<linearGradient id="paint0_linear_1272_32472" x1="1.30718e-06" y1="-16.8926" x2="31.5053" y2="40" gradientUnits="userSpaceOnUse">
<stop stop-color="white"/>
<stop offset="1" stop-color="white" stop-opacity="0"/>
</linearGradient>
<linearGradient id="paint1_linear_1272_32472" x1="20" y1="32.5557" x2="20" y2="38.5308" gradientUnits="userSpaceOnUse">
<stop stop-opacity="0"/>
<stop offset="1"/>
</linearGradient>
<linearGradient id="paint2_linear_1272_32472" x1="7.25259" y1="-6.50903" x2="12.9332" y2="21.6002" gradientUnits="userSpaceOnUse">
<stop stop-color="white"/>
<stop offset="1" stop-color="white" stop-opacity="0"/>
</linearGradient>
</defs>
</svg>
