<svg width="31" height="30" viewBox="0 0 31 30" fill="none" xmlns="http://www.w3.org/2000/svg">
<path d="M16.3747 15C16.3747 18.1365 13.8493 20.6792 10.7342 20.6792C7.61916 20.6792 5.09375 18.1365 5.09375 15C5.09375 11.8635 7.61916 9.3208 10.7342 9.3208C13.8493 9.3208 16.3747 11.8635 16.3747 15Z" fill="white"/>
<path d="M22.5626 15.0001C22.5626 17.9526 21.2999 20.346 19.7422 20.346C18.1846 20.346 16.9219 17.9524 16.9219 15.0001C16.9219 12.0477 18.1848 9.65412 19.7424 9.65412C21.2999 9.65412 22.5626 12.0475 22.5626 15.0001Z" fill="white"/>
<path d="M25.0938 15.0001C25.0938 17.6454 24.6497 19.7899 24.1018 19.7899C23.5539 19.7899 23.1099 17.6454 23.1099 15.0001C23.1099 12.3547 23.5539 10.2102 24.1018 10.2102C24.6497 10.2102 25.0938 12.3547 25.0938 15.0001Z" fill="white"/>
</svg>
