<svg width="40" height="40" viewBox="0 0 40 40" fill="none" xmlns="http://www.w3.org/2000/svg">
<rect width="40" height="40" rx="12" fill="#ECAD45"/>
<rect width="40" height="40" rx="12" fill="url(#paint0_linear_1272_32469)" style="mix-blend-mode:overlay"/>
<rect width="40" height="40" rx="12" fill="url(#paint1_linear_1272_32469)" fill-opacity="0.5" style="mix-blend-mode:overlay"/>
<rect width="40" height="40" rx="12" fill="url(#paint2_linear_1272_32469)" fill-opacity="0.75" style="mix-blend-mode:overlay"/>
<path d="M8.51473 11.1841C9.22465 10.7835 10.0096 10.5306 10.8216 10.441C11.6336 10.3514 12.4555 10.427 13.237 10.6631C13.91 10.8423 14.5269 11.1859 15.0312 11.6623C15.5356 12.1388 15.9113 12.7329 16.1241 13.3904C16.5717 15.1366 16.471 17.0047 16.4766 18.8174C15.0554 18.8174 13.6399 18.8174 12.2187 18.8174C12.1907 17.3151 12.2858 15.8018 12.1627 14.3051C12.1769 14.2062 12.1696 14.1055 12.1414 14.0097C12.1132 13.9138 12.0648 13.825 11.9993 13.7491C11.9338 13.6732 11.8528 13.612 11.7616 13.5695C11.6705 13.527 11.5712 13.5042 11.4704 13.5026C11.3697 13.501 11.2697 13.5207 11.1772 13.5603C11.0847 13.5999 11.0018 13.6585 10.9339 13.7323C10.8661 13.8061 10.8148 13.8934 10.7836 13.9883C10.7523 14.0832 10.7418 14.1837 10.7528 14.2829C10.6017 16.6444 10.7136 19.0114 10.68 21.3785C10.7136 22.8863 10.5961 24.4162 10.7808 25.913C10.8015 26.0309 10.8524 26.1415 10.9287 26.2343C11.0049 26.3271 11.104 26.3989 11.2163 26.4429C11.3286 26.4868 11.4505 26.5014 11.5702 26.4853C11.6898 26.4692 11.8033 26.4229 11.8998 26.3509C12.146 26.0227 12.2615 25.6162 12.2243 25.209C12.2747 24.1003 12.2243 22.9639 12.2243 21.8386C13.6455 21.8386 15.0666 21.8386 16.4878 21.8386C16.443 23.5404 16.5661 25.3531 15.9954 26.9496C15.5764 27.7966 14.9116 28.5004 14.0861 28.9705C13.2607 29.4407 12.3123 29.6558 11.3626 29.5882C9.83518 29.5882 8.0895 29.1226 7.13833 27.4651C6.45573 26.1458 6.47811 24.4772 6.41097 22.9417C6.41097 20.2199 6.35502 17.4981 6.50049 14.7818C6.51792 14.0655 6.71026 13.3641 7.06105 12.7376C7.41184 12.111 7.91063 11.578 8.51473 11.1841Z" fill="white"/>
<path d="M23.3486 10.4004C25.2957 10.4004 27.2652 10.4004 29.1844 10.5113C30.2444 10.5063 31.2849 10.7942 32.1889 11.3428C32.6189 11.7168 32.961 12.1796 33.1911 12.6987C33.4211 13.2178 33.5336 13.7805 33.5206 14.3473C33.6549 17.6733 33.5765 21.0382 33.5877 24.3809C33.5318 25.7612 33.6493 27.3632 32.8547 28.4664C31.9763 29.4808 30.7062 29.5362 29.576 29.575C27.5002 29.575 25.4244 29.575 23.3486 29.575V10.4004ZM27.7632 13.7264V26.3543C28.1828 26.2379 28.8207 26.3543 29.0109 25.7168C29.2683 24.331 29.1284 22.8841 29.1676 21.4706C29.1284 19.159 29.2459 16.8418 29.1004 14.5302C29.0389 13.7264 28.2332 13.7264 27.7632 13.7264Z" fill="white"/>
<path d="M17.334 22.6289C16.9927 21.6477 17.334 20.1842 18.2627 20.0235C19.3933 19.9015 20.534 19.9015 21.6646 20.0235C22.9626 20.3173 23.0186 23.0557 21.7597 23.4881C20.7456 23.624 19.7201 23.6574 18.6992 23.5879C18.3948 23.6011 18.0948 23.5126 17.8472 23.3367C17.5997 23.1608 17.4189 22.9076 17.334 22.6178V22.6289ZM18.0557 21.9526C19.3054 22.0394 20.5592 22.0487 21.81 21.9803L21.7149 21.6089C20.5558 21.474 19.3855 21.461 18.2236 21.5701C18.1844 21.6643 18.1005 21.8583 18.0557 21.9526Z" fill="white"/>
<path d="M17.3211 19.4416V16.9194H18.3674V17.9393H19.3689C19.3689 17.6345 19.3689 17.324 19.3689 17.0191H20.3256C20.3256 17.3296 20.3256 17.6345 20.3256 17.9393H22.5637V19.4361L17.3211 19.4416Z" fill="white"/>
<defs>
<linearGradient id="paint0_linear_1272_32469" x1="1.30718e-06" y1="-16.8926" x2="31.5053" y2="40" gradientUnits="userSpaceOnUse">
<stop stop-color="white"/>
<stop offset="1" stop-color="white" stop-opacity="0"/>
</linearGradient>
<linearGradient id="paint1_linear_1272_32469" x1="20" y1="32.5557" x2="20" y2="38.5308" gradientUnits="userSpaceOnUse">
<stop stop-opacity="0"/>
<stop offset="1"/>
</linearGradient>
<linearGradient id="paint2_linear_1272_32469" x1="7.25259" y1="-6.50903" x2="12.9332" y2="21.6002" gradientUnits="userSpaceOnUse">
<stop stop-color="white"/>
<stop offset="1" stop-color="white" stop-opacity="0"/>
</linearGradient>
</defs>
</svg>
