<svg width="512" height="512" viewBox="0 0 512 512" fill="none" xmlns="http://www.w3.org/2000/svg">
<g clip-path="url(#clip0_16_56)">
<path d="M384 0H128C57.3075 0 0 57.3075 0 128V384C0 454.692 57.3075 512 128 512H384C454.692 512 512 454.692 512 384V128C512 57.3075 454.692 0 384 0Z" fill="url(#paint0_linear_16_56)"/>
<path d="M512 319.877V384C512.001 400.81 508.69 417.454 502.258 432.984C495.826 448.515 486.397 462.625 474.511 474.512C462.625 486.398 448.514 495.826 432.984 502.258C417.454 508.691 400.809 512.001 384 512H326.769L167.332 352.563C174.814 359.831 183.21 366.096 192.307 371.2C212.122 382.403 234.585 388.004 259.697 388.004C290.458 388.004 316.795 379.942 338.708 363.817C360.622 347.692 375.269 325.598 382.648 297.534H313.231C308.06 308.378 300.739 316.624 291.267 322.273C281.784 327.946 271.012 330.779 258.949 330.773C239.503 330.773 223.751 324.004 211.691 310.467C199.632 296.929 193.601 278.835 193.597 256.184C193.597 233.544 199.629 215.453 211.691 201.912C223.754 188.372 239.507 181.6 258.949 181.596C270.298 181.408 281.479 184.349 291.267 190.095C300.739 195.762 308.06 204.008 313.231 214.835H382.648C377.108 193.782 367.483 176.056 353.771 161.659L512 319.877Z" fill="url(#paint1_linear_16_56)"/>
<path d="M145.969 187.692C156.681 168.002 172.746 151.745 192.307 140.8C212.118 129.604 234.58 124.004 259.693 124C290.458 124 316.797 132.124 338.708 148.371C360.618 164.619 375.265 186.771 382.646 214.829H313.231C308.062 204.001 300.738 195.754 291.261 190.09C281.476 184.348 270.299 181.41 258.954 181.598C239.506 181.598 223.752 188.368 211.693 201.906C199.633 215.445 193.602 233.535 193.6 256.178C193.6 278.829 199.631 296.921 211.693 310.455C223.755 323.989 239.509 330.758 258.954 330.763C271.012 330.763 281.781 327.933 291.261 322.271C300.742 316.61 308.065 308.364 313.231 297.532H382.646C375.261 325.594 360.615 347.687 338.708 363.81C316.8 379.933 290.462 387.994 259.693 387.994C234.584 387.994 212.122 382.394 192.307 371.194C172.78 360.286 156.721 344.099 145.969 324.486C134.892 304.548 129.354 281.778 129.354 256.178C129.354 230.578 134.892 207.749 145.969 187.692Z" fill="white"/>
</g>
<defs>
<linearGradient id="paint0_linear_16_56" x1="37.4907" y1="37.4907" x2="474.509" y2="474.509" gradientUnits="userSpaceOnUse">
<stop stop-color="#57CDFF"/>
<stop offset="1" stop-color="#0096D6"/>
</linearGradient>
<linearGradient id="paint1_linear_16_56" x1="208.446" y1="205.001" x2="476.234" y2="472.789" gradientUnits="userSpaceOnUse">
<stop stop-opacity="0.25"/>
<stop offset="1" stop-opacity="0"/>
</linearGradient>
<clipPath id="clip0_16_56">
<rect width="512" height="512" fill="white"/>
</clipPath>
</defs>
</svg>
