<svg width="20" height="20" viewBox="0 0 20 20" fill="none" xmlns="http://www.w3.org/2000/svg">
<path d="M0 10C0 4.47715 4.47715 0 10 0C15.5228 0 20 4.47715 20 10C20 15.5228 15.5228 20 10 20C4.47715 20 0 15.5228 0 10Z" fill="#4BD7DD"/>
<path fill-rule="evenodd" clip-rule="evenodd" d="M5.51735 5.1875C5.29653 4.05 6.17981 3 7.32808 3C8.34385 3 9.18297 3.83125 9.18297 4.8375V7.1125C9.44795 7.1125 9.71293 7.06875 9.97792 7.06875C10.2429 7.06875 10.4637 7.06875 10.7287 7.1125V4.8375C10.7287 3.83125 11.5678 3 12.5836 3C13.7319 3 14.6151 4.05 14.4385 5.1875L13.9527 7.85625C15.6751 8.6 17 9.9125 17 11.5312V12.5375C17 13.8937 16.1167 15.0312 14.836 15.775C13.5552 16.5625 11.877 17 9.97792 17C8.07887 17 6.40063 16.5625 5.11987 15.775C3.88328 15.0312 3 13.8937 3 12.5375V11.5312C3 9.9125 4.28076 8.6 6.00315 7.85625L5.51735 5.1875ZM13.2902 8.20625L13.8644 5.05625C13.9968 4.26875 13.4227 3.525 12.5836 3.525C11.877 3.525 11.3028 4.09375 11.3028 4.79375V7.68125C11.1262 7.6375 10.9054 7.6375 10.7287 7.6375C10.4637 7.6375 10.2429 7.59375 9.97792 7.59375C9.71293 7.59375 9.44795 7.59375 9.18297 7.6375C9.00631 7.6375 8.78549 7.68125 8.60883 7.68125V4.8375C8.60883 4.1375 8.0347 3.56875 7.32808 3.56875C6.53312 3.56875 5.91483 4.3125 6.09148 5.1L6.66562 8.25C4.81073 8.95 3.57413 10.175 3.57413 11.575V12.5813C3.57413 14.725 6.4448 16.475 9.97792 16.475C13.511 16.475 16.3817 14.725 16.3817 12.5813V11.575C16.4259 10.1313 15.1893 8.90625 13.2902 8.20625Z" fill="#633001"/>
<path d="M16.4267 12.5375C16.4267 14.6813 13.5561 16.4313 10.0229 16.4313C6.4898 16.4313 3.61914 14.6813 3.61914 12.5375V11.5312H16.4709V12.5375H16.4267Z" fill="#FEDC90"/>
<path fill-rule="evenodd" clip-rule="evenodd" d="M6.09233 5.1001C5.91567 4.3126 6.53397 3.56885 7.32892 3.56885C8.03555 3.56885 8.60968 4.1376 8.60968 4.8376V7.7251C9.05132 7.68135 9.49296 7.6376 9.97876 7.6376C10.4204 7.6376 10.862 7.68135 11.3037 7.7251V4.8376C11.3037 4.1376 11.8778 3.56885 12.5844 3.56885C13.3794 3.56885 13.9977 4.3126 13.8652 5.1001L13.2911 8.2501C15.146 8.9501 16.4267 10.1751 16.4267 11.5751C16.4267 13.7188 13.5561 15.4688 10.0229 15.4688C6.4898 15.4688 3.61914 13.7188 3.61914 11.5751C3.61914 10.1751 4.85573 8.9501 6.71062 8.2501L6.09233 5.1001Z" fill="#D1884F"/>
<path d="M8.21208 11.2685C8.21208 11.8373 7.90293 12.3185 7.50545 12.3185C7.10798 12.3185 6.79883 11.8373 6.79883 11.2685C6.79883 10.6998 7.10798 10.2185 7.50545 10.2185C7.90293 10.2185 8.21208 10.6998 8.21208 11.2685Z" fill="#633001"/>
<path d="M13.1143 11.2685C13.1143 11.8373 12.8052 12.3185 12.4077 12.3185C12.0102 12.3185 11.7011 11.8373 11.7011 11.2685C11.7011 10.6998 12.0102 10.2185 12.4077 10.2185C12.8052 10.2185 13.1143 10.6998 13.1143 11.2685Z" fill="#633001"/>
</svg>
