<svg width="28" height="22" viewBox="0 0 28 22" fill="none" xmlns="http://www.w3.org/2000/svg">
<path d="M0.5 0.721741C1.18683 1.48137 1.87911 2.23572 2.56594 3.00062C7.84979 8.89475 13.13 14.7906 18.4066 20.6883L18.6846 21.0101H9.25433C9.16653 21.0141 9.07903 20.9974 8.9993 20.9616C8.91957 20.9258 8.84997 20.8718 8.79645 20.8043L0.5 11.6466V0.721741Z" fill="white"/>
<path d="M16.2218 15.5658L27.4727 1.56544C27.4875 1.64918 27.4966 1.73376 27.5 1.81864C27.5 4.98375 27.5 8.16117 27.5 11.3509C27.4923 11.4915 27.4473 11.6277 27.3692 11.7465C26.5461 12.9598 25.7339 14.1731 24.8672 15.3759C24.8283 15.4302 24.7782 15.4761 24.72 15.5106C24.6618 15.5451 24.5968 15.5675 24.5292 15.5763C21.8328 15.5763 19.1345 15.5763 16.4344 15.5763C16.3799 15.5869 16.3091 15.5763 16.2218 15.5658Z" fill="white"/>
</svg>
