<svg width="30" height="30" viewBox="0 0 30 30" fill="none" xmlns="http://www.w3.org/2000/svg">
<path opacity="0.5" d="M25.1868 4.81246C19.5696 -0.804675 10.4296 -0.804675 4.81246 4.81246C-0.804675 10.4296 -0.804675 19.5696 4.81246 25.1868C10.4296 30.8039 19.5696 30.8039 25.1868 25.1868C30.8039 19.5696 30.8039 10.4296 25.1868 4.81246ZM18.1341 19.7014L14.9996 16.5669L11.8651 19.7014C11.6573 19.9092 11.3754 20.026 11.0815 20.026C10.7876 20.026 10.5057 19.9092 10.2978 19.7014C10.09 19.4935 9.97326 19.2117 9.97326 18.9177C9.97326 18.6238 10.09 18.3419 10.2978 18.1341L13.4324 14.9996L10.2978 11.8651C10.09 11.6573 9.97326 11.3754 9.97326 11.0815C9.97326 10.7876 10.09 10.5057 10.2978 10.2978C10.5057 10.09 10.7876 9.97326 11.0815 9.97326C11.3754 9.97326 11.6573 10.09 11.8651 10.2978L14.9996 13.4324L18.1341 10.2978C18.3419 10.09 18.6238 9.97326 18.9177 9.97326C19.2117 9.97326 19.4935 10.09 19.7014 10.2978C19.9092 10.5057 20.026 10.7876 20.026 11.0815C20.026 11.3754 19.9092 11.6573 19.7014 11.8651L16.5669 14.9996L19.7014 18.1341C19.9092 18.3419 20.026 18.6238 20.026 18.9177C20.026 19.2117 19.9092 19.4935 19.7014 19.7014C19.4935 19.9092 19.2117 20.026 18.9177 20.026C18.6238 20.026 18.3419 19.9092 18.1341 19.7014Z" fill="white"/>
</svg>
