<svg width="30" height="22" viewBox="0 0 30 22" fill="none" xmlns="http://www.w3.org/2000/svg">
<g clip-path="url(#clip0_320_1889)">
<rect x="-0.916016" y="-4.97363" width="30.7163" height="21.9402" fill="#FF2936"/>
<path fill-rule="evenodd" clip-rule="evenodd" d="M-0.916016 21.0621H10.7854V-4.97363H-0.916016V21.0621Z" fill="#128415"/>
<path d="M10.7867 9.65512C12.8072 9.65512 14.4452 8.01717 14.4452 5.99665C14.4452 3.97613 12.8072 2.33818 10.7867 2.33818C8.76617 2.33818 7.12822 3.97613 7.12822 5.99665C7.12822 8.01717 8.76617 9.65512 10.7867 9.65512Z" stroke="#FAF94F" stroke-width="1.46622"/>
<path fill-rule="evenodd" clip-rule="evenodd" d="M9.32324 4.16929C9.32324 3.96685 9.48735 3.80273 9.6898 3.80273H11.8821C12.0845 3.80273 12.2486 3.96685 12.2486 4.16929V6.7281C12.2486 7.53592 11.5937 8.19078 10.7859 8.19078V8.19078C9.97811 8.19078 9.32324 7.53592 9.32324 6.7281V4.16929Z" fill="white"/>
<path fill-rule="evenodd" clip-rule="evenodd" d="M10.788 6.72918C11.1919 6.72918 11.5193 5.67041 11.5193 5.2665C11.5193 4.86259 11.1919 4.53516 10.788 4.53516C10.3841 4.53516 10.0566 4.86259 10.0566 5.2665C10.0566 5.67041 10.3841 6.72918 10.788 6.72918Z" fill="#1D50B5"/>
<mask id="mask0_320_1889" style="mask-type:alpha" maskUnits="userSpaceOnUse" x="0" y="0" width="42" height="37">
<rect x="0.692871" y="21.0186" width="36.1492" height="19.0858" transform="rotate(-35.5524 0.692871 21.0186)" fill="white"/>
</mask>
<g mask="url(#mask0_320_1889)">
<rect x="-0.478516" y="-3.94922" width="34.6656" height="30.4238" fill="#05AB41"/>
<path fill-rule="evenodd" clip-rule="evenodd" d="M13.505 15.9009C13.2584 15.7413 13.2584 15.3804 13.505 15.2208L19.6284 11.2586C19.7623 11.1719 19.9346 11.1719 20.0685 11.2586L26.1919 15.2208C26.4385 15.3804 26.4385 15.7413 26.1919 15.9009L20.0685 19.8631C19.9346 19.9497 19.7623 19.9497 19.6284 19.8631L13.505 15.9009Z" fill="#FDD216"/>
<path fill-rule="evenodd" clip-rule="evenodd" d="M19.8499 18.3892C21.412 18.3892 22.6783 17.1229 22.6783 15.5608C22.6783 13.9987 21.412 12.7324 19.8499 12.7324C18.2878 12.7324 17.0215 13.9987 17.0215 15.5608C17.0215 17.1229 18.2878 18.3892 19.8499 18.3892Z" fill="#053087"/>
<mask id="mask1_320_1889" style="mask-type:alpha" maskUnits="userSpaceOnUse" x="17" y="12" width="6" height="7">
<path fill-rule="evenodd" clip-rule="evenodd" d="M19.8499 18.3892C21.412 18.3892 22.6783 17.1229 22.6783 15.5608C22.6783 13.9987 21.412 12.7324 19.8499 12.7324C18.2878 12.7324 17.0215 13.9987 17.0215 15.5608C17.0215 17.1229 18.2878 18.3892 19.8499 18.3892Z" fill="white"/>
</mask>
<g mask="url(#mask1_320_1889)">
<path d="M16.6847 14.822C17.1287 14.4624 18.5617 14.803 19.8994 15.1599C21.2371 15.5167 22.6322 16.2646 22.9874 16.7033" stroke="white" stroke-width="0.810065" stroke-linecap="square"/>
</g>
</g>
</g>
<defs>
<clipPath id="clip0_320_1889">
<rect x="0.400391" width="29.3999" height="21.9402" rx="2.92536" fill="white"/>
</clipPath>
</defs>
</svg>
