<svg width="19" height="18" viewBox="0 0 19 18" fill="none" xmlns="http://www.w3.org/2000/svg">
<g clip-path="url(#clip0_5166_24200)">
<path d="M18.5 5.67923C18.5 8.79305 3.489 12.23 2.35235 12.23C1.71509 12.23 0.992056 12.0831 0.992056 11.4956C0.992056 11.2993 1.21862 11.0156 1.61617 10.6736L1.61573 10.6738L0.562027 8.80161C0.41935 8.54814 0.532468 8.22702 0.802468 8.11891L0.983556 8.04641C1.31176 7.91499 1.68114 7.93458 1.99359 8.09996L3.9065 9.11267C4.65129 8.67091 5.49617 8.20838 6.38667 7.75299L2.65888 5.33449C2.36397 5.14314 2.36712 4.71038 2.66479 4.52338L2.96973 4.33179C3.47726 4.01293 4.09426 3.91876 4.67379 4.07161L10.8753 5.70738C12.8089 4.93991 14.5571 4.41608 15.5918 4.41608C15.8682 4.41608 16.1449 4.42341 16.412 4.44249L14.5392 5.28793L14.4944 5.91788L17.3853 4.58896C18.0783 4.75423 18.5 5.06267 18.5 5.67923ZM10.9556 11.0543L13.2688 13.6821C13.4098 13.8423 13.6394 13.8905 13.8328 13.8006L14.1426 13.6566C14.7076 13.394 15.0403 12.7986 14.9679 12.1798L14.6784 9.70376C14.6604 9.55055 14.5049 9.45358 14.3594 9.50482L11.0563 10.6684C10.8955 10.7251 10.843 10.9264 10.9556 11.0543Z" fill="black"/>
</g>
<defs>
<clipPath id="clip0_5166_24200">
<rect width="18" height="18" fill="black" transform="translate(0.5)"/>
</clipPath>
</defs>
</svg>
