<svg width="20" height="19" viewBox="0 0 20 19" fill="none" xmlns="http://www.w3.org/2000/svg">
<path d="M18.8582 0.0875244L11.1699 5.79492L12.6041 2.43279L18.8582 0.0875244Z" fill="#E17726"/>
<path d="M11.1696 5.8888C11.1545 5.8947 11.1377 5.8947 11.1226 5.8888C11.114 5.87681 11.1094 5.86242 11.1094 5.84765C11.1094 5.83289 11.114 5.8185 11.1226 5.80651L12.5627 2.4385C12.5535 2.42829 12.5475 2.41562 12.5454 2.40204C12.5433 2.38847 12.5452 2.37458 12.5509 2.36208L18.8109 0.0109403C18.8273 0.00478742 18.8455 0.00499218 18.8618 0.0115146C18.8781 0.018037 18.8914 0.0304078 18.899 0.0462075C18.9106 0.0591393 18.917 0.0758805 18.917 0.0932304C18.917 0.11058 18.9106 0.127321 18.899 0.140253L11.1696 5.85353C11.1737 5.86494 11.1737 5.87739 11.1696 5.8888ZM12.6626 2.50315L11.3107 5.57727L18.3994 0.334223L12.6626 2.50315Z" fill="#E17726"/>
<path d="M1.05273 0.0875244L8.69395 5.84782L7.33616 2.43279L1.05273 0.0875244Z" fill="#E27625"/>
<path d="M8.70624 5.92415C8.69112 5.93005 8.67433 5.93005 8.65921 5.92415L1.00624 0.146214C0.994676 0.133282 0.988281 0.116541 0.988281 0.0991908C0.988281 0.081841 0.994676 0.0650998 1.00624 0.052168C1.01228 0.0388415 1.02231 0.0277223 1.03495 0.0203505C1.04759 0.0129787 1.0622 0.00971899 1.07678 0.011023L7.36021 2.36217C7.38068 2.36917 7.39757 2.38395 7.40723 2.40331L8.77089 5.82422C8.78045 5.83581 8.78567 5.85035 8.78567 5.86537C8.78567 5.88039 8.78045 5.89493 8.77089 5.90651C8.76275 5.91508 8.75243 5.92125 8.74103 5.92436C8.72963 5.92747 8.7176 5.9274 8.70624 5.92415ZM1.49998 0.328427L8.55341 5.6185L7.27792 2.4856L1.49998 0.328427Z" fill="#E27625"/>
<path d="M16.0787 13.3302L14.0273 16.469L18.424 17.6798L19.6877 13.4007L16.0787 13.3302Z" fill="#E27625"/>
<path d="M18.4229 17.7505L14.0263 16.5396C14.0146 16.5362 14.0037 16.5302 13.9945 16.5221C13.9854 16.514 13.9782 16.5039 13.9734 16.4926C13.969 16.4824 13.9668 16.4714 13.9668 16.4603C13.9668 16.4492 13.969 16.4382 13.9734 16.428L16.0307 13.2892C16.0366 13.2774 16.0459 13.2677 16.0575 13.2614C16.069 13.2551 16.0822 13.2525 16.0953 13.2539L19.6984 13.3244C19.7101 13.3238 19.7217 13.326 19.7322 13.3309C19.7428 13.3358 19.752 13.3432 19.7589 13.3525C19.7659 13.3618 19.7705 13.3727 19.7723 13.3843C19.774 13.3958 19.7729 13.4075 19.769 13.4185L18.5052 17.6976C18.5039 17.7068 18.5007 17.7156 18.4956 17.7234C18.4906 17.7312 18.484 17.7378 18.4762 17.7428C18.4684 17.7479 18.4596 17.7511 18.4504 17.7525C18.4412 17.7538 18.4319 17.7531 18.4229 17.7505ZM14.1439 16.4221L18.3759 17.5977L19.5868 13.4831L16.1188 13.4185L14.1439 16.4221Z" fill="#E27625"/>
<path d="M0.238281 13.4007L1.49027 17.6798L5.88103 16.469L3.83553 13.3302L0.238281 13.4007Z" fill="#E27625"/>
<path d="M1.48938 17.7503C1.47312 17.7521 1.45679 17.7476 1.4437 17.7378C1.43061 17.728 1.42173 17.7136 1.41885 17.6974L0.166865 13.4184C0.161191 13.4085 0.158203 13.3974 0.158203 13.386C0.158203 13.3747 0.161191 13.3635 0.166865 13.3537C0.173542 13.3444 0.182382 13.3369 0.192623 13.3317C0.202864 13.3266 0.214197 13.3241 0.225644 13.3243L3.81702 13.2538C3.82888 13.2547 3.84038 13.2583 3.85058 13.2645C3.86079 13.2706 3.86942 13.279 3.87579 13.2891L5.92129 16.4278C5.92696 16.4377 5.92995 16.4488 5.92995 16.4602C5.92995 16.4715 5.92696 16.4827 5.92129 16.4925C5.91845 16.5038 5.91257 16.5142 5.90429 16.5225C5.89601 16.5308 5.88563 16.5367 5.87427 16.5395L1.50702 17.7503H1.48938ZM0.313812 13.4713L1.51877 17.5858L5.74495 16.4102L3.7935 13.4066L0.313812 13.4713Z" fill="#E27625"/>
<path d="M5.64447 8.02864L4.42188 9.87428L8.77149 10.0683L8.63042 5.36597L5.64447 8.02864Z" fill="#E27625"/>
<path d="M8.77251 10.1446L4.41701 9.94476C4.40443 9.94378 4.39234 9.93945 4.382 9.93222C4.37166 9.92498 4.36346 9.9151 4.35823 9.90361C4.35257 9.89272 4.34961 9.88062 4.34961 9.86834C4.34961 9.85607 4.35257 9.84397 4.35823 9.83308L5.58083 7.98743L8.56678 5.34239C8.5784 5.33568 8.59157 5.33215 8.60499 5.33215C8.6184 5.33215 8.63158 5.33568 8.64319 5.34239C8.65665 5.34714 8.66835 5.35587 8.67675 5.36741C8.68514 5.37896 8.68984 5.39278 8.69022 5.40705L8.83716 10.1093C8.84258 10.1266 8.84258 10.145 8.83716 10.1622C8.8258 10.1655 8.81377 10.1656 8.80237 10.1625C8.79097 10.1593 8.78064 10.1532 8.77251 10.1446ZM4.5522 9.80369L8.6667 9.99178L8.53151 5.54224L5.69839 8.0756L4.5522 9.80369Z" fill="#E27625"/>
<path d="M14.2734 8.0285L11.2405 5.33057L11.1699 10.0681L15.5195 9.87415L14.2734 8.0285Z" fill="#E27625"/>
<path d="M11.1709 10.1444C11.1539 10.1512 11.135 10.1512 11.118 10.1444C11.1117 10.1273 11.1117 10.1085 11.118 10.0915L11.1709 5.33039C11.1713 5.31612 11.176 5.3023 11.1844 5.29075C11.1928 5.27921 11.2045 5.27048 11.2179 5.26573C11.2295 5.25902 11.2427 5.25549 11.2561 5.25549C11.2695 5.25549 11.2827 5.25902 11.2943 5.26573L14.3273 7.96367L15.5499 9.80931C15.5556 9.82021 15.5585 9.8323 15.5585 9.84458C15.5585 9.85686 15.5556 9.86896 15.5499 9.87985C15.5429 9.89113 15.5335 9.90069 15.5223 9.90781C15.5111 9.91494 15.4984 9.91944 15.4853 9.92099L11.1356 10.1208L11.1709 10.1444ZM11.3414 5.49497L11.2179 10.0033L15.3618 9.81519L14.2156 8.0871L11.3414 5.49497Z" fill="#E27625"/>
<path d="M5.87891 16.4688L8.51219 15.1933L6.24333 13.4299L5.87891 16.4688Z" fill="#E27625"/>
<path d="M5.8792 16.5394C5.87279 16.5425 5.86576 16.5441 5.85863 16.5441C5.8515 16.5441 5.84446 16.5425 5.83806 16.5394C5.82674 16.5315 5.81758 16.521 5.81142 16.5086C5.80526 16.4963 5.80229 16.4826 5.80279 16.4689L6.17309 13.43C6.17407 13.4174 6.1784 13.4053 6.18563 13.395C6.19287 13.3847 6.20275 13.3764 6.21424 13.3712C6.22563 13.3639 6.23889 13.36 6.25244 13.36C6.26599 13.36 6.27926 13.3639 6.29065 13.3712L8.5595 15.1346C8.56582 15.1442 8.56919 15.1554 8.56919 15.1669C8.56919 15.1784 8.56582 15.1896 8.5595 15.1992C8.55853 15.2118 8.5542 15.2239 8.54696 15.2343C8.53972 15.2446 8.52984 15.2528 8.51835 15.258L5.88508 16.5276L5.8792 16.5394ZM6.30241 13.5652L5.96737 16.3454L8.37141 15.1699L6.30241 13.5652Z" fill="#E27625"/>
<path d="M11.3984 15.1933L14.0258 16.4688L13.6673 13.4299L11.3984 15.1933Z" fill="#E27625"/>
<path d="M14.026 16.5395H13.9966L11.3692 15.2934C11.3577 15.2882 11.3478 15.28 11.3406 15.2696C11.3334 15.2593 11.329 15.2472 11.328 15.2346C11.3217 15.225 11.3184 15.2138 11.3184 15.2023C11.3184 15.1908 11.3217 15.1796 11.328 15.17L13.5969 13.4066C13.6085 13.3999 13.6217 13.3964 13.6351 13.3964C13.6485 13.3964 13.6617 13.3999 13.6733 13.4066C13.6848 13.4118 13.6947 13.42 13.7019 13.4304C13.7092 13.4407 13.7135 13.4528 13.7145 13.4654L14.1083 16.469C14.1115 16.4823 14.1104 16.4964 14.1051 16.509C14.0998 16.5217 14.0906 16.5324 14.0789 16.5395C14.0711 16.5448 14.0619 16.5476 14.0524 16.5476C14.043 16.5476 14.0338 16.5448 14.026 16.5395ZM11.5397 15.1817L13.9378 16.3573L13.6087 13.5771L11.5397 15.1817Z" fill="#E27625"/>
<path d="M14.0258 16.4689L11.3984 15.1934L11.61 16.9038V17.6268L14.0258 16.4689Z" fill="#D5BFB2"/>
<path d="M11.5926 17.6976C11.5862 17.7007 11.5791 17.7023 11.572 17.7023C11.5649 17.7023 11.5578 17.7007 11.5514 17.6976C11.5397 17.6917 11.53 17.6823 11.5237 17.6708C11.5174 17.6592 11.5148 17.646 11.5162 17.6329V16.91L11.3045 15.2172C11.3013 15.2038 11.3024 15.1898 11.3077 15.1771C11.313 15.1644 11.3222 15.1537 11.3339 15.1466C11.3453 15.1393 11.3586 15.1354 11.3721 15.1354C11.3857 15.1354 11.399 15.1393 11.4103 15.1466L14.0319 16.4221C14.0445 16.4276 14.0552 16.4366 14.0627 16.4481C14.0702 16.4596 14.0742 16.473 14.0742 16.4868C14.0742 16.5005 14.0702 16.5139 14.0627 16.5254C14.0552 16.5369 14.0445 16.5459 14.0319 16.5514L11.5984 17.727L11.5926 17.6976ZM11.4868 15.3465L11.6866 16.9159V17.533L13.8555 16.4691L11.4868 15.3465Z" fill="#D5BFB2"/>
<path d="M5.87891 16.469L8.3241 17.6446V16.9216L8.52982 15.2112L5.87891 16.469Z" fill="#D5BFB2"/>
<path d="M8.32554 17.6975H8.29027L5.84508 16.5219C5.83249 16.5164 5.82178 16.5074 5.81426 16.4959C5.80674 16.4844 5.80273 16.471 5.80273 16.4573C5.80273 16.4435 5.80674 16.4301 5.81426 16.4186C5.82178 16.4071 5.83249 16.3981 5.84508 16.3926L8.48424 15.1171C8.49441 15.1095 8.50679 15.1053 8.51951 15.1053C8.53222 15.1053 8.5446 15.1095 8.55477 15.1171C8.5616 15.1276 8.56524 15.1398 8.56524 15.1524C8.56524 15.1649 8.5616 15.1771 8.55477 15.1876L8.34905 16.8922V17.6034C8.35045 17.6165 8.34782 17.6297 8.34152 17.6413C8.33522 17.6528 8.32554 17.6622 8.31378 17.6681C8.31758 17.672 8.32058 17.6766 8.3226 17.6816C8.32462 17.6867 8.32561 17.6921 8.32554 17.6975ZM6.0508 16.469L8.23149 17.5094V16.9216L8.42546 15.3405L6.0508 16.469Z" fill="#D5BFB2"/>
<path d="M8.36586 12.3545L6.17929 11.7138C6.16473 11.7094 6.15197 11.7005 6.14289 11.6883C6.13381 11.6762 6.12891 11.6614 6.12891 11.6462C6.12891 11.631 6.13381 11.6162 6.14289 11.604C6.15197 11.5919 6.16473 11.5829 6.17929 11.5786L7.71929 10.8674C7.72777 10.8634 7.73695 10.8612 7.74629 10.8609C7.75563 10.8605 7.76494 10.862 7.77369 10.8653C7.78244 10.8686 7.79045 10.8736 7.79726 10.88C7.80406 10.8864 7.80953 10.8941 7.81334 10.9026L8.4599 12.2545C8.46661 12.2662 8.47014 12.2793 8.47014 12.2928C8.47014 12.3062 8.46661 12.3193 8.4599 12.331C8.44873 12.3443 8.43361 12.3538 8.41671 12.358C8.39981 12.3623 8.382 12.361 8.36586 12.3545ZM6.3909 11.6197L8.23066 12.1605L7.6899 11.0261L6.3909 11.6197Z" fill="#161616"/>
<path d="M11.5456 12.3546C11.5343 12.354 11.5232 12.3511 11.5131 12.3461C11.503 12.341 11.4941 12.3339 11.4868 12.3253C11.4801 12.3136 11.4766 12.3005 11.4766 12.287C11.4766 12.2736 11.4801 12.2605 11.4868 12.2488L12.1334 10.8969C12.1421 10.8807 12.1565 10.8682 12.1738 10.8617C12.1911 10.8552 12.2101 10.8552 12.2274 10.8617L13.7792 11.5729C13.7925 11.5789 13.8036 11.589 13.811 11.6016C13.8184 11.6142 13.8216 11.6288 13.8203 11.6434C13.8195 11.6584 13.814 11.6728 13.8045 11.6844C13.7949 11.6961 13.782 11.7043 13.7674 11.7081L11.5632 12.3546H11.5456ZM12.2215 11.0262L11.6808 12.1607L13.5205 11.6493L12.2215 11.0262Z" fill="#161616"/>
<path d="M5.87948 16.469L6.26154 13.3302L3.83398 13.4007L5.87948 16.469Z" fill="#CC6228"/>
<path d="M5.87921 16.5395C5.85464 16.5385 5.83143 16.528 5.81455 16.5101L3.76906 13.4419C3.76172 13.4305 3.75781 13.4172 3.75781 13.4037C3.75781 13.3901 3.76172 13.3769 3.76906 13.3655C3.77428 13.354 3.78248 13.3441 3.79282 13.3369C3.80316 13.3296 3.81525 13.3253 3.82783 13.3243L6.25539 13.2538C6.25539 13.2538 6.30241 13.2538 6.31417 13.2538C6.3183 13.262 6.32046 13.271 6.32046 13.2802C6.32046 13.2894 6.3183 13.2985 6.31417 13.3067L5.94974 16.469C5.95 16.4843 5.94482 16.4992 5.93513 16.511C5.92545 16.5228 5.91188 16.5308 5.89684 16.5336L5.87921 16.5395ZM3.9689 13.4654L5.82631 16.2632L6.17898 13.4066L3.9689 13.4654Z" fill="#CC6228"/>
<path d="M13.6504 13.3302L14.0266 16.469L16.0779 13.4007L13.6504 13.3302Z" fill="#CC6228"/>
<path d="M14.0272 16.5395C14.0126 16.5358 13.9996 16.5275 13.9901 16.5158C13.9806 16.5042 13.975 16.4898 13.9743 16.4748L13.5981 13.336C13.5939 13.3278 13.5918 13.3188 13.5918 13.3096C13.5918 13.3004 13.5939 13.2914 13.5981 13.2831C13.6073 13.2789 13.6173 13.2767 13.6275 13.2767C13.6376 13.2767 13.6476 13.2789 13.6569 13.2831L16.0844 13.3537C16.0976 13.3552 16.1103 13.3597 16.1214 13.3669C16.1326 13.374 16.1421 13.3835 16.1491 13.3948C16.1548 13.4067 16.1578 13.4198 16.1578 13.433C16.1578 13.4463 16.1548 13.4593 16.1491 13.4712L14.1095 16.5101C14.101 16.5235 14.0883 16.5337 14.0734 16.5391C14.0585 16.5444 14.0422 16.5445 14.0272 16.5395ZM13.7333 13.4066L14.0742 16.2632L15.9492 13.4654L13.7333 13.4066Z" fill="#CC6228"/>
<path d="M15.4902 9.8739L11.1406 10.0679L11.5462 12.3015L12.1869 10.9554L13.7386 11.6608L15.4902 9.8739Z" fill="#CC6228"/>
<path d="M11.5456 12.3545C11.5298 12.3534 11.5148 12.347 11.5031 12.3364C11.4914 12.3257 11.4836 12.3114 11.481 12.2958L11.0813 10.068C11.0766 10.0589 11.0742 10.0489 11.0742 10.0387C11.0742 10.0284 11.0766 10.0184 11.0813 10.0093C11.0874 10.0007 11.0953 9.99369 11.1044 9.98861C11.1136 9.98353 11.1237 9.98054 11.1342 9.97988L15.4897 9.78003C15.5044 9.78131 15.5186 9.78629 15.531 9.79451C15.5433 9.80273 15.5533 9.81392 15.5602 9.82705C15.5683 9.83814 15.5727 9.85152 15.5727 9.86526C15.5727 9.879 15.5683 9.89238 15.5602 9.90346L13.7969 11.6962C13.7843 11.7062 13.7688 11.7117 13.7528 11.7117C13.7367 11.7117 13.7212 11.7062 13.7087 11.6962L12.2275 11.0203L11.6397 12.3016C11.6378 12.3117 11.6337 12.3213 11.6277 12.3296C11.6217 12.338 11.6139 12.3449 11.605 12.35C11.596 12.355 11.5861 12.358 11.5758 12.3588C11.5656 12.3596 11.5553 12.3581 11.5456 12.3545ZM11.2282 10.1151L11.575 12.043L12.1217 10.8674C12.1304 10.8512 12.1448 10.8387 12.1621 10.8322C12.1794 10.8257 12.1984 10.8257 12.2157 10.8322L13.7204 11.5199L15.2839 9.95636L11.2282 10.1151Z" fill="#CC6228"/>
<path d="M6.18523 11.6608L7.72523 10.9554L8.36592 12.3015L8.77149 10.0679L4.42188 9.8739L6.18523 11.6608Z" fill="#CC6228"/>
<path d="M8.36679 12.3545C8.35272 12.3534 8.33923 12.3484 8.32782 12.3401C8.31641 12.3318 8.30751 12.3205 8.30213 12.3075L7.71434 11.0261L6.239 11.7021C6.22742 11.7116 6.21287 11.7169 6.19786 11.7169C6.18284 11.7169 6.1683 11.7116 6.15671 11.7021L4.39336 9.90932C4.38524 9.89824 4.38086 9.88486 4.38086 9.87112C4.38086 9.85738 4.38524 9.844 4.39336 9.83291C4.40061 9.8201 4.41077 9.80917 4.42302 9.801C4.43527 9.79284 4.44927 9.78766 4.46389 9.78589L8.81938 9.98574C8.82012 9.99159 8.82012 9.99752 8.81938 10.0034C8.82403 10.0125 8.82645 10.0225 8.82645 10.0328C8.82645 10.043 8.82403 10.053 8.81938 10.0621L8.41969 12.2899C8.41708 12.3055 8.40929 12.3198 8.39756 12.3305C8.38583 12.3411 8.37085 12.3475 8.35503 12.3486L8.36679 12.3545ZM7.7261 10.8557C7.7397 10.8556 7.75303 10.8594 7.7645 10.8667C7.77598 10.874 7.78509 10.8844 7.79076 10.8968L8.3374 12.0724L8.68419 10.1444L4.60496 9.96223L6.19786 11.5786L7.69671 10.8909L7.7261 10.8557Z" fill="#CC6228"/>
<path d="M4.42188 9.8739L6.24401 13.4006L6.18523 11.6373L4.42188 9.8739Z" fill="#E27525"/>
<path d="M6.24399 13.5301C6.2304 13.5302 6.21706 13.5264 6.20559 13.5191C6.19412 13.5118 6.185 13.5014 6.17934 13.489L4.3572 9.93289C4.34605 9.92092 4.33984 9.90517 4.33984 9.8888C4.33984 9.87244 4.34605 9.85669 4.3572 9.84472C4.36376 9.83814 4.37154 9.83293 4.38012 9.82937C4.38869 9.82581 4.39788 9.82397 4.40716 9.82397C4.41645 9.82397 4.42564 9.82581 4.43421 9.82937C4.44279 9.83293 4.45057 9.83814 4.45713 9.84472L6.22048 11.6081C6.22554 11.6253 6.22554 11.6437 6.22048 11.661L6.28514 13.4243C6.28462 13.4416 6.27866 13.4583 6.26811 13.472C6.25756 13.4858 6.24295 13.4958 6.22636 13.5007L6.24399 13.5301ZM4.704 10.2679L6.1617 13.1011L6.11468 11.6904L4.704 10.2679Z" fill="#E27525"/>
<path d="M13.7385 11.6608L13.668 13.4242L15.4901 9.89746L13.7385 11.6608Z" fill="#E27525"/>
<path d="M13.6682 13.5301C13.6516 13.5251 13.637 13.5151 13.6264 13.5014C13.6159 13.4876 13.6099 13.471 13.6094 13.4537L13.6799 11.6903C13.6754 11.6729 13.6754 11.6547 13.6799 11.6374L15.4433 9.87404C15.458 9.86393 15.4754 9.85852 15.4932 9.85852C15.5111 9.85852 15.5285 9.86393 15.5432 9.87404C15.5528 9.88784 15.558 9.90425 15.558 9.92107C15.558 9.93788 15.5528 9.95429 15.5432 9.96809L13.7152 13.5242C13.7008 13.532 13.684 13.5341 13.6682 13.5301ZM13.8092 11.7197L13.7563 13.1304L15.2082 10.2972L13.8092 11.7197Z" fill="#E27525"/>
<path d="M8.77081 10.0681L8.36523 12.3017L8.87661 14.935L8.99416 11.4612L8.77081 10.0681Z" fill="#E27525"/>
<path d="M8.87878 15.0112C8.86194 15.0114 8.84558 15.0056 8.83264 14.9948C8.81971 14.9841 8.81105 14.969 8.80825 14.9524L8.29688 12.3132L8.70245 10.0797C8.70525 10.0631 8.7139 10.048 8.72684 10.0372C8.73978 10.0264 8.75614 10.0206 8.77298 10.0209C8.79028 10.0214 8.80698 10.0274 8.82069 10.0379C8.83441 10.0485 8.84446 10.0631 8.84939 10.0797L9.06687 11.4727L8.95519 14.9642C8.95384 14.9824 8.94597 14.9996 8.93302 15.0125C8.92008 15.0255 8.90292 15.0333 8.88466 15.0347L8.87878 15.0112ZM8.44382 12.3015L8.82 14.2823L8.90817 11.461L8.75535 10.5087L8.44382 12.3015Z" fill="#E27525"/>
<path d="M11.1706 10.0681L10.959 11.4553L11.0648 14.935L11.5762 12.3017L11.1706 10.0681Z" fill="#E27525"/>
<path d="M11.0338 15.0111C11.0155 15.0097 10.9983 15.0018 10.9854 14.9889C10.9724 14.976 10.9646 14.9588 10.9632 14.9405L10.8574 11.4608L11.0749 10.056C11.0768 10.0459 11.0809 10.0364 11.0869 10.028C11.0929 10.0197 11.1007 10.0128 11.1096 10.0077C11.1186 10.0027 11.1285 9.99966 11.1388 9.99887C11.149 9.99808 11.1593 9.99954 11.1689 10.0031C11.1858 10.0029 11.2022 10.0087 11.2151 10.0195C11.228 10.0303 11.2367 10.0453 11.2395 10.0619L11.6451 12.2955L11.1337 14.9347C11.1361 14.9475 11.1348 14.9607 11.1302 14.9728C11.1255 14.985 11.1175 14.9956 11.1072 15.0035C11.0968 15.0114 11.0845 15.0163 11.0715 15.0177C11.0586 15.019 11.0455 15.0167 11.0338 15.0111ZM11.1689 10.5145L11.022 11.4667L11.1102 14.2763L11.4922 12.3014L11.1689 10.5145Z" fill="#E27525"/>
<path d="M11.5465 12.3014L11.0352 14.9347L11.3996 15.1933L13.6684 13.43L13.739 11.6666L11.5465 12.3014Z" fill="#F5841F"/>
<path d="M11.3994 15.2935H11.3582L10.9879 15.0349C10.9763 15.0263 10.9673 15.0145 10.9621 15.001C10.9569 14.9874 10.9557 14.9727 10.9585 14.9585L11.4758 12.3252C11.4765 12.3117 11.4814 12.2988 11.4899 12.2883C11.4983 12.2777 11.5098 12.2701 11.5228 12.2664L13.7152 11.6258C13.7255 11.6214 13.7365 11.6191 13.7476 11.6191C13.7587 11.6191 13.7697 11.6214 13.7799 11.6258C13.7875 11.6466 13.7875 11.6695 13.7799 11.6904L13.7094 13.4538C13.7132 13.4631 13.7152 13.4731 13.7152 13.4832C13.7152 13.4932 13.7132 13.5032 13.7094 13.5125L11.4405 15.2759C11.4293 15.2865 11.4147 15.2928 11.3994 15.2935ZM11.1172 14.9291L11.3994 15.129L13.5977 13.4185L13.6565 11.7845L11.611 12.3722L11.1172 14.9291Z" fill="#F5841F"/>
<path d="M6.18555 11.6606L6.24433 13.424L8.51318 15.1874L8.8776 14.9287L8.36623 12.2955L6.18555 11.6606Z" fill="#F5841F"/>
<path d="M8.51321 15.2935C8.49793 15.2984 8.48148 15.2984 8.46619 15.2935L6.19734 13.5301C6.19179 13.5109 6.19179 13.4905 6.19734 13.4713L6.13268 11.708C6.12504 11.6871 6.12504 11.6642 6.13268 11.6433C6.1429 11.639 6.1539 11.6367 6.16501 11.6367C6.17612 11.6367 6.18712 11.639 6.19734 11.6433L8.3839 12.284C8.39724 12.2881 8.40922 12.2957 8.41855 12.306C8.42787 12.3164 8.43418 12.3291 8.4368 12.3428L8.94818 14.9761C8.95103 14.9903 8.94978 15.005 8.94458 15.0186C8.93937 15.0321 8.93043 15.0439 8.91879 15.0525L8.54848 15.3111L8.51321 15.2935ZM6.3149 13.4184L8.51321 15.1289L8.80123 14.9291L8.30749 12.3546L6.262 11.7668L6.3149 13.4184Z" fill="#F5841F"/>
<path d="M11.5922 17.6446V16.9216L11.3982 16.7511H8.45929L8.27119 16.9216V17.6446L5.87891 16.469L6.7312 17.1685L8.49455 18.344H11.4687L13.2321 17.1685L14.0256 16.469L11.5922 17.6446Z" fill="#C0AC9D"/>
<path d="M11.4399 18.4381H8.4657H8.42455L6.69058 17.2625L5.83241 16.5572C5.82085 16.5443 5.81445 16.5275 5.81445 16.5102C5.81445 16.4928 5.82085 16.4761 5.83241 16.4631C5.84282 16.4488 5.8576 16.4381 5.87455 16.4328C5.8915 16.4275 5.90971 16.4279 5.92646 16.4338L8.2776 17.5447V16.9569C8.2782 16.9456 8.28112 16.9346 8.28618 16.9244C8.29123 16.9143 8.29832 16.9054 8.30699 16.8981L8.49508 16.7335C8.5102 16.7276 8.52699 16.7276 8.54211 16.7335H11.481C11.4962 16.7276 11.5129 16.7276 11.5281 16.7335L11.7279 16.8981C11.7346 16.9171 11.7346 16.9379 11.7279 16.9569V17.5447L14.0791 16.4338C14.0959 16.4287 14.1138 16.4289 14.1306 16.4341C14.1473 16.4393 14.1621 16.4494 14.1731 16.4631C14.1847 16.4761 14.1911 16.4928 14.1911 16.5102C14.1911 16.5275 14.1847 16.5443 14.1731 16.5572L13.3267 17.2625L11.5633 18.4381H11.4399ZM8.50096 18.2912H11.4399L13.1621 17.1156L13.55 16.7923L11.6456 17.6975C11.6354 17.7051 11.6231 17.7093 11.6103 17.7093C11.5976 17.7093 11.5853 17.7051 11.5751 17.6975C11.5633 17.6916 11.5536 17.6822 11.5473 17.6707C11.541 17.6591 11.5384 17.6459 11.5398 17.6328V16.9451L11.387 16.8217H8.52447L8.38341 16.9451V17.6328C8.38481 17.6459 8.38218 17.6591 8.37588 17.6707C8.36958 17.6822 8.3599 17.6916 8.34814 17.6975C8.33796 17.7051 8.32559 17.7093 8.31287 17.7093C8.30015 17.7093 8.28778 17.7051 8.2776 17.6975L6.37906 16.7982L6.76699 17.1156L8.50096 18.2912Z" fill="#C0AC9D"/>
<path d="M8.36623 12.3017L6.18555 11.661L7.72555 10.9557L8.36623 12.3017Z" fill="#161616"/>
<path d="M11.5458 12.3017L12.1865 10.9557L13.7382 11.661L11.5458 12.3017Z" fill="#161616"/>
<path d="M11.3988 15.1936L11.0344 14.935H8.8772L8.51277 15.1936L8.30705 16.9041L8.49514 16.7336H11.4341L11.628 16.9041L11.3988 15.1936Z" fill="#161616"/>
<path d="M8.30731 16.9744H8.27204C8.25983 16.966 8.25011 16.9544 8.2439 16.941C8.23769 16.9275 8.23523 16.9127 8.23678 16.8979L8.4425 15.1934C8.44271 15.1828 8.4455 15.1725 8.45062 15.1633C8.45575 15.154 8.46305 15.1462 8.47189 15.1405L8.83632 14.8818H8.87746H11.0346H11.0758L11.4402 15.1405C11.449 15.1462 11.4563 15.154 11.4615 15.1633C11.4666 15.1725 11.4694 15.1828 11.4696 15.1934L11.6871 16.8979C11.6874 16.9131 11.6838 16.9282 11.6766 16.9416C11.6693 16.9549 11.6588 16.9662 11.6459 16.9744C11.6339 16.983 11.6195 16.9876 11.6048 16.9876C11.59 16.9876 11.5756 16.983 11.5636 16.9744L11.3873 16.8274H8.52479L8.35433 16.9744C8.33921 16.9803 8.32243 16.9803 8.30731 16.9744ZM8.4954 16.6628H11.4343C11.4494 16.6569 11.4662 16.6569 11.4814 16.6628L11.5343 16.704L11.3462 15.2169L11.0288 14.9935H8.90097L8.58357 15.2169L8.40136 16.704L8.44838 16.6628C8.4635 16.6569 8.48028 16.6569 8.4954 16.6628Z" fill="#161616"/>
<path d="M19.1866 6.17127L19.839 3.01486L18.8574 0.0759277L11.3984 5.60699L14.2727 8.02867L18.3225 9.20424L19.216 8.15798L18.8104 7.88172L19.3982 7.29394L18.928 6.92363L19.5158 6.4534L19.1866 6.17127Z" fill="#763E1A"/>
<path d="M18.3223 9.28041L14.2665 8.10484L11.3511 5.66553C11.3439 5.6466 11.3439 5.62567 11.3511 5.60675C11.3509 5.5953 11.3534 5.58397 11.3586 5.57373C11.3637 5.56349 11.3712 5.55465 11.3805 5.54797L18.8101 0.0110274C18.8194 0.00387806 18.8308 0 18.8425 0C18.8542 0 18.8655 0.00387806 18.8748 0.0110274C18.8862 0.0138713 18.8965 0.019748 18.9048 0.0280301C18.9131 0.0363121 18.919 0.0466882 18.9218 0.0580503L19.8975 2.99698C19.9003 3.00857 19.9003 3.02065 19.8975 3.03225L19.2569 6.14163L19.6272 6.42377C19.6369 6.4302 19.6448 6.43894 19.6503 6.4492C19.6558 6.45945 19.6587 6.47091 19.6587 6.48255C19.6587 6.49419 19.6558 6.50565 19.6503 6.5159C19.6448 6.52616 19.6369 6.53489 19.6272 6.54133L19.0805 6.95278L19.4802 7.2643C19.4891 7.27006 19.4964 7.27788 19.5015 7.2871C19.5066 7.29632 19.5094 7.30666 19.5096 7.31721C19.5152 7.3364 19.5152 7.35678 19.5096 7.37598L18.9571 7.8756L19.2745 8.10484C19.2808 8.12191 19.2808 8.14067 19.2745 8.15774C19.2803 8.17489 19.2803 8.19349 19.2745 8.21064L18.3811 9.2569C18.3735 9.26479 18.3643 9.27097 18.3542 9.27503C18.3441 9.27908 18.3332 9.28092 18.3223 9.28041ZM14.3077 7.96377L18.2988 9.13934L19.1099 8.19301L18.8101 7.94614C18.8015 7.93888 18.7944 7.92992 18.7893 7.91981C18.7843 7.90969 18.7813 7.89865 18.7807 7.88736C18.7756 7.87842 18.7729 7.86829 18.7729 7.85797C18.7729 7.84765 18.7756 7.83751 18.7807 7.82858L19.3333 7.32308L18.9277 7.01156C18.9184 7.00488 18.9109 6.99604 18.9057 6.9858C18.9006 6.97556 18.8981 6.96423 18.8983 6.95278C18.8989 6.94149 18.9018 6.93044 18.9069 6.92033C18.9119 6.91021 18.919 6.90125 18.9277 6.894L19.4743 6.48255L19.1452 6.2298C19.1385 6.21819 19.1349 6.20501 19.1349 6.1916C19.1349 6.17818 19.1385 6.16501 19.1452 6.15339L19.7917 3.02049L18.8101 0.204997L11.5157 5.61263L14.3077 7.96377Z" fill="#763E1A"/>
<path d="M0.078125 3.01384L0.730567 6.17025L0.313239 6.4759L0.936292 6.94613L0.466064 7.31644L1.08324 7.90422L0.6953 8.18636L1.58873 9.20911L5.64446 8.03354L8.51285 5.61186L1.05385 0.0866699L0.078125 3.01384Z" fill="#763E1A"/>
<path d="M1.58908 9.28102C1.57977 9.2849 1.56978 9.2869 1.55969 9.2869C1.54961 9.2869 1.53962 9.2849 1.53031 9.28102L0.636871 8.24064C0.631049 8.22349 0.631049 8.20489 0.636871 8.18774C0.641612 8.16774 0.651782 8.14943 0.66626 8.13484L0.983665 7.9056L0.413512 7.37659C0.407961 7.35739 0.407961 7.33701 0.413512 7.31781C0.409783 7.3095 0.407855 7.30048 0.407855 7.29136C0.407855 7.28225 0.409783 7.27323 0.413512 7.26491L0.813207 6.95339L0.260688 6.54194C0.250989 6.5355 0.243032 6.52677 0.237528 6.51651C0.232024 6.50626 0.229143 6.4948 0.229143 6.48316C0.229143 6.47152 0.232024 6.46006 0.237528 6.4498C0.243032 6.43955 0.250989 6.43081 0.260688 6.42438L0.642749 6.14224L0.00206248 3.03286C-0.000687492 3.02126 -0.000687492 3.00918 0.00206248 2.99759L0.977787 0.0586606C0.981079 0.0465286 0.987836 0.0356193 0.997231 0.0272678C1.00663 0.0189162 1.01825 0.0134847 1.03069 0.0116378C1.03995 0.00448841 1.05132 0.000610352 1.06302 0.000610352C1.07471 0.000610352 1.08608 0.00448841 1.09534 0.0116378L8.55434 5.54858C8.56439 5.55495 8.57281 5.56359 8.57894 5.57379C8.58506 5.584 8.58872 5.59549 8.58961 5.60736C8.59589 5.62645 8.59589 5.64705 8.58961 5.66614L5.69183 8.08781L1.63611 9.26339L1.58908 9.28102ZM0.801451 8.18186L1.6126 9.12819L5.60954 7.95262L8.39564 5.60148L1.08947 0.205607L0.149009 3.0211L0.801451 6.154C0.808791 6.16539 0.812695 6.17865 0.812695 6.19221C0.812695 6.20576 0.808791 6.21902 0.801451 6.23041L0.437024 6.47728L0.983665 6.88873C0.992339 6.89598 0.999425 6.90495 1.00448 6.91506C1.00954 6.92517 1.01246 6.93622 1.01305 6.94751C1.01329 6.95896 1.01074 6.97029 1.00562 6.98053C1.0005 6.99077 0.992966 6.99961 0.983665 7.00629L0.589848 7.32369L1.14237 7.82919C1.14753 7.83812 1.15024 7.84826 1.15024 7.85858C1.15024 7.8689 1.14753 7.87903 1.14237 7.88797C1.14177 7.89926 1.13885 7.9103 1.13379 7.92042C1.12874 7.93053 1.12165 7.93949 1.11298 7.94675L0.801451 8.18186Z" fill="#763E1A"/>
<path d="M18.3232 9.21012L14.2734 8.03455L15.4901 9.88019L13.668 13.4069H16.0779H19.6869L18.3232 9.21012Z" fill="#F5841F"/>
<path d="M13.667 13.53C13.6543 13.5296 13.6418 13.5261 13.6305 13.52C13.6193 13.5139 13.6097 13.5052 13.6024 13.4947C13.5967 13.4839 13.5938 13.4718 13.5938 13.4595C13.5938 13.4472 13.5967 13.4351 13.6024 13.4242L15.4069 9.8975L14.2313 8.093C14.2227 8.08101 14.2181 8.06662 14.2181 8.05185C14.2181 8.03709 14.2227 8.0227 14.2313 8.01071C14.2404 7.99798 14.2531 7.98834 14.2678 7.98309C14.2825 7.97783 14.2985 7.97722 14.3136 7.98132L18.3693 9.15689C18.3807 9.15973 18.3911 9.16561 18.3993 9.17389C18.4076 9.18217 18.4135 9.19255 18.4163 9.20391L19.78 13.3948C19.7839 13.4058 19.785 13.4176 19.7833 13.4291C19.7815 13.4406 19.777 13.4515 19.77 13.4608C19.763 13.4701 19.7538 13.4775 19.7432 13.4824C19.7327 13.4873 19.7211 13.4895 19.7095 13.4889H16.077L13.667 13.5183V13.53ZM14.4429 8.18704L15.5538 9.86223C15.5595 9.87312 15.5624 9.88522 15.5624 9.8975C15.5624 9.90978 15.5595 9.92187 15.5538 9.93277L13.7905 13.3831L16.077 13.3537H19.6037L18.2929 9.29796L14.4429 8.18704Z" fill="#F5841F"/>
<path d="M5.64591 8.02856L1.59019 9.20414L0.238281 13.4009H3.83553H6.24545L4.42332 9.87421L5.64591 8.02856Z" fill="#F5841F"/>
<path d="M6.24453 13.5302L3.83461 13.5008H0.237363C0.228142 13.505 0.218117 13.5072 0.207973 13.5072C0.19783 13.5072 0.187805 13.505 0.178584 13.5008C0.172909 13.4909 0.169922 13.4798 0.169922 13.4684C0.169922 13.4571 0.172909 13.4459 0.178584 13.4361L1.53049 9.24521C1.53334 9.23385 1.53921 9.22347 1.54749 9.21519C1.55578 9.20691 1.56615 9.20103 1.57751 9.19818L5.63324 8.02261C5.64826 8.01755 5.66455 8.0177 5.67948 8.02303C5.69441 8.02836 5.70711 8.03857 5.71553 8.052C5.72414 8.06399 5.72877 8.07838 5.72877 8.09315C5.72877 8.10791 5.72414 8.1223 5.71553 8.13429L4.53996 9.93879L6.34446 13.4655C6.35012 13.4764 6.35308 13.4885 6.35308 13.5008C6.35308 13.5131 6.35012 13.5252 6.34446 13.536C6.33797 13.5431 6.33 13.5486 6.32111 13.5522C6.31223 13.5558 6.30267 13.5573 6.2931 13.5568C6.28354 13.5562 6.27422 13.5535 6.26582 13.5489C6.25742 13.5443 6.25015 13.5379 6.24453 13.5302ZM0.366676 13.3538H3.83461L6.12698 13.3832L4.36362 9.93292C4.35795 9.92202 4.35499 9.90993 4.35499 9.89765C4.35499 9.88537 4.35795 9.87327 4.36362 9.86238L5.46866 8.1578L1.64805 9.26872L0.366676 13.3538Z" fill="#F5841F"/>
<path d="M11.1703 10.0682L11.4289 5.6069L12.6045 2.43286H7.33789L8.51346 5.6069L8.77209 10.0682L8.87201 11.473V14.9351H11.0292V11.473L11.1703 10.0682Z" fill="#F5841F"/>
<path d="M11.0344 15.0113H8.87724C8.86746 15.0114 8.85779 15.0094 8.84882 15.0055C8.83986 15.0016 8.8318 14.9958 8.82517 14.9886C8.81854 14.9815 8.81347 14.973 8.81029 14.9637C8.80711 14.9545 8.80589 14.9447 8.80671 14.9349V11.4729L8.70679 10.0739L8.44816 5.62439L7.27259 2.45623C7.26911 2.43523 7.27391 2.41371 7.28596 2.39618C7.29802 2.37864 7.3164 2.36646 7.33724 2.36218H12.5744C12.5859 2.36354 12.5969 2.3673 12.6068 2.3732C12.6167 2.3791 12.6253 2.38702 12.6319 2.39644C12.6386 2.40586 12.6432 2.41658 12.6454 2.42789C12.6477 2.4392 12.6475 2.45086 12.6449 2.46211L11.4694 5.63027L11.2108 10.0798L11.1108 11.4846V14.9408C11.1109 14.9506 11.1089 14.9603 11.105 14.9692C11.101 14.9782 11.0953 14.9862 11.0881 14.9929C11.081 14.9995 11.0725 15.0046 11.0632 15.0077C11.054 15.0109 11.0442 15.0121 11.0344 15.0113ZM8.95365 14.8644H10.958V11.4729L11.052 10.0681L11.3166 5.60088L12.4569 2.52088H7.44305L8.58335 5.58325L8.84198 10.0504L8.9419 11.4493L8.95365 14.8644Z" fill="#F5841F"/>
</svg>
