<svg width="44" height="44" viewBox="0 0 44 44" fill="none" xmlns="http://www.w3.org/2000/svg">
<rect y="0.25" width="43.5" height="43.5" rx="21.75" fill="white" fill-opacity="0.05"/>
<path d="M21.834 11.9785C21.9782 12.0667 22.1224 12.1628 22.2708 12.243C23.8615 13.1166 25.4521 13.9861 27.0427 14.8557C27.1021 14.8877 27.1615 14.9238 27.2505 14.9759C27.1784 15.02 27.1233 15.0601 27.0681 15.0921C26.5676 15.3646 26.0671 15.6331 25.5708 15.9136C25.4563 15.9777 25.38 15.9737 25.2697 15.9096C24.1584 15.2965 23.0386 14.6874 21.923 14.0743C21.8 14.0062 21.7067 14.0062 21.5837 14.0743C20.4724 14.6874 19.3526 15.2965 18.237 15.9096C18.1268 15.9697 18.0462 15.9777 17.9359 15.9136C17.4354 15.6291 16.9264 15.3566 16.4174 15.0801C16.3707 15.056 16.3241 15.024 16.252 14.9799C16.3538 14.9238 16.4343 14.8757 16.5149 14.8276C18.1777 13.918 19.8446 13.0084 21.5074 12.0947C21.5667 12.0627 21.6134 12.0186 21.6685 11.9785C21.7194 11.9785 21.7788 11.9785 21.834 11.9785Z" fill="#F9B602"/>
<path d="M21.6637 32.0141C21.3031 31.8097 20.9468 31.6013 20.5863 31.401C20.3997 31.2968 20.2046 31.2006 20.0222 31.0884C19.967 31.0564 19.9076 30.9802 19.9076 30.9241C19.8992 30.299 19.9034 29.6739 19.9034 29.0207C19.9755 29.0528 20.0307 29.0768 20.0816 29.1049C20.5948 29.3814 21.108 29.6579 21.617 29.9464C21.7146 30.0025 21.7825 30.0025 21.88 29.9464C22.3763 29.6699 22.8768 29.3974 23.3773 29.1249C23.4367 29.0928 23.5003 29.0608 23.5936 29.0127C23.5936 29.1369 23.5936 29.2331 23.5936 29.3293C23.5936 29.8302 23.5852 30.3311 23.5979 30.828C23.6021 30.9842 23.5427 31.0644 23.4028 31.1405C22.9277 31.389 22.4611 31.6494 21.9945 31.9059C21.9352 31.9379 21.8843 31.982 21.8334 32.0221C21.7782 32.0141 21.7188 32.0141 21.6637 32.0141Z" fill="#F9B705"/>
<path d="M27.26 19.9888C27.26 20.2693 27.2515 20.5498 27.2643 20.8303C27.2685 20.9625 27.2176 21.0307 27.0988 21.0948C25.996 21.6918 24.9017 22.2929 23.8031 22.89C23.6504 22.9742 23.591 23.0623 23.5952 23.2346C23.6037 24.4288 23.5995 25.6269 23.6037 26.8211C23.6037 26.9653 23.5613 27.0495 23.4256 27.1216C22.9208 27.3861 22.4203 27.6586 21.924 27.9391C21.7968 28.0112 21.7035 28.0032 21.5805 27.9351C21.0842 27.6546 20.5837 27.3821 20.0789 27.1176C19.9517 27.0495 19.905 26.9733 19.905 26.8331C19.9093 25.6229 19.905 24.4167 19.9135 23.2066C19.9135 23.0623 19.8668 22.9822 19.7354 22.906C18.6283 22.309 17.5255 21.6999 16.4184 21.0988C16.2954 21.0307 16.2402 20.9625 16.2402 20.8223C16.2487 20.2693 16.2487 19.7123 16.2402 19.1593C16.2402 19.0391 16.2699 18.967 16.3887 18.9068C16.9104 18.6303 17.4279 18.3458 17.9454 18.0573C18.0514 17.9972 18.1278 18.0052 18.2296 18.0613C19.3239 18.6664 20.4267 19.2595 21.5211 19.8686C21.695 19.9647 21.8222 19.9607 21.9961 19.8646C23.082 19.2595 24.1806 18.6704 25.2665 18.0693C25.3767 18.0092 25.4573 18.0012 25.5719 18.0653C26.0851 18.3538 26.6068 18.6384 27.1285 18.9149C27.2388 18.971 27.2685 19.0431 27.2685 19.1553C27.2558 19.4278 27.26 19.7083 27.26 19.9888Z" fill="#F9B601"/>
<path d="M12.5708 20.9824C13.0671 21.2509 13.5167 21.5274 13.996 21.7478C14.3268 21.9041 14.4413 22.0964 14.4329 22.4531C14.4032 23.5751 14.4244 24.6971 14.4201 25.8151C14.4201 25.9513 14.4626 26.0275 14.594 26.0956C15.7054 26.6967 16.8124 27.3098 17.928 27.9109C18.0552 27.979 18.1061 28.0511 18.1019 28.1914C18.0934 28.7323 18.0976 29.2733 18.0976 29.8143C18.0976 29.8704 18.0976 29.9305 18.0976 30.0187C18.0043 29.9706 17.9365 29.9425 17.8728 29.9065C16.1592 28.9688 14.4456 28.0351 12.7362 27.0934C12.6641 27.0533 12.5878 26.9612 12.5835 26.893C12.5665 24.9375 12.5708 22.982 12.5708 20.9824Z" fill="#F9B603"/>
<path d="M25.405 30.0272C25.405 29.358 25.4007 28.7249 25.4135 28.0918C25.4135 28.0317 25.511 27.9555 25.5831 27.9195C26.686 27.3144 27.7888 26.7093 28.8959 26.1122C29.0401 26.0361 29.0825 25.9519 29.0825 25.7996C29.074 24.5935 29.0825 23.3833 29.074 22.1771C29.074 22.0489 29.1122 21.9768 29.2352 21.9087C29.7527 21.6362 30.2617 21.3517 30.7749 21.0712C30.8173 21.0471 30.8597 21.0311 30.9276 20.999C30.9276 21.0872 30.9276 21.1513 30.9276 21.2154C30.9276 23.0828 30.9276 24.9541 30.9318 26.8215C30.9318 26.9657 30.8894 27.0459 30.7537 27.118C29.0485 28.0437 27.3476 28.9733 25.6467 29.903C25.5789 29.9391 25.511 29.9711 25.405 30.0272Z" fill="#F9B603"/>
<path d="M16.2609 16.9876C15.6967 17.2962 15.1708 17.5887 14.6363 17.8692C14.4751 17.9534 14.4073 18.0415 14.4115 18.2259C14.4285 18.8069 14.4158 19.3879 14.4158 19.993C14.3479 19.961 14.2885 19.9409 14.2376 19.9129C13.7329 19.6324 13.2323 19.3519 12.7191 19.0794C12.6088 19.0193 12.5664 18.9552 12.5664 18.8309C12.5749 18.2699 12.5749 17.7089 12.5664 17.1479C12.5664 17.0277 12.6046 16.9556 12.7191 16.8955C13.2408 16.619 13.7541 16.3264 14.2758 16.0499C14.3352 16.0179 14.4455 15.9979 14.5006 16.0299C15.0775 16.3345 15.6501 16.651 16.2609 16.9876Z" fill="#F9B603"/>
<path d="M27.2422 16.9875C27.6706 16.7511 28.0693 16.5307 28.468 16.3143C28.6759 16.2021 28.8837 16.0137 29.0958 16.0137C29.2951 16.0097 29.503 16.2021 29.7023 16.3143C30.0544 16.5066 30.4065 16.711 30.767 16.8913C30.9027 16.9594 30.9367 17.0436 30.9324 17.1758C30.9239 17.7248 30.9239 18.2698 30.9324 18.8188C30.9324 18.947 30.8985 19.0231 30.7755 19.0873C30.2156 19.3838 29.6684 19.6883 29.0788 20.0089C29.0788 19.4719 29.0534 18.967 29.0873 18.4661C29.1128 18.1135 28.9982 17.9131 28.6589 17.7569C28.1796 17.5325 27.73 17.256 27.2422 16.9875Z" fill="#F9B603"/>
<path d="M16.2605 23.0024C16.7186 23.2509 17.1555 23.5274 17.6221 23.7358C18.0039 23.9041 18.1311 24.1285 18.0972 24.5212C18.0548 25.006 18.0887 25.4949 18.0887 26.0038C18.0293 25.9838 17.9869 25.9758 17.9487 25.9557C17.4228 25.6712 16.8968 25.3867 16.3793 25.0902C16.3157 25.0541 16.2478 24.966 16.2436 24.8978C16.2351 24.2888 16.2393 23.6837 16.2393 23.0746C16.2393 23.0585 16.2478 23.0425 16.2605 23.0024Z" fill="#F9B704"/>
<path d="M25.4063 25.9915C25.4063 25.3504 25.4062 24.7252 25.4105 24.1001C25.4105 24.056 25.4402 23.9879 25.4784 23.9679C26.051 23.6553 26.6278 23.3468 27.2005 23.0382C27.209 23.0342 27.2259 23.0422 27.2599 23.0462C27.2599 23.495 27.2174 23.9518 27.2726 24.3966C27.3277 24.8775 27.1538 25.15 26.6915 25.3423C26.2673 25.5146 25.8813 25.7711 25.4784 25.9875C25.4656 25.9915 25.4487 25.9875 25.4063 25.9915Z" fill="#F9B705"/>
<path d="M23.598 16.9872C23.2545 17.1755 22.9363 17.3479 22.6225 17.5202C22.3722 17.6564 22.1262 17.7967 21.8717 17.9289C21.8166 17.957 21.7148 17.973 21.6681 17.9489C21.0955 17.6444 20.5313 17.3318 19.9672 17.0233C19.9587 17.0193 19.9545 17.0032 19.9375 16.9752C20.3786 16.7308 20.841 16.5184 21.2567 16.2379C21.613 16.0014 21.8929 16.0014 22.245 16.2379C22.6606 16.5104 23.123 16.7267 23.598 16.9872Z" fill="#F9B603"/>
</svg>
