<svg width="14" height="26" viewBox="0 0 14 26" fill="none" xmlns="http://www.w3.org/2000/svg">
<path d="M7.51838 15.8018H7.26735V16.0245C7.40855 16.0852 7.56544 16.1206 7.60205 16.3028L7.47654 16.4041C7.44579 16.3872 7.41611 16.3686 7.38764 16.3484C7.31632 16.2896 7.22866 16.2524 7.13563 16.2416C7.04259 16.2308 6.94833 16.2468 6.86467 16.2877C6.75086 16.3433 6.64082 16.4058 6.5352 16.4749C6.49401 16.4993 6.46113 16.5348 6.44067 16.5771C6.42021 16.6194 6.41307 16.6666 6.42015 16.7128C6.42015 17.0114 6.42015 17.3049 6.42015 17.6035C6.41761 17.6524 6.41761 17.7014 6.42015 17.7503H7.68573V17.5276C7.68573 17.1278 7.68573 16.728 7.68573 16.3281C7.69564 16.1391 7.63639 15.9527 7.51838 15.8018Z" fill="white"/>
<path d="M12.2153 9.18136C11.8625 8.95036 11.4717 8.77921 11.0595 8.67526C9.91636 8.37635 8.71735 8.33651 7.55567 8.55886C6.92405 8.59852 6.3307 8.86576 5.89263 9.30788C5.89001 9.26405 5.89001 9.22012 5.89263 9.17629C5.89263 7.97684 5.89263 6.77233 5.89263 5.57288C5.88399 5.48348 5.89364 5.39331 5.92104 5.30752C5.94844 5.22173 5.99304 5.14201 6.05229 5.07292C6.11155 5.00382 6.1843 4.94671 6.26638 4.90484C6.34846 4.86297 6.43826 4.83718 6.53065 4.82892C6.79942 4.77558 7.07754 4.786 7.34125 4.85929C7.49956 4.88193 7.64259 4.9632 7.74016 5.08595C7.83773 5.2087 7.88221 5.36333 7.86422 5.51721V7.69343H13.0991C13.2089 7.69343 13.2246 7.658 13.2246 7.56184C13.2246 6.43831 13.2246 5.30971 13.2246 4.18618C13.2318 3.79477 13.1562 3.40608 13.0024 3.04401C12.8486 2.68194 12.6199 2.35415 12.3304 2.08081C11.8957 1.66711 11.3848 1.33582 10.8242 1.10404C9.94306 0.732695 9.00497 0.503603 8.04726 0.425875C6.72187 0.284668 5.38076 0.394685 4.09885 0.749777C3.30223 0.95669 2.56049 1.32595 1.92331 1.83282C1.55657 2.1244 1.26295 2.49268 1.06457 2.90996C0.866192 3.32723 0.768213 3.78262 0.778013 4.24185C0.778013 10.0012 0.778013 15.7589 0.778013 21.5149C0.771405 21.9256 0.852539 22.3331 1.01633 22.7119C1.18011 23.0907 1.42302 23.4327 1.72981 23.7165C2.20285 24.1554 2.76093 24.4994 3.37193 24.7287C4.29266 25.0856 5.26812 25.2925 6.25871 25.341C7.54651 25.4301 8.8401 25.2824 10.0711 24.9058C10.8458 24.6758 11.5596 24.2855 12.163 23.762C12.4887 23.4878 12.7504 23.1497 12.9307 22.7702C13.1111 22.3906 13.2059 21.9782 13.2089 21.5605V11.0438C13.2212 10.6771 13.1363 10.3135 12.9624 9.98752C12.7885 9.66154 12.5313 9.38402 12.2153 9.18136ZM10.6464 15.0723V15.3001C9.70149 15.2827 8.76204 15.4425 7.87991 15.7707V17.9672C7.71256 17.9672 7.57135 17.9672 7.43538 17.9672C7.09552 17.9787 6.76579 18.0822 6.48358 18.2658C6.41076 18.3088 6.35138 18.3701 6.31177 18.4432C6.27216 18.5163 6.25382 18.5984 6.25871 18.6808C6.25871 19.9207 6.25871 21.1607 6.25871 22.4006V22.6385C6.20641 22.6385 6.14888 22.6385 6.11751 22.6941C6.08947 22.7375 6.06996 22.7856 6.05998 22.8359H4.75256L4.70027 22.6941H4.29235V22.2387L4.43878 22.2032C4.48585 21.9755 4.47539 14.2322 4.43878 14.0652L4.29235 14.0348V13.7261L4.43878 13.6603V13.3971H4.73687L4.79963 13.2656H6.25348C6.25348 13.2656 6.29009 13.301 6.29532 13.3212C6.35041 13.458 6.44897 13.5744 6.57679 13.6535C6.70461 13.7327 6.8551 13.7705 7.00655 13.7615C7.34096 13.7524 7.6693 13.673 7.96881 13.5287C8.16843 13.4465 8.36234 13.3518 8.5493 13.2453C8.82887 13.0744 9.13665 12.9511 9.45927 12.8809C9.78412 12.8064 10.1262 12.8592 10.4111 13.0277C10.4913 13.0657 10.558 13.1259 10.6027 13.2007C10.6474 13.2755 10.6681 13.3615 10.6621 13.4478C10.6464 13.9994 10.6569 14.5409 10.6569 15.0723H10.6464Z" fill="white"/>
</svg>
