<svg width="17" height="16" viewBox="0 0 17 16" fill="none" xmlns="http://www.w3.org/2000/svg">
<path d="M5.78127 10.0733C6.01394 10.0733 6.22261 9.91 6.27061 9.67334C6.32594 9.40267 6.15127 9.13867 5.8806 9.08333C4.05994 8.71267 2.12993 6.47133 1.95927 3H4.16727C4.44327 3 4.66727 2.776 4.66727 2.5C4.66727 2.224 4.44327 2 4.16727 2H1.44727C1.17127 2 0.947266 2.224 0.947266 2.5C0.947266 6.83267 3.3286 9.584 5.6806 10.0633C5.7146 10.07 5.74794 10.0733 5.78127 10.0733Z" fill="white"/>
<path d="M12.2266 10.06C12.2626 10.06 12.2992 10.056 12.3366 10.048C14.6539 9.528 17.0006 6.76867 17.0006 2.5C17.0006 2.224 16.7766 2 16.5006 2H13.8339C13.5579 2 13.3339 2.224 13.3339 2.5C13.3339 2.776 13.5579 3 13.8339 3H15.9879C15.8179 6.42267 13.9139 8.66933 12.1172 9.072C11.8479 9.13267 11.6786 9.4 11.7386 9.66933C11.7912 9.902 11.9979 10.06 12.2266 10.06Z" fill="white"/>
<path d="M8.16715 10.74C8.44315 10.74 8.66715 10.964 8.66715 11.24H9.33381C9.33381 10.964 9.55781 10.74 9.83381 10.74C10.1098 10.74 10.3338 10.964 10.3338 11.24V13.6667C10.3338 13.9427 10.1098 14.1667 9.83381 14.1667H8.16715C7.89115 14.1667 7.66715 13.9427 7.66715 13.6667V11.24C7.66715 10.964 7.89115 10.74 8.16715 10.74Z" fill="white"/>
<path d="M7.50048 13.3333H10.5005C11.5118 13.3333 12.3338 14.1553 12.3338 15.1666V15.5C12.3338 15.776 12.1098 16 11.8338 16H6.16715C5.89115 16 5.66715 15.776 5.66715 15.5V15.1666C5.66715 14.1553 6.48915 13.3333 7.50048 13.3333Z" fill="white"/>
<path d="M4.83382 0H13.1671C13.8105 0 14.3338 0.523333 14.3338 1.16667V6.00333C14.3051 10.3073 9.37448 12.0667 9.16448 12.1393C9.11115 12.158 9.05581 12.1673 9.00048 12.1673C8.94515 12.1673 8.88981 12.158 8.83715 12.14C8.62648 12.0667 3.66715 10.3067 3.66715 6V1.16667C3.66715 0.523333 4.19048 0 4.83382 0Z" fill="white"/>
</svg>
