<svg width="45" height="44" viewBox="0 0 45 44" fill="none" xmlns="http://www.w3.org/2000/svg">
<rect x="0.5" width="44" height="44" rx="10.56" fill="white" fill-opacity="0.1"/>
<path fill-rule="evenodd" clip-rule="evenodd" d="M28.6717 13.6221C28.6218 13.6446 28.569 13.6609 28.5148 13.6705C28.2121 14.0847 28.3971 14.0363 27.859 14.3806C27.8365 14.845 27.9011 15.3096 28.0495 15.7522C28.0535 15.7588 28.0556 15.7662 28.0556 15.7737C28.0556 15.7813 28.0535 15.7887 28.0495 15.7953C28.0388 15.7994 28.0267 15.7994 28.0159 15.7953C27.887 15.8221 27.702 15.8706 27.5899 15.8867C27.6235 16.1205 27.6235 16.3576 27.5899 16.5914C27.2561 17.2219 26.738 17.7453 26.099 18.0975C25.7234 18.1674 25.3087 17.8501 24.6529 17.5596C24.4735 17.4843 23.8682 17.1024 23.5319 17.0217C23.1956 16.941 23.005 17.5596 23.3301 17.7156C23.4814 17.7909 23.7224 17.8985 23.8009 18.0867C24.0251 18.6515 23.7673 20.8247 23.2965 21.2604C23.0779 21.2604 22.8929 21.0613 22.736 21.1151C22.4445 21.2657 22.6295 22.1318 22.736 22.2824C24.5464 24.0629 24.3278 25.3861 25.0957 26.3705C25.4488 26.3705 25.219 26.7255 25.4824 27.145C25.5208 27.3863 25.5016 27.6327 25.4264 27.8658V28.4037C25.4264 28.4575 25.3871 28.5167 25.3647 28.5705V29.0439C25.3143 29.2698 25.2526 29.5818 25.2022 29.7915C25.0957 30.2434 25.5105 30.5984 25.2638 31.0233C25.2638 31.2923 25.2638 31.2385 25.0957 31.4537C25.0451 31.9797 25.0451 32.5091 25.0957 33.0351C25.387 33.4959 25.7564 33.9068 26.1887 34.2508C26.6763 34.4552 27.3938 34.4121 27.1583 35.1437C25.7347 35.5633 24.8266 34.9124 24.07 34.9016L24.0363 35.0254C23.7008 35.0361 23.3657 34.9943 23.0442 34.9016C23.0906 34.4839 23.1617 34.069 23.2572 33.6591L23.4198 33.4116C23.4294 32.8318 23.4069 32.2518 23.3525 31.6742C23.0498 31.4644 22.9882 30.8136 22.9882 30.4532C22.9146 30.1481 22.8789 29.8357 22.8817 29.5226C22.8233 29.3123 22.8043 29.0938 22.8256 28.8771C22.8705 28.7319 23.0386 28.6727 23.0835 28.5544V28.1509C23.1619 27.726 23.1395 27.527 22.8705 27.2741C22.2091 27.2741 22.1138 27.3118 21.7495 26.7685C21.6374 26.6018 20.7069 25.1925 20.6285 25.1548C19.855 24.8321 20.0063 24.9558 19.67 24.3802C19.5022 24.4451 19.3607 24.5601 19.2664 24.7083C18.8896 25.3873 18.58 26.0986 18.3416 26.8331C18.2631 27.0859 18.3416 27.371 18.2239 27.57C18.1062 27.769 17.8596 27.7744 17.8035 27.8766C17.5289 28.3446 17.7306 28.3069 17.243 28.635C17.1754 28.7735 17.121 28.9175 17.0805 29.0654L16.9627 29.2214C16.8787 29.3989 17.058 29.727 17.0244 29.84C16.9318 30.1328 16.8214 30.4202 16.6937 30.7006C16.4583 31.2385 16.4919 31.9539 16.2509 32.3143C16.1332 32.4811 15.8417 32.3143 15.6231 32.4542C15.6231 32.5725 15.2588 33.3417 15.1915 33.53V34.7564C15.2532 34.9608 15.4382 35.1545 15.3821 35.418C15.3261 35.6816 14.3172 35.6924 13.7735 35.6171C13.6285 35.597 13.4975 35.5233 13.4085 35.4117C13.3194 35.3001 13.2794 35.1595 13.297 35.02C13.297 34.665 14.0481 32.3735 14.0033 32.2121C13.4428 31.6043 14.1546 30.9749 14.3676 30.4101C14.4685 30.1304 14.4068 29.7431 14.5189 29.4903L15.1131 28.4468C15.4774 28.1187 15.3149 28.1025 15.511 27.8067C15.7072 27.5108 15.8866 27.3817 15.7689 26.9891C15.5278 26.2037 16.0491 25.0849 16.0828 24.2619C15.9931 24.1704 15.6792 24.2027 15.64 23.9499C15.5815 23.4231 15.7141 22.893 16.0155 22.4491C16.0884 22.4115 16.178 22.4491 16.2453 22.4007C16.2453 22.0188 15.8473 19.8887 16.15 19.7811C16.335 19.7112 16.7666 19.6789 16.845 19.6413C16.9235 19.6036 16.7778 19.3562 16.6993 19.3454C16.6208 19.3347 16.2957 19.3024 16.0996 19.2378C15.4382 19.0872 16.0491 16.5752 16.0603 16.5483C16.2397 16.317 17.0917 16.629 17.1813 16.2363C17.4616 15.8867 16.9627 14.5527 17.9268 12.9067C18.2575 12.3688 18.8797 11.7932 19.6083 12.0299C19.855 12.1106 19.7092 12.4495 20.1352 12.0891C20.1199 11.9023 20.0686 11.7199 19.9839 11.5512C19.2608 9.49639 21.7046 8.3883 23.3861 9.55556C23.5438 9.60637 23.693 9.67884 23.8289 9.77072C23.9242 10.2333 24.3894 11.0563 23.9242 11.5996C23.7138 11.6464 23.5142 11.7303 23.3357 11.847C23.3317 12.0027 23.3486 12.1582 23.3861 12.3096C23.4198 12.4118 23.4814 12.4495 23.3189 12.514C23.3189 12.514 23.3189 12.584 23.3189 12.6055C23.6892 12.6465 24.064 12.5868 24.4007 12.4333H24.7201V12.0568H24.8659V11.7717H25.0172V12.3096H25.4152V12.471H31.2332V12.7615H31.4911V11.6857H31.704V12.5302H32.2029V13.025H33.7499V12.8798H34.0357V12.9444H34.7644V13.3532H34.0357V13.4177H33.7779V13.2725H32.2253V13.4231H31.5471V13.3209H31.2332V13.6221H28.6717Z" fill="white"/>
</svg>
