<svg width="14" height="4" viewBox="0 0 14 4" fill="none" xmlns="http://www.w3.org/2000/svg">
<path d="M1.93709 0.408203C2.41709 0.408203 2.79509 0.540204 3.07109 0.804204C3.35909 1.0682 3.50309 1.4222 3.50309 1.8662C3.50309 2.3222 3.35909 2.6822 3.07109 2.9462C2.79509 3.1982 2.41709 3.3242 1.93709 3.3242C1.45709 3.3242 1.07309 3.1982 0.785094 2.9462C0.509094 2.6822 0.371094 2.3222 0.371094 1.8662C0.371094 1.4222 0.509094 1.0682 0.785094 0.804204C1.07309 0.540204 1.45709 0.408203 1.93709 0.408203Z" fill="white"/>
<path d="M6.99959 0.408203C7.47959 0.408203 7.85759 0.540204 8.13359 0.804204C8.42159 1.0682 8.56559 1.4222 8.56559 1.8662C8.56559 2.3222 8.42159 2.6822 8.13359 2.9462C7.85759 3.1982 7.47959 3.3242 6.99959 3.3242C6.51959 3.3242 6.13559 3.1982 5.84759 2.9462C5.57159 2.6822 5.43359 2.3222 5.43359 1.8662C5.43359 1.4222 5.57159 1.0682 5.84759 0.804204C6.13559 0.540204 6.51959 0.408203 6.99959 0.408203Z" fill="white"/>
<path d="M12.0621 0.408203C12.5421 0.408203 12.9201 0.540204 13.1961 0.804204C13.4841 1.0682 13.6281 1.4222 13.6281 1.8662C13.6281 2.3222 13.4841 2.6822 13.1961 2.9462C12.9201 3.1982 12.5421 3.3242 12.0621 3.3242C11.5821 3.3242 11.1981 3.1982 10.9101 2.9462C10.6341 2.6822 10.4961 2.3222 10.4961 1.8662C10.4961 1.4222 10.6341 1.0682 10.9101 0.804204C11.1981 0.540204 11.5821 0.408203 12.0621 0.408203Z" fill="white"/>
</svg>
