<svg width="25" height="24" viewBox="0 0 25 24" fill="none" xmlns="http://www.w3.org/2000/svg">
<rect x="0.341797" width="24" height="24" rx="6.43786" fill="white"/>
<path d="M13.9467 19.594C12.3912 20.2986 10.8229 20.1318 9.25171 19.6408C9.33673 19.6504 9.4221 19.6617 9.50747 19.6693C9.59981 19.6772 9.69249 19.6834 9.78623 19.6865C11.342 19.7357 12.6355 19.2009 13.5592 17.9461C14.738 16.3426 14.416 14.1266 12.7529 12.8481C12.7237 12.8312 12.6936 12.8159 12.6626 12.8023C12.332 13.2755 11.986 13.7446 11.6741 14.2349C11.594 14.3612 11.5964 14.5558 11.6044 14.7164C11.6267 15.129 11.5229 15.4877 11.2096 15.7721C10.9065 16.0472 10.6026 16.3223 10.2911 16.5881C10.0925 16.7583 9.84407 16.8113 9.59005 16.7879C9.29666 16.7611 9.0524 16.8151 8.8273 17.0245C8.66284 17.1779 8.4259 17.1184 8.22449 17.0837C7.95724 17.0379 7.6973 16.9533 7.43213 16.8928C7.26 16.8533 7.13072 16.7553 7.06661 16.6026C6.90423 16.2195 6.75301 15.8319 6.61363 15.4399C6.58297 15.3529 6.60457 15.2319 6.64046 15.1418C6.72548 14.9299 6.81468 14.714 6.93699 14.5228C7.17672 14.1531 7.25059 13.7432 7.3032 13.3192C7.37777 12.7057 7.45861 12.0929 7.53945 11.4798C7.56802 11.2631 7.55374 11.0475 7.42865 10.868C7.2248 10.5754 7.21958 10.2659 7.31575 9.94847C7.35791 9.8092 7.31575 9.7504 7.20529 9.67337C6.05449 8.85424 4.90602 8.03065 3.75986 7.20258C3.69192 7.15375 3.63164 7.09392 3.56787 7.03924L3.58355 6.98112C3.66474 6.9911 3.7508 6.98662 3.82746 7.01276C4.74318 7.33291 5.65854 7.6541 6.57495 7.97528C6.67322 8.00967 6.77217 8.04131 6.87078 8.07398L6.91051 8.07913L6.89901 8.04475C6.75963 7.51345 6.73071 6.98387 6.91922 6.45636C7.04203 6.09978 7.24666 5.77602 7.51715 5.51034C7.6398 5.89652 7.75723 6.26688 7.87431 6.63518C8.18512 5.89618 8.62555 5.29989 9.3444 4.93813C9.80729 4.70512 10.3236 4.59491 10.8427 4.61832L10.3329 5.42644C12.9961 4.19431 15.4053 4.65889 17.6503 6.35973C17.4412 6.34047 17.2294 6.31881 17.0189 6.3023C16.8084 6.2858 16.5938 6.27479 16.3523 6.25932C19.3897 7.87315 20.6783 10.3797 20.4358 13.6947L20.3912 13.7215C20.3107 13.6249 20.2309 13.5279 20.15 13.432C20.0692 13.336 19.9887 13.2422 19.8884 13.1246C20.0511 15.6259 18.9374 17.4829 17.0039 18.9812C17.0757 18.5995 17.1412 18.2515 17.2071 17.9035C16.2366 19.1865 15.0018 20.0355 13.3466 20.3075L13.9839 19.6277L13.986 19.584L13.9467 19.594ZM15.3868 10.8783L15.4216 10.9151L15.4192 10.9127L15.4889 11.0159L15.5586 11.119L15.6283 11.2222C15.6376 11.2629 15.6514 11.3024 15.6694 11.3402C16.0415 11.9621 16.2865 12.65 16.3907 13.3649C16.4056 13.4605 16.4335 13.5833 16.5011 13.6373C16.8147 13.8883 16.8802 14.2067 16.8147 14.5747C16.7974 14.6589 16.7879 14.7446 16.7865 14.8305C16.7907 15.083 16.6802 15.2535 16.4426 15.3505C16.29 15.4131 16.2164 15.5331 16.1575 15.6903C16.0364 16.0227 15.8919 16.3464 15.7251 16.659C15.423 17.2109 15.0056 17.6758 14.5226 18.084L14.5554 18.1294L14.9735 17.8574C15.0059 17.849 15.0371 17.8369 15.0666 17.8213C16.3674 16.9244 17.1702 15.7078 17.475 14.1713C17.4994 13.9843 17.536 13.7982 17.5465 13.6105C17.6541 11.6273 16.9363 9.99971 15.3725 8.74626C14.7982 8.2799 14.1259 7.94547 13.4045 7.76723C13.2323 7.72494 13.0623 7.67301 12.8881 7.64206C12.4734 7.56882 12.47 7.57329 12.2368 7.92026C12.2251 7.94011 12.2175 7.96209 12.2145 7.98489C12.2115 8.00769 12.2132 8.03085 12.2194 8.053C12.2818 8.21634 12.3553 8.3759 12.425 8.53684C12.5295 8.80851 12.6111 9.09152 12.7442 9.34874C12.9428 9.73183 12.9327 10.0898 12.7442 10.4708C12.6644 10.6311 12.5801 10.7246 12.3985 10.7026C12.2295 10.682 12.1476 10.7514 12.08 10.9089C11.8013 11.5623 11.9549 11.411 11.3023 11.6025C11.2813 11.612 11.2595 11.6196 11.2372 11.6252C11.0901 11.6393 11.0173 11.7329 10.9685 11.8584C10.8507 12.1624 10.7291 12.4646 10.611 12.7683C10.5277 12.9832 10.4479 13.1992 10.3598 13.433L10.4765 13.4162C10.6096 13.4224 10.7479 13.4083 10.8741 13.4402C11.0253 13.4788 11.0859 13.4224 11.1553 13.3027C11.3473 12.9698 11.5605 12.6493 11.7556 12.3178C11.9299 12.0214 12.1567 11.8364 12.5281 11.9082C12.5454 11.9106 12.5628 11.9106 12.5801 11.9082C13.2543 11.8491 13.7721 11.5551 14.0613 10.9313C14.2704 10.4808 14.3401 10.0059 14.215 9.5255C14.1418 9.24558 14.0021 8.98251 13.892 8.71188C13.8822 8.68058 13.8721 8.64963 13.8456 8.56779L14.3101 8.88038C14.3913 8.9746 14.4728 9.06848 14.554 9.16305C14.931 9.60184 15.131 10.1208 15.2561 10.6737L15.3167 10.8154L15.3516 10.845L15.3868 10.8783ZM9.84372 5.19501C8.65273 5.61695 8.31404 6.65891 9.00745 7.56297C9.00745 7.50073 9.00919 7.4378 9.00745 7.37555C8.98271 6.53477 9.17192 5.77513 9.85208 5.20119L9.86567 5.17368L9.84372 5.19501ZM10.0239 7.0922C10.6019 6.64515 11.0692 6.09494 11.5065 5.47424L11.7326 5.99178C13.1121 5.49109 14.5118 5.56674 15.9213 5.77582C15.8785 5.73591 15.8285 5.70419 15.7739 5.68228C14.7328 5.23524 13.6508 5.03888 12.5163 5.17025C11.7441 5.26 11.0793 5.56605 10.5612 6.14756C10.3173 6.42266 10.1033 6.72218 10.0239 7.0922C10.0152 7.10389 10.0068 7.11592 9.99913 7.12693C10.0029 7.13055 10.007 7.13389 10.0113 7.1369L10.0239 7.0922ZM17.766 11.3481L17.7095 11.3305L17.7416 11.3745C17.7503 11.4078 17.7609 11.4405 17.7733 11.4726C18.0958 12.1834 18.3057 12.9389 18.3956 13.7126C18.5524 14.9519 18.372 16.21 17.8729 17.3577C17.8221 17.476 17.7684 17.594 17.7005 17.7525C19.488 16.1947 19.7615 13.2631 17.766 11.3481ZM14.5331 17.9045C15.2843 17.2776 15.7812 16.4874 16.0896 15.5706C16.1272 15.4578 16.2199 15.3257 16.3227 15.2783C16.5743 15.1624 16.7032 14.9994 16.6882 14.7233C16.6876 14.6374 16.6964 14.5517 16.7144 14.4678C16.7604 14.1865 16.6875 13.9612 16.4513 13.7745C16.3583 13.7009 16.2879 13.5578 16.2722 13.4378C16.1792 12.7208 15.9354 12.0309 15.5565 11.4124C15.4913 11.3054 15.4143 11.206 15.3495 11.1132C15.3147 11.5946 15.2798 12.0664 15.2492 12.5396C15.2404 12.6772 15.2039 12.8402 15.2603 12.9523C15.7878 14.008 15.8039 15.0867 15.4467 16.1885C15.2446 16.8113 14.9153 17.3667 14.5087 17.8797L14.4948 17.9117L14.5331 17.9045ZM10.3044 14.2907L10.0385 14.3388C10.3392 14.3959 10.488 14.498 10.543 14.7112C10.6051 14.9519 10.4538 15.0785 10.2859 15.205C10.158 15.3017 10.042 15.4138 9.92038 15.519L9.27053 16.2068L9.30537 16.2511C9.41478 16.2511 9.52454 16.2449 9.63326 16.2511C9.83187 16.2649 9.98623 16.2002 10.1277 16.0561C10.3253 15.8553 10.5458 15.6748 10.7566 15.4887C11.1748 15.1239 11.219 14.6748 10.8685 14.247C10.5821 13.8976 10.2354 13.6968 9.75974 13.8553C9.69093 13.8733 9.62113 13.8873 9.55068 13.8973C9.69702 13.6878 9.87647 13.5719 10.0821 13.4863C10.1322 13.4657 10.2019 13.4378 10.2176 13.3966C10.3016 13.1785 10.3713 12.955 10.4458 12.7336C10.5263 12.5389 10.6047 12.3436 10.6877 12.149C10.9925 11.4402 10.8253 11.5761 11.5588 11.3759C11.5874 11.3724 11.6152 11.3637 11.6407 11.3501C11.6964 11.3068 11.7699 11.2673 11.7964 11.2085C11.9908 10.7762 12.1776 10.3408 12.3605 9.90377C12.3872 9.84272 12.3918 9.77447 12.3734 9.71051C12.2466 9.37419 12.1086 9.042 11.9745 8.70809C11.9264 8.58945 11.8779 8.47081 11.8208 8.32982C11.4689 8.59083 11.0821 8.67611 10.687 8.73595L10.381 8.70637C11.7633 7.91545 11.9239 6.87624 11.4654 5.83325C11.2354 6.16372 11.0166 6.49384 10.7842 6.81365C10.3626 7.39378 9.93641 7.97219 9.50224 8.54372C9.33255 8.76724 9.19352 8.76655 9.00397 8.57811C8.97783 8.55197 8.96494 8.51277 8.92382 8.44055C8.70709 9.03547 8.51336 9.56676 8.31997 10.0981C8.15446 10.5534 8.22136 10.9829 8.45203 11.4021C8.53962 11.5561 8.60462 11.7217 8.64507 11.8938C8.67614 12.0259 8.67662 12.1632 8.64645 12.2955C8.61628 12.4278 8.55626 12.5517 8.47084 12.6579C8.44018 12.3247 8.27746 12.0905 8.08372 11.8343C8.02902 12.2755 7.97919 12.6782 7.92936 13.0809C7.85166 13.7167 7.79835 14.3615 7.40913 14.9083C7.19066 15.2154 7.20738 15.5077 7.33073 15.8539C7.4729 16.2522 7.6858 16.4843 8.12658 16.5341C8.37049 16.5623 8.55691 16.5242 8.71406 16.3429C8.82208 16.2494 8.92766 16.1531 9.03846 16.0627C9.33638 15.8192 9.44614 15.496 9.46635 15.1273C9.4747 14.9568 9.49801 14.7873 9.53604 14.6208C9.60503 14.3336 10.0277 14.1583 10.3044 14.2907ZM12.6497 7.075C16.3119 7.35011 18.643 9.31573 20.0333 12.5695C20.0194 12.3904 20.0075 12.2284 19.9943 12.0664C19.9072 11.01 19.5929 10.0258 19.0138 9.13107C18.4737 8.29681 17.8012 7.60045 16.8767 7.17094C15.9938 6.76035 15.0666 6.65237 14.1111 6.79543C13.6209 6.86867 13.1365 6.98044 12.6497 7.075ZM5.83277 8.18952L5.82266 8.21738C6.36368 8.54246 6.90586 8.86742 7.4492 9.19228C7.54969 9.26007 7.65686 9.31767 7.76908 9.36422C7.83877 9.38898 7.98442 9.39104 7.998 9.36078C8.03773 9.27206 8.06107 9.14929 8.02797 9.06401C7.9987 8.98801 7.89312 8.92267 7.80671 8.89001C7.20216 8.66201 6.59412 8.44296 5.98643 8.22322C5.93616 8.20813 5.88478 8.19686 5.83277 8.18952ZM7.35756 6.46702C7.23177 6.93848 7.18787 7.37074 7.34606 7.80094C7.42205 8.00532 7.56372 8.17956 7.74945 8.29704C7.93518 8.41452 8.15476 8.46878 8.37467 8.45156C7.70984 7.96187 7.48579 7.26001 7.35756 6.46702ZM9.70399 15.3598C9.87822 15.2222 10.0375 15.1146 10.1737 14.9815C10.2319 14.9248 10.2915 14.7797 10.2622 14.7432C10.1907 14.662 10.0915 14.6095 9.98345 14.5957C9.92421 14.5888 9.81097 14.6782 9.79494 14.7418C9.7465 14.9361 9.73605 15.139 9.70399 15.3598ZM17.7067 17.7759C17.7099 17.7728 17.7151 17.7697 17.7154 17.7663C17.7158 17.7628 17.7106 17.7594 17.7081 17.7556C17.705 17.759 17.6994 17.7621 17.6994 17.7652C17.6994 17.7683 17.7043 17.7725 17.7067 17.7759Z" fill="#1D3250"/>
<path d="M12.6509 7.07482C13.1387 6.98025 13.622 6.86849 14.1123 6.79524C15.0684 6.65219 15.9939 6.76085 16.8779 7.17042C17.8023 7.60027 18.4748 8.29663 19.0149 9.13054C19.594 10.0246 19.9083 11.0095 19.9954 12.0659C20.0087 12.2279 20.0205 12.3898 20.0344 12.569C18.6438 9.31554 16.313 7.34889 12.6509 7.07482Z" fill="#D52122"/>
<path d="M14.3086 8.87988C14.3413 8.88607 14.3804 8.88263 14.4062 8.89948C15.7229 9.74234 16.7756 10.8042 17.2634 12.319C17.4429 12.8775 17.5293 13.4538 17.4523 14.0419C17.4467 14.0838 17.4655 14.1285 17.4732 14.1719C17.1686 15.7083 16.3659 16.9246 15.0651 17.8208C15.0356 17.8367 15.0044 17.849 14.972 17.8576C14.9943 17.8084 15.0219 17.7617 15.0543 17.7183C15.586 17.1468 16.0083 16.5085 16.2487 15.7661C16.3094 15.5787 16.3933 15.4325 16.5759 15.3534C16.7996 15.2568 16.8923 15.0873 16.893 14.8517C16.8886 14.7089 16.901 14.566 16.9299 14.426C17.0042 14.122 16.8725 13.9153 16.6592 13.7159C16.563 13.6202 16.5 13.4969 16.4791 13.3637C16.383 12.6769 16.1512 12.0154 15.7968 11.4167C15.7539 11.3434 15.6839 11.2864 15.6264 11.2217L15.5567 11.1185L15.487 11.0154L15.4173 10.9122L15.4198 10.9146L15.3849 10.8778L15.3501 10.8434L15.3208 10.7647C15.2989 10.7337 15.2766 10.7028 15.2543 10.6722C15.1292 10.1192 14.9292 9.60031 14.5522 9.16152C14.4727 9.06627 14.3898 8.97239 14.3086 8.87988Z" fill="#94A6C2"/>
<path d="M8.71485 16.3426L7.82666 16.1538C7.95315 16.0654 8.05768 15.9891 8.1657 15.9179C8.54062 15.6703 8.57686 15.3102 8.50892 14.9165C8.45665 14.6135 8.39985 14.3113 8.34515 14.009L8.35804 13.9976L8.73471 14.4791C8.87234 14.1854 9.00719 13.8649 9.17201 13.5606C9.24459 13.4269 9.35123 13.3142 9.48143 13.2335C9.79259 13.0509 10.1222 12.8983 10.4442 12.7339C10.3696 12.9553 10.2999 13.1789 10.2159 13.3969C10.2003 13.4382 10.1306 13.4657 10.0804 13.4866C9.87482 13.5723 9.69711 13.6882 9.54903 13.8976C9.61948 13.8876 9.68928 13.8736 9.75809 13.8556C10.2337 13.6957 10.5804 13.8979 10.8668 14.2473C11.2174 14.6751 11.1717 15.1242 10.755 15.4891C10.5424 15.6751 10.3236 15.8556 10.1261 16.0565C9.98458 16.2006 9.83022 16.2652 9.63161 16.2514C9.52289 16.2439 9.41313 16.2514 9.30372 16.2514L9.26888 16.2071L9.91873 15.5193C9.93232 15.5259 9.95148 15.5413 9.95845 15.5372C10.1508 15.4227 10.3466 15.3127 10.532 15.1875C10.6832 15.0843 10.732 14.9337 10.7083 14.7528C10.6759 14.5069 10.5177 14.3766 10.3027 14.291C10.026 14.1586 9.60338 14.334 9.53613 14.6201C9.4981 14.7866 9.47479 14.9561 9.46644 15.1266C9.44623 15.4953 9.33647 15.8185 9.03855 16.062C8.92844 16.1521 8.82287 16.2484 8.71485 16.3426Z" fill="#93A5C2"/>
<path d="M14.5098 17.8798C14.9164 17.3668 15.2457 16.8114 15.4478 16.1886C15.8049 15.0882 15.7889 14.0081 15.2614 12.9524C15.2049 12.8399 15.2415 12.6773 15.2502 12.5397C15.2798 12.0665 15.3164 11.5937 15.3506 11.1133C15.4154 11.2058 15.4924 11.3055 15.5575 11.4125C15.9365 12.031 16.1803 12.7209 16.2733 13.4379C16.2889 13.5579 16.3593 13.701 16.4524 13.7746C16.6886 13.9613 16.7614 14.1872 16.7154 14.4678C16.6974 14.5518 16.6887 14.6375 16.6893 14.7233C16.7043 14.9984 16.5754 15.1625 16.3238 15.2784C16.221 15.3258 16.1283 15.4579 16.0907 15.5707C15.7823 16.4875 15.2854 17.2777 14.5342 17.9046C14.5258 17.896 14.5178 17.8877 14.5098 17.8798Z" fill="#92A4C1"/>
<path d="M17.7677 11.3481C19.7633 13.2632 19.4897 16.1948 17.7036 17.7512C17.7733 17.5927 17.8252 17.4761 17.8761 17.3564C18.3751 16.2087 18.5555 14.9506 18.3988 13.7113C18.3088 12.9376 18.099 12.1821 17.7764 11.4713C17.764 11.4392 17.7535 11.4065 17.7447 11.3732L17.7677 11.3481Z" fill="#D42123"/>
<path d="M10.4751 13.4151C10.6636 12.954 10.8546 12.4935 11.0392 12.031C11.0593 11.9751 11.092 11.9244 11.1348 11.8827C11.1776 11.841 11.2294 11.8094 11.2863 11.7903C11.6347 11.6548 11.9905 11.587 12.3626 11.541C13.1257 11.4467 13.7327 10.836 13.9275 10.0482C14.039 9.59596 13.9825 9.15201 13.8906 8.70703C14.0007 8.97767 14.1404 9.24073 14.2136 9.52065C14.3394 10.0021 14.269 10.476 14.0599 10.9264C13.7707 11.5502 13.2529 11.8443 12.5787 11.9034C12.5614 11.9058 12.544 11.9058 12.5267 11.9034C12.1553 11.8315 11.9288 12.0165 11.7542 12.313C11.5591 12.6441 11.3459 12.9663 11.1539 13.2978C11.0842 13.4182 11.0239 13.4746 10.8727 13.4354C10.7465 13.4072 10.6072 13.4213 10.4751 13.4151Z" fill="#93A5C2"/>
<path d="M10.0234 7.09254C10.1029 6.72253 10.3154 6.42301 10.5607 6.14756C11.0789 5.56605 11.7455 5.26 12.5159 5.17025C13.6504 5.0382 14.7323 5.23558 15.7735 5.68263C15.8282 5.70526 15.8782 5.7378 15.9209 5.77857C14.5114 5.56949 13.1117 5.49384 11.7322 5.99453L11.5061 5.47493C11.0691 6.09391 10.6001 6.64412 10.0234 7.09289V7.09254Z" fill="#D32123"/>
<path d="M15.6278 11.2222C15.6853 11.2868 15.7553 11.3439 15.7982 11.4171C16.1522 12.0158 16.3836 12.6772 16.4794 13.3639C16.5003 13.497 16.5634 13.6203 16.6595 13.716C16.8728 13.9154 17.0045 14.1221 16.9303 14.4261C16.9014 14.5661 16.889 14.709 16.8933 14.8518C16.8933 15.0874 16.8 15.2569 16.5763 15.3536C16.3937 15.4323 16.3097 15.5784 16.2491 15.7662C16.0086 16.5086 15.587 17.1469 15.0546 17.7184C15.0222 17.7618 14.9946 17.8085 14.9724 17.8577L14.5542 18.1297L14.5215 18.0843C15.0044 17.6761 15.4219 17.2112 15.724 16.6593C15.8921 16.3463 16.0378 16.0222 16.1602 15.6892C16.2191 15.532 16.2926 15.412 16.4452 15.3494C16.6829 15.2525 16.7937 15.0819 16.7892 14.8295C16.7906 14.7435 16.8 14.6579 16.8174 14.5736C16.8815 14.2057 16.8156 13.8859 16.5038 13.6362C16.4362 13.5822 16.4083 13.4595 16.3933 13.3639C16.2887 12.6488 16.043 11.9609 15.6703 11.3391C15.6519 11.3017 15.6376 11.2625 15.6278 11.2222Z" fill="#E9EBEF"/>
<path d="M9.85279 5.20053C9.17263 5.77446 8.98342 6.5341 9.00816 7.37489C9.0099 7.43713 9.00816 7.50006 9.00816 7.5623C8.3158 6.65824 8.65449 5.61628 9.84443 5.19434L9.85279 5.20053Z" fill="#D12123"/>
<path d="M5.83404 8.18945C5.88625 8.1962 5.93786 8.20689 5.98841 8.22143C6.59609 8.44117 7.20413 8.66023 7.80868 8.88822C7.8951 8.92261 8.00068 8.98622 8.02995 9.06222C8.06305 9.1475 8.0397 9.27027 7.99998 9.35899C7.98639 9.38925 7.84179 9.38719 7.77105 9.36243C7.65884 9.31589 7.55167 9.25828 7.45118 9.19049C6.90737 8.8677 6.36473 8.54331 5.82324 8.21731L5.83404 8.18945Z" fill="#F6F7F8"/>
<path d="M13.4024 7.7663C13.1473 8.11018 12.8062 8.3509 12.4229 8.53591C12.3532 8.37497 12.2797 8.21541 12.2173 8.05206C12.2111 8.02991 12.2094 8.00675 12.2124 7.98395C12.2154 7.96115 12.223 7.93918 12.2347 7.91933C12.4692 7.57097 12.4713 7.56788 12.886 7.64113C13.0602 7.67208 13.2302 7.724 13.4024 7.7663Z" fill="#93A4C1"/>
<path d="M7.35836 6.4668C7.48659 7.25979 7.71133 7.96165 8.37547 8.45133C8.15556 8.46856 7.93598 8.41429 7.75025 8.29681C7.56452 8.17933 7.42285 8.0051 7.34686 7.80071C7.18867 7.37052 7.23257 6.93826 7.35836 6.4668Z" fill="#D02124"/>
<path d="M9.70508 15.3596C9.73539 15.1382 9.74829 14.936 9.79707 14.7427C9.8131 14.6791 9.92634 14.5897 9.98558 14.5966C10.0937 14.6104 10.1928 14.6629 10.2643 14.7441C10.2936 14.7805 10.234 14.9257 10.1758 14.9824C10.0385 15.1145 9.87895 15.2231 9.70508 15.3596Z" fill="#F4F5F6"/>
<path d="M11.974 8.7082C11.6008 8.77251 11.2284 8.84197 10.8475 8.77492C10.7931 8.76529 10.7402 8.74878 10.6865 8.73571C11.0817 8.67588 11.4684 8.5906 11.8204 8.32959C11.8775 8.47196 11.9259 8.5906 11.974 8.7082Z" fill="#91A3BF"/>
<path d="M10.3044 14.2905C10.5194 14.3762 10.6776 14.5065 10.71 14.7524C10.7337 14.9332 10.6849 15.0852 10.5337 15.187C10.3483 15.3122 10.1525 15.4222 9.96013 15.5367C9.95316 15.5409 9.934 15.5254 9.92041 15.5189C10.042 15.4136 10.1581 15.3015 10.2859 15.2049C10.4539 15.0784 10.6051 14.9508 10.5431 14.7111C10.488 14.4979 10.3392 14.3958 10.0385 14.3387L10.3044 14.2905Z" fill="#EEF0F3"/>
<path d="M15.2563 10.6724C15.2786 10.703 15.3009 10.7339 15.3229 10.7649C15.3212 10.7814 15.3191 10.7993 15.317 10.814L15.2563 10.6724Z" fill="#E5E8ED"/>
<path d="M15.4878 11.0151L15.5575 11.1183L15.4878 11.0151Z" fill="#E9EBEF"/>
<path d="M15.5581 11.1182L15.6278 11.2213L15.5581 11.1182Z" fill="#E9EBEF"/>
<path d="M15.4165 10.9111L15.4862 11.0143L15.4165 10.9111Z" fill="#E9EBEF"/>
<path d="M17.744 11.3741C17.7332 11.3593 17.7224 11.3449 17.7119 11.3301L17.7684 11.3476L17.744 11.3741Z" fill="#D42123"/>
<path d="M10.0238 7.09229L10.0112 7.13768C10.0069 7.13466 10.0028 7.13133 9.99902 7.1277C10.0067 7.11567 10.0151 7.10398 10.0238 7.09332V7.09229Z" fill="#D32123"/>
<path d="M15.3184 10.8138C15.3205 10.7973 15.3225 10.7812 15.3243 10.7646L15.3536 10.8434L15.3184 10.8138Z" fill="#E9EBEF"/>
<path d="M15.3857 10.877L15.4206 10.9138L15.3857 10.877Z" fill="#E9EBEF"/>
<path d="M15.3501 10.8428L15.3849 10.8772L15.3501 10.8428Z" fill="#E9EBEF"/>
<path d="M6.90029 8.04346L6.91179 8.07785L6.87207 8.07269L6.90029 8.04346Z" fill="#FEFEFE"/>
<path d="M9.84229 5.19515L9.86284 5.17383L9.84925 5.20134L9.84229 5.19515Z" fill="#D12123"/>
<path d="M17.7066 17.7761C17.7041 17.7727 17.6989 17.7689 17.6992 17.7655C17.6996 17.762 17.7048 17.7593 17.7079 17.7559C17.7104 17.7596 17.7156 17.7631 17.7153 17.7665C17.7149 17.77 17.7097 17.7731 17.7066 17.7761Z" fill="#D42123"/>
<path d="M14.532 17.9043L14.4937 17.9119L14.5076 17.8799C14.516 17.8878 14.524 17.896 14.532 17.9043Z" fill="#92A4C1"/>
<path d="M13.9473 19.5937L13.9866 19.582L13.9846 19.6257L13.9473 19.5937Z" fill="#FEFEFE"/>
<path d="M10.4918 9.17939C10.4155 9.39879 10.3389 9.61818 10.258 9.84996C10.5061 9.93937 10.6887 10.0907 10.7291 10.3623C10.7598 10.5711 10.7009 10.7489 10.5434 10.8902C10.2269 11.1689 9.86682 11.3953 9.47715 11.5608C9.3862 11.6032 9.30079 11.6563 9.22279 11.719C9.10292 11.8111 8.92731 11.7802 8.81441 11.6285C8.66876 11.4328 8.68688 11.2079 8.70988 10.9841C8.71856 10.9365 8.7302 10.8896 8.74472 10.8434L8.95379 11.2502L9.02905 11.2592L10.4556 9.16357L10.4918 9.17939ZM9.42872 11.3015C9.74355 11.193 10.0265 11.0099 10.2528 10.7681C10.4702 10.5346 10.4148 10.2894 10.1092 10.1529C9.88321 10.5353 9.65637 10.9182 9.42872 11.3015Z" fill="#223752"/>
<path d="M10.4038 7.99342L11.3178 6.6626C11.4697 7.28743 11.0355 7.92464 10.4038 7.99342Z" fill="#233855"/>
<path d="M8.06488 14.5464L8.01854 14.9845C8.23039 15.0725 8.27883 15.2149 8.16071 15.4257C8.14317 15.4552 8.12324 15.4833 8.10112 15.5096C7.96767 15.6733 7.80982 15.7338 7.7032 15.6626C7.58229 15.5825 7.56905 15.4143 7.67323 15.2314C7.80355 15.0034 7.93631 14.7771 8.06802 14.5502L8.06488 14.5464Z" fill="#223754"/>
<path d="M8.34716 14.0083L8.3374 13.957C8.34507 13.9704 8.35239 13.9839 8.36005 13.9969L8.34716 14.0083Z" fill="#93A5C2"/>
<path d="M8.06954 14.55C8.07581 14.5407 8.08174 14.5314 8.08836 14.5225L8.09637 14.5269L8.06641 14.5462L8.06954 14.55Z" fill="#223754"/>
<path d="M9.4292 11.3017C9.65685 10.9187 9.88369 10.5357 10.1097 10.1528C10.4153 10.2904 10.4707 10.5345 10.2533 10.768C10.0271 11.0099 9.74406 11.1932 9.4292 11.3017Z" fill="#F7D324"/>
</svg>
