<svg width="18" height="11" viewBox="0 0 18 11" fill="none" xmlns="http://www.w3.org/2000/svg">
<path d="M16.8839 2.88388C17.372 2.39573 17.372 1.60427 16.8839 1.11612C16.3957 0.627961 15.6043 0.627961 15.1161 1.11612L16.8839 2.88388ZM9 9L8.11612 9.88388C8.60427 10.372 9.39573 10.372 9.88388 9.88388L9 9ZM2.88388 1.11612C2.39573 0.627962 1.60427 0.627962 1.11612 1.11612C0.627962 1.60427 0.627962 2.39573 1.11612 2.88388L2.88388 1.11612ZM15.1161 1.11612L8.11612 8.11612L9.88388 9.88388L16.8839 2.88388L15.1161 1.11612ZM9.88388 8.11612L2.88388 1.11612L1.11612 2.88388L8.11612 9.88388L9.88388 8.11612Z" fill="#666666"/>
</svg>
