<?xml version="1.0" encoding="UTF-8"?>
<svg xmlns="http://www.w3.org/2000/svg" width="320" height="102" viewBox="0 0 320 102" fill="none">
  <g clip-path="url(#clip0_54_2)">
    <path d="M51.9417 57.5348C51.9417 57.5348 52.902 58.9112 53.2265 59.367C54.4356 61.0567 57.4203 61.197 55.6197 58.2462C53.0592 54.0513 48.4424 47.4655 44.3075 41.7822C44.1016 41.4995 43.7103 41.4384 43.4242 41.6397L41.9855 42.2279C41.6949 42.4314 41.6247 42.8318 41.8283 43.1213L46.6023 49.9266L42.5601 54.5275C42.1631 54.9788 42.2151 55.6675 42.6743 56.0555C43.1222 56.4332 43.785 56.3778 44.1752 55.9412C45.6183 54.3273 46.9936 53.0414 48.2332 52.2474C48.6347 51.9907 49.449 53.1827 48.4978 54.1339L25.8597 86.0541C25.0239 87.2326 23.6509 87.9112 22.2077 87.8603L12.6417 86.4862C12.1418 86.4681 11.6419 86.5371 11.1647 86.6897C11.1647 86.6897 6.40427 88.2245 5.86478 89.8486C5.8105 90.0126 6.10342 90.3519 6.26629 90.4096C8.01482 91.0294 9.97145 89.5885 11.1454 89.3012C12.1 89.0671 13.0975 89.4109 13.568 90.2739C13.568 90.2739 16.9803 94.3195 17.4677 96.6437C17.5865 97.208 17.2528 97.7238 16.6952 97.8697C14.0645 98.5607 12.0943 94.6486 10.0348 94.0571C7.45158 93.314 4.81974 94.2731 3.68422 93.409C3.28723 93.1093 2.87442 92.9996 3.34718 92.4601C3.9319 91.7928 4.66479 91.915 5.23821 90.7172C5.3072 90.5736 5.15678 90.1902 5.01314 90.1201C4.36282 89.8045 4.40692 89.2085 4.40692 89.2085C4.4499 88.98 4.51663 88.7425 4.62973 88.5061C6.2629 85.0645 8.85176 81.8728 10.3447 79.7714C10.6953 79.2783 9.5756 78.2072 9.087 77.851C8.59049 77.4891 7.8938 77.5988 7.53753 78.0998C6.01181 80.2453 2.20034 85.7329 0.484616 89.3476C-0.225652 90.8405 -0.147613 92.6773 0.668969 93.7155C1.10214 94.2641 2.00355 95.4064 3.6288 96.6267L3.83351 96.7794C5.07761 97.717 6.95733 99.133 9.69322 99.9055C11.1737 100.325 13.4572 100.739 15.2464 100.914C16.4611 101.034 17.4247 101.044 18.1146 100.947L18.2311 100.929C19.1031 100.781 19.9005 100.037 20.4151 99.4384L20.4513 99.3965L49.8211 57.5348C50.338 56.7997 51.426 56.7997 51.9417 57.5348Z" fill="url(#paint0_linear_54_2)"></path>
    <path d="M99.5155 86.8318C97.3451 82.2558 95.998 80.4122 92.4015 75.4833L91.8133 74.6781C88.6432 70.3294 79.9209 59.1958 68.2637 45.0244C66.9155 43.3844 65.4565 41.6269 63.8754 39.7573C63.371 39.1601 63.3246 38.2915 63.7725 37.6525L66.3772 33.9406C66.3772 33.9406 66.5411 33.3366 66.5762 33.1523C66.6113 32.9657 66.6294 32.5879 66.6294 32.5879C66.6294 32.5879 66.5355 32.2101 66.3738 31.6141C66.1905 30.9265 65.9361 30.4254 65.6228 30.1291L64.6569 29.1734C64.9023 28.6961 65.1998 28.2041 65.5425 27.7065C67.541 24.7942 74.8099 15.7405 77.0527 12.9571C77.2574 12.7038 77.4971 12.5002 77.7799 12.3385C78.2074 12.093 78.7005 11.7108 79.1326 11.1226C79.3 10.8953 79.4572 10.7064 79.6381 10.4904C80.0148 10.0369 80.4027 9.56752 80.7974 8.81654C81.3516 7.75905 81.2306 6.37245 80.4898 5.28216C79.6856 4.09122 78.0581 3.12422 76.8027 2.69557C76.192 2.48746 75.4285 2.49199 75.0587 2.54401C74.4932 2.62431 74.034 2.81093 73.697 3.09933C73.0263 3.65918 71.6046 5.28895 71.1002 5.97547C70.8706 6.28762 70.6919 6.65972 70.5664 7.08611C70.4465 7.4944 70.2305 7.86084 69.9658 8.19449C64.9453 14.5575 57.103 24.2637 55.8871 25.1414C55.8871 25.1414 55.7966 25.2217 55.7593 25.233C55.4257 25.3303 55.1701 25.2217 55.1067 25.2262C54.7177 25.224 54.1691 25.3518 53.641 25.5689C53.5663 25.5995 53.3559 25.6526 53.0585 25.7193C52.2227 25.906 51.3473 25.6322 50.7648 25.0045C50.4877 24.706 50.2072 24.4051 49.92 24.0986C49.92 24.0986 49.6576 23.7548 49.5332 23.6881C49.4088 23.6213 48.9767 23.5953 48.9767 23.5953C47.7473 23.3906 46.5598 23.1361 46.3584 23.0536C45.8303 22.8375 45.2817 22.7097 44.8915 22.712C44.8282 22.7052 44.5726 22.8161 44.2401 22.7188C44.2016 22.7075 44.1123 22.6261 44.1123 22.6261C42.8738 21.7314 34.7566 11.6746 29.7531 5.32401C29.6174 5.1521 29.5337 4.95304 29.4794 4.74042C29.3527 4.24278 29.1582 3.81413 28.8992 3.46239C28.3948 2.77587 26.972 1.1461 26.3013 0.585121C25.9642 0.298978 25.5062 0.111231 24.9396 0.0297994C24.5709 -0.0222266 23.8074 -0.0256193 23.1967 0.182485C21.9401 0.611134 20.3138 1.57814 19.5096 2.76908C18.7688 3.85824 18.6489 5.24597 19.202 6.30346C19.5956 7.05331 19.9858 7.52268 20.3613 7.97621C20.5422 8.19223 20.6994 8.38224 20.8668 8.60844C21.3407 9.25537 21.8915 9.65348 22.345 9.89438C22.5452 10.0007 22.7115 10.1534 22.854 10.3298C24.9837 12.9696 32.429 22.2392 34.4569 25.1912C34.7996 25.6888 35.4262 26.1276 35.3425 26.6581C35.2893 26.994 34.3766 27.6149 34.3766 27.6149C34.0622 27.9112 33.8077 28.4122 33.6245 29.0999C33.4628 29.6959 33.37 30.0737 33.37 30.0737C33.37 30.0737 33.1574 30.6245 33.1925 30.8111C33.2275 30.9955 33.6223 31.4275 33.6223 31.4275L37.9845 37.6457C38.541 38.4386 38.4833 39.5108 37.8533 40.2459C35.5868 42.8924 33.5578 45.3252 31.7369 47.5397C24.8808 55.8741 19.0414 63.1577 14.7481 68.6284C14.4111 69.0581 14.445 69.6632 14.8205 70.0613C15.2842 70.5522 16.5713 71.1482 16.9886 70.6166C21.2695 65.163 27.0975 57.894 33.9446 49.5721C35.9431 47.1405 38.1689 44.6127 40.5327 41.7682C40.7623 41.4923 40.7159 41.956 41.0665 42.034C41.468 42.1245 43.5083 40.9347 43.2753 40.5954C39.0092 34.4009 37.5129 32.6806 37.5129 32.6806C36.9022 31.8188 36.6149 30.1664 37.3478 29.4053C37.4428 29.3069 38.0501 28.9416 38.1395 28.8499C38.6552 28.3195 39.2603 27.8762 39.9219 27.5436C43.4416 25.7725 42.936 26.3878 44.4346 26.666C44.5025 26.6784 44.6744 26.7225 44.982 26.8492C45.3552 27.0008 46.2374 27.1874 46.9669 27.3265C47.5777 27.443 48.3388 27.8479 48.6431 28.1759C48.9077 28.462 49.1102 28.4778 49.368 28.7572C49.4404 28.8352 54.5175 34.2889 58.8526 39.2744C61.912 42.7918 64.511 46.1509 65.1229 46.8951C76.7473 61.0269 85.4379 72.1209 88.5957 76.4481L89.1804 77.25C92.6899 82.0567 95.6825 86.9562 95.4948 86.8182C92.6424 84.7281 86.1674 85.0505 84.7186 85.1014L76.6489 85.107C75.6095 85.1432 74.6221 84.6558 74.0204 83.8075C74.0204 83.8075 64.0439 68.8568 59.7144 63.635C58.6818 62.3898 56.2377 62.8942 56.9265 64.3781C57.0939 64.7388 57.8177 65.9094 58.0462 66.2352L79.5476 96.8807L79.5838 96.9237C80.1007 97.522 80.8969 98.2651 81.7678 98.4144L81.8843 98.4313C82.5753 98.5297 83.5401 98.5184 84.7536 98.3997C86.5429 98.2255 88.8264 97.8104 90.3069 97.3908C93.0427 96.6172 94.9225 95.2012 96.1666 94.2647L96.3713 94.1109C97.9977 92.8906 98.8979 91.7483 99.3311 91.1997C100.149 90.1615 100.226 88.3247 99.5155 86.8318ZM40.2691 23.7616C40.2454 23.7695 40.2228 23.7774 40.199 23.7853C39.8382 23.9109 39.4367 23.8226 39.1755 23.5433L25.3433 8.75433C25.1149 8.51004 24.978 8.18997 24.9882 7.85519C25.0063 7.20939 24.8152 6.14851 23.2917 6.44709C21.7999 6.74002 21.6257 5.34776 21.6879 4.33778C21.7207 3.79829 22.0001 3.29952 22.4525 3.0032C22.9275 2.69104 23.4591 2.42752 23.9103 2.27257C24.253 2.15608 24.8491 2.25787 24.8988 2.28728C25.3727 2.68652 26.653 4.13194 27.1201 4.76756C27.3316 5.05596 27.4108 5.60563 27.4232 5.77528C27.4232 5.77528 27.4176 5.90421 27.4334 5.9438C27.4481 5.98338 27.5375 6.07613 27.5375 6.07613C28.0023 6.66877 36.7585 17.9392 40.6797 22.2268C41.1423 22.7346 40.9195 23.5376 40.2691 23.7616ZM59.296 24.8213C62.8156 21.1501 72.4518 8.53831 72.5694 8.45801C72.6044 8.43426 72.5807 8.28949 72.5807 8.28949C72.592 8.11984 72.6723 7.57018 72.8827 7.2829C73.3498 6.64728 74.6301 5.1996 75.1039 4.80149C75.1537 4.77208 75.7509 4.67029 76.0924 4.78679C76.3051 4.85917 76.5358 4.95644 76.7688 5.07067C77.8229 5.58753 78.4902 6.7355 78.264 7.88686C78.1248 8.58921 77.7199 9.15923 76.7122 8.96131C74.5577 8.53944 75.0655 10.8331 75.0655 10.8331L61.4991 25.388C61.1406 25.7714 60.5898 25.9218 60.0922 25.7555C59.8863 25.6865 59.6873 25.6255 59.4961 25.57C59.1648 25.4739 59.0573 25.0701 59.296 24.8213ZM62.9808 33.7121C62.9808 33.7121 61.8803 36.4028 61.0445 36.4424C60.5367 36.4672 60.3806 35.6733 60.0368 35.2785L59.3073 34.5536C57.3834 32.3493 52.51 31.9036 53.5346 28.6633C53.667 28.2437 54.2178 27.8716 54.2178 27.8716C54.2426 27.8705 56.6709 27.6952 60.4971 29.757C60.8454 29.9448 61.1678 30.1924 61.4494 30.4707C61.4494 30.4707 61.584 30.6064 61.7808 30.8077C62.6641 31.7114 63.7114 32.6806 62.9808 33.7121ZM95.3545 91.2246C94.2405 92.0378 91.655 91.133 89.1193 91.8353C87.0145 92.4155 85.0059 96.3797 82.2632 95.3279C82.1275 95.2758 81.8402 95.2431 81.7961 95.0508C81.4081 93.3249 85.3191 88.8518 85.3191 88.8518C85.9729 87.7015 87.3844 87.1666 88.7178 87.4482C90.7366 87.8746 95.9404 88.3191 96.4403 90.2814C96.5511 90.7123 95.7447 90.9419 95.3545 91.2246Z" fill="url(#paint1_linear_54_2)"></path>
    <path d="M21.8009 86.0952C23.5042 86.1676 25.126 85.3624 26.0998 83.9633C26.0998 83.9633 34.2973 68.4143 41.8592 58.5633C42.2007 58.1188 42.1713 57.5013 41.7902 57.0907C41.3276 56.5931 40.537 56.6044 40.0891 57.1145L16.061 84.4643C15.5883 85.0027 15.9502 85.8487 16.665 85.8781L21.8009 86.0952Z" fill="url(#paint2_linear_54_2)"></path>
    <path d="M76.9387 84.3602L82.2001 84.1385C83.5415 84.082 84.219 82.4963 83.3334 81.4875L49.3762 42.8355C49.0392 42.451 48.4646 42.3865 48.0507 42.6862C47.613 43.0029 47.5101 43.6114 47.8177 44.0547L75.2886 83.5414C75.6618 84.0786 76.285 84.3873 76.9387 84.3602Z" fill="url(#paint3_linear_54_2)"></path>
    <path d="M46.0939 39.0974L43.1363 35.7316C42.7563 35.2995 42.0902 35.8209 42.4182 36.2937L46.0611 41.5302C46.6945 40.8471 46.708 39.7964 46.0939 39.0974Z" fill="url(#paint4_linear_54_2)"></path>
    <path d="M54.5582 72.7531C51.3654 71.6028 47.9136 71.7646 44.8395 73.2077C44.6925 73.2767 44.5545 73.3604 44.4108 73.4351C44.3464 73.4645 44.283 73.4927 44.2265 73.5334C43.6203 73.8592 43.0435 74.2245 42.5062 74.6362C42.487 74.6486 42.4723 74.6656 42.4542 74.678C41.3198 75.5557 40.3506 76.6177 39.5747 77.8245C39.5509 77.8584 39.5272 77.8889 39.5068 77.9251C39.0205 78.6976 38.6077 79.5221 38.291 80.4009C37.1396 83.5948 37.3014 87.0455 38.7457 90.1173C40.19 93.1902 42.7449 95.5156 45.9377 96.6669C46.8425 96.9927 47.7677 97.2019 48.6996 97.3184C48.7301 97.3206 48.7573 97.3387 48.7878 97.3387C48.798 97.3387 48.807 97.3342 48.8172 97.3342C49.2968 97.3896 49.7763 97.427 50.257 97.427C51.8494 97.427 53.4317 97.1046 54.9427 96.5018C55.0536 96.4769 55.1576 96.4328 55.2594 96.374C55.3917 96.3174 55.5274 96.2745 55.6575 96.2123C58.7304 94.768 61.0546 92.2131 62.206 89.0202C63.3574 85.8263 63.1956 82.3756 61.7513 79.3027C60.3059 76.2298 57.7521 73.9044 54.5582 72.7531ZM44.9786 93.7229C43.1622 92.6688 41.7066 91.0967 40.7939 89.1548C39.8563 87.162 39.5837 84.9758 39.9751 82.8518C40.0384 82.5079 40.4162 82.4717 40.5202 82.7918C41.7801 86.6723 43.5219 90.348 45.7285 93.784C45.8325 93.9446 45.3202 93.922 44.9786 93.7229ZM50.1937 95.1559C50.0658 95.1604 49.938 95.1423 49.8102 95.1446C49.2956 95.1548 49.1961 94.8449 49.0966 94.708C45.6764 89.9918 43.2289 84.7496 41.8095 79.0991C41.7756 78.9656 41.693 78.718 41.8582 78.4929C41.9566 78.3583 42.0561 78.2237 42.1635 78.0959C42.3411 77.8833 42.5017 78.1298 42.5424 78.2995C43.9675 84.2632 46.6072 89.8764 50.2909 94.7748C50.3848 94.9014 50.4832 95.1469 50.1937 95.1559ZM55.5071 93.7297C55.4494 93.7704 55.3815 93.7964 55.3216 93.8338C55.0355 94.0113 54.8522 93.8225 54.7776 93.7331C50.6166 88.6922 47.753 82.7488 46.4025 76.3677C46.3143 75.9504 46.0089 75.153 46.4218 75.0004C46.5009 74.9709 46.5767 74.9359 46.6547 74.9076C47.0676 74.7572 47.1547 75.6349 47.2417 76.0567C48.5571 82.3813 51.388 88.2591 55.5207 93.2411C55.61 93.3486 55.722 93.5759 55.5071 93.7297ZM60.0786 88.2534C59.7404 89.1899 59.2767 90.0562 58.7067 90.8389C58.1649 91.582 57.078 91.5944 56.5137 90.8683C52.925 86.2527 50.4685 80.8838 49.3624 75.1327C49.1757 74.1612 49.8973 74.2562 50.2412 74.2562C51.4366 74.2562 52.6343 74.4631 53.7914 74.8805C56.4164 75.8271 58.5167 77.7385 59.7042 80.264C60.8918 82.7907 61.0241 85.6272 60.0786 88.2534Z" fill="url(#paint5_linear_54_2)"></path>
    <path d="M138.439 32L138.416 32.0906C140.953 32.0906 143.332 32.5663 145.574 33.5404C147.817 34.5144 149.788 35.8284 151.487 37.4819L146.277 42.692C144.079 40.5174 141.474 39.43 138.462 39.43C135.403 39.43 132.798 40.5174 130.646 42.692C128.494 44.8667 127.407 47.4718 127.407 50.5072C127.407 53.5653 128.494 56.1704 130.646 58.3224C132.798 60.4745 135.403 61.5618 138.462 61.5618C141.52 61.5618 144.125 60.4745 146.299 58.2998L151.509 63.5099C149.811 65.1862 147.84 66.5001 145.597 67.4742C143.354 68.4483 140.976 68.924 138.439 68.924C133.365 68.924 129.015 67.1117 125.414 63.5099C121.813 59.9081 120 55.5588 120 50.4852C120 45.4116 121.812 41.0617 125.414 37.4373C129.016 33.8128 133.365 32 138.439 32ZM154.205 68.6978L154.182 32.1369H166.052C169.563 32.1369 173.029 33.3601 175.543 35.8746C178.058 38.3891 179.077 40.7449 179.077 44.2561V45.3888C179.077 48.1071 178.307 50.1005 176.766 52.2752C175.226 54.4498 173.935 55.0841 171.534 55.9902L179.779 68.6983H170.854L161.521 54.4268V68.6983L154.205 68.6978ZM161.499 49.715L166.732 49.7377C168.249 49.7377 169.02 49.3526 170.084 48.2879C171.149 47.2232 171.534 46 171.534 44.4822C171.534 42.9871 171.149 41.9905 170.084 40.9031C169.02 39.8158 167.117 39.4308 165.599 39.4308H161.499L161.499 49.715ZM183.177 68.6978V32.1821H190.494V68.6978H183.177ZM211.652 32L211.63 32.0906C214.167 32.0906 216.545 32.5663 218.788 33.5404C221.03 34.5144 223.001 35.8284 224.7 37.4819L219.49 42.692C217.293 40.5174 214.688 39.43 211.675 39.43C208.617 39.43 206.012 40.5174 203.86 42.692C201.708 44.8667 200.62 47.4718 200.62 50.5072C200.62 53.5653 201.708 56.1704 203.86 58.3224C206.012 60.4745 208.617 61.5618 211.675 61.5618C214.733 61.5618 217.338 60.4745 219.513 58.2998L224.723 63.5099C223.024 65.1862 221.053 66.5001 218.81 67.4742C216.568 68.4483 214.189 68.924 211.652 68.924C206.578 68.924 202.229 67.1117 198.627 63.5099C195.026 59.9081 193.213 55.5588 193.213 50.4852C193.213 45.4116 195.026 41.0617 198.627 37.4373C202.229 33.8128 206.579 32 211.652 32ZM227.418 32.1821H234.735V46.0454L242.777 32.1821H251.226L240.443 50.7345L252.971 68.6978H244.068L234.735 55.2868V68.6978H227.418L227.418 32.1821ZM264.365 32.1821H271.682H280.811V39.4763H271.682V68.6979H264.365V39.4763H255.236V32.1821H264.365ZM301.515 32C306.59 32 310.939 33.8122 314.563 37.4366C318.188 41.0611 320 45.4104 320 50.4846C320 55.5588 318.188 59.9081 314.563 63.5093C310.939 67.1106 306.59 68.9234 301.515 68.9234C296.441 68.9234 292.092 67.1111 288.491 63.5093C284.889 59.9075 283.077 55.5582 283.077 50.4846C283.077 45.411 284.889 41.0611 288.491 37.4366C292.092 33.8122 296.442 32 301.515 32ZM301.515 39.3625C298.457 39.3625 295.852 40.4498 293.7 42.6245C291.548 44.7992 290.461 47.4042 290.461 50.4397C290.461 53.4978 291.548 56.1029 293.7 58.2549C295.852 60.4069 298.457 61.4943 301.515 61.4943C304.551 61.4943 307.156 60.4069 309.331 58.2549C311.505 56.1029 312.593 53.4978 312.593 50.4397C312.593 47.4042 311.505 44.7992 309.331 42.6245C307.156 40.4498 304.551 39.3625 301.515 39.3625Z" fill="url(#paint6_linear_54_2)"></path>
  </g>
  <defs>
    <linearGradient id="paint0_linear_54_2" x1="0" y1="41.5215" x2="56.1832" y2="41.5215" gradientUnits="userSpaceOnUse">
      <stop stop-color="#8F5E25"></stop>
      <stop offset="0.5" stop-color="#FBF4A1"></stop>
      <stop offset="1" stop-color="#8F5E25"></stop>
    </linearGradient>
    <linearGradient id="paint1_linear_54_2" x1="14.5156" y1="0" x2="100" y2="0" gradientUnits="userSpaceOnUse">
      <stop stop-color="#8F5E25"></stop>
      <stop offset="0.5" stop-color="#FBF4A1"></stop>
      <stop offset="1" stop-color="#8F5E25"></stop>
    </linearGradient>
    <linearGradient id="paint2_linear_54_2" x1="15.8477" y1="56.7246" x2="42.0969" y2="56.7246" gradientUnits="userSpaceOnUse">
      <stop stop-color="#8F5E25"></stop>
      <stop offset="0.5" stop-color="#FBF4A1"></stop>
      <stop offset="1" stop-color="#8F5E25"></stop>
    </linearGradient>
    <linearGradient id="paint3_linear_54_2" x1="47.6406" y1="42.498" x2="83.7331" y2="42.498" gradientUnits="userSpaceOnUse">
      <stop stop-color="#8F5E25"></stop>
      <stop offset="0.5" stop-color="#FBF4A1"></stop>
      <stop offset="1" stop-color="#8F5E25"></stop>
    </linearGradient>
    <linearGradient id="paint4_linear_54_2" x1="42.3301" y1="35.5703" x2="46.5455" y2="35.5703" gradientUnits="userSpaceOnUse">
      <stop stop-color="#8F5E25"></stop>
      <stop offset="0.5" stop-color="#FBF4A1"></stop>
      <stop offset="1" stop-color="#8F5E25"></stop>
    </linearGradient>
    <linearGradient id="paint5_linear_54_2" x1="37.5312" y1="71.9941" x2="62.9658" y2="71.9941" gradientUnits="userSpaceOnUse">
      <stop stop-color="#8F5E25"></stop>
      <stop offset="0.5" stop-color="#FBF4A1"></stop>
      <stop offset="1" stop-color="#8F5E25"></stop>
    </linearGradient>
    <linearGradient id="paint6_linear_54_2" x1="120" y1="32" x2="320" y2="32" gradientUnits="userSpaceOnUse">
      <stop stop-color="#8F5E25"></stop>
      <stop offset="0.5" stop-color="#FBF4A1"></stop>
      <stop offset="1" stop-color="#8F5E25"></stop>
    </linearGradient>
    <clipPath id="clip0_54_2">
      <rect width="320" height="101.013" fill="white"></rect>
    </clipPath>
  </defs>
</svg>
